<?xml version="1.0" encoding="utf-8"?>
<!-- Generator: Adobe Illustrator 15.0.2, SVG Export Plug-In . SVG Version: 6.00 Build 0)  -->
<!DOCTYPE svg PUBLIC "-//W3C//DTD SVG 1.1//EN" "http://www.w3.org/Graphics/SVG/1.1/DTD/svg11.dtd">
<svg version="1.1" id="Calque_1" xmlns="http://www.w3.org/2000/svg" xmlns:xlink="http://www.w3.org/1999/xlink" x="0px" y="0px"
	 width="64px" height="64px" viewBox="0 0 64 64" enable-background="new 0 0 64 64" xml:space="preserve">
<g>
	<path fill="#FFFFFF" d="M36.521,44.867L36.521,44.867c-0.393,0-0.773-0.067-1.141-0.199l-4.206-1.504
		c-0.149-0.055-0.301-0.063-0.449-0.028l-4.351,1.005c-1.28,0.293-2.638-0.205-3.42-1.228l-2.723-3.54
		c-0.092-0.117-0.222-0.211-0.369-0.266l-4.2-1.502c-1.233-0.445-2.103-1.573-2.214-2.875l-0.374-4.453
		c-0.013-0.15-0.067-0.295-0.157-0.407l-2.727-3.548c-0.797-1.035-0.918-2.453-0.307-3.612l2.097-3.949
		c0.068-0.132,0.101-0.283,0.087-0.431l-0.375-4.455c-0.108-1.307,0.561-2.563,1.701-3.203l3.898-2.188
		c0.129-0.074,0.239-0.186,0.311-0.321l2.092-3.943c0.615-1.156,1.833-1.85,3.164-1.776l4.461,0.26
		c0.19,0.011,0.32-0.032,0.438-0.098l3.898-2.188c1.122-0.632,2.577-0.548,3.622,0.212l3.611,2.631
		c0.123,0.09,0.27,0.141,0.414,0.149l4.469,0.263c1.307,0.077,2.455,0.913,2.934,2.131l1.613,4.168
		c0.059,0.141,0.148,0.262,0.266,0.346l3.621,2.639c1.063,0.773,1.576,2.102,1.311,3.383l-0.896,4.37
		c-0.029,0.146-0.018,0.306,0.037,0.444l1.615,4.164c0.475,1.225,0.188,2.62-0.729,3.557l-3.119,3.194
		c-0.104,0.108-0.176,0.243-0.203,0.391l-0.896,4.377c-0.268,1.285-1.264,2.303-2.535,2.598l-4.357,1.002
		c-0.146,0.035-0.287,0.11-0.396,0.225l-3.113,3.189C38.295,44.497,37.42,44.867,36.521,44.867z M30.91,40.553
		c0.39,0,0.771,0.069,1.137,0.2l4.203,1.504c0.305,0.109,0.619,0.027,0.832-0.19l3.123-3.196c0.459-0.465,1.027-0.782,1.65-0.927
		l4.355-1.002c0.301-0.067,0.535-0.313,0.602-0.615l0.895-4.371c0.129-0.631,0.434-1.208,0.887-1.669l3.119-3.195
		c0.217-0.222,0.285-0.552,0.172-0.843l-1.615-4.161c-0.23-0.599-0.287-1.251-0.16-1.883l0.896-4.373
		c0.064-0.305-0.059-0.617-0.309-0.799L47.088,12.4c-0.51-0.365-0.912-0.882-1.15-1.493L44.32,6.738
		c-0.113-0.286-0.383-0.484-0.691-0.502l-4.467-0.261c-0.641-0.036-1.258-0.256-1.779-0.639l-3.613-2.63
		c-0.248-0.18-0.586-0.199-0.852-0.049l-3.902,2.189c-0.563,0.315-1.207,0.469-1.852,0.42l-4.451-0.259c-0.001,0-0.003,0-0.004,0
		c-0.339,0-0.607,0.161-0.744,0.42L19.873,9.37c-0.303,0.567-0.756,1.034-1.315,1.351l-3.905,2.191
		c-0.268,0.151-0.426,0.447-0.4,0.757l0.375,4.447c0.056,0.632-0.073,1.271-0.373,1.845l-2.101,3.952
		c-0.142,0.271-0.113,0.608,0.075,0.854l2.722,3.541c0.392,0.503,0.632,1.115,0.683,1.765l0.375,4.442
		c0.027,0.309,0.232,0.574,0.526,0.683l4.204,1.505c0.611,0.223,1.135,0.604,1.525,1.107l2.729,3.549
		c0.187,0.242,0.505,0.356,0.809,0.287l4.354-1.004C30.406,40.583,30.658,40.553,30.91,40.553z"/>
	<path fill="#FFFFFF" d="M45.15,23.632C44.588,29.93,39.512,35,33.209,35.561c-8.226,0.73-15.087-6.121-14.355-14.333
		c0.561-6.294,5.639-11.364,11.945-11.924C39.02,8.569,45.883,15.421,45.15,23.632z"/>
	<polygon fill="#FFFFFF" points="31.205,48.296 23.576,64 19.541,58.15 12.442,58.605 19.646,43.78 22.955,48.083 28.25,46.861 	"/>
	<polygon fill="#FFFFFF" points="49.967,58.605 42.869,58.15 38.836,64 31.205,48.296 33.322,47.27 38.076,48.973 42.891,44.041 	
		"/>
</g>
</svg>
