<?xml version="1.0" standalone="no"?>
<!DOCTYPE svg PUBLIC "-//W3C//DTD SVG 1.1//EN" "http://www.w3.org/Graphics/SVG/1.1/DTD/svg11.dtd" >
<svg xmlns="http://www.w3.org/2000/svg">
<metadata></metadata>
<defs>
<font id="feliparegular" horiz-adv-x="839" >
<font-face units-per-em="2048" ascent="1638" descent="-410" />
<missing-glyph horiz-adv-x="524" />
<glyph horiz-adv-x="2048" />
<glyph horiz-adv-x="2048" />
<glyph unicode="&#xd;" horiz-adv-x="681" />
<glyph unicode=" "  horiz-adv-x="524" />
<glyph unicode="&#x09;" horiz-adv-x="524" />
<glyph unicode="&#xa0;" horiz-adv-x="524" />
<glyph unicode="!" horiz-adv-x="733" d="M82 100l147 142q63 -49 138 -166l-144 -131q-2 2 -54 63t-87 92zM244 373q190 776 227 1304l172 107q-49 -352 -77.5 -526.5t-96.5 -418t-174 -487.5z" />
<glyph unicode="&#x22;" horiz-adv-x="757" d="M190 1360q17 340 50 442l139 -39q-31 -121 -89.5 -261t-70.5 -173zM539 1360q16 340 49 442l139 -39q-31 -121 -89 -261t-71 -173z" />
<glyph unicode="#" horiz-adv-x="1290" d="M117 326l110 110h195l51 379h-356l110 111h262l37 272l121 111l-53 -383h244l36 272l119 111l-53 -383h309l-110 -111h-213l-54 -379h342l-110 -110h-246l-49 -363l-119 -110l64 473h-242l-49 -363l-121 -110l64 473h-289zM526 436h244l51 379h-241z" />
<glyph unicode="$" horiz-adv-x="718" d="M-31 68l105 94q88 -76 196 -76q63 0 138 29q0 109 -48.5 215t-105.5 174q-154 180 -154 254q0 199 258 258l35 225l96 66l-38 -277q22 2 65 2q141 0 141 -24q-51 -72 -153 -117q-8 61 -101 61q-55 0 -115.5 -21.5t-84.5 -49.5q0 -57 85 -175t169 -249t84 -211 t-60.5 -137.5t-154.5 -90.5l-41 -258l-97 -65l43 301q-49 -4 -93 -4t-106.5 25.5t-62.5 50.5z" />
<glyph unicode="%" horiz-adv-x="1648" d="M80 1157.5q0 104.5 40 198.5t126 168.5t204.5 74.5t178 -81.5t59.5 -221t-126 -264.5t-275 -125q-86 0 -146.5 73t-60.5 177.5zM127 55q31 41 326 418t486.5 645t369.5 557l100 -102q-160 -264 -548 -748.5t-695 -812.5zM184 1221q0 -227 152 -228q233 0 233 324 q0 80 -41 151.5t-130 71.5t-151.5 -97t-62.5 -222zM903 270.5q0 104.5 40 198.5t126 169t205 75t178 -82t59 -221.5t-125.5 -264.5t-275.5 -125q-86 0 -146.5 73t-60.5 177.5zM1008 334q0 -227 151 -228q233 0 234 324q0 80 -41 151.5t-130 71.5t-151.5 -97t-62.5 -222z" />
<glyph unicode="&#x26;" horiz-adv-x="1429" d="M78 527.5q0 205.5 67.5 392t169 319.5t218 216t201.5 83t131 -41t46 -119q0 -150 -346 -360q295 27 547 26q10 0 274 -6l-124 -118q-53 4 -281 4q-6 -35 -33 -150q-57 -248 -57 -379q0 -256 166 -289q100 70 236.5 218.5t256.5 312.5l19 -12q-164 -229 -334 -414.5 t-283 -230.5q-51 0 -111.5 60t-80.5 185q-166 -199 -289 -241q-111 0 -190.5 47t-120.5 129q-82 162 -82 367.5zM223 612q0 -246 76 -360.5t219 -138.5q90 20 236 163v46q0 324 110 600q-313 0 -585 -60q-10 -4 -27 -12q-29 -121 -29 -238zM272 924q137 63 154 80h2 q324 182 330 309q0 49 -28 77.5t-81 28.5q-90 0 -202 -146t-175 -349z" />
<glyph unicode="'" horiz-adv-x="450" d="M244 1360q16 340 49 442l139 -39q-31 -121 -89 -261t-71 -173z" />
<glyph unicode="(" horiz-adv-x="847" d="M223 584q0 78 10 159q35 285 184.5 546t356.5 382l23 -29q-150 -117 -273 -387q-164 -364 -164 -739q0 -479 256 -655l-26 -31q-201 121 -295 365q-72 178 -72 389z" />
<glyph unicode=")" horiz-adv-x="788" d="M61 -141q150 117 271 387q166 364 166 739q0 479 -256 655l26 31q201 -121 297 -364q70 -178 70 -389q0 -78 -10 -160q-35 -285 -184.5 -546t-356.5 -382z" />
<glyph unicode="*" horiz-adv-x="980" d="M178 1083l242 129l10 37q-68 47 -217 168l123 60l145 -168l23 12l20 203l123 51l-76 -256l15 -14q178 127 239 163l9 -145l-236 -82l-8 -29l188 -133l-102 -71l-129 141l-21 -8l-41 -209l-114 -33l84 246l-13 14l-241 -112z" />
<glyph unicode="+" horiz-adv-x="1271" d="M98 598l111 111h377v374l110 111v-485h498l-111 -111h-387v-389l-110 -111v500h-488z" />
<glyph unicode="," horiz-adv-x="557" d="M123 135q106 133 123 137q43 -35 84 -90t53 -80q-4 -31 -57.5 -127t-143.5 -211l-30 23q109 145 108 178q-12 20 -68.5 78.5t-68.5 91.5z" />
<glyph unicode="-" horiz-adv-x="819" d="M92 600l58 109h16q283 0 600 65l-64 -110q-283 -63 -591 -64h-19z" />
<glyph unicode="." horiz-adv-x="552" d="M125 133l147 141q63 -49 138 -165l-144 -132q-2 2 -54 63.5t-87 92.5z" />
<glyph unicode="/" horiz-adv-x="892" d="M115 -59q41 106 188 469q320 786 465 1306l100 -102q-104 -346 -370.5 -1020t-298.5 -764z" />
<glyph unicode="0" horiz-adv-x="1083" d="M86 379q0 279 165 482.5t398 203.5q172 0 256 -104.5t84 -268.5q0 -279 -181 -483.5t-423 -204.5q-152 0 -225.5 105.5t-73.5 269.5zM180 487.5q0 -174.5 88 -274.5t217 -104q133 2 226 88q162 154 161 434q0 137 -86 241.5t-227 104.5t-260 -157.5t-119 -332z" />
<glyph unicode="1" horiz-adv-x="651" d="M131 811q51 55 150.5 133t167.5 119q31 0 30.5 -64.5t-18 -175t-59.5 -357.5t-60 -374l-100 -125q-14 10 -15 45q0 170 57.5 492.5t69.5 423.5q-47 -25 -207 -142z" />
<glyph unicode="2" horiz-adv-x="901" d="M-29 31q66 35 181 131q227 195 342.5 341t115.5 263q0 178 -182 178q-137 0 -293 -82l-22 33q207 156 383 156q96 0 161.5 -51.5t65.5 -159.5q0 -172 -145.5 -355.5t-354.5 -343.5l4 -12h357q160 0 272 80l16 -31q-133 -113 -223 -180l-663 2z" />
<glyph unicode="3" horiz-adv-x="866" d="M-123 -154l74 129q193 -98 332 -98t196 33q92 96 92 209.5t-66.5 184.5t-191.5 77l-20 35l72 47q61 41 98 69.5t73.5 82t36.5 128t-54 143t-151.5 68.5t-258.5 -92l-23 39q256 152 363.5 152t174 -63.5t66.5 -188.5q0 -86 -69.5 -181.5t-169.5 -162.5l2 -6q10 2 28 2 q98 0 156.5 -70t58.5 -154q0 -147 -80.5 -257.5t-187 -159t-211.5 -48.5q-207 0 -340 82z" />
<glyph unicode="4" horiz-adv-x="944" d="M-82 53q94 72 316.5 382t306.5 499q63 78 149 129q35 0 35 -64q0 -227 -131 -868q178 0 315 27l11 -31q-123 -72 -342 -88q-25 -150 -48 -268l-98 -123q-16 12 -16 46t43 341h-412q-49 0 -115 -10zM78 127l6 -6q64 6 160 6l108 -2q70 0 121 2q115 678 127 776l-4 6 q-72 -178 -229.5 -412.5t-288.5 -369.5z" />
<glyph unicode="5" horiz-adv-x="948" d="M-25 -244l86 125q201 -96 361 -96q102 0 168.5 59.5t66.5 200.5q0 268 -280 268q-86 0 -207 -34l-16 24q39 410 102 639q23 29 64.5 64t70.5 47l258 2q61 0 221 -4q-57 -53 -122 -125q-147 -6 -240.5 -6t-151.5 10l-12 -8q-70 -276 -102 -551l6 -11q129 78 253 78 t200.5 -82t76.5 -224t-81 -252.5t-187.5 -158t-199.5 -47.5t-184 22.5t-151 59.5z" />
<glyph unicode="6" horiz-adv-x="1030" d="M96 385q0 166 62.5 325.5t169 295t267.5 222.5t339 87q66 0 113 -19l-119 -139q-43 8 -94 8q-295 0 -456 -193.5t-161 -498.5q0 -176 88 -275.5t232 -99.5q109 0 170 91.5t61 205.5q0 258 -246 258q-88 0 -203 -67l-14 35q63 59 154.5 104t167.5 45q121 0 183 -79 t62 -204q0 -164 -134 -334.5t-298 -170.5t-254 118.5t-90 284.5z" />
<glyph unicode="7" horiz-adv-x="864" d="M43 874l78 166q254 -18 408.5 -18t267.5 8l16 -20q-156 -297 -289 -659.5t-176 -573.5l-164 -90l-18 20q215 739 510 1165l-12 27q-61 -2 -234.5 -15.5t-260.5 -13.5t-126 4z" />
<glyph unicode="8" horiz-adv-x="985" d="M76 297q0 127 87 229.5t251 221.5q-96 96 -137 156t-41 134q0 115 130 206t265 91q88 0 141 -47t53 -143q0 -55 -41 -123t-78.5 -106.5t-121.5 -122.5q133 -104 197.5 -192.5t64.5 -224.5t-136.5 -258t-290 -122t-248.5 87t-95 214zM215 332.5q0 -109.5 71.5 -180 t190.5 -70.5t190.5 71.5t71.5 176t-62.5 179.5t-209.5 191q-123 -92 -187.5 -175t-64.5 -192.5zM338 1092q0 -94 192 -254q68 53 118 127.5t50 142.5t-52 107.5t-124.5 39.5t-128 -44t-55.5 -119z" />
<glyph unicode="9" horiz-adv-x="1013" d="M53 -240l117 150q160 0 278.5 49t186.5 135q131 170 131 436q0 213 -82 322t-214 109t-203.5 -91.5t-71.5 -213t70.5 -187.5t177 -66t221.5 66l14 -35q-59 -66 -147.5 -107.5t-163.5 -41.5q-139 0 -208 84t-69 217q0 193 143 342t338 149q152 0 234 -113.5t82 -318.5 q0 -256 -125 -477q-68 -117 -162 -207t-235.5 -145.5t-311.5 -55.5z" />
<glyph unicode=":" horiz-adv-x="624" d="M123 133l147 141q63 -49 138 -165l-144 -132q-2 2 -54 63.5t-87 92.5zM201 901l147 141q63 -49 137 -165l-143 -132q-2 2 -54 63.5t-87 92.5z" />
<glyph unicode=";" horiz-adv-x="638" d="M123 135q106 133 123 137q43 -35 84 -90t53 -80q-4 -31 -59.5 -127t-147.5 -213l-24 25q109 145 108 178q-12 20 -68.5 78.5t-68.5 91.5zM186 901l148 141q63 -49 137 -165l-143 -132q-2 2 -54.5 63.5t-87.5 92.5z" />
<glyph unicode="&#x3c;" horiz-adv-x="1368" d="M207 514v21q437 286 883 450l79 -82q-377 -143 -755 -368v-37q387 -236 780 -414l-72 -61q-586 256 -915 491z" />
<glyph unicode="=" horiz-adv-x="1294" d="M59 248l111 110h985l-111 -110h-985zM135 633l111 110h985l-111 -110h-985z" />
<glyph unicode="&#x3e;" horiz-adv-x="1284" d="M113 84q393 178 780 414v37q-379 225 -756 368l80 82q446 -164 883 -450v-21q-330 -236 -916 -491z" />
<glyph unicode="?" horiz-adv-x="886" d="M143 100l148 142q63 -49 137 -166l-143 -131q-2 2 -54.5 63t-87.5 92zM145 510q0 98 63.5 182t145.5 152.5t164 142.5t139.5 171t57.5 198.5t-41 162t-111 60.5q-125 0 -231 -90l-6 31q147 147 276 147q254 0 254 -223q0 -111 -62.5 -214.5t-144.5 -183t-162 -155.5 q-193 -180 -192.5 -295t35.5 -172q-113 -70 -142 -119l-8 2q-35 92 -35 203z" />
<glyph unicode="@" horiz-adv-x="1826" d="M154 510q0 164 64.5 326.5t181 296t295.5 215.5t390 82q283 0 428.5 -153t145.5 -376q0 -158 -68.5 -302t-203 -240.5t-304.5 -96.5q-53 0 -100 8q4 41 29.5 185.5t25.5 226.5q-211 -322 -432 -412q-25 51 -24 209v10q0 207 131 373q68 86 157 121q88 29 322 29 q41 0 41 -33q-20 -98 -83 -311t-89 -318q244 37 365.5 166t121.5 299q0 260 -142 402.5t-425 142.5q-211 0 -373 -113.5t-241.5 -286t-79.5 -364.5q0 -322 163.5 -503t507.5 -181q279 0 566 264l18 -24q-279 -305 -633 -306q-193 0 -342 56.5t-237 152.5q-176 193 -176 455z M702 469q84 2 165 79t133.5 182.5t66.5 205.5q-153 0 -231 -18q-70 -59 -102 -190.5t-32 -258.5z" />
<glyph unicode="A" horiz-adv-x="1378" d="M-195 -16l97 131q74 -19 158 -19h3q83 0 131 39t117.5 156t297 548.5t325.5 585.5l-217 7q-199 0 -275 -43q-33 -18 -70.5 -55.5t-58.5 -90.5q-49 -127 -49 -317q-63 -43 -141 -111q0 395 260 608q152 123 420 123q6 0 338 -18q-59 -119 -60 -660q0 -467 19.5 -582.5 t41 -144t73 -28.5t147.5 57l8 -16q-111 -98 -240 -177q-92 0 -126 70q-20 41 -33 78t-21 119q-8 111 -12 319h-373q-14 -27 -45 -92q-66 -129 -100 -176q-227 -311 -488 -311h-127zM629 664h307q-2 76 -2 200.5t2 252.5t2 134q-61 -111 -166.5 -315.5t-142.5 -271.5z" />
<glyph unicode="B" horiz-adv-x="1374" d="M-18 713q0 356 211 587q106 115 277 179.5t386 64.5t317.5 -71.5t102.5 -176t-74 -222.5t-182 -191q145 -25 215 -97.5t70 -193.5t-100.5 -263.5t-262.5 -235.5t-324 -93h-446l-8 16q178 37 235 346q37 193 72 416t53 326q41 252 101 332l2 2q-225 -4 -368.5 -158 t-143.5 -453zM395 133l8 -16h304q211 0 332.5 113.5t121.5 254t-93 231.5t-267 95h-45l59 76l23 26q34 -14 75 -14q84 0 143.5 86t59.5 195.5t-72.5 186.5t-222.5 77l-84 -4q-16 -33 -26 -88q-137 -831 -162 -962.5t-154 -256.5z" />
<glyph unicode="C" horiz-adv-x="1069" d="M74 463q0 236 107.5 485.5t290 419.5t372.5 170q141 0 278 -41l-118 -154q-113 80 -232 107q-139 -2 -270 -125t-210 -315.5t-79 -380t81 -333.5t232 -183q139 25 361 190l18 -16q-74 -92 -194.5 -184.5t-221.5 -118.5q-141 0 -239 73q-176 135 -176 406z" />
<glyph unicode="D" horiz-adv-x="1499" d="M23 713q0 289 124 491q132 215 398 297q139 43 300 43t272.5 -43t174.5 -117q125 -147 125 -372q0 -162 -65.5 -339t-176 -327.5t-277.5 -248t-349 -97.5h-369l-8 16q178 37 236 346q37 195 71.5 417t52.5 327q41 250 101 332q-168 0 -316 -144q-72 -70 -116.5 -191.5 t-44.5 -275.5zM403 133l9 -16h282q166 0 303.5 120.5t209 298t71.5 326t-27.5 244.5t-87.5 174q-123 164 -413 164q-25 -51 -35 -113.5t-39 -253.5q-49 -311 -117 -696q-20 -119 -156 -248z" />
<glyph unicode="E" horiz-adv-x="1280" d="M-16 815q0 233 84 399t286 283q72 41 305 41h322q244 0 311 2l-114 -121l-476 2q-14 -39 -20 -69l-70 -441h29l242 -8q106 0 198 21l11 -9q-37 -53 -97.5 -94t-130.5 -41l-274 4q-39 -252 -67.5 -390t-155.5 -261l8 -16l485 -4q16 -2 35 -2q147 0 264 82l8 -17 q-166 -127 -239 -178l-785 2l-8 16q178 37 236 346q37 193 69.5 405t48.5 316q41 256 91 338h-84q-205 0 -288 -111.5t-83 -383.5z" />
<glyph unicode="F" horiz-adv-x="1241" d="M-18 -16l96 131q74 -19 142 -19h1q67 0 99 34t53 134q43 227 86 518t70.5 435.5t64.5 203.5h-84q-205 0 -288 -111.5t-83 -383.5l-141 -111q0 233 84 399t287 283q72 41 305 41h321q244 0 312 2l-115 -121l-475 2q-14 -39 -21 -69l-69 -441h37l233 -8q106 0 199 21l10 -9 q-37 -53 -97 -94t-130 -41l-275 4q-12 -76 -33.5 -192.5t-25.5 -142.5q-41 -236 -157 -351.5t-284 -115.5h-12z" />
<glyph unicode="G" horiz-adv-x="1230" d="M72 520q0 176 66.5 354.5t182 333t264 251.5t289.5 97q207 0 343 -30l-105 -127q-141 57 -300 57t-303 -140t-221 -345t-77 -394.5t79 -310.5t236 -157q152 27 287 176q12 61 31 178q45 258 61 305q-229 0 -303 -35l-22 17l170 127q61 6 352 6l2 -9q-29 -16 -58.5 -63 t-39.5 -115q-86 -506 -134.5 -666.5t-185.5 -310.5l8 -16q96 -12 192.5 -12t176.5 10l8 -16q-94 -66 -137 -95l-471 -4l-8 17q129 82 209.5 215t140.5 401q-123 -184 -318 -239q-266 0 -364 237q-51 127 -51 303z" />
<glyph unicode="H" horiz-adv-x="1640" d="M-18 815q0 233 84 399t286 283q67 39 303 39h193l2 -6q-20 -14 -49 -60.5t-55.5 -137.5t-69.5 -427l618 -2q43 270 62.5 366.5t54.5 151.5q-43 2 -122 2t-177 -14l-2 4q63 76 143 100.5t250 24.5h111l2 -6q-78 -49 -100 -180q-10 -63 -68.5 -416.5t-91.5 -554.5 q-20 -119 -156 -248l8 -16h125q147 0 260 76l9 -17q-68 -55 -92.5 -76.5t-47 -40t-35 -26.5t-26.5 -17q-27 -18 -39 -18q-250 0 -385 2l-8 16q178 37 235 346q25 131 76 439l-621 4q-35 -229 -57 -356q-43 -236 -158.5 -351.5t-281.5 -115.5h-12l-111 2l96 131 q75 -19 141 -19h1q65 0 95 33t52 135q47 250 92 543t70.5 428t56.5 186l-154 2h-6q-195 0 -277.5 -113.5t-82.5 -383.5z" />
<glyph unicode="I" horiz-adv-x="903" d="M-10 815q0 233 84 399t286 283q72 41 297 41h185l2 -6q-78 -49 -101 -180q-14 -84 -43 -275q-49 -311 -116 -696q-29 -127 -156 -248l8 -16q49 -2 118 -2t149.5 11t160.5 67l8 -17q-208 -176 -239 -178l-428 2l-8 16q178 37 235 346q49 270 94 556t66.5 374t46.5 129 h-137q-205 0 -288 -111.5t-83 -383.5z" />
<glyph unicode="J" horiz-adv-x="1030" d="M-111 -246l119 80q43 -41 69.5 -62.5t81 -48t105.5 -26.5q106 0 185 90t104 266q82 582 203 1264q12 68 43 104h-142q-205 0 -287.5 -111.5t-82.5 -383.5l-142 -111q0 233 84 399t287 283q72 41 295 41h184l2 -6q-31 -18 -59.5 -65.5t-38.5 -114.5q-92 -623 -227 -1329 q-27 -135 -150 -265.5t-291 -171.5q-121 0 -297 135q-43 31 -45 33z" />
<glyph unicode="K" horiz-adv-x="1482" d="M-12 815q0 233 84 399t286 283q68 39 304 39h192l2 -6q-20 -14 -49 -60.5t-51.5 -123t-53 -259t-57.5 -382t-37 -256.5q-43 -231 -155.5 -348t-282.5 -117h-125l96 131q75 -19 141 -19h1q65 0 96 33t51 135q47 250 92 543t70.5 429t56.5 187h-164q-195 0 -275.5 -115.5 t-80.5 -381.5zM737 694q0 190 56.5 345t135.5 245t173 152q158 104 261.5 104t158.5 -74l-154 -102q-76 39 -155.5 39t-150.5 -60.5t-108 -150.5q-76 -178 -75 -334q123 -258 291.5 -540.5t314.5 -477.5l-72 -71q-340 369 -676 925z" />
<glyph unicode="L" horiz-adv-x="858" d="M-102 16q178 37 235 346q55 287 85 508.5t38 276.5q25 152 175.5 272.5t316.5 120.5q113 0 204 -72l-121 -102q-125 94 -219 94q-154 0 -196 -254q-33 -186 -76 -475t-55 -350q-25 -123 -156 -248l8 -16q152 0 352 -148q84 -61 166 -125q199 -147 338 -147q106 0 197 92 l18 -16q-41 -78 -129 -125t-176 -47t-180 43t-178 103t-172 122q-203 147 -342 147q-59 0 -125 -16z" />
<glyph unicode="M" horiz-adv-x="2031" d="M-59 -14l96 131q75 -19 145 -19h4q68 0 114 16q48 16 80 55.5t47 69t38 91.5l391 1050q13 33 29 47l-215 7q-199 0 -275 -43q-33 -18 -70.5 -55.5t-58.5 -90.5q-49 -127 -49 -317q-63 -43 -141 -111q0 395 260 608q152 123 420 123q63 0 336 -20q36 -379 36 -898v-28 v-229q74 250 196 511t262 454.5t245 215.5q-76 -676 -76 -1048q0 -211 25 -371q82 0 178 58l8 -17q-147 -129 -319 -209q-39 193 -39 488q0 446 73 796q-152 -127 -311 -465q-92 -197 -206.5 -455.5t-164.5 -369.5l-8 2l2 107q0 209 -20.5 675.5t-20.5 540.5v25l-366 -957 q-61 -160 -198.5 -264t-321.5 -104h-125z" />
<glyph unicode="N" horiz-adv-x="1656" d="M-59 815q0 233 84 399t286 283q67 39 303 39h181q246 -670 395 -1305q20 121 65 429.5t82 495.5t78 265q-43 2 -122 2t-177 -14l-2 4q63 76 143 100.5t250 24.5h111l2 -6q-78 -49 -100 -180l-156 -906q-35 -203 -93.5 -308t-176.5 -158l-9 16l56 31q-84 256 -221.5 647 t-227.5 667q-33 -158 -67.5 -447.5t-59.5 -426.5q-43 -236 -158.5 -351.5t-281.5 -115.5h-12l-111 2l96 131q74 -18 140.5 -18t97.5 32.5t51 135.5q49 256 91 542.5t65.5 418.5t52.5 177l-147 2h-7q-195 0 -277.5 -113.5t-82.5 -383.5z" />
<glyph unicode="O" horiz-adv-x="1191" d="M72 485q0 340 216 658.5t519 398.5q156 -45 231.5 -190.5t75.5 -353t-92 -422t-257 -375t-359 -211.5q-166 43 -250 176t-84 319zM211 608q0 -178 74.5 -313t226.5 -191q199 59 331 290t132 485q0 193 -67.5 340t-207.5 208q-209 -63 -349 -308t-140 -511z" />
<glyph unicode="P" horiz-adv-x="1337" d="M-18 713q0 356 211 587q106 115 277 179.5t394 64.5t343 -80t120 -213q0 -100 -61.5 -220t-182 -212t-262.5 -92q-31 0 -45 2l82 102q35 -14 76 -14q117 0 178.5 93.5t61.5 223.5t-99.5 220t-279.5 90h-39q-23 -47 -34 -111.5t-42 -255.5q-47 -311 -115 -696 q-20 -119 -155 -248l8 -16h125q147 0 260 76l8 -17q-68 -55 -92.5 -76.5t-47 -40t-34.5 -26.5t-27 -17q-27 -18 -39 -18q-250 0 -385 2l-8 16q178 37 236 346q55 303 98 573.5t68.5 364t60.5 138.5q-229 0 -377.5 -152.5t-148.5 -458.5z" />
<glyph unicode="Q" horiz-adv-x="1329" d="M10 59l166 103q78 -31 154 -31q133 0 271 79t241.5 196.5t169 259t65.5 281.5t-67.5 280.5t-204.5 199.5q-524 0 -524 -550q0 -227 192 -308l-125 -112q-94 33 -150.5 121t-56.5 213q0 309 217 530t553 221q154 -45 228.5 -185t74.5 -323q0 -268 -209.5 -534.5 t-490.5 -403.5q41 -16 158 -76q225 -116 366 -116h2q92 0 236 69l20 -22q-215 -164 -393 -164q-133 0 -338 135q-74 51 -188.5 94t-203.5 43t-155 -16z" />
<glyph unicode="R" horiz-adv-x="1476" d="M-12 713q0 356 213 587q104 115 275 179.5t394.5 64.5t343 -80t119.5 -222t-117.5 -268t-318.5 -173q317 -618 594 -963l-61 -69q-406 440 -728 1015l68 72h80q156 0 243 83t87 204t-99.5 211t-279.5 90h-39q-23 -47 -34 -111.5t-40 -255.5q-49 -311 -117 -696 q-20 -119 -155 -248l8 -16h125q147 0 260 76l8 -17q-68 -55 -92.5 -76.5t-47 -40t-34.5 -26.5t-27 -17q-27 -18 -38 -18q-250 0 -385 2l-9 16q178 37 236 346q55 303 98 573.5t68.5 364t60.5 138.5q-229 0 -377.5 -152.5t-148.5 -458.5z" />
<glyph unicode="S" horiz-adv-x="1009" d="M-51 78l117 131q172 -109 309 -109q98 0 181 88t83 181.5t-64.5 207t-142.5 204.5t-142.5 202t-64.5 197q0 159 139.5 267.5t310.5 108.5t314 -53l-117 -135q-135 61 -274 62q-260 0 -260 -117q0 -76 66.5 -181.5t146.5 -196.5t146.5 -200.5t66.5 -189.5 q0 -227 -147.5 -394t-347 -167t-320.5 94z" />
<glyph unicode="T" horiz-adv-x="1175" d="M-12 815q0 233 84 399t286 283q55 33 163 37t286 4h321q211 0 271 2l-115 -121l-434 2q-14 -39 -21 -69q-135 -836 -159 -971q-29 -127 -156 -248l8 -16l111 -6q186 0 299 82l8 -17q-166 -127 -240 -178l-409 2l-8 16q178 37 235 346q37 193 70 405t49 316q41 256 90 338 h-227q-205 0 -288 -111.5t-83 -383.5z" />
<glyph unicode="U" horiz-adv-x="1644" d="M-18 815q0 233 84 399t286 283q67 39 303 39h193l2 -6q-20 -14 -49 -60.5t-45 -105.5q-147 -803 -148 -981q0 -250 164 -250q70 0 146.5 73t136.5 175q127 223 159 379l132 661q14 37 55 63.5t70.5 35t80.5 18.5l2 -6q-78 -49 -100 -180q-12 -72 -47 -271 q-117 -670 -117 -763t42 -138t113 -45t167 58l8 -17q-111 -98 -240 -176q-211 2 -211 289q0 88 25 235h-10q-72 -197 -238 -361.5t-293 -164.5q-194 0 -194 325q0 112 18.5 227.5t38.5 264.5l33 229q31 209 52.5 277t41.5 102h-164q-195 0 -275.5 -115.5t-80.5 -381.5z" />
<glyph unicode="V" horiz-adv-x="1413" d="M-31 817q0 295 178 514t422 219q106 0 166 -100q66 -113 85.5 -240t28.5 -216t15 -220q6 -180 6 -500q18 63 59.5 144.5t168.5 318.5q291 547 291 617q0 47 -74 47h-117l-2 8l150 92h79q117 0 117 -82q0 -53 -98 -241.5t-153.5 -290t-116 -210t-148.5 -267t-178 -353.5 l-137 -75q23 166 23 386v10q0 226 -13.5 392t-42.5 321.5t-85 249t-132 93.5q-113 0 -221 -97q-57 -51 -93 -157.5t-36 -251.5q-63 -43 -142 -111z" />
<glyph unicode="W" horiz-adv-x="2002" d="M-31 817q0 295 178 514t422 219q293 0 293 -811q0 -209 -18 -426q115 203 268.5 580t206.5 502l240 147l12 -14q-150 -176 -150 -520q0 -193 54 -729q104 139 260.5 498.5t156.5 527.5q0 96 -65 96h-96l-2 8l155 92h80q117 0 117 -57v-8q-35 -176 -126 -406.5 t-169 -382.5q-115 -229 -311 -596l-74 -71q-61 315 -85 513.5t-24 493.5v113q-164 -399 -241.5 -563t-245.5 -480l-141 -75l14 116q31 242 31 553q0 782 -248 783q-113 0 -221 -97q-57 -51 -93 -157.5t-36 -251.5q-63 -43 -142 -111z" />
<glyph unicode="X" horiz-adv-x="1531" d="M-41 0l96 133q74 -18 164 -18t155.5 48t148.5 163.5t306 466.5l-12 53q-88 399 -160 522q-41 70 -90 102q-147 0 -217.5 -103t-70.5 -327l-142 -110q0 260 131 440t389 180q82 0 134 -88q59 -104 83 -192q33 -127 60 -250l10 -47q6 8 21.5 38.5t51.5 92t65.5 112t86 129 t99.5 113.5t103.5 63.5t147.5 28.5t162 -41l-100 -125q-111 78 -170 78q-80 0 -151 -121q-53 -90 -281 -507l12 -58q43 -215 135.5 -440t163.5 -225q106 0 281 143l18 -16q-68 -80 -165 -154t-195 -100q-184 0 -363 649q-133 -197 -250 -330q-184 -213 -380 -276 q-80 -27 -152 -27h-125z" />
<glyph unicode="Y" horiz-adv-x="1380" d="M-31 -207l119 86q133 -123 260 -123q98 0 193.5 122t261.5 437q-14 51 -61.5 239.5t-75 292t-70.5 251.5q-84 287 -154 372q-137 0 -202.5 -103t-65.5 -327l-141 -110q0 242 129 431t309 189q68 0 126 -72.5t113.5 -253t77.5 -274.5q63 -258 105 -467 q279 485 363.5 652.5t84.5 203t-37.5 49t-150.5 13.5l-2 8l154 92h79q113 0 113 -82q0 -92 -311 -641q-133 -233 -137 -241q-248 -465 -389.5 -641.5t-348.5 -270.5q-154 20 -342 168z" />
<glyph unicode="Z" horiz-adv-x="1099" d="M-51 104q272 289 423.5 454t341 393.5t314.5 412.5q-53 -6 -94 -6q-113 0 -256 52t-215 52t-115 -12q-102 -94 -102 -346l-142 -111q0 217 99 379q51 84 145 133t209 49t252 -42t213 -42q129 0 297 76l14 -14q-199 -180 -571 -705q-133 -188 -290 -370.5t-271 -255.5 l8 -17q111 0 231.5 -56t208.5 -122.5t207 -123t224.5 -56.5t174.5 111l25 -7q-27 -96 -124 -158.5t-199.5 -62.5t-222.5 61.5t-218 136.5t-220 136t-197.5 61t-141.5 -16z" />
<glyph unicode="[" horiz-adv-x="860" d="M231 -180q88 761 250 1859h424l-37 -47h-262q-168 -1124 -246 -1763h302l-39 -49h-392z" />
<glyph unicode="\" horiz-adv-x="1001" d="M133 1614l100 102q281 -1016 568 -1775l-84 -111q-248 678 -584 1784z" />
<glyph unicode="]" horiz-adv-x="847" d="M-12 -180l39 49h272q123 864 236 1763h-295l36 47h394q-102 -809 -258 -1859h-424z" />
<glyph unicode="^" horiz-adv-x="1376" d="M111 651q278 385 600 776q371 -512 499 -739l-92 -90q-33 47 -463 659q-174 -246 -520 -634z" />
<glyph unicode="_" horiz-adv-x="1302" d="M125 -113l111 111h1001l-111 -111h-1001z" />
<glyph unicode="`" d="M174 1552h16q158 0 281 -143q53 -63 145 -192l-30 -37q-154 178 -252 237q-35 20 -80 38t-49 18z" />
<glyph unicode="a" d="M6 237.5q0 176.5 54.5 373t160.5 305t299 108.5q147 0 199 -10l-12 -60q-18 -94 -52 -282q-51 -344 -123 -561l7 -5q178 129 430 480l20 -15q-147 -215 -296.5 -381.5t-250.5 -209.5q-2 25 -2 97.5t10.5 149t34 185t35.5 178.5l-6 4q-127 -215 -233.5 -357.5 t-247.5 -267.5q-27 92 -27 268.5zM133 282.5q0 -108.5 12 -145.5q20 0 65.5 68.5t47.5 70.5q78 96 195.5 318.5t117.5 312.5q-43 12 -127 13q-163 0 -212.5 -63.5t-74 -264.5t-24.5 -309.5z" />
<glyph unicode="b" horiz-adv-x="786" d="M35 104q10 90 149 1137q25 186 168.5 344t309.5 158q59 0 100 -10l-84 -111q-57 12 -116.5 12t-97.5 -20.5t-63.5 -60.5t-44 -79.5t-31 -102t-18.5 -101.5q-12 -61 -24 -185q-10 -66 -38 -322.5t-34 -293.5q276 508 453 590q18 -14 32.5 -67.5t14.5 -139.5t-20.5 -207 t-69 -242.5t-121 -214t-187 -149.5t-256.5 -57q-22 39 -22 115v7zM139 117q1 -31 101 -31q154 0 251 174t97 418q0 104 -31 182q-141 -143 -269 -342t-149 -401z" />
<glyph unicode="c" horiz-adv-x="636" d="M12 390q0 134 55.5 267.5t134.5 216t155.5 131t125.5 48.5q100 0 160 -56l-90 -106q-47 80 -123 80q-113 0 -195.5 -176.5t-82.5 -404.5t135 -302q211 152 485 549l21 -12q-154 -229 -315 -414.5t-269 -230.5q-55 0 -117 65q-35 39 -57.5 125t-22.5 220z" />
<glyph unicode="d" horiz-adv-x="860" d="M6 220.5q0 148.5 49 348.5q70 229 176.5 343t282.5 114q43 0 70 -10l39 225q33 188 173 345t304 157q59 0 100 -10l-84 -111q-57 12 -120.5 12t-106.5 -30.5t-67.5 -71.5t-44 -110.5t-27 -115.5t-16.5 -123t-18 -130.5t-37 -283.5t-56.5 -392t-71.5 -266l6 -5 q172 125 430 480l21 -15q-147 -215 -297 -381.5t-250 -209.5q-4 49 -4 111.5t29.5 226t34.5 208.5t16 64l-7 4q-8 -12 -85.5 -139t-120.5 -190.5t-124 -152.5t-153 -128q-41 88 -41 236.5zM143 269q0 -81 21 -142q274 291 405 774q-45 21 -131 21q-139 0 -193.5 -73 t-78 -286t-23.5 -294z" />
<glyph unicode="e" horiz-adv-x="610" d="M10 378.5q0 151.5 79 313.5t192.5 261.5t217 99.5t103.5 -82q0 -199 -452 -500q-2 -23 -3 -57q0 -231 140 -334q203 156 454 506l21 -15q-147 -215 -297 -381.5t-250 -209.5q-102 25 -153.5 136t-51.5 262.5zM160 520q127 82 225 199t98 184.5t-55 67.5q-102 0 -170 -127 t-98 -324z" />
<glyph unicode="f" horiz-adv-x="458" d="M-389 -428l78 113q61 -16 125 -17q195 0 235 316q6 49 127 938l-188 -9q55 94 57 95q63 2 145 6q12 102 21 153q35 258 170 417t309 159q86 0 141 -31l-83 -110q-73 33 -148 33q-1 0 -2 -1q-76 0 -119 -30.5t-67.5 -71.5t-44 -110.5t-26.5 -115.5t-16.5 -123 t-15.5 -106.5t-8 -56.5l270 14q-23 -59 -24 -59q-63 -31 -258 -45q-59 -500 -100.5 -785.5t-167 -435t-320.5 -149.5q-45 0 -90 12z" />
<glyph unicode="g" horiz-adv-x="854" d="M-53 -422l80 125q88 -27 166 -27q145 0 206.5 58.5t89.5 281.5q70 549 84 574l-6 4q-6 -10 -47 -80t-59.5 -99.5t-60.5 -95t-72.5 -104.5t-73.5 -88q-82 -98 -170 -143q-41 88 -41 234.5t49 350.5q111 457 459 457h186q-14 -104 -49 -393t-61 -479q-39 -285 -169 -439.5 t-354 -154.5q-84 0 -157 18zM180 269q0 -81 21 -142q274 291 405 774q-45 21 -131 21q-139 0 -193.5 -73t-78 -286t-23.5 -294z" />
<glyph unicode="h" horiz-adv-x="911" d="M47 111q0 14 4 39l150 1091q25 176 169 339t308 163q59 0 100 -10l-84 -111q-57 12 -116.5 12t-97.5 -19.5t-64.5 -61.5t-44 -79.5t-30.5 -102t-19.5 -100.5t-13.5 -103.5t-9 -82.5l-92 -700q322 578 512 668q35 -27 35 -172.5t-70 -432t-78 -337.5l4 -5q178 129 430 480 l21 -15q-147 -215 -297 -381.5t-250 -209.5q-4 49 -4 77q0 129 47 396.5t47 412.5q-129 -115 -273.5 -355.5t-236.5 -530.5q-47 53 -47 131z" />
<glyph unicode="i" horiz-adv-x="452" d="M39 823l4 23q14 20 40 52t97.5 89t134.5 68q-12 -80 -43 -310q-61 -467 -120 -632l4 -7q176 125 430 480l22 -15q-147 -215 -297 -381.5t-252 -209.5q-4 49 -4 116.5t16.5 185t53.5 317.5t57 329zM227 1225q20 55 25 182l108 98q2 -16 2 -75q0 -135 -135 -205z" />
<glyph unicode="j" horiz-adv-x="407" d="M-416 -432l84 131q57 -12 114.5 -12t92.5 13t59.5 31.5t45 57.5t32 68.5t22.5 89t16 96.5t15.5 112.5t16.5 116.5l96 656l-143 -105l4 23q14 20 39.5 52t97.5 89t135 68l-96 -715q-51 -381 -195.5 -581.5t-334.5 -200.5q-59 0 -101 10zM236 1219q20 55 24 182l109 98 q2 -16 2 -76q0 -135 -135 -204z" />
<glyph unicode="k" horiz-adv-x="931" d="M41 119q0 20 2 31l150 1091q25 176 169 339t308 163q59 0 100 -10l-84 -111q-57 12 -121.5 12t-108.5 -33.5t-70 -78.5t-44 -119q-43 -172 -43 -252l-57 -461q78 158 194.5 260.5t239.5 102.5q98 0 98 -103q0 -223 -303 -379q29 -70 78 -236.5t61 -228.5 q78 43 218.5 189.5t242.5 290.5l21 -15q-147 -215 -297 -381.5t-250 -209.5q-49 84 -136 294.5t-112 264.5q160 66 261 159t101 197q0 76 -61 76q-72 0 -129 -53.5t-117.5 -158t-95.5 -204.5t-53.5 -178t-46 -206t-43.5 -189q-72 47 -72 137z" />
<glyph unicode="l" horiz-adv-x="462" d="M37 94.5q0 65.5 27.5 268t73.5 485t63 393.5q25 174 168 338t309 164q59 0 100 -10l-84 -111q-57 12 -120.5 12t-106.5 -30.5t-67.5 -71.5t-44 -110.5t-26.5 -115.5t-16.5 -123t-18.5 -131.5t-36 -281.5q-57 -489 -127 -659l6 -5q197 141 467 531l21 -12 q-154 -229 -314.5 -414.5t-269.5 -230.5q-4 49 -4 114.5z" />
<glyph unicode="m" horiz-adv-x="1333" d="M39 823l4 23q14 20 40 52t97.5 89t134.5 68q-14 -86 -42.5 -318.5t-49.5 -343.5l6 -4q106 225 239.5 417t242.5 247q37 -29 37 -130.5t-45.5 -291t-51.5 -238.5l6 -4q106 225 239.5 416.5t242.5 247.5q35 -29 35 -161t-69 -424t-79 -357l6 -5q182 131 430 480l21 -15 q-141 -209 -292 -378.5t-255 -212.5q-4 49 -4 77q0 131 46 395.5t46 403.5l-8 4q-119 -117 -256 -356.5t-219 -523.5q-45 41 -45 102q0 37 50 325.5t50 448.5l-8 4q-119 -117 -256 -356.5t-219 -523.5q-47 53 -47 120.5t16 194.5t33.5 232.5t40 243.5t24.5 147l-6 4z" />
<glyph unicode="n" horiz-adv-x="933" d="M41 823l4 23q14 20 40 52t97.5 89t134.5 68q-14 -86 -42.5 -318.5t-49.5 -343.5l6 -4q121 236 257 423.5t251 240.5q35 -29 35 -162t-71.5 -447.5t-75.5 -332.5l6 -5q182 131 430 480l20 -15q-141 -209 -291.5 -378.5t-254.5 -212.5q-4 49 -5 77q0 131 46.5 395.5 t46.5 403.5l-9 4q-123 -111 -266 -351.5t-235 -528.5q-47 53 -47 131q0 66 86 622l28 185l-6 4z" />
<glyph unicode="o" horiz-adv-x="751" d="M10 365q0 221 146.5 424.5t341.5 259.5q74 -35 121 -156t47 -227q0 -211 -147.5 -420t-340.5 -264q-78 35 -123 151.5t-45 231.5zM145 465q0 -80 5 -129q10 -139 83 -273q297 127 297 502q0 80 -4 131q-10 137 -84 271q-158 -72 -227.5 -196t-69.5 -306z" />
<glyph unicode="p" horiz-adv-x="790" d="M-246 -510q147 80 186.5 151.5t68 243.5t74.5 512t81 529l-150 -97l4 23q14 20 40 52t97.5 89.5t135.5 67.5q-25 -117 -45.5 -258t-30.5 -201l6 -2q174 319 404 461q37 -59 50 -129t13 -204t-53 -304t-148.5 -297t-197.5 -127q-70 0 -131 59q-25 -86 -47.5 -187t-37 -145 t-40.5 -79l6 -10q4 2 158 98l12 -31l-436 -237zM164 143q16 -12 61 -22t68 -10q141 0 194.5 120.5t53.5 448.5q0 152 -19 199q-66 -27 -175 -166.5t-143 -290t-40 -279.5z" />
<glyph unicode="q" horiz-adv-x="794" d="M6 218.5q0 146.5 49 350.5q111 457 459 457l123 -14q63 0 113 49l12 -27q-57 -47 -66 -112q-10 -80 -47 -329t-51 -329q-39 -201 -48 -266.5t-18.5 -123.5t-15.5 -79q-20 -76 -80 -145l10 -10q31 16 162 98l17 -35l-435 -252l-22 43q113 47 176 113q43 45 57 141 q4 27 11.5 92.5t24 179t47 287.5t36.5 219t17 64l-7 4q-6 -10 -47 -80t-59 -99.5t-60 -95t-73 -104.5t-74 -88q-82 -98 -170 -143q-41 88 -41 234.5zM143 269q0 -81 21 -142q274 291 405 774q-45 21 -131 21q-139 0 -193.5 -73t-78 -286t-23.5 -294z" />
<glyph unicode="r" horiz-adv-x="604" d="M35 823l4 23q14 20 39.5 52t97.5 89t135 68q-14 -88 -39.5 -281.5t-40.5 -286.5h15q104 279 205.5 423.5t220.5 144.5q43 0 71 -21l-65 -112q-29 18 -74 18q-98 0 -215 -224t-221 -640l-113 -96q-4 49 -4 116.5t16.5 185t53.5 317.5t57 329z" />
<glyph unicode="s" horiz-adv-x="620" d="M-70 39l103 94q72 -63 172 -63q61 0 121.5 52t60.5 111q0 104 -158 277q-47 51 -71.5 79.5t-52 80t-27.5 91.5q0 101 151 220q90 72 199 72t168 -56l-96 -112q-25 86 -144 86q-66 0 -106.5 -38t-40.5 -89q0 -49 12 -75t18.5 -38t21.5 -33.5t22.5 -28.5t28 -31t61.5 -73 q115 -128 115 -243q0 -114 -137 -226q-136 -112 -253.5 -112t-167.5 55z" />
<glyph unicode="t" horiz-adv-x="464" d="M0 934l55 86q55 10 119 16l14 97l129 73l-22 -164q101 4 165 4q3 0 7 1q61 0 129 -9l-109 -98q-82 4 -135 4h-73l-11 -80q-72 -590 -139 -753l6 -5q197 141 467 531l21 -12q-154 -229 -315 -414.5t-269 -230.5q-4 49 -4 82.5t4 76.5t15.5 121t22.5 150.5t36.5 230.5 t48.5 301q-59 0 -162 -8z" />
<glyph unicode="u" horiz-adv-x="940" d="M39 823l4 23q14 20 40 52t97.5 89t134.5 68q-110 -560 -110 -831q0 -38 10 -89q100 98 219 287.5t209 425.5q66 176 141 205l-145 -832q-10 -55 -31 -110l6 -5q197 141 467 531l21 -12q-154 -229 -314.5 -414.5t-269.5 -230.5q-4 48 -4 77q0 172 88 584l-6 4 q-117 -236 -247 -423t-240 -240q-23 76 -23 188.5t31 331.5l55 418z" />
<glyph unicode="v" horiz-adv-x="698" d="M-43 821l4 23q14 20 40 52t97.5 89t134.5 68q39 -35 39 -113l-4 -537q0 -182 4 -276q76 76 164 272.5t129 372.5l-24 238q0 18 15 34.5t36 18.5q55 -14 78 -64q-63 -348 -193.5 -623.5t-281.5 -387.5q-49 170 -56 397q-2 76 -2 247t-6 314z" />
<glyph unicode="w" horiz-adv-x="1126" d="M-43 821l4 23q14 20 40 52t97.5 89t134.5 68q39 -35 39 -113l-4 -537q0 -182 4 -276q74 74 162 270.5t139 382.5q0 12 -20 168l106 113q47 -4 48 -152v-108l-5 -398q0 -182 5 -276q76 76 163.5 272.5t128.5 372.5l-24 238q0 18 15.5 34.5t35.5 18.5q55 -14 78 -64 q-63 -348 -193.5 -623.5t-281.5 -387.5q-37 121 -43 236.5t-9.5 225t-5.5 158.5l-2 41q-63 -227 -163.5 -402t-210.5 -259q-61 217 -62 682q0 240 -2 276z" />
<glyph unicode="x" horiz-adv-x="745" d="M-141 -2l2 2v-2q16 20 32.5 40.5t30.5 39.5q78 0 123 26.5t80 79.5q100 154 168 269q-72 201 -166 491q-51 -25 -168 -115l-10 7q51 78 132 145.5t144 75.5q86 -205 154 -453q25 45 68 131t65.5 123t63.5 84q75 86 225 86h2l-51 -80q-41 4 -71 4t-45 -8t-34.5 -35.5 t-56.5 -97.5q-125 -231 -146 -272q98 -319 144 -455q63 29 180 121l10 -6q-51 -78 -132 -145.5t-144 -76.5q-80 190 -144 422q-135 -217 -209 -313q-20 -27 -72 -61.5t-98.5 -34.5t-76.5 8z" />
<glyph unicode="y" horiz-adv-x="864" d="M-31 -422l80 125q88 -27 166 -27q145 0 206.5 58.5t86.5 249.5q39 319 94 657l-6 4q-117 -236 -247 -423t-240 -240q-20 70 -21 176v16q0 95 6 150q6 61 27 211l51 385l-133 -97l4 23q14 20 40 52t97.5 89t134.5 68q-108 -563 -108 -852v-47l8 -21q100 96 218 286.5 t208 426.5q2 4 16.5 39t18.5 44t18.5 35.5t26.5 39.5q33 37 63 47q-4 -31 -13 -73t-20.5 -101.5t-28.5 -173t-38.5 -289.5t-34.5 -262q-39 -285 -169 -439.5t-353 -154.5q-84 0 -158 18z" />
<glyph unicode="z" horiz-adv-x="688" d="M-119 0q313 436 615 881q6 8 6 16q0 12 -60.5 20.5t-99.5 8.5q-162 0 -326 -105l-12 21q49 70 128 132t153 62q25 0 108.5 -9t134.5 -9q125 0 148 35l12 -6q-266 -360 -629 -897q-12 -20 -36 -46l6 -6q37 16 121 16q2 0 4 1q82 -1 184 -17q104 -16 158.5 -16t134.5 51 l10 -12q-98 -76 -118.5 -102.5t-35 -32.5t-56.5 -6t-167 18t-201.5 18t-160.5 -34z" />
<glyph unicode="{" horiz-adv-x="763" d="M195 721l32 55q82 0 129 88q31 59 40.5 139t14.5 173.5t20 181.5t48 159.5t109 115.5t190 44l15 -26q-106 -14 -163 -100.5t-72 -205t-29.5 -239.5t-65.5 -221q-68 -135 -213 -135l-4 -7q43 0 67 -8q150 -53 150 -213q0 -94 -46 -292.5t-46 -288.5q0 -143 129 -150 l-21 -29q-229 35 -229 230q0 96 53 290.5t53 278.5v21q-14 129 -135 137z" />
<glyph unicode="|" horiz-adv-x="526" d="M236 1749l118 86l-24 -2181l-90 -90z" />
<glyph unicode="}" horiz-adv-x="741" d="M76 -240l8 31q137 8 166 193q14 84 19 184t16.5 199.5t38 182.5t93 136t173.5 57l6 7h-14q-186 0 -187 233q0 86 20.5 235.5t20.5 229.5q0 184 -137 203l16 26q225 0 246 -198v-35t-30.5 -211t-30.5 -240.5t2 -81.5q10 -106 73 -129q18 -10 68 -12l-22 -49 q-88 -2 -137.5 -53.5t-62.5 -131t-16.5 -177t-10.5 -198t-32.5 -185.5t-97 -144t-188.5 -72z" />
<glyph unicode="~" horiz-adv-x="1536" d="M164 522q235 187 397 187q63 0 257 -62.5t335 -62.5q86 0 205 57l26 -25q-111 -137 -282 -137q-127 0 -303 59.5t-258 59.5q-205 0 -359 -113z" />
<glyph unicode="&#xa1;" horiz-adv-x="710" d="M72 -653q49 365 76.5 531.5t95.5 415t172 486.5l51 -20q-190 -776 -227 -1305zM344 1047l148 141q63 -49 137 -166l-144 -131q-2 2 -54 63.5t-87 92.5z" />
<glyph unicode="&#xa2;" horiz-adv-x="702" d="M31 406q0 182 104.5 362t272.5 250l45 291l79 -25l-38 -240q35 8 75 9q76 0 146 -31q-8 -12 -41 -51t-47 -64q-74 39 -148 43l-123 -792q131 23 258 75l13 -26q-127 -72 -281 -109l-43 -274l-78 37l37 231q-115 12 -173 98t-58 216zM147 567q0 -129 36 -231.5t93 -147.5 l119 754q-127 -27 -187.5 -136.5t-60.5 -238.5z" />
<glyph unicode="&#xa3;" horiz-adv-x="1081" d="M-102 -49q0 51 133 137q90 57 158.5 145.5t82.5 192.5l41 311h-8q-41 0 -124 1t-122 1l82 101h187l39 280q18 140 153 263.5t272.5 123.5t233.5 -94l-111 -78q-131 98 -225 99q-154 0 -190 -258l-47 -332h348l-84 -66q-121 -33 -279 -39l-28 -196q-25 -172 -73 -254 t-165 -178q276 -68 502 -68q131 0 188.5 42t57.5 120t-35 125l133 65q39 -39 39 -110q0 -117 -168 -239t-318 -122q-92 0 -259 37t-253 37t-149 -64q-12 4 -12 17z" />
<glyph unicode="&#xa4;" horiz-adv-x="1687" d="M379 182q102 102 153 150q-92 127 -92 274.5t92 255.5l-153 152q37 31 80 82l153 -154q123 92 273.5 92t261.5 -92q37 39 87 88t66 66l80 -82l-153 -152q92 -121 92 -264q0 -94 -62 -219q-23 -43 -30 -47q86 -80 153 -150q-53 -53 -80 -82l-153 154q-111 -94 -267.5 -94 t-267.5 94l-153 -154q-27 29 -80 82zM555 598q0 -131 95 -227.5t229.5 -96.5t229.5 96.5t95 231.5t-98 226.5t-230.5 91.5t-226.5 -95.5t-94 -226.5z" />
<glyph unicode="&#xa5;" horiz-adv-x="1202" d="M-31 930q14 362 217 528q111 92 265 92q80 0 144 -178t75 -407h16q102 254 253 398t337 144q66 0 121 -26l-109 -86q-78 39 -129 39q-88 0 -180 -105.5t-151.5 -238t-84.5 -248.5h310l-64 -74q-139 -20 -260 -27l-35 -174h328l-43 -63q-176 -43 -301 -43 q-23 -119 -59.5 -185.5t-118.5 -142.5l6 -16h125q150 0 264 76l8 -17q-25 -18 -55.5 -44t-49 -40t-41 -31.5t-35.5 -27.5t-26 -19q-29 -16 -41 -16q-250 0 -385 2l-8 16q115 25 171 134.5t97 314.5q-47 0 -135 1t-116 1l86 102h180l33 168q-61 0 -147.5 1t-123.5 1l86 101 h191q-2 272 -76 452.5t-154 180.5q-113 0 -172 -104.5t-67 -328.5z" />
<glyph unicode="&#xa6;" horiz-adv-x="507" d="M184 1667l119 86l-16 -786h-97zM188 -334v817h95l-9 -727z" />
<glyph unicode="&#xa7;" horiz-adv-x="1105" d="M-12 -193q129 76 147 84q84 -61 183.5 -61t156.5 64.5t57 148.5t-57 169t-124.5 148.5t-125 154.5t-57.5 180t65.5 208t155.5 160q-6 27 -6 57q0 150 165 286t323.5 136t209.5 -80l-139 -82q-72 57 -176 57.5t-165.5 -61t-61.5 -139.5t36.5 -142.5t91 -119.5t107.5 -115 q127 -137 127 -289q0 -84 -66.5 -201.5t-146.5 -154.5q4 -33 4 -51q0 -145 -165 -290.5t-318 -145.5q-63 0 -128 19.5t-93 59.5zM330 790.5q0 -100.5 39 -177t87 -125t112.5 -114t97.5 -114.5q76 127 75.5 215t-24 148.5t-63.5 107.5t-83 88q-122 117 -165 191 q-76 -119 -76 -219.5z" />
<glyph unicode="&#xa8;" horiz-adv-x="1019" d="M283 1491l110 102q68 -53 99 -106l-105 -113q-75 92 -104 117zM670 1491l110 102q57 -37 97 -106l-93 -113q-61 78 -114 117z" />
<glyph unicode="&#xa9;" horiz-adv-x="1730" d="M246 590q0 342 190.5 558t544.5 216q264 0 425 -178t161 -412q0 -346 -201 -559t-545 -213q-246 0 -410.5 182.5t-164.5 405.5zM340 692q0 -303 201 -475q141 -121 336 -121q238 0 392 121t185 295q14 76 14 162q1 305 -202 475q-143 121 -359.5 121t-369 -121 t-183.5 -293q-14 -78 -14 -164zM535 700q0 139 111 259t310 120q74 0 143.5 -22.5t90.5 -50.5v-129h-33q-6 53 -55 99t-163 46t-187.5 -91t-73.5 -233.5t74.5 -246t212 -103.5t223.5 137h31l-29 -131q-20 -23 -100 -43t-144 -20q-180 0 -295.5 101.5t-115.5 307.5z" />
<glyph unicode="&#xaa;" horiz-adv-x="620" d="M90.5 965.5q-0.5 109.5 36.5 234.5t107.5 191.5t184 66.5t148.5 -6l-41 -215q-45 -240 -86 -358l4 -9q74 63 99 86l10 -16q-104 -109 -164 -141l-8 16q35 330 55 369l-6 4l-14 -23q-158 -246 -307 -368q-18 59 -18.5 168.5zM180 985q0 -31 4 -49q63 57 146 197.5 t106 228.5q-18 8 -86.5 8t-97.5 -35q-51 -63 -68 -278q-4 -41 -4 -72z" />
<glyph unicode="&#xab;" horiz-adv-x="1472" d="M160 569q280 197 432 420l86 -100q-55 -66 -168 -164t-207 -156q92 -53 200.5 -140t166.5 -146l-78 -119q-63 88 -176 198.5t-256 206.5zM690 569q280 197 432 420l86 -100q-55 -66 -167.5 -164t-206.5 -156q92 -53 200.5 -140t165.5 -146l-78 -119q-63 88 -175.5 198.5 t-256.5 206.5z" />
<glyph unicode="&#xac;" horiz-adv-x="1220" d="M127 559l47 82h840q31 0 51 -22.5t20 -59.5v-389l-86 -57l-2 368q0 55 -11 66.5t-54 11.5h-805z" />
<glyph unicode="&#xad;" horiz-adv-x="819" d="M92 600l58 109h16q283 0 600 65l-64 -110q-283 -63 -591 -64h-19z" />
<glyph unicode="&#xae;" horiz-adv-x="1576" d="M133 590q0 342 190.5 558t544.5 216q264 0 425 -178t161 -412q0 -346 -200.5 -559t-544.5 -213q-246 0 -411 182.5t-165 405.5zM223 696q0 -154 61.5 -288t187.5 -223t283.5 -89t274.5 48.5t187 129.5q143 166 143 396q0 152 -61.5 287t-189.5 224t-296 89 q-287 0 -438.5 -168t-151.5 -406zM481 301v33q29 4 68 16v662q-31 12 -68 18v33h86q63 0 152.5 9t120.5 9q106 0 182 -52t76 -171q0 -178 -195 -213l-10 -14q29 -37 57.5 -81t54 -79t39.5 -51l37 -41q37 -45 80 -74l-37 -53q-195 125 -399 420l8 8q18 -6 39 -6 q102 0 151.5 58.5t49.5 135.5q0 150 -162 150q-63 0 -129 -19v-651q16 -6 53 -14v-33h-254z" />
<glyph unicode="&#xaf;" horiz-adv-x="720" d="M117 1665l94 107q86 20 163 21t140.5 1t132.5 -6l-108 -111q-88 4 -207 4t-215 -16z" />
<glyph unicode="&#xb0;" horiz-adv-x="749" d="M72 1240q0 140 93 233.5t218 93.5t207 -78t82 -219.5t-95.5 -233.5t-220.5 -92t-204.5 78t-79.5 218zM152 1258.5q0 -119.5 64.5 -191.5t159.5 -72t154.5 69t59.5 185.5t-60.5 188t-158 71.5t-158.5 -65.5t-61 -185z" />
<glyph unicode="&#xb1;" horiz-adv-x="1271" d="M98 -4l111 110h985l-111 -110h-985zM98 772l111 111h377v374l110 111v-485h498l-111 -111h-387v-389l-110 -111v500h-488z" />
<glyph unicode="&#xb2;" horiz-adv-x="724" d="M127 924q150 117 264.5 249t114.5 237.5t-100 105.5q-59 0 -193 -54l-10 27q127 98 256 98q152 0 151 -133q0 -113 -100 -235.5t-234 -223.5l5 -12h239q96 0 174 59l13 -18l-142 -113l-432 2z" />
<glyph unicode="&#xb3;" horiz-adv-x="833" d="M145 915l39 82q80 -51 174.5 -51t127 34t32.5 96.5t-32.5 102.5t-92.5 48l-12 22q137 72 137 179.5t-86 107.5q-57 0 -147 -47l-21 29q142 84 203 84q133 0 133 -140q0 -51 -43 -108.5t-102 -93.5l4 -9q20 4 30 4q55 0 88 -37.5t33 -84.5q0 -117 -94 -190t-200.5 -73 t-170.5 45z" />
<glyph unicode="&#xb4;" d="M84 1217q92 129 145 192q123 143 281 143h16l-30 -79q-59 -12 -151.5 -71t-231.5 -220z" />
<glyph unicode="&#xb6;" horiz-adv-x="1140" d="M98 755.5q0 223.5 164 383t381 159.5q57 0 115 -12q18 166 153.5 311.5t315.5 145.5q59 0 100 -10l-84 -111q-57 12 -120.5 12t-106.5 -31.5t-67.5 -74.5t-44 -114t-27 -120t-17.5 -123.5t-25.5 -169t-55.5 -382t-66 -463.5q-47 -309 -169 -451.5t-319 -142.5 q-45 0 -90 12l78 113q61 -16 131 -16.5t133.5 75.5t85.5 242l45 323q-61 -10 -104 -10q-166 0 -286 115.5t-120 339zM428 692q0 -135 57.5 -229t147.5 -94q18 0 29 12q109 559 108 745q0 113 -45 113q-156 0 -226.5 -150.5t-70.5 -396.5z" />
<glyph unicode="&#xb7;" horiz-adv-x="702" d="M193 610l172 189q39 -27 90 -81t73 -91l-184 -183q-10 10 -37 43q-70 82 -114 123z" />
<glyph unicode="&#xb8;" horiz-adv-x="800" d="M193 -377l92 80q43 -80 131 -80t88 31q0 53 -65.5 107.5t-159.5 86.5l231 195l35 -31q-25 -23 -133 -114q61 -16 122.5 -68.5t61.5 -95.5q0 -74 -77 -133.5t-180 -59.5t-146 82z" />
<glyph unicode="&#xb9;" horiz-adv-x="630" d="M141 1382q49 51 132.5 108.5t146.5 88.5q16 -6 16 -58.5t-12 -143.5t-37 -236.5t-33 -196.5l-104 -113l-4 9q74 465 96 635q-113 -59 -186 -115z" />
<glyph unicode="&#xba;" horiz-adv-x="677" d="M80 1044q0 135 102.5 261.5t237.5 160.5q51 -20 84 -95.5t33 -141.5q0 -131 -103.5 -260t-238.5 -162q-53 20 -84 93t-31 144zM193 1108q0 -133 53 -219q184 70 184 272q0 135 -57 219q-180 -77 -180 -272z" />
<glyph unicode="&#xbb;" horiz-adv-x="1370" d="M178 889l86 100q150 -219 432 -420q-143 -96 -255.5 -206.5t-176.5 -198.5l-78 119q57 57 166 144t205 140h-2q-94 57 -208 156.5t-169 165.5zM709 889l86 100q150 -219 432 -420q-143 -96 -256 -206.5t-176 -198.5l-78 119q57 57 165.5 144t204.5 140h-2 q-94 57 -207.5 156.5t-168.5 165.5z" />
<glyph unicode="&#xbc;" horiz-adv-x="2107" d="M211 2q31 41 325.5 418t486.5 645t370 557l100 -102q-160 -264 -548 -748.5t-695 -812.5zM387 1417q82 86 279 197q26 0 26 -53q0 -115 -59.5 -406t-63.5 -319l-104 -113q-10 4 -10 27v8q12 125 57 355t61 386q-74 -31 -172 -104zM946 283q63 35 221 255t207 357 q63 63 180 106q25 0 25 -43q-8 -137 -35.5 -317t-38.5 -281q168 0 275 43l18 -43q-123 -84 -299 -84q-6 -37 -13 -103.5t-16 -109.5l-98 -92q-6 2 -6 22.5t33 282.5l-193 3q-106 0 -221 -17zM1124 369l6 -9h277q31 252 51 508h-4q-117 -276 -330 -499z" />
<glyph unicode="&#xbd;" horiz-adv-x="2154" d="M305 2q31 41 326 418t486.5 645t369.5 557l100 -102q-160 -264 -548 -748.5t-695 -812.5zM481 1417q82 86 279 197q26 0 26 -53q0 -115 -59 -406t-63 -319l-105 -113q-10 4 -10 27v8q12 125 57 355t62 386q-74 -31 -172 -104zM1255 231q387 315 387 498q0 109 -94 109 q-51 0 -184 -52l-10 27q127 98 256 98q152 0 151 -133q0 -125 -106.5 -258t-247.5 -241l4 -13h195q137 0 219 60l14 -31l-143 -98h-432z" />
<glyph unicode="&#xbe;" horiz-adv-x="2088" d="M211 2q31 41 325.5 418t486.5 645t370 557l100 -102q-160 -264 -548 -748.5t-695 -812.5zM233 885l43 86q88 -53 195 -53t143.5 34.5t36.5 99t-36.5 107.5t-102.5 51l-14 43q135 63 135 171t-86 108q-55 0 -158 -47l-24 43q143 74 229 74q150 0 149 -146 q0 -53 -48 -113.5t-115 -99.5l4 -8q25 4 34 4q63 0 99.5 -40t36.5 -87q0 -115 -109.5 -206t-222.5 -91q-45 0 -100.5 19.5t-88.5 50.5zM946 283q63 35 221 255t207 357q63 63 180 106q25 0 25 -43q-8 -137 -35.5 -317t-38.5 -281q168 0 275 43l18 -43q-123 -84 -299 -84 q-6 -37 -13 -103.5t-16 -109.5l-98 -92q-6 2 -6 22.5t33 282.5l-158 3q-127 0 -256 -17zM1124 369l6 -9h277q31 252 51 508h-4q-117 -276 -330 -499z" />
<glyph unicode="&#xbf;" d="M-41 -317q0 94 57.5 192t140.5 178t167 156q197 180 196.5 294.5t-35.5 172.5q113 70 142 119l8 -2q35 -90 35 -187.5t-58.5 -188.5t-142.5 -163t-168 -144.5t-142.5 -169t-58.5 -197.5t41 -161.5t111 -60.5q125 0 231 90l6 -31q-147 -147 -286 -147q-244 0 -244 250z M346 1012l148 141q63 -49 137 -166l-144 -131q-2 2 -54 63.5t-87 92.5z" />
<glyph unicode="&#xc0;" horiz-adv-x="1378" d="M-195 -16l97 131q74 -18 158.5 -18.5t133 38.5t118 156t297 548.5t325.5 585.5l-217 7q-199 0 -275 -43q-33 -18 -70.5 -55.5t-58.5 -90.5q-49 -127 -49 -317q-63 -43 -141 -111q0 395 260 608q152 123 420 123q6 0 338 -18q-59 -119 -60 -660q0 -467 19.5 -582.5 t41 -144t73 -28.5t147.5 57l8 -16q-111 -98 -240 -177q-92 0 -126 70q-20 41 -33 78t-21 119q-8 111 -12 319h-373q-14 -27 -45 -92q-66 -129 -100 -176q-227 -311 -488 -311h-127zM629 664h307q-2 76 -2 200.5t2 252.5t2 134q-61 -111 -166.5 -315.5t-142.5 -271.5z M680 1968h16q158 0 279 -143q55 -63 147 -193l-30 -37q-154 178 -252 238q-35 20 -80 37.5t-49 17.5z" />
<glyph unicode="&#xc1;" horiz-adv-x="1402" d="M-195 -16l97 131q74 -18 158.5 -18.5t133 38.5t118 156t297 548.5t325.5 585.5l-217 7q-199 0 -275 -43q-33 -18 -70.5 -55.5t-58.5 -90.5q-49 -127 -49 -317q-63 -43 -141 -111q0 395 260 608q152 123 420 123q6 0 338 -18q-59 -119 -60 -660q0 -467 19.5 -582.5 t41 -144t73 -28.5t147.5 57l8 -16q-111 -98 -240 -177q-92 0 -126 70q-20 41 -33 78t-21 119q-8 111 -12 319h-373q-14 -27 -45 -92q-66 -129 -100 -176q-227 -311 -488 -311h-127zM629 664h307q-2 76 -2 200.5t2 252.5t2 134q-61 -111 -166.5 -315.5t-142.5 -271.5z M813 1626q92 129 145 193q123 143 281 143h16l-30 -80q-59 -12 -151.5 -70.5t-231.5 -220.5z" />
<glyph unicode="&#xc2;" horiz-adv-x="1378" d="M-195 -16l97 131q74 -18 158.5 -18.5t133 38.5t118 156t297 548.5t325.5 585.5l-217 7q-199 0 -275 -43q-33 -18 -70.5 -55.5t-58.5 -90.5q-49 -127 -49 -317q-63 -43 -141 -111q0 395 260 608q152 123 420 123q6 0 338 -18q-59 -119 -60 -660q0 -467 19.5 -582.5 t41 -144t73 -28.5t147.5 57l8 -16q-111 -98 -240 -177q-92 0 -126 70q-20 41 -33 78t-21 119q-8 111 -12 319h-373q-14 -27 -45 -92q-66 -129 -100 -176q-227 -311 -488 -311h-127zM629 664h307q-2 76 -2 200.5t2 252.5t2 134q-61 -111 -166.5 -315.5t-142.5 -271.5z M803 1655q82 90 148.5 142.5t146.5 70.5q47 -18 123.5 -73.5t113.5 -94.5l-71 -68q-131 127 -224 156q-94 -47 -217 -152z" />
<glyph unicode="&#xc3;" horiz-adv-x="1392" d="M-195 -16l97 131q74 -18 158.5 -18.5t133 38.5t118 156t297 548.5t325.5 585.5l-217 7q-199 0 -275 -43q-33 -18 -70.5 -55.5t-58.5 -90.5q-49 -127 -49 -317q-63 -43 -141 -111q0 395 260 608q152 123 420 123q6 0 338 -18q-59 -119 -60 -660q0 -467 19.5 -582.5 t41 -144t73 -28.5t147.5 57l8 -16q-111 -98 -240 -177q-92 0 -126 70q-20 41 -33 78t-21 119q-8 111 -12 319h-373q-14 -27 -45 -92q-66 -129 -100 -176q-227 -311 -488 -311h-127zM629 664h307q-2 76 -2 200.5t2 252.5t2 134q-61 -111 -166.5 -315.5t-142.5 -271.5z M664 1714q100 102 235 156q45 0 124 -36t125 -36t110.5 21.5t95.5 44.5l16 -23q-115 -117 -244 -147q-45 0 -123.5 37.5t-123.5 37.5t-107.5 -27.5t-97.5 -58.5z" />
<glyph unicode="&#xc4;" horiz-adv-x="1378" d="M-195 -16l97 131q74 -18 158.5 -18.5t133 38.5t118 156t297 548.5t325.5 585.5l-217 7q-199 0 -275 -43q-33 -18 -70.5 -55.5t-58.5 -90.5q-49 -127 -49 -317q-63 -43 -141 -111q0 395 260 608q152 123 420 123q6 0 338 -18q-59 -119 -60 -660q0 -467 19.5 -582.5 t41 -144t73 -28.5t147.5 57l8 -16q-111 -98 -240 -177q-92 0 -126 70q-20 41 -33 78t-21 119q-8 111 -12 319h-373q-14 -27 -45 -92q-66 -129 -100 -176q-227 -311 -488 -311h-127zM629 664h307q-2 76 -2 200.5t2 252.5t2 134q-61 -111 -166.5 -315.5t-142.5 -271.5z M737 1763l111 103q68 -53 98 -107l-104 -112q-76 91 -105 116zM1124 1763l111 103q57 -37 96 -107l-92 -112q-62 77 -115 116z" />
<glyph unicode="&#xc5;" horiz-adv-x="1378" d="M-195 -16l97 131q74 -18 158.5 -18.5t133 38.5t118 156t297 548.5t325.5 585.5l-217 7q-199 0 -275 -43q-33 -18 -70.5 -55.5t-58.5 -90.5q-49 -127 -49 -317q-63 -43 -141 -111q0 395 260 608q152 123 420 123q6 0 338 -18q-59 -119 -60 -660q0 -467 19.5 -582.5 t41 -144t73 -28.5t147.5 57l8 -16q-111 -98 -240 -177q-92 0 -126 70q-20 41 -33 78t-21 119q-8 111 -12 319h-373q-14 -27 -45 -92q-66 -129 -100 -176q-227 -311 -488 -311h-127zM629 664h307q-2 76 -2 200.5t2 252.5t2 134q-61 -111 -166.5 -315.5t-142.5 -271.5z M950 1764.5q0 52.5 38 100.5t93 72q78 0 118 -32.5t40 -90t-45 -112.5t-106.5 -55t-99.5 32.5t-38 85zM1006 1788q0 -25 36.5 -50.5t79.5 -25.5q72 23 72 70t-36 73.5t-87 26.5q-53 -29 -65 -94z" />
<glyph unicode="&#xc6;" horiz-adv-x="1777" d="M-197 -16l97 131q74 -18 156.5 -18.5t133 42.5t124 160t307 546t331.5 580l-217 7q-199 0 -274 -43q-33 -18 -71 -55.5t-58 -90.5q-49 -127 -49 -317q-63 -43 -142 -111q0 395 260 608q88 72 211 95.5t365 23.5l502 -4q244 0 311 2l-115 -121l-475 2q-14 -39 -20 -69 l-70 -441h29l241 -8q106 0 199 21l10 -9q-37 -53 -97 -94t-130 -41l-275 4q-39 -252 -67.5 -390t-155.5 -261l8 -18h533q141 0 252 78l8 -17q-166 -127 -240 -178h-784l-8 18q178 37 235 346q16 90 35 201h-340q-111 -213 -145 -268q-102 -164 -220 -237.5t-268 -73.5h-127z M631 664h289q14 90 35.5 227t31.5 196.5t25 137.5q28 137 65 196q-84 -80 -171 -235.5t-120 -216.5q-143 -270 -155 -305z" />
<glyph unicode="&#xc7;" horiz-adv-x="1079" d="M72 463q0 236 107.5 485.5t290 419.5t372.5 170q141 0 278 -41l-119 -154q-113 80 -231 107q-139 -2 -270 -125t-210 -315.5t-79 -380t81 -333.5t232 -183q139 25 361 190l18 -16q-72 -90 -189.5 -180.5t-217.5 -118.5q-76 -68 -103 -90q61 -16 123 -68.5t62 -95.5 q0 -74 -77 -133.5t-180.5 -59.5t-146.5 82l92 80q43 -80 131 -80t88 31q0 53 -65.5 107.5t-159.5 86.5l166 140q-176 23 -265 160t-89 315z" />
<glyph unicode="&#xc8;" horiz-adv-x="1277" d="M-18 815q0 233 84 399t286 283q72 41 305 41h322q244 0 311 2l-114 -121l-476 2q-14 -39 -20 -69l-70 -441h29l242 -8q106 0 198 21l11 -9q-37 -53 -97.5 -94t-130.5 -41l-274 4q-39 -252 -67.5 -390t-155.5 -261l8 -16l485 -4q16 -2 35 -2q147 0 264 82l8 -17 q-166 -127 -239 -178l-785 2l-8 16q178 37 236 346q37 193 69.5 405t48.5 316q41 256 91 338h-84q-205 0 -288 -111.5t-83 -383.5zM449 1976h16q158 0 280 -143q53 -63 146 -193l-31 -36q-154 178 -252 237q-35 20 -80 37.5t-49 17.5z" />
<glyph unicode="&#xc9;" horiz-adv-x="1277" d="M-18 815q0 233 84 399t286 283q72 41 305 41h322q244 0 311 2l-114 -121l-476 2q-14 -39 -20 -69l-70 -441h29l242 -8q106 0 198 21l11 -9q-37 -53 -97.5 -94t-130.5 -41l-274 4q-39 -252 -67.5 -390t-155.5 -261l8 -16l485 -4q16 -2 35 -2q147 0 264 82l8 -17 q-166 -127 -239 -178l-785 2l-8 16q178 37 236 346q37 193 69.5 405t48.5 316q41 256 91 338h-84q-205 0 -288 -111.5t-83 -383.5zM659 1630q92 129 148 193q120 143 278 143h17l-31 -80q-59 -12 -151.5 -70.5t-231.5 -220.5z" />
<glyph unicode="&#xca;" horiz-adv-x="1277" d="M-18 815q0 233 84 399t286 283q72 41 305 41h322q244 0 311 2l-114 -121l-476 2q-14 -39 -20 -69l-70 -441h29l242 -8q106 0 198 21l11 -9q-37 -53 -97.5 -94t-130.5 -41l-274 4q-39 -252 -67.5 -390t-155.5 -261l8 -16l485 -4q16 -2 35 -2q147 0 264 82l8 -17 q-166 -127 -239 -178l-785 2l-8 16q178 37 236 346q37 193 69.5 405t48.5 316q41 256 91 338h-84q-205 0 -288 -111.5t-83 -383.5zM543 1642q82 90 148.5 142.5t146.5 70.5q47 -18 123.5 -73.5t113.5 -93.5l-71 -68q-131 127 -224 156q-94 -47 -217 -152z" />
<glyph unicode="&#xcb;" horiz-adv-x="1277" d="M-18 815q0 233 84 399t286 283q72 41 305 41h322q244 0 311 2l-114 -121l-476 2q-14 -39 -20 -69l-70 -441h29l242 -8q106 0 198 21l11 -9q-37 -53 -97.5 -94t-130.5 -41l-274 4q-39 -252 -67.5 -390t-155.5 -261l8 -16l485 -4q16 -2 35 -2q147 0 264 82l8 -17 q-166 -127 -239 -178l-785 2l-8 16q178 37 236 346q37 193 69.5 405t48.5 316q41 256 91 338h-84q-205 0 -288 -111.5t-83 -383.5zM385 1769l111 103q68 -53 98 -107l-105 -112q-75 91 -104 116zM772 1769l111 103q57 -37 96 -107l-92 -112q-62 77 -115 116z" />
<glyph unicode="&#xcc;" horiz-adv-x="901" d="M-10 815q0 233 84 399t286 283q72 41 297 41h185l2 -6q-78 -49 -101 -180q-14 -84 -43 -275q-49 -311 -116 -696q-29 -127 -156 -248l8 -16q49 -2 118 -2t149.5 11t160.5 67l8 -17q-208 -176 -239 -178l-428 2l-8 16q178 37 235 346q49 270 94 556t66.5 374t46.5 129 h-137q-205 0 -288 -111.5t-83 -383.5zM395 1964h17q158 0 280 -143q53 -63 146 -193l-31 -37q-154 178 -252 238q-35 20 -80 37.5t-49 17.5z" />
<glyph unicode="&#xcd;" horiz-adv-x="940" d="M-10 815q0 233 84 399t286 283q72 41 297 41h185l2 -6q-78 -49 -101 -180q-14 -84 -43 -275q-49 -311 -116 -696q-29 -127 -156 -248l8 -16q49 -2 118 -2t149.5 11t160.5 67l8 -17q-208 -176 -239 -178l-428 2l-8 16q178 37 235 346q49 270 94 556t66.5 374t46.5 129 h-137q-205 0 -288 -111.5t-83 -383.5zM614 1628q92 129 148 193q120 143 278 143h17l-31 -80q-59 -12 -151.5 -70.5t-231.5 -220.5z" />
<glyph unicode="&#xce;" horiz-adv-x="899" d="M-10 815q0 233 84 399t286 283q72 41 297 41h185l2 -6q-78 -49 -101 -180q-14 -84 -43 -275q-49 -311 -116 -696q-29 -127 -156 -248l8 -16q49 -2 118 -2t149.5 11t160.5 67l8 -17q-208 -176 -239 -178l-428 2l-8 16q178 37 235 346q49 270 94 556t66.5 374t46.5 129 h-137q-205 0 -288 -111.5t-83 -383.5zM483 1661q82 90 148.5 142.5t146.5 70.5q47 -18 124 -73.5t114 -94.5l-72 -68q-131 127 -223 156q-94 -47 -217 -152z" />
<glyph unicode="&#xcf;" horiz-adv-x="901" d="M-10 815q0 233 84 399t286 283q72 41 297 41h185l2 -6q-78 -49 -101 -180q-14 -84 -43 -275q-49 -311 -116 -696q-29 -127 -156 -248l8 -16q49 -2 118 -2t149.5 11t160.5 67l8 -17q-208 -176 -239 -178l-428 2l-8 16q178 37 235 346q49 270 94 556t66.5 374t46.5 129 h-137q-205 0 -288 -111.5t-83 -383.5zM424 1763l111 103q68 -53 98 -107l-105 -112q-75 91 -104 116zM811 1763l111 103q57 -37 96 -107l-92 -112q-62 77 -115 116z" />
<glyph unicode="&#xd0;" horiz-adv-x="1474" d="M23 795q0 362 217 555.5t626 193.5q270 0 397.5 -142t127.5 -372q0 -168 -65.5 -350t-177.5 -332.5t-276.5 -249t-343.5 -98.5h-348l-8 16q178 37 236 346q39 223 61 367q-78 2 -207 2l66 127h34q78 0 127 -2q35 211 50 295q37 209 94 287q-168 0 -316 -123 q-72 -61 -116.5 -167t-44.5 -239zM403 133l9 -16h262q162 0 297 121.5t207.5 302t72.5 366.5q0 225 -116 375q-57 76 -156.5 119t-228.5 43q-25 -51 -33 -101.5t-80 -490.5q82 -2 190.5 -2t200.5 20l10 -8q-37 -53 -97 -94t-146 -41t-179 2q-4 -39 -57 -348 q-20 -119 -156 -248z" />
<glyph unicode="&#xd1;" horiz-adv-x="1665" d="M-59 815q0 233 84 399t286 283q67 39 303 39h193q258 -743 377 -1327q29 150 74 454t80.5 493.5t76.5 264.5q-43 2 -122 2t-177 -14l-2 4q63 76 143 100.5t250 24.5h111l2 -6q-78 -49 -100 -180l-156 -906q-35 -203 -93.5 -308t-176.5 -158l-9 16l56 31 q-98 301 -237.5 690t-211.5 600q-35 -147 -69.5 -434t-57.5 -416q-43 -236 -158.5 -351.5t-281.5 -115.5h-12l-111 2l96 131q74 -18 140.5 -18t97.5 32.5t51 135.5q51 264 90 541.5t59.5 412.5t45.5 184l-133 2h-7q-195 0 -277.5 -113.5t-82.5 -383.5zM719 1716 q100 102 235 156q45 0 124 -36t125 -36t110.5 21.5t95.5 44.5l16 -23q-115 -117 -243 -147q-45 0 -124 38t-124 38t-107.5 -28t-97.5 -58z" />
<glyph unicode="&#xd2;" horiz-adv-x="1202" d="M78 485q0 340 216 658.5t519 398.5q156 -45 231.5 -190.5t75.5 -353t-92 -422t-257 -375t-359 -211.5q-166 43 -250 176t-84 319zM217 608q0 -178 75 -313t226 -191q199 59 331 290t132 485q0 193 -67.5 340t-206.5 208q-209 -63 -349.5 -308t-140.5 -511zM582 1972h16 q158 0 279 -143q55 -63 147 -193l-31 -37q-154 178 -252 238q-35 20 -80 37.5t-49 17.5z" />
<glyph unicode="&#xd3;" horiz-adv-x="1247" d="M78 485q0 340 216 658.5t519 398.5q156 -45 231.5 -190.5t75.5 -353t-92 -422t-257 -375t-359 -211.5q-166 43 -250 176t-84 319zM217 608q0 -178 75 -313t226 -191q199 59 331 290t132 485q0 193 -67.5 340t-206.5 208q-209 -63 -349.5 -308t-140.5 -511zM610 1630 q92 129 148 193q120 143 278 143h17l-31 -80q-59 -12 -151.5 -70.5t-231.5 -220.5z" />
<glyph unicode="&#xd4;" horiz-adv-x="1202" d="M78 485q0 340 216 658.5t519 398.5q156 -45 231.5 -190.5t75.5 -353t-92 -422t-257 -375t-359 -211.5q-166 43 -250 176t-84 319zM217 608q0 -178 75 -313t226 -191q199 59 331 290t132 485q0 193 -67.5 340t-206.5 208q-209 -63 -349.5 -308t-140.5 -511zM586 1667 q82 90 148.5 142.5t146.5 70.5q47 -18 123.5 -73.5t113.5 -94.5l-71 -67q-131 127 -224 155q-94 -47 -217 -151z" />
<glyph unicode="&#xd5;" horiz-adv-x="1185" d="M59 485q0 340 216.5 658.5t519.5 398.5q155 -45 231 -190.5t76 -353t-92 -422t-257 -375t-360 -211.5q-166 43 -250 176t-84 319zM199 608q0 -178 74.5 -313t226.5 -191q199 59 331 290t132 485q0 193 -68 340t-207 208q-209 -63 -349 -308t-140 -511zM481 1735 q100 102 236 155q45 0 124 -35.5t125 -35.5t110.5 21.5t94.5 43.5l17 -22q-115 -117 -244 -148q-45 0 -124 38t-124 38t-107.5 -27.5t-96.5 -58.5z" />
<glyph unicode="&#xd6;" horiz-adv-x="1140" d="M78 485q0 340 216 658.5t519 398.5q156 -45 231.5 -190.5t75.5 -353t-92 -422t-257 -375t-359 -211.5q-166 43 -250 176t-84 319zM217 608q0 -178 75 -313t226 -191q199 59 331 290t132 485q0 193 -67.5 340t-206.5 208q-209 -63 -349.5 -308t-140.5 -511zM543 1776 l110 102q68 -53 99 -106l-105 -113q-75 92 -104 117zM930 1776l110 102q57 -37 97 -106l-93 -113q-61 78 -114 117z" />
<glyph unicode="&#xd7;" horiz-adv-x="1128" d="M92 31l397 440q-254 236 -389 449l109 106q127 -199 379 -432l389 432l45 -29l-397 -442q86 -86 144 -144.5t105 -107.5q86 -90 158 -182v-2l-108 -107q-86 106 -228 248l-172 172l-397 -438z" />
<glyph unicode="&#xd8;" horiz-adv-x="1202" d="M78 -49q74 123 106 180q-106 133 -106 354q0 340 216 658.5t519 398.5q74 -23 123 -61q66 127 100 192l66 -59l-103 -197q121 -147 121 -416q0 -211 -92 -425t-257 -374.5t-359 -211.5q-68 16 -133 57q-41 -74 -113 -217zM217 608q0 -172 70 -303q293 512 563 1014 q-61 70 -143 108q-209 -63 -349.5 -308t-140.5 -511zM360 205q63 -68 158 -101q199 60 331 290.5t132 461.5t-78 379q-383 -727 -543 -1030z" />
<glyph unicode="&#xd9;" horiz-adv-x="1644" d="M-18 815q0 233 84 399t286 283q67 39 303 39h193l2 -6q-20 -14 -49 -60.5t-45 -105.5q-147 -803 -148 -981q0 -250 164 -250q70 0 146.5 73t136.5 175q127 223 159 379l132 661q14 37 55 63.5t70.5 35t80.5 18.5l2 -6q-78 -49 -100 -180q-12 -72 -47 -271 q-117 -670 -117 -763t42 -138t113 -45t167 58l8 -17q-111 -98 -240 -176q-211 2 -211 289q0 88 25 235h-10q-72 -197 -238 -361.5t-293 -164.5q-195 0 -194 328q0 109 18.5 224.5t38.5 264.5l33 229q31 209 52.5 277t41.5 102h-164q-195 0 -275.5 -115.5t-80.5 -381.5z M797 1962h16q158 0 281 -143q53 -63 145 -193l-31 -37q-154 178 -252 238q-35 20 -80 37.5t-49 17.5z" />
<glyph unicode="&#xda;" horiz-adv-x="1644" d="M-18 815q0 233 84 399t286 283q67 39 303 39h193l2 -6q-20 -14 -49 -60.5t-45 -105.5q-147 -803 -148 -981q0 -250 164 -250q70 0 146.5 73t136.5 175q127 223 159 379l132 661q14 37 55 63.5t70.5 35t80.5 18.5l2 -6q-78 -49 -100 -180q-12 -72 -47 -271 q-117 -670 -117 -763t42 -138t113 -45t167 58l8 -17q-111 -98 -240 -176q-211 2 -211 289q0 88 25 235h-10q-72 -197 -238 -361.5t-293 -164.5q-195 0 -194 328q0 109 18.5 224.5t38.5 264.5l33 229q31 209 52.5 277t41.5 102h-164q-195 0 -275.5 -115.5t-80.5 -381.5z M981 1632q92 129 145 193q123 143 281 143h16l-30 -80q-59 -12 -151.5 -70.5t-231.5 -220.5z" />
<glyph unicode="&#xdb;" horiz-adv-x="1644" d="M-18 815q0 233 84 399t286 283q67 39 303 39h193l2 -6q-20 -14 -49 -60.5t-45 -105.5q-147 -803 -148 -981q0 -250 164 -250q70 0 146.5 73t136.5 175q127 223 159 379l132 661q14 37 55 63.5t70.5 35t80.5 18.5l2 -6q-78 -49 -100 -180q-12 -72 -47 -271 q-117 -670 -117 -763t42 -138t113 -45t167 58l8 -17q-111 -98 -240 -176q-211 2 -211 289q0 88 25 235h-10q-72 -197 -238 -361.5t-293 -164.5q-195 0 -194 328q0 109 18.5 224.5t38.5 264.5l33 229q31 209 52.5 277t41.5 102h-164q-195 0 -275.5 -115.5t-80.5 -381.5z M905 1683q82 90 148.5 142.5t146.5 70.5q47 -18 124 -73.5t114 -93.5l-72 -68q-131 127 -223 156q-94 -47 -217 -152z" />
<glyph unicode="&#xdc;" horiz-adv-x="1644" d="M-18 815q0 233 84 399t286 283q67 39 303 39h193l2 -6q-20 -14 -49 -60.5t-45 -105.5q-147 -803 -148 -981q0 -250 164 -250q70 0 146.5 73t136.5 175q127 223 159 379l132 661q14 37 55 63.5t70.5 35t80.5 18.5l2 -6q-78 -49 -100 -180q-12 -72 -47 -271 q-117 -670 -117 -763t42 -138t113 -45t167 58l8 -17q-111 -98 -240 -176q-211 2 -211 289q0 88 25 235h-10q-72 -197 -238 -361.5t-293 -164.5q-195 0 -194 328q0 109 18.5 224.5t38.5 264.5l33 229q31 209 52.5 277t41.5 102h-164q-195 0 -275.5 -115.5t-80.5 -381.5z M825 1784l111 102q68 -53 98 -106l-104 -113q-76 92 -105 117zM1212 1784l111 102q57 -37 96 -106l-92 -113q-62 78 -115 117z" />
<glyph unicode="&#xdd;" horiz-adv-x="1388" d="M-39 -207l119 86q133 -123 260 -123q98 0 193.5 122t261.5 437q-14 51 -61.5 239.5t-75 292t-70.5 251.5q-84 287 -154 372q-137 0 -202.5 -103t-65.5 -327l-141 -110q0 242 129 431t309 189q68 0 126 -72.5t113.5 -253t77.5 -274.5q63 -258 105 -467 q279 485 363.5 652.5t84.5 203t-38 49t-150 13.5l-2 8l153 92h80q113 0 113 -82q0 -92 -311 -641q-133 -233 -138 -241q-248 -465 -389 -641.5t-348 -270.5q-154 20 -342 168zM881 1632q92 129 147 193q121 143 279 143h16l-31 -80q-59 -12 -151 -70.5t-232 -220.5z" />
<glyph unicode="&#xde;" horiz-adv-x="1282" d="M-18 -514l77 113q61 -16 135 -16.5t134.5 62t89 244t74.5 521.5q70 520 90 645q-27 -4 -76 -4q-242 0 -400 147l119 125q158 -162 373 -172q6 43 18 106q31 177 154 292.5t269.5 115.5t146.5 -137q0 -160 -141.5 -279t-335.5 -170q-51 -346 -68 -432l6 -2 q88 152 206 266.5t228 149.5q37 -59 50.5 -129t13.5 -206t-53.5 -303t-159 -294t-227.5 -127q-72 0 -132 57q-4 -14 -14 -57q-127 -528 -487 -528q-43 0 -90 12zM580 143q16 -12 61 -22t68 -10q160 0 224 134t64 435q0 162 -18 199h-2q-53 0 -184 -127t-160 -244 q-43 -178 -53 -365zM719 1159q137 20 246.5 84t109.5 162q0 70 -38 116t-105 46q-152 0 -184 -217q-12 -76 -29 -191z" />
<glyph unicode="&#xdf;" horiz-adv-x="954" d="M-434 -414l82 105q76 -10 121 -10q129 0 176 59t82.5 252.5t82 589t88.5 613.5t175 354.5t323 136.5q205 0 205 -216q0 -125 -115 -274q-49 -63 -98 -125q-117 -145 -117 -260q0 -68 154 -201q55 -49 103.5 -121.5t48.5 -142.5q0 -137 -120 -245.5t-254 -108.5t-186 47 l105 108q98 -78 196 -77q63 0 109.5 68.5t46.5 128t-52 129t-113.5 123.5t-114 125t-52.5 128t34 118.5t82 119t97 118.5q117 145 117 304q0 199 -117 198q-125 0 -219 -130t-124.5 -305t-79 -565t-83 -602t-175 -341t-289.5 -129q-61 0 -119 28z" />
<glyph unicode="&#xe0;" horiz-adv-x="835" d="M2 237.5q0 176.5 54.5 373t160.5 305t299 108.5q147 0 199 -10l-13 -60q-18 -94 -51 -282q-51 -344 -123 -561l7 -5q178 129 430 480l20 -15q-147 -215 -296.5 -381.5t-250.5 -209.5q-2 25 -2 97.5t10.5 149t34 185t35.5 178.5l-6 4q-127 -215 -233.5 -357.5 t-247.5 -267.5q-27 92 -27 268.5zM129 282.5q0 -108.5 12 -145.5q20 0 65.5 68.5t47.5 70.5q78 96 195.5 318.5t117.5 312.5q-43 12 -127 13q-164 0 -213 -63.5t-73.5 -264.5t-24.5 -309.5zM213 1552h16q158 0 279 -143q55 -63 147 -192l-30 -37q-154 178 -252 237 q-35 20 -80 38t-49 18z" />
<glyph unicode="&#xe1;" d="M6 237.5q0 176.5 54.5 373t160.5 305t299 108.5q147 0 199 -10l-12 -60q-18 -94 -52 -282q-51 -344 -123 -561l7 -5q178 129 430 480l20 -15q-147 -215 -296.5 -381.5t-250.5 -209.5q-2 25 -2 97.5t10.5 149t34 185t35.5 178.5l-6 4q-127 -215 -233.5 -357.5 t-247.5 -267.5q-27 92 -27 268.5zM133 282.5q0 -108.5 12 -145.5q20 0 65.5 68.5t47.5 70.5q78 96 195.5 318.5t117.5 312.5q-43 12 -127 13q-163 0 -212.5 -63.5t-74 -264.5t-24.5 -309.5zM440 1217q92 129 146 192q122 143 280 143h17l-31 -79q-59 -12 -151.5 -71 t-231.5 -220z" />
<glyph unicode="&#xe2;" d="M6 237.5q0 176.5 54.5 373t160.5 305t299 108.5q147 0 199 -10l-12 -60q-18 -94 -52 -282q-51 -344 -123 -561l7 -5q178 129 430 480l20 -15q-147 -215 -296.5 -381.5t-250.5 -209.5q-2 25 -2 97.5t10.5 149t34 185t35.5 178.5l-6 4q-127 -215 -233.5 -357.5 t-247.5 -267.5q-27 92 -27 268.5zM133 282.5q0 -108.5 12 -145.5q20 0 65.5 68.5t47.5 70.5q78 96 195.5 318.5t117.5 312.5q-43 12 -127 13q-163 0 -212.5 -63.5t-74 -264.5t-24.5 -309.5zM262 1354q82 90 148.5 142.5t146.5 70.5q47 -18 124 -73.5t114 -94.5l-72 -68 q-131 127 -223 156q-94 -47 -217 -152z" />
<glyph unicode="&#xe3;" horiz-adv-x="843" d="M6 237.5q0 176.5 54.5 373t160.5 305t299 108.5q147 0 199 -10l-12 -60q-18 -94 -52 -282q-51 -344 -123 -561l7 -5q178 129 430 480l20 -15q-147 -215 -296.5 -381.5t-250.5 -209.5q-2 25 -2 97.5t10.5 149t34 185t35.5 178.5l-6 4q-127 -215 -233.5 -357.5 t-247.5 -267.5q-27 92 -27 268.5zM133 282.5q0 -108.5 12 -145.5q20 0 65.5 68.5t47.5 70.5q78 96 195.5 318.5t117.5 312.5q-43 12 -127 13q-163 0 -212.5 -63.5t-74 -264.5t-24.5 -309.5zM231 1360q100 102 236 156q45 0 124 -36t125 -36t110.5 21.5t95.5 43.5l16 -22 q-115 -117 -244 -148q-45 0 -123.5 38t-124 38t-108 -27.5t-96.5 -58.5z" />
<glyph unicode="&#xe4;" d="M6 237.5q0 176.5 54.5 373t160.5 305t299 108.5q147 0 199 -10l-12 -60q-18 -94 -52 -282q-51 -344 -123 -561l7 -5q178 129 430 480l20 -15q-147 -215 -296.5 -381.5t-250.5 -209.5q-2 25 -2 97.5t10.5 149t34 185t35.5 178.5l-6 4q-127 -215 -233.5 -357.5 t-247.5 -267.5q-27 92 -27 268.5zM133 282.5q0 -108.5 12 -145.5q20 0 65.5 68.5t47.5 70.5q78 96 195.5 318.5t117.5 312.5q-43 12 -127 13q-163 0 -212.5 -63.5t-74 -264.5t-24.5 -309.5zM287 1452l110 102q68 -53 99 -106l-105 -113q-75 92 -104 117zM674 1452l110 102 q57 -37 97 -106l-93 -113q-61 78 -114 117z" />
<glyph unicode="&#xe5;" d="M6 237.5q0 176.5 54.5 373t160.5 305t299 108.5q147 0 199 -10l-12 -60q-18 -94 -52 -282q-51 -344 -123 -561l7 -5q178 129 430 480l20 -15q-147 -215 -296.5 -381.5t-250.5 -209.5q-2 25 -2 97.5t10.5 149t34 185t35.5 178.5l-6 4q-127 -215 -233.5 -357.5 t-247.5 -267.5q-27 92 -27 268.5zM133 282.5q0 -108.5 12 -145.5q20 0 65.5 68.5t47.5 70.5q78 96 195.5 318.5t117.5 312.5q-43 12 -127 13q-163 0 -212.5 -63.5t-74 -264.5t-24.5 -309.5zM438 1412q0 52 38 100.5t93 72.5q78 0 118 -32.5t40 -90t-45 -113t-106.5 -55.5 t-99.5 33t-38 85zM494 1436q0 -25 36.5 -50.5t79.5 -25.5q72 23 72 70t-36 73.5t-87 26.5q-53 -29 -65 -94z" />
<glyph unicode="&#xe6;" horiz-adv-x="1079" d="M6 237.5q0 176.5 59.5 386.5t172 305t271.5 95t210 -10l-12 -60q-2 -12 -10.5 -44.5t-10.5 -45.5q158 188 285 189q104 0 104 -82q0 -199 -452 -500q-2 -23 -2 -57q0 -215 141 -332q199 152 452 506l21 -15q-147 -215 -297 -381.5t-250 -209.5q-102 25 -153.5 138 t-51.5 244.5t37 225.5l-6 4q-127 -215 -233.5 -357.5t-247.5 -267.5q-27 92 -27 268.5zM133 282.5q0 -108.5 12 -145.5q20 0 65.5 68.5t47.5 70.5q78 96 195.5 318.5t117.5 312.5q-43 12 -142 12.5t-152.5 -27.5t-78 -96.5t-45 -236.5t-20.5 -276.5zM633 520q127 82 225 199 t98 190q0 43 -55 43q-104 0 -170.5 -119.5t-97.5 -312.5z" />
<glyph unicode="&#xe7;" horiz-adv-x="634" d="M-102 -377l92 80q43 -80 131 -80t88 31q0 53 -65.5 107.5t-159.5 86.5l170 144q-147 68 -148 385q0 147 55.5 280.5t134 216t155.5 131t126 48.5q100 0 160 -56l-90 -106q-47 80 -123 80q-113 0 -196 -176.5t-83 -404.5t136 -302q211 152 485 549l20 -12 q-145 -219 -298.5 -398.5t-264.5 -236.5q-90 -76 -106 -92q61 -16 122.5 -68.5t61.5 -95.5q0 -74 -77 -133.5t-180 -59.5t-146 82z" />
<glyph unicode="&#xe8;" horiz-adv-x="610" d="M10 378.5q0 151.5 79 313.5t192.5 261.5t217 99.5t103.5 -82q0 -199 -452 -500q-2 -23 -3 -57q0 -231 140 -334q203 156 454 506l21 -15q-147 -215 -297 -381.5t-250 -209.5q-102 25 -153.5 136t-51.5 262.5zM125 1552h16q158 0 281 -143q53 -63 145 -192l-30 -37 q-154 178 -252 237q-35 20 -80 38t-49 18zM160 520q127 82 225 199t98 184.5t-55 67.5q-102 0 -170 -127t-98 -324z" />
<glyph unicode="&#xe9;" horiz-adv-x="624" d="M10 378.5q0 151.5 79 313.5t192.5 261.5t217 99.5t103.5 -82q0 -199 -452 -500q-2 -23 -3 -57q0 -231 140 -334q203 156 454 506l21 -15q-147 -215 -297 -381.5t-250 -209.5q-102 25 -153.5 136t-51.5 262.5zM160 520q127 82 225 199t98 184.5t-55 67.5q-102 0 -170 -127 t-98 -324zM371 1217q92 129 145 192q123 143 281 143h16l-31 -79q-59 -12 -151 -71t-232 -220z" />
<glyph unicode="&#xea;" horiz-adv-x="610" d="M8 378.5q0 151.5 79 313.5t192.5 261.5t217 99.5t103.5 -82q0 -199 -453 -500q-2 -23 -2 -57q0 -231 140 -334q203 156 454 506l21 -15q-147 -215 -297 -381.5t-250 -209.5q-102 25 -153.5 136t-51.5 262.5zM158 520q127 82 225 199t98 184.5t-55 67.5q-102 0 -170 -127 t-98 -324zM246 1348q82 90 148.5 142.5t146.5 70.5q47 -18 123.5 -73.5t113.5 -94.5l-71 -68q-131 127 -224 156q-94 -47 -217 -152z" />
<glyph unicode="&#xeb;" horiz-adv-x="614" d="M10 378.5q0 151.5 79 313.5t192.5 261.5t217 99.5t103.5 -82q0 -199 -452 -500q-2 -23 -3 -57q0 -231 140 -334q203 156 454 506l21 -15q-147 -215 -297 -381.5t-250 -209.5q-102 25 -153.5 136t-51.5 262.5zM160 520q127 82 225 199t98 184.5t-55 67.5q-102 0 -170 -127 t-98 -324zM195 1397l110 102q68 -53 98 -106l-104 -113q-75 92 -104 117zM582 1397l110 102q57 -37 96 -106l-92 -113q-61 78 -114 117z" />
<glyph unicode="&#xec;" horiz-adv-x="454" d="M-119 1563h17q158 0 278 -144q55 -63 148 -192l-31 -37q-154 178 -252 237q-35 20 -80 38t-49 18zM35 823l4 23q14 20 39.5 52t97.5 89t135 68q-12 -80 -43 -310q-61 -467 -121 -632l5 -7q176 125 430 480l22 -15q-147 -215 -297 -381.5t-252 -209.5q-4 49 -4 116.5 t16.5 185t53.5 317.5t57 329z" />
<glyph unicode="&#xed;" horiz-adv-x="448" d="M25 823l4 23q14 20 39.5 52t97.5 89t135 68q-12 -80 -43 -310q-61 -467 -121 -632l4 -7q176 125 430 480l23 -15q-147 -215 -297 -381.5t-252 -209.5q-4 49 -4 116.5t16.5 185t53 317.5t57.5 329zM160 1221q92 129 147 192q121 143 279 143h16l-31 -79 q-59 -12 -151 -70.5t-232 -220.5z" />
<glyph unicode="&#xee;" horiz-adv-x="452" d="M18 1356q82 90 148.5 142.5t146.5 70.5q47 -18 124 -73.5t114 -94.5l-72 -68q-131 127 -223 156q-94 -47 -217 -152zM33 823l4 23q14 20 39.5 52t97.5 89t135 68q-12 -80 -43 -310q-61 -467 -121 -632l5 -7q176 125 430 480l22 -15q-147 -215 -297 -381.5t-252 -209.5 q-4 49 -4 116.5t16.5 185t53.5 317.5t57 329z" />
<glyph unicode="&#xef;" horiz-adv-x="458" d="M-31 1450l111 102q68 -53 98 -106l-104 -113q-76 92 -105 117zM41 823l4 23q14 20 40 52t97.5 89t134.5 68q-12 -80 -43 -310q-61 -467 -120 -632l4 -7q176 125 430 480l22 -15q-147 -215 -297 -381.5t-252 -209.5q-4 49 -4 116.5t16.5 185t53.5 317.5t57 329zM356 1450 l111 102q57 -37 96 -106l-92 -113q-62 78 -115 117z" />
<glyph unicode="&#xf0;" horiz-adv-x="757" d="M-90 1663l98 78q244 -53 420 -293l213 125l33 -94l-195 -107q199 -327 199 -749q0 -219 -109.5 -388t-349.5 -253q-86 37 -140 154.5t-54 228.5q0 188 90 354t227 262l33 -37q-109 -94 -168.5 -231.5t-59.5 -282.5q0 -221 127 -367q293 127 293 539t-198 709l-244 -133 l-31 73l223 131q-166 209 -407 281z" />
<glyph unicode="&#xf1;" horiz-adv-x="925" d="M37 823l4 23q14 20 39.5 52t97.5 89t135 68q-14 -86 -42.5 -318.5t-49.5 -343.5l6 -4q121 236 257 423.5t251 240.5q35 -29 35 -162t-71.5 -447.5t-75.5 -332.5l6 -5q182 131 430 480l20 -15q-141 -209 -291.5 -378.5t-255.5 -212.5q-4 49 -4 77q0 131 46.5 395.5 t46.5 403.5l-9 4q-123 -111 -266 -351.5t-235 -528.5q-47 53 -48 131q0 66 87 622l28 185l-6 4zM199 1356q100 102 235 155q45 0 124 -35.5t125 -35.5t110.5 21.5t95.5 43.5l16 -22q-115 -117 -243 -148q-46 0 -124.5 38t-123.5 38t-107.5 -27.5t-97.5 -58.5z" />
<glyph unicode="&#xf2;" horiz-adv-x="751" d="M16 365q0 221 146.5 424.5t341.5 259.5q74 -35 121 -156t47 -227q0 -211 -147.5 -420t-340.5 -264q-78 35 -123 151.5t-45 231.5zM143 1552h17q158 0 278 -143q55 -63 148 -192l-31 -37q-154 178 -252 237q-35 20 -80 38t-49 18zM152 465q0 -80 4 -129q10 -139 84 -273 q297 127 297 502q0 80 -5 131q-10 137 -83 271q-158 -72 -227.5 -196t-69.5 -306z" />
<glyph unicode="&#xf3;" horiz-adv-x="747" d="M10 365q0 221 146.5 424.5t341.5 259.5q74 -35 121 -156t47 -227q0 -211 -147.5 -420t-340.5 -264q-78 35 -123 151.5t-45 231.5zM145 465q0 -80 5 -129q10 -139 83 -273q297 127 297 502q0 80 -4 131q-10 137 -84 271q-158 -72 -227.5 -196t-69.5 -306zM391 1221 q92 129 146 192q122 143 280 143h17l-31 -79q-59 -12 -151.5 -70.5t-231.5 -220.5z" />
<glyph unicode="&#xf4;" horiz-adv-x="735" d="M10 365q0 221 146.5 424.5t341.5 259.5q74 -35 121 -156t47 -227q0 -211 -147.5 -420t-340.5 -264q-78 35 -123 151.5t-45 231.5zM145 465q0 -80 5 -129q10 -139 83 -273q297 127 297 502q0 80 -4 131q-10 137 -84 271q-158 -72 -227.5 -196t-69.5 -306zM264 1354 q82 90 148.5 142.5t146.5 70.5q47 -18 124 -73.5t114 -94.5l-72 -68q-131 127 -223 156q-94 -47 -217 -152z" />
<glyph unicode="&#xf5;" horiz-adv-x="745" d="M10 365q0 221 146.5 424.5t341.5 259.5q74 -35 121 -156t47 -227q0 -211 -147.5 -420t-340.5 -264q-78 35 -123 151.5t-45 231.5zM131 1323q100 102 236 156q45 0 123.5 -36t125 -36t111 21.5t94.5 44.5l17 -23q-115 -117 -244 -147q-45 0 -124 37.5t-124 37.5 t-107.5 -27.5t-97.5 -58.5zM145 465q0 -80 5 -129q10 -139 83 -273q297 127 297 502q0 80 -4 131q-10 137 -84 271q-158 -72 -227.5 -196t-69.5 -306z" />
<glyph unicode="&#xf6;" horiz-adv-x="751" d="M14 365q0 221 146.5 424.5t341.5 259.5q74 -35 121 -156t47 -227q0 -211 -147.5 -420t-340.5 -264q-78 35 -123 151.5t-45 231.5zM150 465q0 -80 4 -129q10 -139 84 -273q297 127 297 502q0 80 -5 131q-10 137 -84 271q-158 -72 -227 -196t-69 -306zM219 1397l111 102 q68 -53 98 -106l-104 -113q-76 92 -105 117zM606 1397l111 102q57 -37 96 -106l-92 -113q-62 78 -115 117z" />
<glyph unicode="&#xf7;" horiz-adv-x="1103" d="M59 596l111 111q51 2 133 2l537 -9q131 0 200 7l-110 -111q-68 -10 -228 -10l-598 10h-45zM426 274l147 140q33 -20 65 -83t62 -81l-133 -131q-27 18 -67.5 76.5t-73.5 78.5zM426 1001l147 142q59 -37 127 -166l-133 -129q-31 20 -73.5 74t-67.5 79z" />
<glyph unicode="&#xf8;" horiz-adv-x="747" d="M-25 -27l86 144q-51 115 -51 248q0 221 146.5 424.5t341.5 259.5q43 -20 75 -72l97 160l43 -31l-109 -182q62 -129 62 -258q0 -211 -147.5 -420t-340.5 -264q-47 20 -84 73l-76 -129zM145 494.5q0 -152.5 11 -218.5l340 570q-14 49 -54 121q-157 -72 -227 -196 t-70 -276.5zM176 195q27 -78 57 -132q297 127 297 502q0 123 -16 205z" />
<glyph unicode="&#xf9;" horiz-adv-x="942" d="M39 823l4 23q14 20 40 52t97.5 89t134.5 68q-111 -565 -110 -836q0 -33 10 -84q100 98 219 287.5t209 425.5q66 176 141 205l-145 -832q-10 -55 -31 -110l6 -5q197 141 467 531l21 -12q-154 -229 -314.5 -414.5t-269.5 -230.5q-4 48 -4 77q0 172 88 584l-6 4 q-117 -236 -247 -423t-240 -240q-23 76 -23 188.5t31 331.5l55 418zM154 1552h16q158 0 281 -143q53 -63 145 -192l-31 -37q-154 178 -252 237q-35 20 -80 38t-49 18z" />
<glyph unicode="&#xfa;" horiz-adv-x="944" d="M39 823l4 23q14 20 40 52t97.5 89t134.5 68q-111 -565 -110 -836q0 -33 10 -84q100 98 219 287.5t209 425.5q66 176 141 205l-145 -832q-10 -55 -31 -110l6 -5q197 141 467 531l21 -12q-154 -229 -314.5 -414.5t-269.5 -230.5q-4 48 -4 77q0 172 88 584l-6 4 q-117 -236 -247 -423t-240 -240q-23 76 -23 188.5t31 331.5l55 418zM469 1217q92 129 145 192q123 143 281 143h16l-30 -79q-59 -12 -151.5 -71t-231.5 -220z" />
<glyph unicode="&#xfb;" horiz-adv-x="944" d="M39 823l4 23q14 20 40 52t97.5 89t134.5 68q-111 -565 -110 -836q0 -33 10 -84q100 98 219 287.5t209 425.5q66 176 141 205l-145 -832q-10 -55 -31 -110l6 -5q197 141 467 531l21 -12q-154 -229 -314.5 -414.5t-269.5 -230.5q-4 48 -4 77q0 172 88 584l-6 4 q-117 -236 -247 -423t-240 -240q-23 76 -23 188.5t31 331.5l55 418zM315 1354q82 90 148.5 142.5t146.5 70.5q47 -18 124 -73.5t114 -94.5l-72 -68q-131 127 -223 156q-94 -47 -217 -152z" />
<glyph unicode="&#xfc;" horiz-adv-x="944" d="M39 823l4 23q14 20 40 52t97.5 89t134.5 68q-111 -565 -110 -836q0 -33 10 -84q100 98 219 287.5t209 425.5q66 176 141 205l-145 -832q-10 -55 -31 -110l6 -5q197 141 467 531l21 -12q-154 -229 -314.5 -414.5t-269.5 -230.5q-4 48 -4 77q0 172 88 584l-6 4 q-117 -236 -247 -423t-240 -240q-23 76 -23 188.5t31 331.5l55 418zM291 1491l110 102q68 -53 99 -106l-105 -113q-75 92 -104 117zM678 1491l110 102q57 -37 97 -106l-92 -113q-62 78 -115 117z" />
<glyph unicode="&#xfd;" horiz-adv-x="862" d="M-31 -422l80 125q88 -27 166 -27q145 0 206.5 58.5t86.5 249.5q39 319 94 657l-6 4q-117 -236 -247 -423t-240 -240q-20 70 -20.5 176t5.5 166.5t27 210.5l51 385l-133 -97l4 23q14 20 40 52t97.5 89t134.5 68q-108 -563 -108 -852v-47l8 -21q100 96 218 286.5t208 426.5 q2 4 16.5 39t18.5 44t18.5 35.5t26.5 39.5q33 37 63 47q-4 -31 -13 -73t-20.5 -101.5t-28.5 -173t-38.5 -289.5t-34.5 -262q-39 -285 -169 -439.5t-353 -154.5q-84 0 -158 18zM485 1217q92 129 146 192q122 143 280 143h17l-31 -79q-59 -12 -151.5 -71t-231.5 -220z" />
<glyph unicode="&#xfe;" horiz-adv-x="747" d="M-266 -510q145 80 182 148.5t66.5 263t72.5 522.5t70 498l49 319q27 176 172.5 339t304.5 163q59 0 101 -10l-84 -111q-57 12 -138 12q-106 0 -172 -161q-33 -84 -46 -154t-18 -98.5t-13.5 -88t-17.5 -115.5t-31.5 -190.5t-36.5 -224.5l6 -2q174 319 403 461 q37 -59 50.5 -129t13.5 -204t-53.5 -304t-148.5 -296t-198 -126q-72 0 -131 57q-25 -86 -47 -187t-36.5 -145t-41.5 -79l6 -10q4 2 158 98l12 -31l-436 -237zM143 143q16 -12 61 -22t68 -10q141 0 194.5 120.5t53.5 448.5q0 152 -18 199q-66 -27 -175.5 -166.5t-143 -290 t-40.5 -279.5z" />
<glyph unicode="&#xff;" horiz-adv-x="860" d="M-31 -422l80 125q88 -27 166 -27q145 0 206.5 58.5t86.5 249.5q39 319 94 657l-6 4q-117 -236 -247 -423t-240 -240q-20 70 -20.5 176t5.5 166.5t27 210.5l51 385l-133 -97l4 23q14 20 40 52t97.5 89t134.5 68q-108 -563 -108 -852v-47l8 -21q100 96 218 286.5t208 426.5 q2 4 16.5 39t18.5 44t18.5 35.5t26.5 39.5q33 37 63 47q-4 -31 -13 -73t-20.5 -101.5t-28.5 -173t-38.5 -289.5t-34.5 -262q-39 -285 -169 -439.5t-353 -154.5q-84 0 -158 18zM276 1413l111 103q68 -53 98 -107l-104 -113q-76 92 -105 117zM664 1413l110 103q57 -37 96 -107 l-92 -113q-61 78 -114 117z" />
<glyph unicode="&#x152;" horiz-adv-x="1632" d="M68 485q0 244 106.5 483.5t311 404.5t452.5 165h395q244 0 312 2l-115 -121l-475 2q-14 -39 -21 -69l-69 -441h36l234 -8q106 0 199 21l10 -9q-37 -53 -97 -94t-130 -41l-275 4q-47 -299 -69.5 -412.5t-153.5 -238.5l10 -22h463q186 0 299 82l8 -17q-166 -127 -239 -178 h-701q-135 0 -234.5 42t-152.5 116q-104 141 -104 329zM207 608q0 -272 162 -415q88 -80 215 -80q109 76 139 249q43 229 83 503t63.5 386.5t60.5 171.5q-57 6 -118.5 6.5t-115.5 -2.5q-209 -63 -349 -308t-140 -511z" />
<glyph unicode="&#x153;" horiz-adv-x="1091" d="M10 365q0 221 146.5 424.5t341.5 259.5q100 -51 151 -252q70 115 165 185.5t169 70.5q104 0 104 -82q0 -199 -452 -500q-4 -23 -4 -70q0 -193 141 -321q201 154 455 508l20 -15q-147 -215 -296.5 -381.5t-250.5 -209.5q-76 16 -123 85.5t-67 165.5q-150 -201 -332 -251 q-78 35 -123 151.5t-45 231.5zM145 465q0 -80 5 -129q10 -139 83 -273q297 127 297 502q0 80 -4 131q-10 137 -84 271q-158 -72 -227.5 -196t-69.5 -306zM647 520q125 84 223.5 200t98.5 189q-1 43 -56 43q-203 0 -266 -432z" />
<glyph unicode="&#x178;" horiz-adv-x="1243" d="M-174 -207l119 86q133 -123 260 -123q98 0 193.5 122t260.5 437q-14 51 -61 239.5t-74.5 292t-70.5 251.5q-84 287 -154 372q-137 0 -202.5 -103t-65.5 -327l-142 -110q0 242 129.5 431t309.5 189q68 0 126 -72.5t113.5 -253t77.5 -274.5q63 -258 105 -467 q279 485 363.5 652.5t84.5 203t-38 49t-150 13.5l-2 8l153 92h80q113 0 113 -82q0 -92 -312 -641q-133 -233 -137 -241q-248 -465 -389 -641.5t-348 -270.5q-154 20 -342 168zM526 1765l111 103q68 -53 98 -107l-104 -112q-76 91 -105 116zM913 1765l111 103q57 -37 96 -107 l-92 -112q-62 77 -115 116z" />
<glyph unicode="&#x2c6;" d="M94 1354q82 90 148.5 142.5t146.5 70.5q47 -18 124 -73.5t114 -94.5l-72 -68q-131 127 -223 156q-94 -47 -217 -152z" />
<glyph unicode="&#x2dc;" horiz-adv-x="847" d="M68 1274q100 102 235 156q45 0 124 -36t125 -36t110.5 21.5t95.5 43.5l16 -22q-115 -117 -244 -148q-45 0 -123.5 38t-123.5 38t-107.5 -27.5t-97.5 -58.5z" />
<glyph unicode="&#x2000;" horiz-adv-x="988" />
<glyph unicode="&#x2001;" horiz-adv-x="1976" />
<glyph unicode="&#x2002;" horiz-adv-x="988" />
<glyph unicode="&#x2003;" horiz-adv-x="1976" />
<glyph unicode="&#x2004;" horiz-adv-x="658" />
<glyph unicode="&#x2005;" horiz-adv-x="494" />
<glyph unicode="&#x2006;" horiz-adv-x="329" />
<glyph unicode="&#x2007;" horiz-adv-x="329" />
<glyph unicode="&#x2008;" horiz-adv-x="247" />
<glyph unicode="&#x2009;" horiz-adv-x="395" />
<glyph unicode="&#x200a;" horiz-adv-x="109" />
<glyph unicode="&#x2010;" horiz-adv-x="819" d="M92 600l58 109h16q283 0 600 65l-64 -110q-283 -63 -591 -64h-19z" />
<glyph unicode="&#x2011;" horiz-adv-x="819" d="M92 600l58 109h16q283 0 600 65l-64 -110q-283 -63 -591 -64h-19z" />
<glyph unicode="&#x2012;" horiz-adv-x="819" d="M92 600l58 109h16q283 0 600 65l-64 -110q-283 -63 -591 -64h-19z" />
<glyph unicode="&#x2013;" horiz-adv-x="1073" d="M72 563l110 111h772l-67 -111h-815z" />
<glyph unicode="&#x2014;" horiz-adv-x="1470" d="M100 569l111 111h1206l-110 -111h-1207z" />
<glyph unicode="&#x2018;" horiz-adv-x="454" d="M133 1415q4 33 56.5 134.5t144.5 224.5l31 -23q-109 -162 -109 -199q12 -20 68.5 -78.5t68.5 -91.5q-106 -133 -123 -137q-43 35 -84 90.5t-53 79.5z" />
<glyph unicode="&#x2019;" horiz-adv-x="483" d="M164 1636q106 133 123 138q43 -35 84 -90.5t53 -79.5q-4 -33 -56.5 -134.5t-144.5 -224.5l-30 23q109 162 108 198q-12 20 -68.5 78.5t-68.5 91.5z" />
<glyph unicode="&#x201a;" horiz-adv-x="669" d="M205 170q106 133 123 137q43 -35 84 -90t53 -80q-4 -33 -56.5 -134t-144.5 -224l-31 22q109 162 109 199q-12 20 -68.5 78.5t-68.5 91.5z" />
<glyph unicode="&#x201c;" horiz-adv-x="890" d="M133 1415q4 33 56.5 134.5t144.5 224.5l31 -23q-109 -162 -109 -199q12 -20 68.5 -78.5t68.5 -91.5q-106 -133 -123 -137q-43 35 -84 90.5t-53 79.5zM586 1415q4 33 56 134.5t144 224.5l31 -23q-109 -162 -108 -199q12 -20 68.5 -78.5t68.5 -91.5q-106 -133 -123 -137 q-43 35 -84 90.5t-53 79.5z" />
<glyph unicode="&#x201d;" horiz-adv-x="995" d="M137 1636q106 133 123 138q43 -35 84 -90.5t53 -79.5q-4 -33 -56 -134.5t-144 -224.5l-31 23q109 162 108 198q-12 20 -68.5 78.5t-68.5 91.5zM590 1636q106 133 123 138q43 -35 84 -90.5t53 -79.5q-4 -33 -56.5 -134.5t-144.5 -224.5l-31 23q109 162 109 198 q-12 20 -68.5 78.5t-68.5 91.5z" />
<glyph unicode="&#x201e;" horiz-adv-x="1091" d="M195 170q106 133 122 137q43 -35 84 -90t54 -80q-4 -33 -56.5 -134t-144.5 -224l-31 22q109 162 109 199q-12 20 -68.5 78.5t-68.5 91.5zM647 170q106 133 123 137q43 -35 84 -90t53 -80q-4 -33 -56 -134t-144 -224l-31 22q109 162 108 199q-12 20 -68.5 78.5t-68.5 91.5 z" />
<glyph unicode="&#x2022;" horiz-adv-x="1069" d="M264 578q0 145 92 237q96 92 211 92t183.5 -72.5t68.5 -183.5q0 -154 -97 -239.5t-209 -85.5t-180.5 71.5t-68.5 180.5z" />
<glyph unicode="&#x2026;" horiz-adv-x="1490" d="M125 133l147 141q63 -49 138 -165l-144 -132q-2 2 -54 63.5t-87 92.5zM582 133l147 141q63 -49 137 -165l-143 -132q-2 2 -54 63.5t-87 92.5zM1032 133l148 141q63 -49 137 -165l-143 -132q-2 2 -54.5 63.5t-87.5 92.5z" />
<glyph unicode="&#x202f;" horiz-adv-x="395" />
<glyph unicode="&#x2039;" horiz-adv-x="1005" d="M193 569q282 201 432 420l86 -100q-55 -66 -168 -164t-207 -156q92 -53 200.5 -140t165.5 -146l-77 -119q-154 215 -432 405z" />
<glyph unicode="&#x203a;" horiz-adv-x="890" d="M219 889l80 94l10 -2q152 -219 428 -412q-143 -96 -255.5 -206.5t-176.5 -198.5l-80 119q59 59 168 145t203 139h-2q-92 57 -206 157.5t-169 164.5z" />
<glyph unicode="&#x205f;" horiz-adv-x="494" />
<glyph unicode="&#x20ac;" horiz-adv-x="1292" d="M88 467l70 104h121q10 96 26 166q-41 0 -110.5 1t-83.5 1l69 105h152q88 295 276 494.5t436 199.5q141 0 279 -41l-119 -154q-113 80 -231 107q-172 -2 -323.5 -181t-209.5 -425h412l-53 -74q-131 -29 -377 -33q-8 -51 -8 -100t2 -66h413l-53 -73q-131 -29 -346 -33 q29 -131 103.5 -227.5t193.5 -124.5q139 25 360 190l19 -16q-74 -92 -194.5 -184.5t-221.5 -118.5q-141 0 -239 73q-176 135 -177 406v2q-72 2 -186 2z" />
<glyph unicode="&#x2122;" horiz-adv-x="1366" d="M61 1221v94q0 68 74 114t213 46h264l2 -9l-53 -55h-141q-33 -106 -47.5 -235t-22.5 -183.5t-35 -81.5l4 -12q59 0 95 29l18 -21q-68 -59 -176 -59h-29q-6 0 -21.5 1t-19.5 1l4 27q39 12 60.5 37.5t27 45t11.5 58.5l45 328q4 41 18 55l-4 10l-117 6q-102 0 -102 -96v-53 l-59 -51zM502 866l47 68q18 -6 51 -6t58.5 24.5t61.5 114.5t118 336l-72 6q-84 0 -107 -82q-10 -41 -10 -106l-76 -54q0 133 63.5 221.5t205.5 88.5q37 0 90 -9q0 -25 10 -147.5t10 -164.5t-2 -62v-21l8 -2q57 131 135 262t128 146l-7 -101q-23 -332 -22.5 -370.5t2.5 -73.5 q51 31 86 72l23 -27q-61 -63 -177 -131q-6 59 -6 186t17 275l-9 4q-23 -27 -97.5 -195t-139.5 -276l-8 2q-8 82 -9 295v174l-8 2l-110 -289q-66 -170 -224 -170q-20 0 -30 10z" />
<glyph unicode="&#xe000;" horiz-adv-x="1054" d="M0 0v1055h1055v-1055h-1055z" />
<glyph unicode="&#xfb01;" horiz-adv-x="923" d="M-236 -506q111 47 170 113q43 45 58 141q4 29 11 91.5t19.5 141t129.5 941.5l-183 -15q43 88 45 88q72 10 156 19q12 102 20 153q35 258 170.5 417t309.5 159h100l-82 -109h-102q-66 0 -116 -30.5t-77.5 -72.5t-48 -109.5t-27 -117t-14.5 -122t-14 -104t-8 -58.5l499 35 q-12 -80 -43 -310q-61 -467 -121 -632l5 -7q176 125 430 480l22 -15q-147 -215 -296.5 -381.5t-252.5 -209.5q-4 49 -4 116.5t16.5 186t58.5 340t67 368.5q-33 -16 -165 -34.5t-227 -26.5q-20 -178 -69 -511t-60.5 -411t-17.5 -120t-10 -63.5t-15 -53.5q-20 -66 -69 -121 l10 -10q16 8 160 98l16 -35l-428 -252z" />
<glyph unicode="&#xfb02;" horiz-adv-x="952" d="M-236 -506q111 47 170 113q43 45 58 141q4 29 11 91.5t19.5 141t129.5 941.5l-183 -15q43 88 45 88q72 10 156 19q47 395 183 562t440 167q155 0 247 -25q45 20 125 25h2q59 0 101 -10l-84 -111q-57 12 -112.5 12t-88.5 -17.5t-55.5 -43t-43 -69.5t-32.5 -79.5t-23.5 -92 t-17.5 -87.5q-16 -102 -26.5 -175t-36.5 -300q-57 -489 -127 -659l6 -5q197 141 467 531l20 -12q-154 -229 -314.5 -414.5t-269.5 -230.5q-4 49 -4 77q0 158 125 930q-100 -35 -381 -57q-20 -178 -69 -511t-60.5 -411t-17.5 -120t-10 -63.5t-15 -53.5q-20 -66 -69 -121 l10 -10q16 8 160 98l16 -35l-428 -252zM281 1020q57 4 378 27q16 88 32 196.5t88.5 228t172.5 193.5q-229 -2 -336 -18q-170 -27 -231 -121q-37 -55 -61 -195q-6 -45 -19.5 -147.5t-23.5 -163.5z" />
<glyph unicode="&#xfb03;" horiz-adv-x="1468" d="M-358 -428l77 113q61 -16 125 -17q195 0 236 316q16 127 121 895q-23 -2 -197 -27q43 88 45 88q131 18 164 23l29 204q35 258 170 417t309 159h100l-82 -109h-131q-106 0 -157 -92q-57 -102 -74 -188q-25 -143 -29 -202.5t-9 -99.5t-9 -75q98 12 229 23.5t148 13.5 q12 102 20 153q35 258 170 417t309 159q115 0 170 -31l-84 -110q-74 33 -154.5 32.5t-131 -31t-78 -72.5t-48 -109.5t-26.5 -117t-14.5 -122t-14.5 -104t-8 -58.5l500 35q-12 -80 -43 -310q-61 -467 -121 -632l4 -7q176 125 430 480l23 -15q-147 -215 -297 -381.5 t-252 -209.5q-4 49 -4 116.5t16.5 186t58.5 340t66 368.5q-33 -16 -165 -34.5t-226 -26.5q-25 -209 -75 -534.5t-59 -393.5t-14.5 -114t-9.5 -64.5t-14 -52.5q-18 -63 -70 -121l10 -10q16 8 160 98l17 -35l-428 -252l-23 43q111 47 170 113q43 45 57 141q4 29 11.5 91.5 t19.5 141t129 941.5q-29 -2 -160 -11.5t-209 -17.5q-20 -182 -98 -739q-43 -295 -169 -444.5t-320 -149.5q-43 0 -90 12z" />
<glyph unicode="&#xfb04;" horiz-adv-x="1492" d="M-358 -428l77 113q61 -16 125 -17q195 0 236 316q20 164 121 893q-109 -10 -199 -15q41 96 43 96q80 6 168 13l29 196q41 299 207 459q61 59 145 88t227 29l-82 -109q-125 0 -174 -10t-87 -45t-70.5 -129t-42 -158.5t-14.5 -119t-21 -193.5q272 20 397 35 q47 395 183.5 562t439.5 167q156 0 247 -25q45 20 107 23l20 2q59 0 101 -10l-84 -111q-57 12 -112.5 12t-88.5 -17.5t-55.5 -43t-43 -69.5t-32.5 -79.5t-23.5 -92t-17.5 -87.5q-16 -102 -26.5 -175t-36.5 -300q-57 -489 -127 -659l6 -5q197 141 467 531l20 -12 q-154 -229 -314.5 -414.5t-269.5 -230.5q-4 49 -4 77q0 158 125 930q-100 -35 -381 -57q-25 -209 -75 -534.5t-59 -393.5t-14 -114t-9 -64.5t-15 -52.5q-18 -63 -69 -121l10 -10q16 8 160 98l16 -35l-428 -252l-22 43q111 47 170 113q43 45 57 141q4 29 11 91.5t19.5 141 t129.5 941.5q-98 -10 -390 -35q-23 -197 -98 -733q-43 -295 -169 -444.5t-320 -149.5q-43 0 -90 12zM838 1020q57 4 379 27q16 88 31.5 196.5t88 228t172.5 193.5q-229 -2 -335 -18q-170 -27 -232 -121q-37 -55 -61 -195q-6 -45 -19.5 -147.5t-23.5 -163.5z" />
</font>
</defs>
</svg>
