<?xml version="1.0" encoding="utf-8"?>
<!-- Generator: Adobe Illustrator 16.0.0, SVG Export Plug-In . SVG Version: 6.00 Build 0)  -->
<!DOCTYPE svg PUBLIC "-//W3C//DTD SVG 1.1//EN" "http://www.w3.org/Graphics/SVG/1.1/DTD/svg11.dtd">
<svg version="1.1" id="Layer_1" xmlns="http://www.w3.org/2000/svg" xmlns:xlink="http://www.w3.org/1999/xlink" x="0px" y="0px"
	 width="50px" height="50px" viewBox="0 0 50 50" enable-background="new 0 0 50 50" xml:space="preserve">
<g>
	<path d="M18.923,33.565c-1.054,0-2.08,0.109-3.085,0.28c-0.07,1.72-0.078,4.227,0.746,5.201c1.161,1.371,3.724,1.371,4.755-0.191
		c1.022-1.55,0.344-3.778,0.058-5.104C20.585,33.642,19.764,33.565,18.923,33.565z"/>
	<path d="M19.589,17.949c-2.656,0.094-5.344,6.312-4.625,9.5c0.258,1.143,0.938,3.5,0.938,4.875c0,0.167-0.013,0.428-0.028,0.743
		c0.996-0.16,2.01-0.266,3.05-0.266c0.795,0,1.575,0.064,2.345,0.158c-0.076-0.744-0.098-1.896,0.165-3.073
		c0.355-1.593,1.1-3.25,1.406-4.094C23.464,24.074,22.245,17.855,19.589,17.949z"/>
	<path d="M31.077,27.815c-0.86,0-1.7,0.08-2.528,0.194c-0.308,1.345-0.844,3.396,0.112,4.846c1.031,1.562,3.594,1.562,4.755,0.191
		c0.784-0.927,0.815-3.246,0.756-4.951C33.164,27.925,32.134,27.815,31.077,27.815z"/>
	<path d="M30.411,11.949c-2.656-0.094-3.875,6.125-3.25,7.844c0.307,0.843,1.051,2.501,1.406,4.094
		c0.294,1.317,0.233,2.611,0.136,3.327c0.78-0.097,1.568-0.163,2.374-0.163c1.045,0,2.062,0.106,3.062,0.268
		c-0.021-0.432-0.04-0.784-0.04-0.995c0-1.375,0.68-3.732,0.938-4.875C35.755,18.262,33.067,12.043,30.411,11.949z"/>
</g>
</svg>
