<?xml version="1.0" encoding="utf-8"?>
<!-- Generator: Adobe Illustrator 14.0.0, SVG Export Plug-In . SVG Version: 6.00 Build 43363)  -->
<!DOCTYPE svg PUBLIC "-//W3C//DTD SVG 1.1//EN" "http://www.w3.org/Graphics/SVG/1.1/DTD/svg11.dtd">
<svg version="1.1" id="Calque_1" xmlns="http://www.w3.org/2000/svg" xmlns:xlink="http://www.w3.org/1999/xlink" x="0px" y="0px"
	 width="64px" height="64px" viewBox="0 0 64 64" enable-background="new 0 0 64 64" xml:space="preserve">
<g>
	<g>
		<path fill="#B2B2B2" d="M58.691,21.57c-0.691-0.533-1.383-1.051-2.061-1.583c-1.09-0.838-2.18-1.675-3.256-2.499l-9.797-7.524
			L41.65,8.489c-2.963-2.273-5.928-4.56-8.893-6.833c-0.52-0.398-1.037-0.665-1.543-0.825c-0.027-0.013-0.053-0.013-0.066-0.026
			c-0.159-0.04-0.306-0.08-0.465-0.119c-0.08-0.013-0.174-0.027-0.266-0.027c-0.121-0.013-0.227-0.013-0.32-0.013
			c-0.105,0-0.227,0-0.332,0.013c-0.08,0-0.188,0.014-0.267,0.027c-0.158,0.04-0.306,0.08-0.465,0.119
			c-0.026,0.014-0.038,0.014-0.065,0.026c-0.52,0.159-1.023,0.425-1.529,0.825c-3.615,2.765-7.23,5.543-10.834,8.308V6.881
			c0-0.731-0.612-1.342-1.355-1.342h-5.092c-0.745,0-1.343,0.611-1.343,1.355c0.014,3.03,0.027,5.596-0.053,8.148
			c0,0.452-0.253,0.984-0.571,1.383c-1.543,1.196-3.084,2.379-4.64,3.562c-0.678,0.532-1.369,1.05-2.046,1.582
			c-0.931,0.705-1.555,1.529-1.502,2.579c0,0.546,0.132,1.077,0.465,1.556c0.771,1.129,2.392,1.728,3.895,1.289
			c0.332-0.105,0.664-0.253,0.983-0.438V46.68c0,0.094,0.013,0.199,0.026,0.279H3.206v3.764h28.699
			c-0.678-1.184-1.236-2.434-1.634-3.764h-4.374c0.105-0.066,0.146-0.199,0.146-0.426V32.748c0-0.41-0.04-0.85-0.106-1.275
			c-0.519-3.229-3.854-5.423-7.044-4.625c-2.726,0.678-4.573,3.111-4.573,6.049v13.625c0,0.238,0,0.385,0.08,0.438H9.665
			c0.014-0.08,0.027-0.186,0.027-0.279V23.604c0-0.105,0.027-0.227,0.053-0.332c6.328-4.839,12.654-9.665,18.943-14.529l0.666-0.491
			c0.266-0.159,0.506-0.227,0.744-0.24c0.227,0.013,0.465,0.08,0.731,0.24l0.651,0.492c6.193,4.785,12.402,9.518,18.637,14.276
			c3.283,0.358,6.301,1.582,8.84,3.43c0.293-0.2,0.559-0.451,0.758-0.744c0.332-0.479,0.465-1.01,0.451-1.556
			C60.232,23.099,59.607,22.273,58.691,21.57z"/>
		<polyline fill="#B2B2B2" points="53.369,17.488 43.58,9.963 41.656,8.486 		"/>
	</g>
	<path fill="#B2B2B2" d="M59.051,52.967c1.176,1.762,2.588,4.234,3.646,5.834c0.951,1.439,0.656,3.172-0.688,4.064
		c-1.357,0.902-3.07,0.525-4.021-0.902c-2.117-3.174-1.188-2.146-3.293-5.33c-0.117-0.178-0.188-0.389-0.268-0.559
		c-8.953,3.744-17.992-0.932-21.182-8.209c-3.227-7.357-0.637-15.895,6.197-20.195c6.686-4.207,15.574-2.812,20.746,3.25
		C65.348,36.969,65.553,46.541,59.051,52.967z M60.227,43.85c1.395-6.68-2.943-13.395-9.551-14.781
		c-6.979-1.465-13.678,2.848-15.061,9.803c-1.371,6.895,3.105,13.172,9.4,14.668C52.057,55.213,58.906,50.582,60.227,43.85z"/>
</g>
</svg>
