<?xml version="1.0" encoding="utf-8"?>
<!-- Generator: Adobe Illustrator 23.1.0, SVG Export Plug-In . SVG Version: 6.00 Build 0)  -->
<svg version="1.1" id="Calque_1" xmlns="http://www.w3.org/2000/svg" xmlns:xlink="http://www.w3.org/1999/xlink" x="0px" y="0px"
	 viewBox="0 0 165 49" style="enable-background:new 0 0 165 49;" xml:space="preserve">
<style type="text/css">
	.st0{stroke:url(#SVGID_1_);stroke-miterlimit:10;}
	.st1{fill:#58595B;}
	.st2{filter:url(#Adobe_OpacityMaskFilter);}
	.st3{fill:url(#SVGID_3_);}
	.st4{mask:url(#SVGID_2_);fill:#58595B;}
	.st5{fill:url(#SVGID_4_);}
	.st6{fill:url(#SVGID_5_);}
	.st7{fill:url(#SVGID_6_);}
	.st8{fill:url(#SVGID_7_);}
	.st9{fill:url(#SVGID_8_);}
	.st10{fill:url(#SVGID_9_);}
	.st11{fill:url(#SVGID_10_);}
	.st12{fill:url(#SVGID_11_);}
	.st13{fill:url(#SVGID_12_);}
	.st14{fill:url(#SVGID_13_);}
	.st15{fill:url(#SVGID_14_);}
	.st16{fill:url(#SVGID_15_);}
	.st17{fill:url(#SVGID_16_);}
	.st18{fill:url(#SVGID_17_);}
	.st19{fill:url(#SVGID_18_);}
	.st20{fill:url(#SVGID_19_);}
	.st21{fill:url(#SVGID_20_);}
	.st22{fill:url(#SVGID_21_);}
	.st23{fill:url(#SVGID_22_);}
	.st24{fill:url(#SVGID_23_);}
	.st25{fill:url(#SVGID_24_);}
	.st26{fill:url(#SVGID_25_);}
	.st27{fill:url(#SVGID_26_);}
	.st28{fill:url(#SVGID_27_);}
	.st29{fill:url(#SVGID_28_);}
	.st30{fill:url(#SVGID_29_);}
	.st31{fill:url(#SVGID_30_);}
</style>
<linearGradient id="SVGID_1_" gradientUnits="userSpaceOnUse" x1="2.5" y1="24.5793" x2="164.5" y2="24.5793">
	<stop  offset="5.618000e-03" style="stop-color:#EEC92B"/>
	<stop  offset="0.2528" style="stop-color:#FFF9D1"/>
	<stop  offset="0.3024" style="stop-color:#F8EFC0"/>
	<stop  offset="0.4008" style="stop-color:#E5D393"/>
	<stop  offset="0.5377" style="stop-color:#C7A84B"/>
	<stop  offset="0.5955" style="stop-color:#BA942B"/>
	<stop  offset="0.8482" style="stop-color:#E7D587"/>
	<stop  offset="0.8708" style="stop-color:#EBDB8F"/>
	<stop  offset="1" style="stop-color:#FFF9D1"/>
</linearGradient>
<path class="st0" d="M142.4,46.2H24.6C12.7,46.2,3,36.5,3,24.6v0C3,12.7,12.7,3,24.6,3h117.8c11.9,0,21.6,9.7,21.6,21.6v0
	C164,36.5,154.3,46.2,142.4,46.2z"/>
<g>
	<path class="st1" d="M24.8,33.6l-3.3-0.9l-1.5-5.8c-0.2-0.7-1.1-0.7-0.9-0.8c0,0,5.3-2.5,5.4-2.6c0.1-0.1,0.2-0.1,0.3-0.1h0
		c0.1,0,0.1,0,0.3,0.1c0.1,0.1,5.4,2.6,5.4,2.6c0.1,0.1-0.7,0.1-0.9,0.8l-1.5,5.8L24.8,33.6L24.8,33.6z"/>
	<path class="st1" d="M17.6,21.7c2.3-1,5.2-2.4,5.3-2.5c0.1,0,0.3-0.1,0.6,0c0.4,0.2,0.9,0.4,1.4,0.5c0.4,0,1,0,1.7-0.2
		c0.2-0.1,0.3-0.1,0.6,0c0.5,0.2,4.2,1.8,4.2,1.8c2.4,1.1,2.9,3.7,2.1,3.9c0,0-2.4,0.4-3.5-0.1c-2.5-1.2-4.2-2-4.2-2s-0.3-0.2,0-0.3
		c0.3-0.2,1.2-0.6,1.2-0.6c0.4-0.2,0.5-0.2,1.1-0.1c0.8,0.1,3.5,0.7,3.5,0.7s0-0.3-0.4-0.4c-0.5-0.2-2.7-0.8-2.7-0.8s-0.4-1.5-3-1
		L19,22c0,0-0.5,0.1-0.5,0.4l7.2-1.5c0.7-0.1,1.6-0.1,2.2,0.3c0,0,0.3,0.3-0.2,0.3c-0.3,0-0.7,0.1-1.2,0.4c-0.5,0.2-6.4,2.7-7.4,3.2
		"/>
	<g>
		<path class="st1" d="M24.9,19.7c-0.6-0.1-1-0.3-1.4-0.5c-0.1,0-0.2-0.1-0.2-0.1l-0.3,0c0,0-0.1,0-0.1,0c-0.1,0-2.8,1.2-5.1,2.2
			c-1.9,0.8-2.5,3.6-1.7,3.7c0.8,0.1,2.4,0.3,3.4-0.1c1-0.5,6.4-2.9,6.9-3.1c0.6-0.3,0.9-0.4,1.2-0.4c0.5,0,0.2-0.3,0.2-0.3
			c-0.6-0.4-1.6-0.4-2.2-0.3l-7.2,1.5c0-0.3,0.5-0.4,0.5-0.4l6.5-1.4c0,0,0,0,0.1,0v-0.9C25.3,19.7,25.1,19.7,24.9,19.7z"/>
	</g>
	<path class="st1" d="M27.6,13.7c0.1,0.2,0.3,0.5,0.4,0.7c4.5,1.4,7.8,5.5,7.8,10.5c0,6-4.9,10.9-10.9,10.9c-6,0-10.9-4.9-10.9-10.9
		c0-5.1,3.5-9.4,8.3-10.6c0.1-0.2,0.2-0.5,0.3-0.7c-5.3,1.1-9.2,5.7-9.2,11.3c0,6.4,5.2,11.5,11.5,11.5c6.4,0,11.5-5.2,11.5-11.5
		C36.3,19.5,32.6,14.9,27.6,13.7z"/>
	<g>
		<defs>
			<filter id="Adobe_OpacityMaskFilter" filterUnits="userSpaceOnUse" x="19.2" y="23.5" width="11.4" height="6.8">
				<feFlood  style="flood-color:white;flood-opacity:1" result="back"/>
				<feBlend  in="SourceGraphic" in2="back" mode="normal"/>
			</filter>
		</defs>
		<mask maskUnits="userSpaceOnUse" x="19.2" y="23.5" width="11.4" height="6.8" id="SVGID_2_">
			<g class="st2">
				<linearGradient id="SVGID_3_" gradientUnits="userSpaceOnUse" x1="24.0723" y1="27.4145" x2="24.3452" y2="33.4726">
					<stop  offset="0" style="stop-color:#181B22"/>
					<stop  offset="1" style="stop-color:#FFFFFF"/>
				</linearGradient>
				<rect x="15.8" y="21.3" class="st3" width="16.4" height="9.4"/>
			</g>
		</mask>
		<path class="st4" d="M29.3,27.9c-3.5,2.3-6,2-8.4,2.3l-0.8-3.3c0,0-0.1-0.5-0.9-0.7c0,0-0.2,0,0-0.1l5.3-2.6c0,0,0.2-0.2,0.6,0
			c0.3,0.2,5.3,2.6,5.3,2.6s0.2,0.1,0,0.1c0,0-0.6,0.1-0.8,0.7L29.3,27.9z"/>
	</g>
	<path class="st1" d="M27.7,15.6c0.2,1.8-0.8,3.4-2.2,3.5c-1.4,0.2-2.8-1.1-3-2.9c-0.2-1.8,0.8-3.4,2.2-3.5
		C26.1,12.5,27.5,13.8,27.7,15.6z"/>
</g>
<g>
	
		<linearGradient id="SVGID_4_" gradientUnits="userSpaceOnUse" x1="232.8968" y1="714.673" x2="369.8962" y2="715.0857" gradientTransform="matrix(0 1 -1 0 758.4437 -222.7058)">
		<stop  offset="5.618000e-03" style="stop-color:#EEC92B"/>
		<stop  offset="0.2528" style="stop-color:#FFF9D1"/>
		<stop  offset="0.3024" style="stop-color:#F8EFC0"/>
		<stop  offset="0.4008" style="stop-color:#E5D393"/>
		<stop  offset="0.5377" style="stop-color:#C7A84B"/>
		<stop  offset="0.5955" style="stop-color:#BA942B"/>
		<stop  offset="0.8482" style="stop-color:#E7D587"/>
		<stop  offset="0.8708" style="stop-color:#EBDB8F"/>
		<stop  offset="1" style="stop-color:#FFF9D1"/>
	</linearGradient>
	<path class="st5" d="M43.7,23.5c-1.1,0-2-0.4-2.7-1.1c-1-1-1-2.2-1-4c0-1.7,0-3,1-4c0.7-0.7,1.6-1.1,2.7-1.1c1.9,0,3.3,1.1,3.6,3.1
		h-2c-0.2-0.8-0.7-1.4-1.7-1.4c-0.5,0-1,0.2-1.2,0.5C42.1,16,42,16.5,42,18.4s0.1,2.4,0.5,2.8c0.3,0.3,0.7,0.5,1.2,0.5
		c1,0,1.5-0.6,1.7-1.4h2C47,22.4,45.6,23.5,43.7,23.5z"/>
	
		<linearGradient id="SVGID_5_" gradientUnits="userSpaceOnUse" x1="201.6743" y1="707.8984" x2="511.3615" y2="708.8312" gradientTransform="matrix(0 1 -1 0 758.4437 -222.7058)">
		<stop  offset="5.618000e-03" style="stop-color:#EEC92B"/>
		<stop  offset="0.2528" style="stop-color:#FFF9D1"/>
		<stop  offset="0.3024" style="stop-color:#F8EFC0"/>
		<stop  offset="0.4008" style="stop-color:#E5D393"/>
		<stop  offset="0.5377" style="stop-color:#C7A84B"/>
		<stop  offset="0.5955" style="stop-color:#BA942B"/>
		<stop  offset="0.8482" style="stop-color:#E7D587"/>
		<stop  offset="0.8708" style="stop-color:#EBDB8F"/>
		<stop  offset="1" style="stop-color:#FFF9D1"/>
	</linearGradient>
	<path class="st6" d="M51,23.4c-1.5,0-2.1-1-2.1-2.1v-7.8h1.8v7.7c0,0.4,0.2,0.7,0.6,0.7H52v1.5H51z"/>
	
		<linearGradient id="SVGID_6_" gradientUnits="userSpaceOnUse" x1="219.9069" y1="701.9972" x2="340.443" y2="702.3603" gradientTransform="matrix(0 1 -1 0 758.4437 -222.7058)">
		<stop  offset="5.618000e-03" style="stop-color:#EEC92B"/>
		<stop  offset="0.2528" style="stop-color:#FFF9D1"/>
		<stop  offset="0.3024" style="stop-color:#F8EFC0"/>
		<stop  offset="0.4008" style="stop-color:#E5D393"/>
		<stop  offset="0.5377" style="stop-color:#C7A84B"/>
		<stop  offset="0.5955" style="stop-color:#BA942B"/>
		<stop  offset="0.8482" style="stop-color:#E7D587"/>
		<stop  offset="0.8708" style="stop-color:#EBDB8F"/>
		<stop  offset="1" style="stop-color:#FFF9D1"/>
	</linearGradient>
	<path class="st7" d="M57.6,23.4v-0.7c-0.5,0.5-1.1,0.8-1.8,0.8c-0.7,0-1.3-0.2-1.7-0.6c-0.6-0.6-0.7-1.3-0.7-2.1v-4.6h1.8v4.4
		c0,1,0.6,1.3,1.2,1.3c0.6,0,1.2-0.3,1.2-1.3v-4.4h1.8v7.3H57.6z"/>
	
		<linearGradient id="SVGID_7_" gradientUnits="userSpaceOnUse" x1="197.409" y1="693.8565" x2="360.2472" y2="694.347" gradientTransform="matrix(0 1 -1 0 758.4437 -222.7058)">
		<stop  offset="5.618000e-03" style="stop-color:#EEC92B"/>
		<stop  offset="0.2528" style="stop-color:#FFF9D1"/>
		<stop  offset="0.3024" style="stop-color:#F8EFC0"/>
		<stop  offset="0.4008" style="stop-color:#E5D393"/>
		<stop  offset="0.5377" style="stop-color:#C7A84B"/>
		<stop  offset="0.5955" style="stop-color:#BA942B"/>
		<stop  offset="0.8482" style="stop-color:#E7D587"/>
		<stop  offset="0.8708" style="stop-color:#EBDB8F"/>
		<stop  offset="1" style="stop-color:#FFF9D1"/>
	</linearGradient>
	<path class="st8" d="M66.8,22.8c-0.4,0.4-1.1,0.7-1.8,0.7c-0.8,0-1.3-0.2-1.8-0.8v0.7h-1.8v-9.9h1.8v3.3c0.5-0.5,1-0.7,1.8-0.7
		c0.7,0,1.4,0.3,1.8,0.7c0.7,0.7,0.7,2,0.7,3C67.5,20.8,67.5,22.1,66.8,22.8z M64.5,17.7c-1.1,0-1.2,0.9-1.2,2.1
		c0,1.2,0.1,2.1,1.2,2.1c1.1,0,1.2-0.9,1.2-2.1C65.7,18.6,65.5,17.7,64.5,17.7z"/>
	
		<linearGradient id="SVGID_8_" gradientUnits="userSpaceOnUse" x1="197.8603" y1="682.4208" x2="310.5572" y2="682.7603" gradientTransform="matrix(0 1 -1 0 758.4437 -222.7058)">
		<stop  offset="5.618000e-03" style="stop-color:#EEC92B"/>
		<stop  offset="0.2528" style="stop-color:#FFF9D1"/>
		<stop  offset="0.3024" style="stop-color:#F8EFC0"/>
		<stop  offset="0.4008" style="stop-color:#E5D393"/>
		<stop  offset="0.5377" style="stop-color:#C7A84B"/>
		<stop  offset="0.5955" style="stop-color:#BA942B"/>
		<stop  offset="0.8482" style="stop-color:#E7D587"/>
		<stop  offset="0.8708" style="stop-color:#EBDB8F"/>
		<stop  offset="1" style="stop-color:#FFF9D1"/>
	</linearGradient>
	<path class="st9" d="M78.2,23.4l-0.6-1.8h-3.5l-0.6,1.8h-2l3.6-9.9h1.5l3.6,9.9H78.2z M75.9,16.4L74.7,20h2.5L75.9,16.4z"/>
	
		<linearGradient id="SVGID_9_" gradientUnits="userSpaceOnUse" x1="193.3753" y1="674.9062" x2="300.1703" y2="675.2279" gradientTransform="matrix(0 1 -1 0 758.4437 -222.7058)">
		<stop  offset="5.618000e-03" style="stop-color:#EEC92B"/>
		<stop  offset="0.2528" style="stop-color:#FFF9D1"/>
		<stop  offset="0.3024" style="stop-color:#F8EFC0"/>
		<stop  offset="0.4008" style="stop-color:#E5D393"/>
		<stop  offset="0.5377" style="stop-color:#C7A84B"/>
		<stop  offset="0.5955" style="stop-color:#BA942B"/>
		<stop  offset="0.8482" style="stop-color:#E7D587"/>
		<stop  offset="0.8708" style="stop-color:#EBDB8F"/>
		<stop  offset="1" style="stop-color:#FFF9D1"/>
	</linearGradient>
	<path class="st10" d="M84.1,23.4h-1.4L80,16.1h1.9l1.5,4.5l1.5-4.5h1.9L84.1,23.4z"/>
	
		<linearGradient id="SVGID_10_" gradientUnits="userSpaceOnUse" x1="177.8026" y1="668.0465" x2="300.1975" y2="668.4152" gradientTransform="matrix(0 1 -1 0 758.4437 -222.7058)">
		<stop  offset="5.618000e-03" style="stop-color:#EEC92B"/>
		<stop  offset="0.2528" style="stop-color:#FFF9D1"/>
		<stop  offset="0.3024" style="stop-color:#F8EFC0"/>
		<stop  offset="0.4008" style="stop-color:#E5D393"/>
		<stop  offset="0.5377" style="stop-color:#C7A84B"/>
		<stop  offset="0.5955" style="stop-color:#BA942B"/>
		<stop  offset="0.8482" style="stop-color:#E7D587"/>
		<stop  offset="0.8708" style="stop-color:#EBDB8F"/>
		<stop  offset="1" style="stop-color:#FFF9D1"/>
	</linearGradient>
	<path class="st11" d="M91.4,23.4v-0.6c-0.5,0.5-0.9,0.7-1.8,0.7c-0.8,0-1.4-0.2-1.9-0.6c-0.4-0.4-0.6-1-0.6-1.6
		c0-1.2,0.8-2.1,2.5-2.1h1.7v-0.4c0-0.8-0.4-1.1-1.4-1.1c-0.7,0-1,0.2-1.4,0.6L87.5,17c0.7-0.8,1.4-1,2.6-1c2,0,3.1,0.9,3.1,2.6v4.8
		H91.4z M91.4,20.3H90c-0.7,0-1,0.3-1,0.8c0,0.5,0.3,0.8,1,0.8c0.5,0,0.8,0,1.1-0.3c0.2-0.2,0.3-0.5,0.3-0.9V20.3z"/>
	
		<linearGradient id="SVGID_11_" gradientUnits="userSpaceOnUse" x1="169.0897" y1="660.064" x2="289.6259" y2="660.4271" gradientTransform="matrix(0 1 -1 0 758.4437 -222.7058)">
		<stop  offset="5.618000e-03" style="stop-color:#EEC92B"/>
		<stop  offset="0.2528" style="stop-color:#FFF9D1"/>
		<stop  offset="0.3024" style="stop-color:#F8EFC0"/>
		<stop  offset="0.4008" style="stop-color:#E5D393"/>
		<stop  offset="0.5377" style="stop-color:#C7A84B"/>
		<stop  offset="0.5955" style="stop-color:#BA942B"/>
		<stop  offset="0.8482" style="stop-color:#E7D587"/>
		<stop  offset="0.8708" style="stop-color:#EBDB8F"/>
		<stop  offset="1" style="stop-color:#FFF9D1"/>
	</linearGradient>
	<path class="st12" d="M99.4,23.4V19c0-1-0.6-1.3-1.2-1.3C97.6,17.7,97,18,97,19v4.4h-1.8v-7.3h1.8v0.7c0.5-0.5,1.1-0.8,1.8-0.8
		c0.7,0,1.3,0.2,1.7,0.6c0.6,0.6,0.7,1.3,0.7,2.1v4.6H99.4z"/>
	
		<linearGradient id="SVGID_12_" gradientUnits="userSpaceOnUse" x1="83.5073" y1="653.5128" x2="318.675" y2="654.2211" gradientTransform="matrix(0 1 -1 0 758.4437 -222.7058)">
		<stop  offset="5.618000e-03" style="stop-color:#EEC92B"/>
		<stop  offset="0.2528" style="stop-color:#FFF9D1"/>
		<stop  offset="0.3024" style="stop-color:#F8EFC0"/>
		<stop  offset="0.4008" style="stop-color:#E5D393"/>
		<stop  offset="0.5377" style="stop-color:#C7A84B"/>
		<stop  offset="0.5955" style="stop-color:#BA942B"/>
		<stop  offset="0.8482" style="stop-color:#E7D587"/>
		<stop  offset="0.8708" style="stop-color:#EBDB8F"/>
		<stop  offset="1" style="stop-color:#FFF9D1"/>
	</linearGradient>
	<path class="st13" d="M105.4,23.4c-1.5,0-2.1-1-2.1-2.1v-3.6h-0.8v-1.4h0.8v-2.1h1.8v2.1h1.3v1.4h-1.3v3.5c0,0.4,0.2,0.7,0.6,0.7
		h0.7v1.5H105.4z"/>
	
		<linearGradient id="SVGID_13_" gradientUnits="userSpaceOnUse" x1="152.8097" y1="647.7019" x2="275.2001" y2="648.0706" gradientTransform="matrix(0 1 -1 0 758.4437 -222.7058)">
		<stop  offset="5.618000e-03" style="stop-color:#EEC92B"/>
		<stop  offset="0.2528" style="stop-color:#FFF9D1"/>
		<stop  offset="0.3024" style="stop-color:#F8EFC0"/>
		<stop  offset="0.4008" style="stop-color:#E5D393"/>
		<stop  offset="0.5377" style="stop-color:#C7A84B"/>
		<stop  offset="0.5955" style="stop-color:#BA942B"/>
		<stop  offset="0.8482" style="stop-color:#E7D587"/>
		<stop  offset="0.8708" style="stop-color:#EBDB8F"/>
		<stop  offset="1" style="stop-color:#FFF9D1"/>
	</linearGradient>
	<path class="st14" d="M111.7,23.4v-0.6c-0.5,0.5-0.9,0.7-1.8,0.7c-0.8,0-1.4-0.2-1.9-0.6c-0.4-0.4-0.6-1-0.6-1.6
		c0-1.2,0.8-2.1,2.5-2.1h1.7v-0.4c0-0.8-0.4-1.1-1.4-1.1c-0.7,0-1,0.2-1.4,0.6l-1.2-1.1c0.7-0.8,1.4-1,2.6-1c2,0,3.1,0.9,3.1,2.6
		v4.8H111.7z M111.7,20.3h-1.4c-0.7,0-1,0.3-1,0.8c0,0.5,0.3,0.8,1,0.8c0.5,0,0.8,0,1.1-0.3c0.2-0.2,0.3-0.5,0.3-0.9V20.3z"/>
	
		<linearGradient id="SVGID_14_" gradientUnits="userSpaceOnUse" x1="109.0967" y1="639.9293" x2="275.5033" y2="640.4305" gradientTransform="matrix(0 1 -1 0 758.4437 -222.7058)">
		<stop  offset="5.618000e-03" style="stop-color:#EEC92B"/>
		<stop  offset="0.2528" style="stop-color:#FFF9D1"/>
		<stop  offset="0.3024" style="stop-color:#F8EFC0"/>
		<stop  offset="0.4008" style="stop-color:#E5D393"/>
		<stop  offset="0.5377" style="stop-color:#C7A84B"/>
		<stop  offset="0.5955" style="stop-color:#BA942B"/>
		<stop  offset="0.8482" style="stop-color:#E7D587"/>
		<stop  offset="0.8708" style="stop-color:#EBDB8F"/>
		<stop  offset="1" style="stop-color:#FFF9D1"/>
	</linearGradient>
	<path class="st15" d="M117.9,26.1c-1.1,0-1.9-0.2-2.6-0.9l1.1-1.1c0.4,0.4,0.8,0.6,1.4,0.6c1.1,0,1.5-0.8,1.5-1.5v-0.7
		c-0.5,0.5-1,0.7-1.7,0.7c-0.7,0-1.3-0.2-1.7-0.6c-0.7-0.7-0.7-1.6-0.7-2.9c0-1.3,0.1-2.2,0.7-2.9c0.4-0.4,1-0.6,1.7-0.6
		c0.8,0,1.3,0.2,1.8,0.8v-0.7h1.8v7C121.1,24.9,119.9,26.1,117.9,26.1z M118.1,17.7c-1.1,0-1.2,0.9-1.2,1.9c0,1,0.1,1.9,1.2,1.9
		c1.1,0,1.2-0.9,1.2-1.9C119.3,18.6,119.2,17.7,118.1,17.7z"/>
	
		<linearGradient id="SVGID_15_" gradientUnits="userSpaceOnUse" x1="138.9927" y1="632.1922" x2="255.4708" y2="632.543" gradientTransform="matrix(0 1 -1 0 758.4437 -222.7058)">
		<stop  offset="5.618000e-03" style="stop-color:#EEC92B"/>
		<stop  offset="0.2528" style="stop-color:#FFF9D1"/>
		<stop  offset="0.3024" style="stop-color:#F8EFC0"/>
		<stop  offset="0.4008" style="stop-color:#E5D393"/>
		<stop  offset="0.5377" style="stop-color:#C7A84B"/>
		<stop  offset="0.5955" style="stop-color:#BA942B"/>
		<stop  offset="0.8482" style="stop-color:#E7D587"/>
		<stop  offset="0.8708" style="stop-color:#EBDB8F"/>
		<stop  offset="1" style="stop-color:#FFF9D1"/>
	</linearGradient>
	<path class="st16" d="M124.6,20.3c0,0.9,0.6,1.6,1.6,1.6c0.8,0,1.2-0.2,1.6-0.7l1.1,1.1c-0.7,0.7-1.4,1.1-2.8,1.1
		c-1.7,0-3.4-0.8-3.4-3.7c0-2.4,1.3-3.7,3.2-3.7c2,0,3.2,1.5,3.2,3.5v0.8H124.6z M127.2,18.3c-0.2-0.4-0.6-0.8-1.2-0.8
		s-1,0.3-1.2,0.8c-0.1,0.3-0.2,0.5-0.2,0.8h2.8C127.3,18.8,127.3,18.6,127.2,18.3z"/>
	
		<linearGradient id="SVGID_16_" gradientUnits="userSpaceOnUse" x1="127.6299" y1="624.9475" x2="247.1268" y2="625.3074" gradientTransform="matrix(0 1 -1 0 758.4437 -222.7058)">
		<stop  offset="5.618000e-03" style="stop-color:#EEC92B"/>
		<stop  offset="0.2528" style="stop-color:#FFF9D1"/>
		<stop  offset="0.3024" style="stop-color:#F8EFC0"/>
		<stop  offset="0.4008" style="stop-color:#E5D393"/>
		<stop  offset="0.5377" style="stop-color:#C7A84B"/>
		<stop  offset="0.5955" style="stop-color:#BA942B"/>
		<stop  offset="0.8482" style="stop-color:#E7D587"/>
		<stop  offset="0.8708" style="stop-color:#EBDB8F"/>
		<stop  offset="1" style="stop-color:#FFF9D1"/>
	</linearGradient>
	<path class="st17" d="M133.2,23.5c-1.1,0-2.2-0.1-3.1-1l1.2-1.2c0.6,0.6,1.4,0.7,1.9,0.7c0.6,0,1.3-0.2,1.3-0.8
		c0-0.4-0.2-0.6-0.8-0.7l-1.1-0.1c-1.3-0.1-2.1-0.7-2.1-2c0-1.5,1.3-2.3,2.8-2.3c1.1,0,2.1,0.2,2.8,0.8l-1.1,1.1
		c-0.4-0.4-1.1-0.5-1.7-0.5c-0.7,0-1,0.3-1,0.7c0,0.3,0.1,0.6,0.8,0.6l1.1,0.1c1.4,0.1,2.2,0.9,2.2,2.1
		C136.2,22.7,134.9,23.5,133.2,23.5z"/>
	
		<linearGradient id="SVGID_17_" gradientUnits="userSpaceOnUse" x1="249.3011" y1="715.8523" x2="369.852" y2="716.2155" gradientTransform="matrix(0 1 -1 0 758.4437 -222.7058)">
		<stop  offset="5.618000e-03" style="stop-color:#EEC92B"/>
		<stop  offset="0.2528" style="stop-color:#FFF9D1"/>
		<stop  offset="0.3024" style="stop-color:#F8EFC0"/>
		<stop  offset="0.4008" style="stop-color:#E5D393"/>
		<stop  offset="0.5377" style="stop-color:#C7A84B"/>
		<stop  offset="0.5955" style="stop-color:#BA942B"/>
		<stop  offset="0.8482" style="stop-color:#E7D587"/>
		<stop  offset="0.8708" style="stop-color:#EBDB8F"/>
		<stop  offset="1" style="stop-color:#FFF9D1"/>
	</linearGradient>
	<path class="st18" d="M44.8,36.3l-0.6-1.7h-3.3l-0.6,1.7h-0.9l2.8-7.7h0.7l2.8,7.7H44.8z M42.6,29.8l-1.4,4H44L42.6,29.8z"/>
	
		<linearGradient id="SVGID_18_" gradientUnits="userSpaceOnUse" x1="239.8488" y1="709.818" x2="390.6773" y2="710.2723" gradientTransform="matrix(0 1 -1 0 758.4437 -222.7058)">
		<stop  offset="5.618000e-03" style="stop-color:#EEC92B"/>
		<stop  offset="0.2528" style="stop-color:#FFF9D1"/>
		<stop  offset="0.3024" style="stop-color:#F8EFC0"/>
		<stop  offset="0.4008" style="stop-color:#E5D393"/>
		<stop  offset="0.5377" style="stop-color:#C7A84B"/>
		<stop  offset="0.5955" style="stop-color:#BA942B"/>
		<stop  offset="0.8482" style="stop-color:#E7D587"/>
		<stop  offset="0.8708" style="stop-color:#EBDB8F"/>
		<stop  offset="1" style="stop-color:#FFF9D1"/>
	</linearGradient>
	<path class="st19" d="M49.8,32c-0.3-0.3-0.5-0.4-0.9-0.4c-0.8,0-1.3,0.6-1.3,1.4v3.3h-0.8V31h0.8v0.6c0.3-0.4,0.9-0.7,1.5-0.7
		c0.5,0,0.9,0.1,1.3,0.5L49.8,32z"/>
	
		<linearGradient id="SVGID_19_" gradientUnits="userSpaceOnUse" x1="217.1514" y1="706.2287" x2="482.4551" y2="707.0278" gradientTransform="matrix(0 1 -1 0 758.4437 -222.7058)">
		<stop  offset="5.618000e-03" style="stop-color:#EEC92B"/>
		<stop  offset="0.2528" style="stop-color:#FFF9D1"/>
		<stop  offset="0.3024" style="stop-color:#F8EFC0"/>
		<stop  offset="0.4008" style="stop-color:#E5D393"/>
		<stop  offset="0.5377" style="stop-color:#C7A84B"/>
		<stop  offset="0.5955" style="stop-color:#BA942B"/>
		<stop  offset="0.8482" style="stop-color:#E7D587"/>
		<stop  offset="0.8708" style="stop-color:#EBDB8F"/>
		<stop  offset="1" style="stop-color:#FFF9D1"/>
	</linearGradient>
	<path class="st20" d="M52.8,36.3c-0.9,0-1.4-0.6-1.4-1.4v-3.3h-0.7V31h0.7v-1.7h0.8V31h1.1v0.6h-1.1v3.2c0,0.5,0.2,0.8,0.7,0.8h0.4
		v0.7H52.8z"/>
	
		<linearGradient id="SVGID_20_" gradientUnits="userSpaceOnUse" x1="219.916" y1="701.3332" x2="401.5609" y2="701.8803" gradientTransform="matrix(0 1 -1 0 758.4437 -222.7058)">
		<stop  offset="5.618000e-03" style="stop-color:#EEC92B"/>
		<stop  offset="0.2528" style="stop-color:#FFF9D1"/>
		<stop  offset="0.3024" style="stop-color:#F8EFC0"/>
		<stop  offset="0.4008" style="stop-color:#E5D393"/>
		<stop  offset="0.5377" style="stop-color:#C7A84B"/>
		<stop  offset="0.5955" style="stop-color:#BA942B"/>
		<stop  offset="0.8482" style="stop-color:#E7D587"/>
		<stop  offset="0.8708" style="stop-color:#EBDB8F"/>
		<stop  offset="1" style="stop-color:#FFF9D1"/>
	</linearGradient>
	<path class="st21" d="M58.3,36.3V33c0-0.9-0.5-1.4-1.3-1.4c-0.8,0-1.3,0.5-1.3,1.4v3.3h-0.8v-7.7h0.8v2.9c0.4-0.4,0.9-0.6,1.5-0.6
		c1.2,0,1.9,0.8,1.9,2v3.4H58.3z"/>
	
		<linearGradient id="SVGID_21_" gradientUnits="userSpaceOnUse" x1="223.96" y1="695.3476" x2="351.3371" y2="695.7313" gradientTransform="matrix(0 1 -1 0 758.4437 -222.7058)">
		<stop  offset="5.618000e-03" style="stop-color:#EEC92B"/>
		<stop  offset="0.2528" style="stop-color:#FFF9D1"/>
		<stop  offset="0.3024" style="stop-color:#F8EFC0"/>
		<stop  offset="0.4008" style="stop-color:#E5D393"/>
		<stop  offset="0.5377" style="stop-color:#C7A84B"/>
		<stop  offset="0.5955" style="stop-color:#BA942B"/>
		<stop  offset="0.8482" style="stop-color:#E7D587"/>
		<stop  offset="0.8708" style="stop-color:#EBDB8F"/>
		<stop  offset="1" style="stop-color:#FFF9D1"/>
	</linearGradient>
	<path class="st22" d="M64.3,36.3v-0.6c-0.4,0.4-0.9,0.7-1.5,0.7c-0.6,0-1-0.2-1.4-0.5c-0.4-0.4-0.5-0.9-0.5-1.5V31h0.8v3.3
		c0,0.9,0.5,1.4,1.3,1.4c0.8,0,1.3-0.5,1.3-1.4V31h0.8v5.3H64.3z"/>
	
		<linearGradient id="SVGID_22_" gradientUnits="userSpaceOnUse" x1="209.1518" y1="689.5259" x2="359.9802" y2="689.9802" gradientTransform="matrix(0 1 -1 0 758.4437 -222.7058)">
		<stop  offset="5.618000e-03" style="stop-color:#EEC92B"/>
		<stop  offset="0.2528" style="stop-color:#FFF9D1"/>
		<stop  offset="0.3024" style="stop-color:#F8EFC0"/>
		<stop  offset="0.4008" style="stop-color:#E5D393"/>
		<stop  offset="0.5377" style="stop-color:#C7A84B"/>
		<stop  offset="0.5955" style="stop-color:#BA942B"/>
		<stop  offset="0.8482" style="stop-color:#E7D587"/>
		<stop  offset="0.8708" style="stop-color:#EBDB8F"/>
		<stop  offset="1" style="stop-color:#FFF9D1"/>
	</linearGradient>
	<path class="st23" d="M70,32c-0.3-0.3-0.5-0.4-0.9-0.4c-0.8,0-1.3,0.6-1.3,1.4v3.3H67V31h0.8v0.6c0.3-0.4,0.9-0.7,1.5-0.7
		c0.5,0,0.9,0.1,1.3,0.5L70,32z"/>
	
		<linearGradient id="SVGID_23_" gradientUnits="userSpaceOnUse" x1="-44.9643" y1="685.6085" x2="826.2436" y2="688.2327" gradientTransform="matrix(0 1 -1 0 758.4437 -222.7058)">
		<stop  offset="5.618000e-03" style="stop-color:#EEC92B"/>
		<stop  offset="0.2528" style="stop-color:#FFF9D1"/>
		<stop  offset="0.3024" style="stop-color:#F8EFC0"/>
		<stop  offset="0.4008" style="stop-color:#E5D393"/>
		<stop  offset="0.5377" style="stop-color:#C7A84B"/>
		<stop  offset="0.5955" style="stop-color:#BA942B"/>
		<stop  offset="0.8482" style="stop-color:#E7D587"/>
		<stop  offset="0.8708" style="stop-color:#EBDB8F"/>
		<stop  offset="1" style="stop-color:#FFF9D1"/>
	</linearGradient>
	<path class="st24" d="M71.5,29.5v-0.9h0.9v0.9H71.5z M71.5,36.3V31h0.8v5.3H71.5z"/>
	
		<linearGradient id="SVGID_24_" gradientUnits="userSpaceOnUse" x1="227.768" y1="680.2978" x2="298.0504" y2="680.5095" gradientTransform="matrix(0 1 -1 0 758.4437 -222.7058)">
		<stop  offset="5.618000e-03" style="stop-color:#EEC92B"/>
		<stop  offset="0.2528" style="stop-color:#FFF9D1"/>
		<stop  offset="0.3024" style="stop-color:#F8EFC0"/>
		<stop  offset="0.4008" style="stop-color:#E5D393"/>
		<stop  offset="0.5377" style="stop-color:#C7A84B"/>
		<stop  offset="0.5955" style="stop-color:#BA942B"/>
		<stop  offset="0.8482" style="stop-color:#E7D587"/>
		<stop  offset="0.8708" style="stop-color:#EBDB8F"/>
		<stop  offset="1" style="stop-color:#FFF9D1"/>
	</linearGradient>
	<path class="st25" d="M81.1,36.3V33c0-0.9-0.5-1.4-1.3-1.4c-0.8,0-1.3,0.5-1.3,1.3v3.3h-0.8V33c0-0.9-0.5-1.4-1.3-1.4
		c-0.8,0-1.3,0.5-1.3,1.4v3.3h-0.8V31H75v0.6c0.4-0.4,0.9-0.6,1.5-0.6c0.7,0,1.3,0.3,1.6,0.9c0.4-0.6,1-0.9,1.7-0.9
		c0.6,0,1,0.2,1.4,0.5c0.4,0.4,0.6,0.9,0.6,1.5v3.4H81.1z"/>
	
		<linearGradient id="SVGID_25_" gradientUnits="userSpaceOnUse" x1="221.0693" y1="670.8181" x2="291.3517" y2="671.0297" gradientTransform="matrix(0 1 -1 0 758.4437 -222.7058)">
		<stop  offset="5.618000e-03" style="stop-color:#EEC92B"/>
		<stop  offset="0.2528" style="stop-color:#FFF9D1"/>
		<stop  offset="0.3024" style="stop-color:#F8EFC0"/>
		<stop  offset="0.4008" style="stop-color:#E5D393"/>
		<stop  offset="0.5377" style="stop-color:#C7A84B"/>
		<stop  offset="0.5955" style="stop-color:#BA942B"/>
		<stop  offset="0.8482" style="stop-color:#E7D587"/>
		<stop  offset="0.8708" style="stop-color:#EBDB8F"/>
		<stop  offset="1" style="stop-color:#FFF9D1"/>
	</linearGradient>
	<path class="st26" d="M90.5,36.3V33c0-0.9-0.5-1.4-1.3-1.4c-0.8,0-1.3,0.5-1.3,1.3v3.3h-0.8V33c0-0.9-0.5-1.4-1.3-1.4
		c-0.8,0-1.3,0.5-1.3,1.4v3.3h-0.8V31h0.8v0.6c0.4-0.4,0.9-0.6,1.5-0.6c0.7,0,1.3,0.3,1.6,0.9c0.4-0.6,1-0.9,1.7-0.9
		c0.6,0,1,0.2,1.4,0.5c0.4,0.4,0.6,0.9,0.6,1.5v3.4H90.5z"/>
	
		<linearGradient id="SVGID_26_" gradientUnits="userSpaceOnUse" x1="184.4703" y1="663.153" x2="308.8947" y2="663.5278" gradientTransform="matrix(0 1 -1 0 758.4437 -222.7058)">
		<stop  offset="5.618000e-03" style="stop-color:#EEC92B"/>
		<stop  offset="0.2528" style="stop-color:#FFF9D1"/>
		<stop  offset="0.3024" style="stop-color:#F8EFC0"/>
		<stop  offset="0.4008" style="stop-color:#E5D393"/>
		<stop  offset="0.5377" style="stop-color:#C7A84B"/>
		<stop  offset="0.5955" style="stop-color:#BA942B"/>
		<stop  offset="0.8482" style="stop-color:#E7D587"/>
		<stop  offset="0.8708" style="stop-color:#EBDB8F"/>
		<stop  offset="1" style="stop-color:#FFF9D1"/>
	</linearGradient>
	<path class="st27" d="M96.6,35.8c-0.4,0.4-0.9,0.6-1.5,0.6c-0.6,0-1.2-0.2-1.5-0.6c-0.5-0.5-0.6-1.3-0.6-2.1c0-0.8,0.1-1.6,0.6-2.1
		c0.4-0.4,0.9-0.6,1.5-0.6c0.6,0,1.2,0.2,1.5,0.6c0.5,0.5,0.6,1.3,0.6,2.1C97.2,34.5,97.1,35.2,96.6,35.8z M96,32
		c-0.2-0.2-0.6-0.4-1-0.4c-0.4,0-0.7,0.1-1,0.4c-0.4,0.4-0.4,1-0.4,1.6s0,1.2,0.4,1.6c0.2,0.2,0.6,0.4,1,0.4c0.4,0,0.7-0.1,1-0.4
		c0.4-0.4,0.4-1,0.4-1.6S96.4,32.4,96,32z"/>
	
		<linearGradient id="SVGID_27_" gradientUnits="userSpaceOnUse" x1="196.8457" y1="658.8793" x2="296.0944" y2="659.1783" gradientTransform="matrix(0 1 -1 0 758.4437 -222.7058)">
		<stop  offset="5.618000e-03" style="stop-color:#EEC92B"/>
		<stop  offset="0.2528" style="stop-color:#FFF9D1"/>
		<stop  offset="0.3024" style="stop-color:#F8EFC0"/>
		<stop  offset="0.4008" style="stop-color:#E5D393"/>
		<stop  offset="0.5377" style="stop-color:#C7A84B"/>
		<stop  offset="0.5955" style="stop-color:#BA942B"/>
		<stop  offset="0.8482" style="stop-color:#E7D587"/>
		<stop  offset="0.8708" style="stop-color:#EBDB8F"/>
		<stop  offset="1" style="stop-color:#FFF9D1"/>
	</linearGradient>
	<path class="st28" d="M98.9,36.3v-1h1v1H98.9z"/>
	
		<linearGradient id="SVGID_28_" gradientUnits="userSpaceOnUse" x1="169.1771" y1="654.6238" x2="300.6244" y2="655.0198" gradientTransform="matrix(0 1 -1 0 758.4437 -222.7058)">
		<stop  offset="5.618000e-03" style="stop-color:#EEC92B"/>
		<stop  offset="0.2528" style="stop-color:#FFF9D1"/>
		<stop  offset="0.3024" style="stop-color:#F8EFC0"/>
		<stop  offset="0.4008" style="stop-color:#E5D393"/>
		<stop  offset="0.5377" style="stop-color:#C7A84B"/>
		<stop  offset="0.5955" style="stop-color:#BA942B"/>
		<stop  offset="0.8482" style="stop-color:#E7D587"/>
		<stop  offset="0.8708" style="stop-color:#EBDB8F"/>
		<stop  offset="1" style="stop-color:#FFF9D1"/>
	</linearGradient>
	<path class="st29" d="M103.9,36.4c-1.3,0-2.3-0.9-2.3-2.7s1-2.7,2.3-2.7c0.7,0,1.2,0.2,1.7,0.8l-0.5,0.5c-0.4-0.4-0.7-0.6-1.2-0.6
		c-0.5,0-0.9,0.2-1.2,0.6c-0.2,0.3-0.3,0.8-0.3,1.4c0,0.7,0.1,1.1,0.3,1.4c0.3,0.4,0.7,0.6,1.2,0.6c0.5,0,0.8-0.2,1.2-0.6l0.5,0.5
		C105.1,36.2,104.6,36.4,103.9,36.4z"/>
	
		<linearGradient id="SVGID_29_" gradientUnits="userSpaceOnUse" x1="167.2662" y1="649.3816" x2="291.6969" y2="649.7563" gradientTransform="matrix(0 1 -1 0 758.4437 -222.7058)">
		<stop  offset="5.618000e-03" style="stop-color:#EEC92B"/>
		<stop  offset="0.2528" style="stop-color:#FFF9D1"/>
		<stop  offset="0.3024" style="stop-color:#F8EFC0"/>
		<stop  offset="0.4008" style="stop-color:#E5D393"/>
		<stop  offset="0.5377" style="stop-color:#C7A84B"/>
		<stop  offset="0.5955" style="stop-color:#BA942B"/>
		<stop  offset="0.8482" style="stop-color:#E7D587"/>
		<stop  offset="0.8708" style="stop-color:#EBDB8F"/>
		<stop  offset="1" style="stop-color:#FFF9D1"/>
	</linearGradient>
	<path class="st30" d="M110.3,35.8c-0.4,0.4-0.9,0.6-1.5,0.6c-0.6,0-1.2-0.2-1.5-0.6c-0.5-0.5-0.6-1.3-0.6-2.1
		c0-0.8,0.1-1.6,0.6-2.1c0.4-0.4,0.9-0.6,1.5-0.6c0.6,0,1.2,0.2,1.5,0.6c0.5,0.5,0.6,1.3,0.6,2.1C111,34.5,110.8,35.2,110.3,35.8z
		 M109.8,32c-0.2-0.2-0.6-0.4-1-0.4s-0.7,0.1-1,0.4c-0.4,0.4-0.4,1-0.4,1.6s0,1.2,0.4,1.6c0.2,0.2,0.6,0.4,1,0.4s0.7-0.1,1-0.4
		c0.4-0.4,0.4-1,0.4-1.6S110.2,32.4,109.8,32z"/>
	
		<linearGradient id="SVGID_30_" gradientUnits="userSpaceOnUse" x1="200.616" y1="641.8732" x2="270.8984" y2="642.085" gradientTransform="matrix(0 1 -1 0 758.4437 -222.7058)">
		<stop  offset="5.618000e-03" style="stop-color:#EEC92B"/>
		<stop  offset="0.2528" style="stop-color:#FFF9D1"/>
		<stop  offset="0.3024" style="stop-color:#F8EFC0"/>
		<stop  offset="0.4008" style="stop-color:#E5D393"/>
		<stop  offset="0.5377" style="stop-color:#C7A84B"/>
		<stop  offset="0.5955" style="stop-color:#BA942B"/>
		<stop  offset="0.8482" style="stop-color:#E7D587"/>
		<stop  offset="0.8708" style="stop-color:#EBDB8F"/>
		<stop  offset="1" style="stop-color:#FFF9D1"/>
	</linearGradient>
	<path class="st31" d="M119.4,36.3V33c0-0.9-0.5-1.4-1.3-1.4c-0.8,0-1.3,0.5-1.3,1.3v3.3H116V33c0-0.9-0.5-1.4-1.3-1.4
		c-0.8,0-1.3,0.5-1.3,1.4v3.3h-0.8V31h0.8v0.6c0.4-0.4,0.9-0.6,1.5-0.6c0.7,0,1.3,0.3,1.6,0.9c0.4-0.6,1-0.9,1.7-0.9
		c0.6,0,1,0.2,1.4,0.5c0.4,0.4,0.6,0.9,0.6,1.5v3.4H119.4z"/>
</g>
</svg>
