<?xml version="1.0" encoding="utf-8"?>
<!-- Generator: Adobe Illustrator 23.1.0, SVG Export Plug-In . SVG Version: 6.00 Build 0)  -->
<svg version="1.1" id="Calque_1" xmlns="http://www.w3.org/2000/svg" xmlns:xlink="http://www.w3.org/1999/xlink" x="0px" y="0px"
	 viewBox="0 0 793 172" style="enable-background:new 0 0 793 172;" xml:space="preserve">
<style type="text/css">
	.st0{fill:#DC931A;}
	.st1{fill:#FFFFFF;}
	.st2{fill:url(#SVGID_1_);}
	.st3{fill:url(#SVGID_2_);}
	.st4{fill:url(#SVGID_3_);}
	.st5{fill:url(#SVGID_4_);}
	.st6{fill:url(#SVGID_5_);}
	.st7{fill:url(#SVGID_6_);}
	.st8{fill:url(#SVGID_7_);}
</style>
<path class="st0" d="M191.2,128.4v-15.1h2.3v13.1h7.3v2.1L191.2,128.4L191.2,128.4z"/>
<path class="st0" d="M205.5,128.4v-15.1h9.7v2.1h-7.4v4.4h6.3v2h-6.3v4.5h7.4v2.1H205.5z"/>
<path class="st0" d="M236.2,128.4l-3.2-6.4h-2.9v6.4h-2.3v-15.1h5.9c2.9,0,4.7,1.9,4.7,4.4c0,2.2-1.3,3.5-3,4l3.5,6.7H236.2z
	 M233.5,115.4h-3.4v4.7h3.4c1.5,0,2.6-0.9,2.6-2.4C236.1,116.3,235,115.4,233.5,115.4z"/>
<path class="st0" d="M243.9,128.4v-15.1h9.7v2.1h-7.4v4.4h6.3v2h-6.3v4.5h7.4v2.1H243.9z"/>
<path class="st0" d="M262.9,128.6c-2.3,0-3.9-0.5-5.4-2l1.5-1.5c1.1,1.1,2.3,1.5,3.9,1.5c2,0,3.1-0.9,3.1-2.3c0-0.7-0.2-1.2-0.6-1.6
	c-0.4-0.4-0.8-0.5-1.7-0.6l-1.8-0.3c-1.2-0.2-2.2-0.6-2.9-1.2c-0.7-0.7-1.1-1.7-1.1-2.9c0-2.6,1.9-4.4,5.1-4.4c2,0,3.4,0.5,4.7,1.7
	l-1.5,1.5c-0.9-0.9-2-1.2-3.3-1.2c-1.8,0-2.8,1-2.8,2.4c0,0.5,0.2,1,0.6,1.4c0.4,0.3,1,0.6,1.7,0.7l1.7,0.3c1.4,0.2,2.2,0.5,2.8,1.1
	c0.8,0.7,1.2,1.8,1.2,3.1C268.4,126.9,266.1,128.6,262.9,128.6z"/>
<path class="st0" d="M273.6,128.4v-15.1h9.7v2.1h-7.4v4.4h6.3v2h-6.3v4.5h7.4v2.1H273.6z"/>
<path class="st0" d="M297.3,128.4l-1-3h-6l-1,3h-2.5l5.5-15.1h1.9l5.5,15.1H297.3z M293.4,116.7l-2.4,6.7h4.6L293.4,116.7z"/>
<path class="st0" d="M309.3,128.6c-3.1,0-5.4-2.1-5.4-5.2v-10h2.3v9.9c0,2,1.2,3.3,3.1,3.3c1.9,0,3.1-1.3,3.1-3.3v-9.9h2.3v10
	C314.7,126.5,312.4,128.6,309.3,128.6z"/>
<path class="st0" d="M337.2,128.4l-7-10.6v10.6h-2.3v-15.1h2.1l7,10.6v-10.6h2.3v15.1H337.2z"/>
<path class="st0" d="M354.1,128.4l-1-3h-6l-1,3h-2.4l5.5-15.1h1.9l5.5,15.1H354.1z M350.1,116.7l-2.4,6.7h4.6L350.1,116.7z"/>
<path class="st0" d="M364.7,115.4v13.1h-2.3v-13.1h-4.2v-2.1h10.6v2.1H364.7z"/>
<path class="st0" d="M373.7,128.4v-15.1h2.3v15.1H373.7z"/>
<path class="st0" d="M391,127c-1,1-2.4,1.6-4,1.6s-2.9-0.6-4-1.6c-1.5-1.5-1.5-3.2-1.5-6.1s0-4.6,1.5-6.1c1-1,2.4-1.6,4-1.6
	c1.6,0,3,0.6,4,1.6c1.5,1.5,1.5,3.2,1.5,6.1S392.5,125.5,391,127z M389.3,116.2c-0.5-0.6-1.4-0.9-2.3-0.9s-1.7,0.4-2.3,0.9
	c-0.7,0.8-0.9,1.7-0.9,4.7s0.1,3.9,0.9,4.7c0.5,0.6,1.4,0.9,2.3,0.9s1.7-0.4,2.3-0.9c0.7-0.8,0.9-1.7,0.9-4.7
	C390.1,117.8,390,117,389.3,116.2z"/>
<path class="st0" d="M407.3,128.4l-7-10.6v10.6H398v-15.1h2.1l7,10.6v-10.6h2.3v15.1H407.3z"/>
<path class="st0" d="M424.2,128.4l-1-3h-6l-1,3h-2.5l5.5-15.1h1.9l5.5,15.1H424.2z M420.3,116.7l-2.4,6.7h4.6L420.3,116.7z"/>
<path class="st0" d="M431,128.4v-15.1h2.3v13.1h7.3v2.1L431,128.4L431,128.4z"/>
<path class="st0" d="M452.7,128.4v-15.1h2.3v15.1H452.7z"/>
<path class="st0" d="M472.1,128.4v-10.1l-3.5,7.4H467l-3.6-7.4v10.1h-2.3v-15.1h2.3l4.4,9.4l4.3-9.4h2.3v15.1H472.1z"/>
<path class="st0" d="M491.6,128.4v-10.1l-3.5,7.4h-1.7l-3.6-7.4v10.1h-2.3v-15.1h2.3l4.4,9.4l4.3-9.4h2.3v15.1H491.6z"/>
<path class="st0" d="M508.9,127c-1,1-2.4,1.6-4,1.6s-2.9-0.6-4-1.6c-1.5-1.5-1.5-3.2-1.5-6.1s0-4.6,1.5-6.1c1-1,2.4-1.6,4-1.6
	c1.6,0,3,0.6,4,1.6c1.5,1.5,1.5,3.2,1.5,6.1S510.4,125.5,508.9,127z M507.2,116.2c-0.5-0.6-1.4-0.9-2.3-0.9s-1.7,0.4-2.3,0.9
	c-0.8,0.8-0.9,1.7-0.9,4.7s0.2,3.9,0.9,4.7c0.5,0.6,1.4,0.9,2.3,0.9s1.7-0.4,2.3-0.9c0.7-0.8,0.9-1.7,0.9-4.7
	C508,117.8,507.9,117,507.2,116.2z"/>
<path class="st0" d="M522,128.4h-6.1v-15.1h5.9c2.8,0,4.6,1.6,4.6,4.1c0,1.6-1,2.8-2,3.2c1.2,0.5,2.3,1.6,2.3,3.5
	C526.6,127,524.7,128.4,522,128.4z M521.6,115.4h-3.4v4.3h3.4c1.5,0,2.5-0.8,2.5-2.2C524.1,116.1,523.1,115.4,521.6,115.4z
	 M521.8,121.8h-3.6v4.6h3.6c1.6,0,2.5-1,2.5-2.3S523.4,121.8,521.8,121.8z"/>
<path class="st0" d="M532.2,128.4v-15.1h2.3v15.1H532.2z"/>
<path class="st0" d="M540.6,128.4v-15.1h2.3v13.1h7.3v2.1L540.6,128.4L540.6,128.4z"/>
<path class="st0" d="M555,128.4v-15.1h2.3v15.1H555z"/>
<path class="st0" d="M563.4,128.4v-15.1h9.7v2.1h-7.4v4.4h6.3v2h-6.3v4.5h7.4v2.1H563.4z"/>
<path class="st0" d="M586.8,128.4l-3.2-6.4h-2.9v6.4h-2.3v-15.1h5.9c2.9,0,4.7,1.9,4.7,4.4c0,2.2-1.3,3.5-3,4l3.5,6.7H586.8z
	 M584.1,115.4h-3.4v4.7h3.4c1.5,0,2.6-0.9,2.6-2.4C586.7,116.3,585.6,115.4,584.1,115.4z"/>
<path class="st0" d="M605.2,128.4v-12.8l-3,2.6v-2.4l3-2.5h2.2v15.1L605.2,128.4L605.2,128.4z"/>
<path class="st0" d="M619,128.6c-2.4,0-4.4-1.6-4.4-4.3v-6.7c0-2.7,2-4.3,4.4-4.3c2.4,0,4.4,1.6,4.4,4.3v6.7
	C623.3,126.9,621.4,128.6,619,128.6z M621.2,117.6c0-1.5-0.8-2.5-2.2-2.5s-2.2,1-2.2,2.5v6.6c0,1.5,0.8,2.5,2.2,2.5s2.2-1,2.2-2.5
	V117.6z"/>
<path class="st0" d="M632.5,128.6c-2.4,0-4.4-1.6-4.4-4.3v-6.7c0-2.7,2-4.3,4.4-4.3c2.4,0,4.4,1.6,4.4,4.3v6.7
	C636.9,126.9,634.9,128.6,632.5,128.6z M634.7,117.6c0-1.5-0.8-2.5-2.2-2.5s-2.2,1-2.2,2.5v6.6c0,1.5,0.8,2.5,2.2,2.5s2.2-1,2.2-2.5
	V117.6z"/>
<path class="st0" d="M644.5,121.1c-1.7,0-3-1.1-3-2.9v-2.1c0-1.8,1.3-2.9,3-2.9s3,1.1,3,2.9v2.1C647.5,120,646.2,121.1,644.5,121.1z
	 M645.9,116.1c0-1-0.4-1.5-1.3-1.5c-0.9,0-1.3,0.5-1.3,1.5v2c0,1,0.4,1.5,1.3,1.5c0.9,0,1.3-0.5,1.3-1.5V116.1z M646.6,128.4h-1.7
	l7.1-15.1h1.7L646.6,128.4z M654,128.6c-1.7,0-3-1.1-3-2.9v-2.1c0-1.8,1.3-2.9,3-2.9s3,1.1,3,2.9v2.1
	C657,127.5,655.7,128.6,654,128.6z M655.4,123.6c0-1-0.4-1.5-1.3-1.5c-0.9,0-1.3,0.5-1.3,1.5v2c0,1,0.4,1.5,1.3,1.5
	c0.9,0,1.3-0.6,1.3-1.5V123.6z"/>
<path class="st0" d="M669.7,128.4v-15.1h9.7v2.1h-7.4v4.4h6.3v2h-6.3v4.5h7.4v2.1H669.7z"/>
<path class="st0" d="M692.1,128.4l-3.3-5.8l-3.3,5.8h-2.6l4.7-7.8l-4.4-7.4h2.6l3,5.4l3-5.4h2.6l-4.4,7.4l4.7,7.8H692.1z"/>
<path class="st0" d="M704.9,122.5h-3.5v6h-2.3v-15.1h5.7c3,0,4.8,2,4.8,4.6C709.7,120.5,707.8,122.5,704.9,122.5z M704.7,115.4h-3.3
	v5h3.3c1.6,0,2.7-0.9,2.7-2.5C707.4,116.3,706.3,115.4,704.7,115.4z"/>
<path class="st0" d="M714.7,128.4v-15.1h9.7v2.1H717v4.4h6.3v2H717v4.5h7.4v2.1H714.7z"/>
<path class="st0" d="M738,128.4l-3.2-6.4H732v6.4h-2.3v-15.1h5.9c2.9,0,4.7,1.9,4.7,4.4c0,2.2-1.3,3.5-3,4l3.5,6.7H738z
	 M735.4,115.4H732v4.7h3.4c1.5,0,2.6-0.9,2.6-2.4C737.9,116.3,736.9,115.4,735.4,115.4z"/>
<path class="st0" d="M750.9,115.4v13.1h-2.3v-13.1h-4.2v-2.1h10.6v2.1H750.9z"/>
<path class="st1" d="M224.4,48.2l19.3,48.9h-11.4L228,85.9h-22.2l-4.4,11.2H190l19.4-48.6c1-2.5,2.4-6.5,7.6-6.5
	C221.8,41.9,223.2,44.9,224.4,48.2z M216.9,57.1l-7.3,18.7h14.6L216.9,57.1z"/>
<path class="st1" d="M247.4,56.8h8.6v3.5c3.1-3.6,5.6-4.1,7.5-4.1c1.5,0,2.9,0.3,3.5,0.9v8.4c-0.9-0.7-1.9-1.1-3.6-1.1
	c-1.5,0-6.1,1.3-6.1,8.9l0,7.4v16.3h-10V56.8z"/>
<path class="st1" d="M383.7,56.8h8.7v3.5c3.1-3.6,5.6-4.1,7.5-4.1c1.5,0,2.9,0.3,3.5,0.9v8.4c-0.9-0.7-1.9-1.1-3.6-1.1
	c-1.5,0-6.1,1.3-6.1,8.9l0,7.4v16.3h-10L383.7,56.8L383.7,56.8z"/>
<path class="st1" d="M277.2,42h10.1v14.8h6v8.7h-6v31.5h-10.1V65.5H272v-8.7h5.2V42z"/>
<path class="st1" d="M316.3,65c-6.4,0-7.8,5.3-7.8,8.9v23.1h-10V42.2h10v18.7c2-1.7,4-3,6-3.8c2-0.9,4-1.3,6.1-1.3
	c4,0,7.4,1.4,10.1,4.1c2.4,2.4,3.5,5.9,3.5,10.5v26.6h-10v-23C324.2,69.4,322.2,65,316.3,65z"/>
<path class="st1" d="M341.5,56.8h10.2v19.4c0,3.8,0.3,6.4,0.8,7.9s1.4,2.6,2.5,3.4c1.1,0.8,2.6,1.2,4.3,1.2s3.1-0.4,4.3-1.2
	c1.2-0.8,2-2,2.6-3.5c0.4-1.2,0.6-3.6,0.6-7.4V56.8h10.1v17c0,7-0.6,11.8-1.7,14.4c-1.4,3.2-3.4,5.6-6,7.3c-2.6,1.7-6,2.5-10.1,2.5
	c-4.4,0-8-1-10.7-3s-4.6-4.7-5.8-8.3c-0.8-2.4-1.2-6.9-1.2-13.3L341.5,56.8L341.5,56.8z"/>
<path class="st1" d="M472.1,65c-5.7,0-7.7,4.4-7.7,7.8v24.2h-10.2V72.9c0-3-2-7.7-7.8-7.7s-7.9,4.7-7.9,8.3v23.7h-10.1V56.8h10.1
	v4.6c1.7-1.9,3.6-3.3,5.8-4.3c2.1-0.9,4.4-1.4,6.9-1.4c2.5,0,4.8,0.6,6.8,1.9c2,1.2,3.6,3,4.9,5.4c1.6-2.4,3.6-4.2,5.9-5.4
	c2.3-1.2,4.9-1.9,7.6-1.9c2.9,0,5.4,0.7,7.5,2c2.2,1.3,3.7,3.1,4.7,5.2c1,2.1,1.4,5.6,1.4,10.5v23.6h-10.2V72.9
	C479.9,69.7,478,65,472.1,65z"/>
<path class="st1" d="M541.7,65c-5.7,0-7.7,4.4-7.7,7.8v24.2h-10.2V72.9c0-3-2-7.7-7.8-7.7s-7.9,4.7-7.9,8.3v23.7H498V56.8h10.1v4.6
	c1.7-1.9,3.7-3.3,5.8-4.3s4.4-1.4,6.9-1.4c2.5,0,4.8,0.6,6.8,1.9c2,1.2,3.7,3,4.9,5.4c1.6-2.4,3.6-4.2,5.9-5.4
	c2.3-1.2,4.9-1.9,7.6-1.9c2.9,0,5.4,0.7,7.5,2c2.2,1.3,3.7,3.1,4.7,5.2c1,2.1,1.4,5.6,1.4,10.5v23.6h-10.2V72.9
	C549.5,69.7,547.6,65,541.7,65z"/>
<path class="st0" d="M611.9,86.5c1.6,0,3,0.6,4.1,1.7s1.7,2.5,1.7,4.1c0,1.6-0.6,3-1.7,4.1c-1.1,1.1-2.5,1.7-4.1,1.7
	c-1.6,0-3-0.6-4.1-1.7s-1.7-2.5-1.7-4.1c0-1.6,0.6-3,1.7-4.1C608.9,87.1,610.3,86.5,611.9,86.5z"/>
<path class="st0" d="M736.5,65c-5.7,0-7.7,4.4-7.7,7.8v24.2h-10.2V72.9c0-3-2-7.7-7.8-7.7s-7.9,4.7-7.9,8.3v23.7h-10.1V56.8h10.1
	v4.6c1.7-1.9,3.7-3.3,5.8-4.3s4.4-1.4,6.9-1.4c2.5,0,4.8,0.6,6.8,1.9c2,1.2,3.7,3,4.9,5.4c1.6-2.4,3.6-4.2,5.9-5.4
	c2.3-1.2,4.9-1.9,7.6-1.9c2.9,0,5.4,0.7,7.5,2c2.2,1.3,3.7,3.1,4.7,5.2c1,2.1,1.4,5.6,1.4,10.5v23.6h-10.2V72.9
	C744.3,69.7,742.3,65,736.5,65z"/>
<path class="st1" d="M601.3,81.2c0,14.8-12.8,16.8-17.6,16.8s-17.6-2-17.6-16.8v-7.7c0-14.8,12.8-16.8,17.6-16.8
	c4.8,0,17.6,2,17.6,16.8V81.2z M576.3,82.2c0,6,5.3,6.9,7.4,6.9s7.4-0.9,7.4-6.9v-9.5c0-6-5.3-6.9-7.4-6.9c-2.2,0-7.4,0.9-7.4,6.9
	V82.2z"/>
<path class="st0" d="M687,81.2C687,96,674.2,98,669.4,98s-17.6-2-17.6-16.8v-7.7c0-14.8,12.8-16.8,17.6-16.8s17.6,2,17.6,16.8V81.2z
	 M662,82.2c0,6,5.3,6.9,7.4,6.9c2.2,0,7.4-0.9,7.4-6.9v-9.5c0-6-5.3-6.9-7.4-6.9s-7.4,0.9-7.4,6.9V82.2z"/>
<path class="st0" d="M639.6,88.6c-2.2,0-7.4-0.9-7.4-6.9v-8.6c0-6,5.3-6.9,7.4-6.9c1.3,0,4.9-0.3,6.6,1.2v-10
	c-2.1-0.5-5.3-0.7-6.7-0.7c-4.8,0-17.6,2-17.6,16.8v7.7c0,14.8,12.8,16.8,17.6,16.8c1.3,0,4.5-0.1,6.7-0.7v-9.9
	C644.5,88.9,640.9,88.6,639.6,88.6z"/>
<path class="st1" d="M421.4,46.7c0,1.8-0.6,3.3-1.9,4.6c-1.3,1.3-2.8,1.9-4.6,1.9c-1.8,0-3.3-0.6-4.6-1.9c-1.3-1.3-1.9-2.8-1.9-4.6
	c0-1.8,0.6-3.3,1.9-4.6c1.3-1.3,2.8-1.9,4.6-1.9c1.8,0,3.3,0.6,4.6,1.9C420.8,43.4,421.4,44.9,421.4,46.7z M419.9,46.7
	c0-1.4-0.5-2.6-1.4-3.6s-2.1-1.4-3.5-1.4c-1.4,0-2.5,0.5-3.5,1.4c-1,1-1.4,2.1-1.4,3.6s0.5,2.6,1.4,3.6s2.1,1.4,3.5,1.4
	s2.6-0.5,3.5-1.4S419.9,48.2,419.9,46.7z M417.8,50.1h-1.8l-1.3-2.6h-0.7v2.6h-1.5v-6.9h2.8c0.7,0,1.2,0.2,1.6,0.6
	c0.4,0.4,0.6,0.9,0.6,1.5c0,0.9-0.4,1.5-1.3,1.8L417.8,50.1z M416.1,45.4c0-0.3-0.1-0.5-0.3-0.6s-0.4-0.3-0.7-0.3h-1.1v1.8h1.1
	c0.3,0,0.5-0.1,0.7-0.3C416,45.9,416.1,45.7,416.1,45.4z"/>
<path class="st1" d="M409.9,56.7H420V97h-10.1V56.7z"/>
<g>
	<g>
		
			<linearGradient id="SVGID_1_" gradientUnits="userSpaceOnUse" x1="106.05" y1="137.7286" x2="106.05" y2="123.8777" gradientTransform="matrix(1 0 0 1 0 2.7244)">
			<stop  offset="0" style="stop-color:#181B22"/>
			<stop  offset="1" style="stop-color:#363C41"/>
		</linearGradient>
		<polygon class="st2" points="73.6,134.9 94.4,142.1 116.2,134.9 138.5,126.9 103.6,127.7 		"/>
		<path class="st1" d="M94,155.2c-39.4,0-71.5-32.1-71.5-71.5S54.6,12.2,94,12.2s71.5,32.1,71.5,71.5S133.4,155.2,94,155.2L94,155.2
			z M94,16c-37.3,0-67.7,30.4-67.7,67.7s30.4,67.7,67.7,67.7s67.7-30.4,67.7-67.7C161.7,46.4,131.3,16,94,16L94,16z"/>
		
			<linearGradient id="SVGID_2_" gradientUnits="userSpaceOnUse" x1="64.897" y1="94.4363" x2="118.2629" y2="112.225" gradientTransform="matrix(1 0 0 1 0 2.7244)">
			<stop  offset="1.230000e-02" style="stop-color:#E9B90D"/>
			<stop  offset="0.7546" style="stop-color:#D47E1C"/>
			<stop  offset="0.908" style="stop-color:#A15B1C"/>
		</linearGradient>
		<path class="st3" d="M94.3,138.2l-20.2-5.9L65,96.6c-1.2-4.2-6.5-4.6-5.7-5c0,0,32.6-15.6,33.4-16c0.8-0.4,1.3-0.5,1.7-0.5h0.1
			c0.3,0,0.8,0.1,1.7,0.5s33.4,16,33.4,16c0.8,0.5-4.6,0.9-5.7,5l-9.2,35.7l-20.1,5.9H94.3z"/>
		
			<radialGradient id="SVGID_3_" cx="109.9326" cy="51.1091" r="50.6789" gradientTransform="matrix(1 0 0 1 0 2.7244)" gradientUnits="userSpaceOnUse">
			<stop  offset="0.3129" style="stop-color:#E9B90D"/>
			<stop  offset="0.7423" style="stop-color:#D47E1C"/>
			<stop  offset="0.9018" style="stop-color:#A15B1C"/>
		</radialGradient>
		<path class="st4" d="M49.5,64c14.2-6.2,32.2-15,32.8-15.3c0.7-0.3,2-0.8,3.4-0.1c2.4,1.2,5.3,2.7,8.8,3.1
			c2.5,0.3,6.3-0.1,10.7-1.5c1.4-0.5,1.8-0.8,4,0.1c2.9,1.1,26.1,11,26.1,11c14.6,6.6,17.9,22.6,12.7,24.3c0,0-14.7,2.3-21.4-0.9
			c-15.5-7.3-26.2-12.1-26.2-12.1s-1.6-1,0.3-1.9c1.9-1,7.6-3.5,7.6-3.5c2.7-1.3,3.4-1.3,6.6-0.7c5.2,0.9,21.5,4.6,21.5,4.6
			s0.3-1.7-2.8-2.7c-3-1-16.8-4.9-16.8-4.9s-2.5-9.1-18.5-6.1L58,66c0,0-3.3,0.7-3.2,2.8l44.3-9.1c4-0.6,9.9-0.9,13.8,1.7
			c0,0,1.8,1.6-1.2,1.6c-1.9,0-4.2,0.7-7.7,2.4c-3,1.5-39.6,16.8-45.9,19.6"/>
		<g>
			
				<linearGradient id="SVGID_4_" gradientUnits="userSpaceOnUse" x1="73.8103" y1="63.048" x2="77.2241" y2="74.0924" gradientTransform="matrix(1 0 0 1 0 2.7244)">
				<stop  offset="1.230000e-02" style="stop-color:#E9B90D"/>
				<stop  offset="0.7546" style="stop-color:#D47E1C"/>
				<stop  offset="0.908" style="stop-color:#A15B1C"/>
			</linearGradient>
			<path class="st5" d="M94.6,51.7c-3.5-0.4-6.5-1.9-8.8-3.1c-0.5-0.3-0.9-0.3-1.4-0.4l-1.6,0.3c-0.2,0.1-0.3,0.1-0.4,0.2
				c-0.7,0.3-17.3,7.6-31.5,13.8c-11.6,5-15.4,22.5-10.5,23c4.9,0.5,15,2.1,21.3-0.7c6.3-2.8,39.5-18,42.5-19.4
				c3.5-1.7,5.8-2.4,7.7-2.4c3,0,1.2-1.6,1.2-1.6c-3.9-2.7-9.7-2.4-13.8-1.7l-44.4,9.1C54.8,66.7,58,66,58,66l40.5-8.7
				c0.1,0,0.2,0,0.3-0.1v-5.5C97.2,51.8,95.8,51.8,94.6,51.7z"/>
		</g>
		
			<linearGradient id="SVGID_5_" gradientUnits="userSpaceOnUse" x1="74.818" y1="20.0219" x2="92.3475" y2="16.0238" gradientTransform="matrix(1 0 0 1 0 2.7244)">
			<stop  offset="0" style="stop-color:#FFFFFF"/>
			<stop  offset="1" style="stop-color:#363C41"/>
		</linearGradient>
		<path class="st6" d="M44.4,37.7c12.4-13.4,30.1-21.8,49.7-21.8c0.3,0,0.6,0,0.9,0v-3.8c-0.3,0-0.6,0-0.9,0
			c-22,0-41.7,10-54.8,25.6L44.4,37.7L44.4,37.7z"/>
		
			<linearGradient id="SVGID_6_" gradientUnits="userSpaceOnUse" x1="132.1481" y1="24.6804" x2="103.2419" y2="15.4551" gradientTransform="matrix(1 0 0 1 0 2.7244)">
			<stop  offset="0" style="stop-color:#FFFFFF"/>
			<stop  offset="1" style="stop-color:#363C41"/>
		</linearGradient>
		<path class="st7" d="M98.4,16.1c17.9,1.2,33.8,9.3,45.3,21.7h5.1c-12.2-14.6-30.2-24.2-50.3-25.5V16.1z"/>
		
			<radialGradient id="SVGID_7_" cx="91.5117" cy="21.8633" r="24.6304" gradientTransform="matrix(1 0 0 1 0 2.7244)" gradientUnits="userSpaceOnUse">
			<stop  offset="0.2883" style="stop-color:#E9B90D"/>
			<stop  offset="0.7546" style="stop-color:#D47E1C"/>
			<stop  offset="0.908" style="stop-color:#A15B1C"/>
		</radialGradient>
		<path class="st8" d="M111.9,26.4c1.3,11-4.9,20.8-13.8,21.8S81,41.1,79.8,30.1C78.5,19,84.6,9.2,93.5,8.2
			C102.4,7.2,110.6,15.3,111.9,26.4z"/>
	</g>
</g>
</svg>
