<svg id="departements" xmlns="http://www.w3.org/2000/svg" viewBox="0 0 464.59 294.76"><defs><style>.cls-1{fill:#f3f3f4;}.cls-2{fill:none;stroke:#bfbfbf;stroke-linecap:round;stroke-linejoin:round;}</style></defs><title>map-bretagne</title><polygon class="cls-1" points="338.54 64.76 333.41 58.28 333.41 52.61 333.95 52.61 342.05 52.61 347.18 65.57 338.54 64.76"/><polygon class="cls-1" points="354.74 71.24 355.01 88.25 350.15 115.52 322.88 123.35 308.03 144.68 299.39 148.19 294.8 139.55 284 137.12 265.37 159.8 259.7 141.71 250.79 144.41 211.64 124.7 187.88 133.88 149.81 123.89 156.02 111.2 148.46 83.39 156.02 58.01 145.22 43.97 144.68 35.6 154.13 34.25 154.94 15.35 168.71 4.01 173.03 11.57 200.03 0.5 201.65 11.3 215.96 1.58 211.91 21.56 217.04 12.65 226.22 11.57 224.33 19.94 233.24 21.83 247.01 45.59 247.01 55.04 259.43 63.14 262.13 74.21 294.53 47.21 305.6 46.4 308.57 54.23 318.02 49.91 320.99 59.36 333.41 58.28 338.54 64.76 347.18 65.57 347.45 66.11 354.47 71.78 353.95 70.65 354.74 71.24"/><polygon class="cls-1" points="458.15 126.05 464.09 178.7 447.35 185.45 436.55 211.64 434.93 217.85 414.41 207.32 387.14 219.2 382.28 227.57 342.32 228.92 326.66 239.18 323.69 221.9 332.6 219.74 324.23 214.88 331.52 208.67 334.49 198.95 327.2 193.55 332.06 185.72 328.55 178.16 313.16 169.79 311.54 161.15 322.07 158.18 311.27 157.91 308.03 144.68 322.88 123.35 350.15 115.52 355.01 88.25 354.74 71.24 353.95 70.65 346.64 54.77 358.79 43.16 368.51 41 367.7 58.01 402.53 57.74 417.11 86.9 425.21 89.6 446.54 75.29 463.28 82.04 463.01 119.03 458.15 126.05"/><polygon class="cls-1" points="334.49 198.95 331.52 208.67 324.23 214.88 332.6 219.74 323.69 221.9 326.66 239.18 325.31 257.54 278.87 271.31 274.01 263.48 283.19 262.94 274.82 258.08 237.29 261.32 222.71 249.71 241.61 252.14 247.82 244.85 241.34 237.29 230.27 235.67 225.68 243.23 216.23 228.65 220.01 246.47 212.72 240.8 203 243.23 194.63 250.52 198.41 259.16 191.93 252.14 194.09 240.8 187.88 232.43 187.07 223.79 194.36 220.01 186.26 223.79 175.19 218.93 170.6 211.1 177.08 204.62 168.17 202.73 166.28 193.55 167.63 211.37 159.53 215.42 151.97 210.83 149.81 187.34 158.18 190.04 165.74 181.4 165.47 164.93 140.9 160.88 130.64 144.41 129.02 133.61 149.81 123.89 187.88 133.88 211.64 124.7 250.79 144.41 259.7 141.71 265.37 159.8 284 137.12 294.8 139.55 299.39 148.19 308.03 144.68 311.27 157.91 322.07 158.18 311.54 161.15 313.16 169.79 328.55 178.16 332.06 185.72 327.2 193.55 334.49 198.95"/><polygon class="cls-1" points="200.03 290.75 188.15 294.26 178.43 291.56 176 281.3 184.64 280.22 200.03 290.75"/><polygon class="cls-1" points="165.47 164.93 165.74 181.4 158.18 190.04 149.81 187.34 149 196.79 137.66 201.38 129.02 199.22 130.91 190.85 123.08 193.55 121.73 184.91 121.73 193.55 113.36 195.44 99.05 177.62 85.01 182.48 76.1 176.54 76.1 177.89 65.03 190.31 42.62 188.42 46.13 171.95 34.79 153.05 5.9 142.25 10.49 134.69 48.56 130.91 56.12 134.96 60.98 127.4 58.28 117.68 41.81 107.96 33.44 107.42 28.04 115.52 20.75 99.86 25.34 88.79 30.47 96.08 48.02 99.59 59.36 96.35 63.41 103.91 81.5 108.23 62.6 100.13 72.05 98.24 63.14 94.46 64.49 85.55 46.4 89.87 48.02 79.61 59.36 74.21 22.1 85.55 14 81.77 5.9 85.28 0.5 78.26 4.55 50.99 10.49 43.7 35.87 46.4 28.04 42.35 58.82 25.34 63.41 33.44 107.15 20.75 107.42 40.19 112.28 30.47 119.03 38.57 120.92 28.31 129.56 26.42 144.14 35.6 144.68 35.6 145.22 43.97 156.02 58.01 148.46 83.39 156.02 111.2 149.81 123.89 129.02 133.61 130.64 144.41 140.9 160.88 165.47 164.93"/><polyline class="cls-2" points="347.18 65.57 338.54 64.76 333.41 58.28"/><polyline class="cls-2" points="463.28 82.04 446.54 75.29 425.21 89.6 417.11 86.9 402.53 57.74"/><polyline class="cls-2" points="347.45 65.84 353.66 70.43 353.95 70.65 354.74 71.24 355.01 88.25 350.15 115.52 322.88 123.35 308.03 144.68"/><polyline class="cls-2" points="149.81 123.89 156.02 111.2 148.46 83.39 156.02 58.01 145.22 43.97 144.68 35.6"/><polyline class="cls-2" points="308.03 144.68 299.39 148.19 294.8 139.55 284 137.12 265.37 159.8 259.7 141.71 250.79 144.41 211.64 124.7 187.88 133.88 149.81 123.89"/><polyline class="cls-2" points="149.81 123.89 129.02 133.61 130.64 144.41 140.9 160.88 165.47 164.93 165.74 181.4 158.18 190.04 149.81 187.34"/><polyline class="cls-2" points="326.66 239.18 323.69 221.9 332.6 219.74 324.23 214.88 331.52 208.67 334.49 198.95 327.2 193.55 332.06 185.72 328.55 178.16 313.16 169.79 311.54 161.15 322.07 158.18 311.27 157.91 308.03 144.68"/><polyline class="cls-2" points="347.45 66.11 347.18 65.57 342.05 52.61"/><polyline class="cls-2" points="346.64 54.77 353.66 70.43 354.47 71.78"/><polygon class="cls-2" points="176 281.3 178.43 291.56 188.15 294.26 200.03 290.75 184.64 280.22 176 281.3"/><polyline class="cls-2" points="402.53 57.74 367.7 58.01 368.51 41 358.79 43.16 346.64 54.77 353.95 70.65 354.47 71.78 347.45 66.11 342.05 52.61 333.95 52.61 333.41 52.61 333.41 58.28 320.99 59.36 318.02 49.91 308.57 54.23 305.6 46.4 294.53 47.21 262.13 74.21 259.43 63.14 247.01 55.04 247.01 45.59 233.24 21.83 224.33 19.94 226.22 11.57 217.04 12.65 211.91 21.56 215.96 1.58 201.65 11.3 200.03 0.5 173.03 11.57 168.71 4.01 154.94 15.35 154.13 34.25 144.68 35.6 144.14 35.6 129.56 26.42 120.92 28.31 119.03 38.57 112.28 30.47 107.42 40.19 107.15 20.75 63.41 33.44 58.82 25.34 28.04 42.35 35.87 46.4 10.49 43.7 4.55 50.99 0.5 78.26 5.9 85.28 14 81.77 22.1 85.55 59.36 74.21 48.02 79.61 46.4 89.87 64.49 85.55 63.14 94.46 72.05 98.24 62.6 100.13 81.5 108.23 63.41 103.91 59.36 96.35 48.02 99.59 30.47 96.08 25.34 88.79 20.75 99.86 28.04 115.52 33.44 107.42 41.81 107.96 58.28 117.68 60.98 127.4 56.12 134.96 48.56 130.91 10.49 134.69 5.9 142.25 34.79 153.05 46.13 171.95 42.62 188.42 65.03 190.31 76.1 177.89 76.1 176.54"/><polyline class="cls-2" points="76.1 176.54 85.01 182.48 99.05 177.62 113.36 195.44 121.73 193.55 121.73 184.91 123.08 193.55 130.91 190.85 129.02 199.22 137.66 201.38 149 196.79 149.81 187.34 151.97 210.83 159.53 215.42 167.63 211.37 166.28 193.55 168.17 202.73 177.08 204.62 170.6 211.1 175.19 218.93 186.26 223.79 194.36 220.01 187.07 223.79 187.88 232.43 194.09 240.8 191.93 252.14 198.41 259.16 194.63 250.52 203 243.23 212.72 240.8 220.01 246.47 216.23 228.65 225.68 243.23 230.27 235.67 241.34 237.29 247.82 244.85 241.61 252.14 222.71 249.71 237.29 261.32 274.82 258.08 283.19 262.94 274.01 263.48 278.87 271.31"/><polyline class="cls-2" points="463.28 82.04 463.01 119.03 458.15 126.05 464.09 178.7 447.35 185.45 436.55 211.64 434.93 217.85 414.41 207.32 387.14 219.2 382.28 227.57 342.32 228.92 326.66 239.18 325.31 257.54 278.87 271.31"/></svg>