<svg id="regions" xmlns="http://www.w3.org/2000/svg" viewBox="0 0 344.39 277"><defs><style>.cls-1{fill:#f4f3f4;}.cls-2{fill:none;stroke:#bfbfbf;stroke-linecap:round;stroke-linejoin:round;}</style></defs><title>paris</title><path class="cls-1" d="M184.74,38.5l1.07,8.24L179,56.06h-.36c-2.87,1.79-5.73,4-8.24,5.74l-10.75,7.52L149.25,65,136,70.4,121.65,80.79h-.36l-.13.21L99.43,56.42,62.87,41.72l-38-3.22L41,.5l6.1,12.91,22.58,4.3,25.45-7.53,36.91,9,9.33-6.45Z" transform="translate(0 0)"/><polygon class="cls-1" points="121.65 80.79 135.99 70.4 141.37 78.29 141.01 82.95 130.61 89.4 142.8 103.74 141.01 120.22 126.31 114.13 125.95 114.13 113.41 93.34 121.16 81 121.29 81.15 121.29 80.79 121.65 80.79"/><polygon class="cls-1" points="156.78 95.49 156.78 95.85 163.95 103.38 142.8 103.74 130.61 89.4 141.01 82.95 153.91 84.74 156.78 95.49"/><path class="cls-1" d="M178.64,56.06l6.81,20.79-5.37,10,5.37,19.35L156.78,95.85v-.36l-2.87-10.75L141,82.95l.36-4.66L136,70.4,149.25,65l10.4,4.3L170.4,61.8C172.91,60,175.77,57.85,178.64,56.06Z" transform="translate(0 0)"/><polygon class="cls-1" points="185.45 106.24 186.53 117.71 182.23 134.92 172.91 125.24 161.79 128.83 141.01 120.22 142.8 103.74 163.95 103.38 156.78 95.85 185.45 106.24"/><polygon class="cls-1" points="179 56.06 185.81 46.74 184.74 38.5 212.69 42.44 220.58 33.84 230.98 40.29 263.24 28.46 273.99 31.33 281.16 41.37 278.65 52.84 294.42 69.32 331.7 93.7 329.91 101.58 319.51 110.55 333.49 144.24 343.89 151.05 332.05 170.76 320.23 173.99 321.66 208.4 260.01 220.59 258.93 243.89 243.16 265.75 198.36 276.5 161.44 273.64 171.83 267.54 173.98 256.43 157.14 239.23 154.63 227.04 168.25 208.04 184.02 138.15 182.23 134.92 186.53 117.71 185.45 106.24 180.08 86.89 185.45 76.85 178.64 56.06 179 56.06"/><polygon class="cls-1" points="126.31 114.13 141.01 120.22 161.79 128.83 172.91 125.24 182.23 134.92 184.02 138.15 168.25 208.04 154.63 227.04 139.57 224.89 128.46 231.7 122.37 220.94 114.48 232.42 86.88 235.28 86.52 235.28 75.41 192.63 94.05 157.86 91.54 146.39 97.64 136 125.95 114.13 126.31 114.13"/><polygon class="cls-1" points="113.41 93.34 125.95 114.13 97.64 136 91.54 146.39 94.05 157.86 75.41 192.63 62.87 195.5 53.9 186.53 48.89 163.95 24.16 142.45 22 98.72 7.31 72.19 0.5 48.89 9.46 38.14 24.87 38.5 62.87 41.72 99.43 56.42 121.16 81 113.41 93.34"/><polyline class="cls-2" points="121.29 80.79 121.29 81.15 121.16 81 99.43 56.42 62.87 41.72 24.87 38.5"/><path class="cls-2" d="M178.64,56.06c-2.87,1.79-5.73,4-8.24,5.74l-10.75,7.52L149.25,65,136,70.4,121.65,80.79h-.36" transform="translate(0 0)"/><polyline class="cls-2" points="121.29 80.79 121.16 81 113.41 93.34 125.95 114.13"/><polyline class="cls-2" points="182.23 134.92 172.91 125.24 161.79 128.83 141.01 120.22 126.31 114.13 125.95 114.13"/><polyline class="cls-2" points="125.95 114.13 97.64 136 91.54 146.39 94.05 157.86 75.41 192.63"/><polyline class="cls-2" points="184.74 38.5 185.81 46.74 179 56.06 178.64 56.06"/><polyline class="cls-2" points="178.64 56.06 185.45 76.85 180.08 86.89 185.45 106.24 186.53 117.71 182.23 134.92"/><polyline class="cls-2" points="182.23 134.92 184.02 138.15 168.25 208.04 154.63 227.04"/><polyline class="cls-2" points="141.01 82.95 130.61 89.4 142.8 103.74"/><line class="cls-2" x1="142.8" y1="103.74" x2="141.01" y2="120.22"/><polyline class="cls-2" points="156.78 95.49 153.91 84.74 141.01 82.95"/><polyline class="cls-2" points="156.78 95.85 163.95 103.38 142.8 103.74"/><line class="cls-2" x1="185.45" y1="106.24" x2="156.78" y2="95.85"/><line class="cls-2" x1="156.78" y1="95.85" x2="156.78" y2="95.49"/><polyline class="cls-2" points="135.99 70.4 141.37 78.29 141.01 82.95"/><polyline class="cls-2" points="331.7 93.7 294.42 69.32 278.65 52.84 281.16 41.37 273.99 31.33 263.24 28.46 230.98 40.29 220.58 33.84 212.69 42.44 184.74 38.5 141.37 12.69 132.04 19.14 95.13 10.18 69.68 17.71 47.1 13.41 41 0.5"/><polyline class="cls-2" points="243.16 265.75 198.36 276.5 161.44 273.64 171.83 267.54 173.98 256.43 157.14 239.23 154.63 227.04 139.57 224.89 128.46 231.7 122.37 220.94 114.48 232.42 86.88 235.28 86.52 235.28 75.41 192.63 62.87 195.5 53.9 186.53 48.89 163.95 24.16 142.45 22 98.72 7.31 72.19"/><polyline class="cls-2" points="243.16 265.75 258.93 243.89 260.01 220.59 321.66 208.4"/><polyline class="cls-2" points="7.31 72.19 0.5 48.89 9.46 38.14 24.87 38.5 41 0.5"/><polyline class="cls-2" points="321.66 208.4 320.23 173.99 332.05 170.76 343.89 151.05 333.49 144.24 319.51 110.55 329.91 101.58 331.7 93.7"/></svg>