<?xml version="1.0" encoding="utf-8"?>
<!-- Generator: Adobe Illustrator 15.0.2, SVG Export Plug-In . SVG Version: 6.00 Build 0)  -->
<!DOCTYPE svg PUBLIC "-//W3C//DTD SVG 1.1//EN" "http://www.w3.org/Graphics/SVG/1.1/DTD/svg11.dtd">
<svg version="1.1" id="Calque_1" xmlns="http://www.w3.org/2000/svg" xmlns:xlink="http://www.w3.org/1999/xlink" x="0px" y="0px"
	 width="64px" height="64px" viewBox="0 0 64 64" enable-background="new 0 0 64 64" xml:space="preserve">
<g>
	<path fill="#FFFFFF" d="M4.344,26.92c0.34-0.098,0.666-0.252,0.981-0.436v15.079c0.033,0,0.063-0.01,0.096-0.01
		c0.227,0,0.454,0.004,0.681,0.006c0.208,0.002,0.417,0.004,0.626,0.004l2.925,0.002V30.693c0,0,0,0,0.01,0v-7.154
		c0-0.109,0.021-0.219,0.044-0.326c6.314-4.821,12.63-9.642,18.9-14.495l0.654-0.479c0.262-0.165,0.502-0.229,0.742-0.251
		c0.229,0.022,0.469,0.087,0.73,0.251l0.656,0.479c6.281,4.854,12.583,9.674,18.911,14.495c0.011,0.107,0.033,0.217,0.033,0.326
		v7.154c0.01,0,0.01,0,0.01,0v1.471c0.189,0,0.38-0.002,0.568-0.002c0.873,0,1.746,0.005,2.621,0.01
		c0.377,0.002,0.763,0.003,1.142,0.005v-5.692c0.316,0.184,0.645,0.338,0.993,0.436c1.481,0.436,3.099-0.152,3.871-1.286
		c0.328-0.47,0.469-1.005,0.457-1.549c0.055-1.048-0.558-1.866-1.483-2.573c-0.689-0.524-1.373-1.048-2.052-1.572
		c-1.08-0.84-2.169-1.668-3.249-2.498L43.449,9.94l-1.918-1.473c-2.957-2.269-5.924-4.548-8.879-6.816
		c-0.512-0.392-1.023-0.654-1.537-0.818c-0.021-0.011-0.043-0.011-0.066-0.022c-0.15-0.043-0.305-0.087-0.457-0.12
		c-0.086-0.011-0.174-0.021-0.271-0.033c-0.109-0.01-0.219-0.01-0.316-0.01c-0.109,0-0.219,0-0.328,0.01
		c-0.086,0.011-0.184,0.021-0.271,0.033c-0.152,0.033-0.307,0.077-0.459,0.12c-0.02,0.011-0.043,0.011-0.064,0.022
		c-0.512,0.164-1.025,0.426-1.527,0.818c-3.609,2.76-7.208,5.53-10.807,8.289V6.864c0-0.732-0.601-1.331-1.342-1.331h-5.082
		c-0.742,0-1.342,0.6-1.342,1.342c0.01,3.021,0.032,5.584-0.044,8.136c-0.011,0.447-0.251,0.981-0.578,1.374
		c-1.537,1.188-3.074,2.366-4.624,3.555c-0.676,0.523-1.363,1.047-2.038,1.572c-0.927,0.707-1.549,1.525-1.494,2.573
		c-0.012,0.544,0.131,1.08,0.457,1.549C1.236,26.768,2.849,27.355,4.344,26.92z"/>
	<path fill="#FFFFFF" d="M25.861,31.391c-0.525-3.217-3.852-5.409-7.025-4.613c-2.715,0.676-4.559,3.099-4.559,6.031v8.76
		l11.683,0.009c0-0.781-0.004-1.563-0.004-2.345c0-2.182,0.012-4.375,0-6.564C25.957,32.252,25.924,31.816,25.861,31.391z"/>
	<path fill="#FFFFFF" d="M63.977,41.914c0-4.402-3.461-7.863-7.834-7.895c-1.75,0-3.49-0.021-5.229-0.021
		c-0.699,0-1.408,0-2.105,0.01l-3.533,0.021c-3.317,0.131-6.069,2.226-7.112,5.19c-0.254,0.232-0.486,3.359-0.486,3.663
		c-0.12,0.334-0.454,0.507-0.92,0.536L6.728,43.4c-0.435,0-0.87-0.01-1.306-0.01c-0.435,0-0.739,0.143-1.073,0.477
		c-1.325,1.376-2.722,2.763-4.098,4.117c-0.334,0.305-0.334,0.486,0,0.82c1.437,1.407,2.813,2.844,4.25,4.221
		c0.182,0.183,0.537,0.365,0.739,0.313c2.004-0.384,3.39,0.537,4.564,2.016c0.485,0.647,0.536,0.597,1.122,0
		c0.518-0.506,1.033-1.043,1.569-1.528c0.587-0.617,1.153-0.617,1.74-0.021c0.588,0.586,1.175,1.144,1.741,1.762
		c0.303,0.334,0.516,0.303,0.789,0c0.587-0.618,1.153-1.205,1.771-1.762c0.587-0.598,1.031-0.598,1.64,0
		c0.536,0.506,1.103,1.063,1.64,1.609c0.15,0.172,0.334,0.302,0.535,0.484c0.688-0.698,1.357-1.336,2.004-1.974
		c0.354-0.415,0.79-0.567,1.325-0.567h10.791c0.688,0,1.043,0.184,1.204,0.567c0,0.313,0.232,3.38,0.486,3.644
		c1.053,3.016,3.864,5.141,7.274,5.191c1.529,0.029,3.178,0.029,5,0.029c1.942,0,3.887,0,5.83-0.029
		c2.073,0,3.895-0.801,5.504-2.349l0.03-0.04c1.437-1.529,2.177-3.4,2.177-5.444C64.008,50.111,64.008,45.861,63.977,41.914z
		 M35.137,49.919H6.799c-0.84,0-1.518-0.688-1.518-1.519c0-0.84,0.678-1.519,1.518-1.519h28.338c0.84,0,1.518,0.679,1.518,1.519
		C36.652,49.23,35.975,49.919,35.137,49.919z M61.295,54.463c0,3.066-2.512,5.576-5.576,5.576h-9.824
		c-3.068,0-5.566-2.51-5.566-5.576V42.865c0-3.066,2.498-5.575,5.566-5.575h9.824c3.064,0,5.576,2.509,5.576,5.575V54.463z"/>
	<path fill="#FFFFFF" d="M54.848,42.146c-0.76,0.426-1.225,1.072-1.225,1.975c-0.041,2.822-0.041,5.666,0,8.5
		c0,1.031,0.588,1.813,1.578,2.207c0.961,0.354,1.842,0.12,2.713-0.801c0.354-0.303,0.566-0.881,0.588-1.559v-8.197
		C58.48,42.359,56.508,41.195,54.848,42.146z"/>
</g>
</svg>
