<?xml version="1.0" encoding="utf-8"?>
<!-- Generator: Adobe Illustrator 15.0.2, SVG Export Plug-In . SVG Version: 6.00 Build 0)  -->
<!DOCTYPE svg PUBLIC "-//W3C//DTD SVG 1.1//EN" "http://www.w3.org/Graphics/SVG/1.1/DTD/svg11.dtd">
<svg version="1.1" id="Calque_1" xmlns="http://www.w3.org/2000/svg" xmlns:xlink="http://www.w3.org/1999/xlink" x="0px" y="0px"
	 width="64px" height="64px" viewBox="0 0 64 64" enable-background="new 0 0 64 64" xml:space="preserve">
<g>
	<path fill="#FFFFFF" d="M37.85,38.256c-0.186-2.08-1.17-3.613-3.141-4.43c-0.879-0.363-1.801-0.523-2.739-0.533
		c-0.938,0.01-1.861,0.17-2.74,0.533c-1.972,0.816-2.954,2.35-3.141,4.43c-0.027,0.309-0.005,0.609-0.005,0.918
		c0.016,2.164,0.504,4.223,1.355,6.205c0.428,0.988,1.06,1.834,1.813,2.598c0.779,0.789,1.746,1.168,2.718,1.129
		c0.971,0.039,1.938-0.34,2.717-1.129c0.752-0.764,1.386-1.608,1.813-2.598c0.853-1.982,1.34-4.041,1.354-6.205
		C37.855,38.865,37.877,38.564,37.85,38.256z"/>
	<path fill="#FFFFFF" d="M46.063,59.381c-0.061-1.557-0.145-3.111-0.635-4.607c-0.137-0.424-0.291-0.875-0.564-1.209
		c-0.288-0.352-0.692-0.721-1.11-0.834c-1.017-0.274-2.03-0.539-3.049-0.797c-1.545-0.393-3.091-0.771-4.636-1.158
		c-0.09-0.021-0.188-0.014-0.344-0.024c-0.018,0.069-0.037,0.14-0.057,0.211c-0.27,0.996-0.521,1.994-0.826,2.978
		c-0.365,1.176-0.775,2.34-1.182,3.502c-0.045,0.131-0.105,0.254-0.17,0.377c-0.072-0.529-0.164-1.224-0.254-1.904
		c-0.166-1.275-0.322-2.514-0.322-2.557c0.064-0.146,0.123-0.283,0.184-0.418c0.008-0.019,0.016-0.039,0.027-0.058
		c0.033-0.082,0.068-0.17,0.105-0.243c0.02-0.027,0.037-0.066,0.055-0.097c0.055-0.108,0.119-0.224,0.119-0.36
		c0-0.115-0.047-0.224-0.08-0.312l-0.02-0.037c-0.009-0.021-0.009-0.026-0.019-0.051c-0.011-0.027-0.027-0.064-0.048-0.097
		l-0.01-0.018c-0.006-0.01-0.018-0.02-0.018-0.027c-0.023-0.039-0.051-0.065-0.076-0.086c-0.051-0.033-0.1-0.045-0.139-0.053h-0.092
		c-0.027-0.02-0.066-0.02-0.08-0.02c-0.127-0.008-0.445-0.008-0.855-0.008c-0.406,0-0.73,0-0.857,0.008c-0.027,0-0.055,0-0.084,0.02
		h-0.08c-0.063,0.012-0.146,0.031-0.219,0.139c-0.008,0.008-0.008,0.019-0.016,0.039l-0.012,0.006
		c-0.003,0.008-0.008,0.017-0.012,0.023c-0.072,0.072-0.115,0.172-0.119,0.291c-0.014,0.053-0.029,0.115-0.029,0.18
		c0,0.139,0.061,0.252,0.119,0.361c0.002,0.008,0.01,0.018,0.014,0.029c0.013,0.022,0.027,0.047,0.039,0.065
		c0.035,0.076,0.074,0.164,0.107,0.244c0.008,0.013,0.016,0.027,0.019,0.041c0.064,0.144,0.128,0.285,0.188,0.437
		c0,0.024-0.036,0.305-0.089,0.729c-0.127,0.97-0.353,2.679-0.491,3.729c-0.064-0.123-0.125-0.246-0.171-0.377
		c-0.407-1.162-0.817-2.326-1.182-3.502c-0.304-0.984-0.558-1.986-0.827-2.984c-0.02-0.066-0.037-0.137-0.057-0.203
		c-0.156,0.012-0.254,0.004-0.342,0.025c-1.383,0.348-2.767,0.688-4.146,1.035c-0.002,0-0.002,0.002-0.002,0.002
		c-1.18,0.295-2.359,0.6-3.535,0.918c-0.395,0.106-0.773,0.438-1.057,0.77c-0.02,0.021-0.037,0.043-0.055,0.064
		c-0.274,0.334-0.427,0.785-0.564,1.209c-0.436,1.328-0.55,2.705-0.614,4.086c-0.006,0.174-0.015,0.348-0.021,0.521
		c-0.039,0.986-0.184,0.795,0.775,1.197c0.236,0.1,0.477,0.188,0.721,0.268c1.736,0.563,3.502,0.938,5.286,1.188
		c1.746,0.246,3.511,0.367,5.28,0.434c0.34,0.014,3.042,0.033,3.042,0.033c0.34-0.012,0.679-0.02,1.019-0.033
		c2.795-0.102,5.576-0.354,8.295-0.99c0.763-0.176,1.521-0.385,2.271-0.631c0.244-0.08,0.482-0.168,0.72-0.268
		C46.246,60.176,46.102,60.367,46.063,59.381z"/>
	<g>
		<path fill="#FFFFFF" d="M55.758,33.346c-0.186-2.08-1.17-3.611-3.141-4.43c-0.879-0.362-1.801-0.521-2.74-0.532
			c-0.939,0.011-1.861,0.171-2.74,0.532c-1.971,0.818-2.953,2.35-3.141,4.43c-0.027,0.31-0.006,0.609-0.006,0.918
			c0.018,2.164,0.506,4.223,1.355,6.205c0.43,0.988,1.061,1.834,1.813,2.598c0.781,0.791,1.746,1.17,2.719,1.132
			c0.973,0.038,1.939-0.341,2.719-1.132c0.752-0.764,1.383-1.608,1.813-2.598c0.85-1.982,1.34-4.041,1.354-6.205
			C55.764,33.955,55.785,33.654,55.758,33.346z"/>
		<path fill="#FFFFFF" d="M63.193,55.666c-0.232,0.105-0.476,0.191-0.717,0.273c-0.75,0.244-1.509,0.455-2.277,0.623
			c-2.711,0.643-5.494,0.896-8.287,0.992c-0.338,0.02-0.686,0.03-1.023,0.03c0,0-2.076-0.012-2.813-0.03
			c-0.097-1.15-0.275-2.3-0.646-3.429c-0.158-0.496-0.4-1.244-0.938-1.908c-0.453-0.549-1.201-1.254-2.184-1.528
			c-1.031-0.273-2.056-0.537-3.088-0.801c-0.962-0.244-1.931-0.486-2.9-0.729l-1.434-0.357c0.021-0.053,0.053-0.104,0.094-0.147
			c0.021-0.021,0.043-0.043,0.053-0.064c0.285-0.336,0.666-0.664,1.066-0.77c1.17-0.314,2.352-0.621,3.53-0.916
			c1.382-0.35,2.765-0.697,4.146-1.033c0.094-0.021,0.188-0.021,0.348-0.031c0.021,0.063,0.031,0.137,0.053,0.199
			c0.273,1.002,0.527,2.004,0.832,2.984c0.359,1.182,0.771,2.342,1.182,3.512c0.043,0.127,0.105,0.252,0.17,0.369
			c0.138-1.045,0.369-2.752,0.494-3.723c0.054-0.433,0.084-0.707,0.084-0.736c-0.063-0.148-0.125-0.285-0.188-0.435
			c0-0.01-0.011-0.03-0.021-0.043c-0.031-0.071-0.074-0.168-0.105-0.241c-0.01-0.021-0.021-0.041-0.041-0.063
			c0-0.011-0.012-0.021-0.012-0.031c-0.053-0.104-0.115-0.223-0.115-0.358c0-0.074,0.01-0.127,0.031-0.181
			c0-0.125,0.043-0.221,0.115-0.293c0-0.012,0.012-0.012,0.012-0.021l0.01-0.01c0.01-0.021,0.01-0.033,0.021-0.033
			c0.063-0.115,0.157-0.137,0.211-0.146h0.084c0.031-0.012,0.053-0.012,0.084-0.012c0.127-0.01,0.453-0.01,0.854-0.01
			c0.412,0,0.729,0,0.855,0.01c0.02,0,0.053,0,0.084,0.012h0.094c0.033,0.01,0.086,0.02,0.139,0.053
			c0.02,0.021,0.051,0.051,0.072,0.094c0,0,0.012,0.011,0.021,0.021l0.01,0.021c0.012,0.031,0.031,0.063,0.043,0.094
			c0.01,0.021,0.01,0.031,0.021,0.053l0.021,0.031c0.031,0.096,0.072,0.201,0.072,0.316c0,0.137-0.063,0.252-0.115,0.356
			c-0.021,0.033-0.03,0.063-0.053,0.097c-0.043,0.073-0.074,0.17-0.104,0.241c-0.011,0.021-0.021,0.043-0.031,0.064
			c-0.063,0.127-0.114,0.264-0.18,0.411c0,0.041,0.157,1.285,0.315,2.562c0.096,0.677,0.189,1.371,0.254,1.897
			c0.063-0.114,0.125-0.241,0.179-0.368c0.399-1.17,0.813-2.33,1.182-3.513c0.295-0.979,0.55-1.973,0.822-2.975
			c0.021-0.072,0.043-0.137,0.053-0.211c0.158,0.012,0.265,0.012,0.349,0.033c1.539,0.379,3.09,0.758,4.641,1.148
			c1.012,0.264,2.023,0.526,3.047,0.801c0.41,0.115,0.822,0.486,1.105,0.834c0.274,0.338,0.424,0.791,0.569,1.213
			c0.484,1.496,0.57,3.047,0.634,4.607C64.004,55.455,64.152,55.266,63.193,55.666z"/>
	</g>
	<g>
		<path fill="#FFFFFF" d="M8.242,33.346c0.187-2.08,1.17-3.611,3.141-4.43c0.878-0.362,1.801-0.521,2.74-0.532
			c0.939,0.011,1.861,0.171,2.741,0.532c1.971,0.818,2.953,2.35,3.141,4.43c0.027,0.31,0.005,0.609,0.005,0.918
			c-0.017,2.164-0.505,4.223-1.356,6.205c-0.428,0.988-1.059,1.834-1.812,2.598c-0.78,0.791-1.747,1.17-2.718,1.132
			c-0.972,0.038-1.938-0.341-2.718-1.132c-0.752-0.764-1.383-1.608-1.812-2.598c-0.852-1.982-1.34-4.041-1.356-6.205
			C8.236,33.955,8.214,33.654,8.242,33.346z"/>
		<path fill="#FFFFFF" d="M0.807,55.666c0.231,0.105,0.474,0.191,0.717,0.273c0.749,0.244,1.508,0.455,2.277,0.623
			c2.709,0.643,5.493,0.896,8.287,0.992c0.337,0.02,0.686,0.03,1.023,0.03c0,0,2.077-0.012,2.815-0.03
			c0.095-1.15,0.274-2.3,0.643-3.429c0.159-0.496,0.401-1.244,0.938-1.908c0.453-0.549,1.202-1.254,2.183-1.528
			c1.033-0.273,2.056-0.537,3.09-0.801c0.959-0.244,1.93-0.486,2.899-0.729l1.434-0.357c-0.021-0.053-0.053-0.104-0.096-0.147
			c-0.021-0.021-0.041-0.043-0.052-0.064c-0.285-0.336-0.664-0.664-1.065-0.77c-1.17-0.314-2.352-0.621-3.532-0.916
			c-1.381-0.35-2.763-0.697-4.144-1.033c-0.095-0.021-0.189-0.021-0.348-0.031c-0.021,0.063-0.031,0.137-0.053,0.199
			c-0.273,1.002-0.527,2.004-0.833,2.984c-0.358,1.182-0.771,2.342-1.181,3.512c-0.042,0.127-0.105,0.252-0.169,0.369
			c-0.137-1.045-0.369-2.752-0.496-3.723c-0.053-0.433-0.084-0.707-0.084-0.736c0.063-0.148,0.127-0.285,0.19-0.435
			c0-0.01,0.01-0.03,0.021-0.043c0.031-0.071,0.073-0.168,0.105-0.241c0.01-0.021,0.021-0.041,0.042-0.063
			c0-0.011,0.01-0.021,0.01-0.031c0.053-0.104,0.116-0.223,0.116-0.358c0-0.074-0.01-0.127-0.032-0.181
			c0-0.125-0.042-0.221-0.116-0.293c0-0.012-0.01-0.012-0.01-0.021l-0.01-0.01c-0.01-0.021-0.01-0.033-0.021-0.033
			c-0.063-0.115-0.159-0.137-0.211-0.146H15.06c-0.032-0.012-0.053-0.012-0.084-0.012c-0.126-0.01-0.453-0.01-0.854-0.01
			c-0.411,0-0.728,0-0.854,0.01c-0.021,0-0.052,0-0.084,0.012H13.09c-0.031,0.01-0.084,0.02-0.137,0.053
			c-0.021,0.021-0.053,0.051-0.074,0.094c0,0-0.01,0.011-0.021,0.021l-0.01,0.021c-0.01,0.031-0.032,0.063-0.042,0.094
			c-0.011,0.021-0.011,0.031-0.021,0.053l-0.021,0.031c-0.032,0.096-0.074,0.201-0.074,0.316c0,0.137,0.063,0.252,0.116,0.356
			c0.021,0.033,0.031,0.063,0.052,0.097c0.042,0.073,0.074,0.17,0.105,0.241c0.011,0.021,0.021,0.043,0.032,0.064
			c0.063,0.127,0.116,0.264,0.179,0.411c0,0.041-0.158,1.285-0.316,2.562c-0.095,0.677-0.19,1.371-0.253,1.897
			c-0.063-0.114-0.126-0.241-0.179-0.368c-0.401-1.17-0.812-2.33-1.181-3.513c-0.295-0.979-0.548-1.973-0.822-2.975
			c-0.021-0.072-0.042-0.137-0.053-0.211c-0.158,0.012-0.263,0.012-0.348,0.033c-1.54,0.379-3.09,0.758-4.639,1.148
			c-1.012,0.264-2.024,0.526-3.047,0.801c-0.411,0.115-0.822,0.486-1.107,0.834c-0.273,0.338-0.421,0.791-0.569,1.213
			c-0.485,1.496-0.57,3.047-0.633,4.607C-0.004,55.455-0.152,55.266,0.807,55.666z"/>
	</g>
	<path fill="#FFFFFF" d="M33.887,30.379l-0.207-0.026l-0.527-0.341c-0.147-0.166-0.213-0.325-0.25-0.432l-0.043-0.205
		c-0.02-0.227,0.002-0.396,0.058-0.59c0.192-0.561,0.36-1.085,0.528-1.607l0.216-0.685c0.075-0.233,0.139-0.427,0.137-0.529
		c0-0.012,0-0.023-0.002-0.034c-2.998-1.537-5.238-4.125-6.33-7.314c-2.309-6.746,1.3-14.11,8.04-16.416
		c1.764-0.604,3.59-0.818,5.432-0.638c5.029,0.493,9.34,3.904,10.979,8.689c2.306,6.741-1.304,14.101-8.045,16.406
		c-1.317,0.451-2.688,0.686-4.08,0.697c-0.071,0.04-0.11,0.075-0.131,0.096c-0.379,0.372-0.757,0.697-1.181,1.015
		c-0.209,0.151-0.405,0.286-0.606,0.421c-1.058,0.673-2.226,1.158-3.49,1.455l-0.247,0.043
		C34.006,30.389,33.932,30.383,33.887,30.379z M40.766,3.319c-1.588-0.156-3.166,0.03-4.688,0.55
		c-5.82,1.991-8.934,8.35-6.941,14.174c0.964,2.819,2.969,5.095,5.645,6.406l0.156,0.077l0.129,0.138
		c0.313,0.354,0.485,0.795,0.498,1.27c0.004,0.405-0.105,0.74-0.222,1.096l-0.186,0.596c-0.084,0.258-0.16,0.499-0.236,0.73
		c0.716-0.242,1.379-0.559,1.988-0.946c0.164-0.11,0.344-0.231,0.522-0.362c0.351-0.262,0.67-0.537,0.967-0.831
		c0.193-0.204,0.476-0.394,0.812-0.537l0.168-0.072l0.231-0.016c1.259,0.009,2.5-0.194,3.691-0.601
		c5.82-1.992,8.936-8.347,6.945-14.167C48.832,6.689,45.109,3.744,40.766,3.319z"/>
	<path fill="#FFFFFF" d="M45.865,11.023c-1.15,0.131-2.299-1.146-2.053-2.283c0.164-0.762-0.158-1.019-0.734-1.301
		c-0.611-0.311-1.039-0.247-1.482,0.314c-0.66,0.825-2.533,0.761-3.156-0.177c-0.487-0.76-0.967-0.542-1.604-0.339
		c-0.678,0.211-0.75,0.648-0.681,1.259c0.066,0.602-0.848,1.759-1.647,2.059c-0.174,0.002-0.469,0.071-0.7-0.008
		c-0.855-0.298-1.103,0.24-1.398,0.855c-0.303,0.629-0.098,0.982,0.398,1.378c0.813,0.634,0.715,2.576-0.224,3.155
		c-0.567,0.356-0.585,0.703-0.475,1.11l0.264,0.699c0.187,0.384,0.42,0.637,1.071,0.537c1.104-0.165,2.435,1.248,2.228,2.258
		c-0.129,0.626-0.041,1.033,0.588,1.314c0.621,0.262,1.162,0.518,1.628-0.261c0.118-0.218,0.395-0.354,0.526-0.469
		c0.797-0.286,2.248,0.002,2.586,0.503c0.34,0.51,0.687,0.789,1.344,0.511c0.605-0.254,1.111-0.408,0.998-1.305
		c-0.146-1.111,1.242-2.375,2.279-2.183c0.705,0.137,1.071-0.085,1.332-0.715c0.256-0.586,0.327-1-0.289-1.472
		c-0.927-0.713-0.886-2.422,0.075-3.067c0.517-0.354,0.646-0.687,0.564-1.162l-0.265-0.698
		C46.807,11.128,46.48,10.961,45.865,11.023z M43.432,13.582c0.525,1.92-0.5,3.958-2.399,4.67c-1.904,0.703-4.009-0.182-4.854-1.99
		l-0.219-0.577c-0.525-1.92,0.508-3.961,2.404-4.661c1.904-0.704,4.01,0.182,4.861,1.985L43.432,13.582z"/>
</g>
</svg>
