<?xml version="1.0" encoding="utf-8"?>
<!-- Generator: Adobe Illustrator 15.0.2, SVG Export Plug-In . SVG Version: 6.00 Build 0)  -->
<!DOCTYPE svg PUBLIC "-//W3C//DTD SVG 1.1//EN" "http://www.w3.org/Graphics/SVG/1.1/DTD/svg11.dtd">
<svg version="1.1" id="Calque_1" xmlns="http://www.w3.org/2000/svg" xmlns:xlink="http://www.w3.org/1999/xlink" x="0px" y="0px"
	 width="64px" height="64px" viewBox="0 0 64 64" enable-background="new 0 0 64 64" xml:space="preserve">
<g>
	<path fill="#DE6433" d="M63.271,31.369H49.357c0.011,0.203,0.011,0.416,0.011,0.627c0,9.598-7.771,17.369-17.368,17.369
		c-9.586,0-17.368-7.771-17.368-17.369c0-0.211,0-0.424,0.011-0.627H0.567C0.253,31.369,0,31.623,0,31.938v2.371
		c0,1.865,1.51,3.354,3.354,3.354h3.263c0.628,2.573,1.651,5.006,2.989,7.205l-2.32,2.319c-1.308,1.308-1.308,3.427,0,4.74
		l4.165,4.156c1.306,1.307,3.425,1.307,4.752,0l2.3-2.311c2.219,1.338,4.631,2.352,7.204,2.987v3.255c0,1.862,1.5,3.354,3.354,3.354
		h5.878c1.854,0,3.354-1.49,3.354-3.354v-3.255c2.573-0.637,5.006-1.649,7.204-2.987l2.321,2.311c1.307,1.307,3.425,1.307,4.73,0
		l4.165-4.156c1.308-1.313,1.308-3.434,0-4.74l-2.319-2.319c1.336-2.199,2.36-4.632,2.987-7.205h3.265
		c1.854,0,3.354-1.488,3.354-3.354V32.1C64,31.693,63.676,31.369,63.271,31.369z"/>
	<path fill="#DE6433" d="M30.453,22.718h-3.216c-0.618,0-1.237,0.638-1.237,1.276v3.319h4.453V22.718z"/>
	<path fill="#DE6433" d="M26,33.441c0,0.766,0.619,1.275,1.237,1.275h3.216v-4.596H26V33.441z"/>
	<path fill="#DE6433" d="M38,23.994c0-0.639-0.494-1.276-1.236-1.276h-3.217v4.596H38V23.994z"/>
	<path fill="#DE6433" d="M33.547,34.718h3.217c0.742,0,1.236-0.638,1.236-1.276v-3.318h-4.453V34.718z"/>
	<path fill="#DE6433" d="M8.473,24.731c0.602-0.174,1.167-0.534,1.653-0.904c6.964-5.311,13.928-10.621,20.845-15.979
		c0.895-0.693,1.408-0.655,2.265,0.019c3.924,3.087,7.912,6.115,11.879,9.163c3.009,2.311,5.994,4.644,9.033,6.925
		c2.043,1.535,4.865,0.734,5.311-1.47c0.229-1.14-0.371-1.99-1.322-2.718c-3.543-2.712-7.072-5.436-10.609-8.152
		C43.164,8.263,38.8,4.911,34.434,1.564c-1.552-1.188-3.125-1.238-4.509-0.171c-3.038,2.34-6.075,4.68-9.115,7.017
		c-0.279,0.216-0.587,0.406-1.142,0.787c0-0.184,0-0.343,0-0.487c0-0.922,0-1.145,0-2.125V6.134C19.668,5.516,19.153,5,18.534,5
		h-4.869c-0.618,0-1.134,0.516-1.134,1.134c0,1.288,0,4.01,0,6.8c-0.006,0.284-0.013,0.574-0.022,0.88
		c-0.016,0.526-0.365,1.177-0.81,1.54c-1.994,1.625-4.098,3.149-6.124,4.745c-1.165,0.918-1.4,2.369-0.655,3.454
		C5.63,24.586,7.109,25.127,8.473,24.731z"/>
</g>
</svg>
