<?xml version="1.0" encoding="utf-8"?>
<!-- Generator: Adobe Illustrator 15.0.2, SVG Export Plug-In . SVG Version: 6.00 Build 0)  -->
<!DOCTYPE svg PUBLIC "-//W3C//DTD SVG 1.1//EN" "http://www.w3.org/Graphics/SVG/1.1/DTD/svg11.dtd">
<svg version="1.1" id="Calque_1" xmlns="http://www.w3.org/2000/svg" xmlns:xlink="http://www.w3.org/1999/xlink" x="0px" y="0px"
	 width="64px" height="64px" viewBox="0 0 64 64" enable-background="new 0 0 64 64" xml:space="preserve">
<g>
	<g>
		<g>
			<path fill="#DE6433" d="M62.223,30.271h-2.719l-0.105-0.942c-0.521-7.123-3.869-13.618-9.098-18.436
				c-4.393-3.876-9.725-6.285-15.582-6.809L33.777,3.98v-2.2C33.777,0.838,33.045,0,32,0c-0.941,0-1.777,0.733-1.777,1.78v2.2
				l-0.941,0.104c-3.765,0.419-7.425,1.466-10.771,3.352c-7.948,4.505-13.177,12.78-13.909,21.893l-0.104,0.942h-2.72
				C0.837,30.271,0,31.005,0,32.053c0,0.942,0.732,1.78,1.777,1.78h2.72l0.104,0.942C6.065,47.555,16,57.506,28.654,58.973
				l1.568,0.104v3.144c0,0.942,0.732,1.78,1.777,1.78c0.94,0,1.776-0.732,1.776-1.78v-3.144l0.941-0.104
				c3.869-0.418,7.529-1.57,10.877-3.457l-2.406-2.619c-2.612,1.362-5.438,2.201-8.262,2.619l-1.15,0.105v-3.038
				c0-0.942-0.731-1.78-1.776-1.78c-0.941,0-1.777,0.732-1.777,1.78v3.038l-1.15-0.105c-10.771-1.257-19.347-9.74-20.915-20.529
				l-0.21-1.152h3.557c0.941,0,1.777-0.732,1.777-1.78c0-0.943-0.732-1.781-1.777-1.781H7.947l0.105-1.152
				c0.836-7.855,5.333-14.769,12.234-18.645c2.72-1.466,5.648-2.409,8.785-2.828l1.15-0.105v3.98c0,0.942,0.732,1.781,1.777,1.781
				c0.941,0,1.777-0.733,1.777-1.781v-3.98l1.149,0.105C39.844,8.274,44.34,10.265,48,13.512c4.496,3.98,7.32,9.532,7.947,15.607
				l0.104,1.152h-3.557c-0.938,0-1.777,0.733-1.777,1.781c0,0.942,0.732,1.78,1.777,1.78h3.557l-0.209,1.152
				c-0.418,3.142-1.567,6.18-3.139,8.902l2.614,2.409c2.195-3.457,3.558-7.332,4.078-11.521l0.105-0.943h2.719
				c0.941,0,1.777-0.732,1.777-1.78C63.895,31.109,63.164,30.271,62.223,30.271z"/>
		</g>
		<g>
			<g>
				<path fill="#DE6433" d="M45.387,40.956c1.777-2.515,2.719-5.656,2.719-8.903c0-8.904-7.217-16.131-16.104-16.131
					c-8.888,0-16.104,7.228-16.104,16.131c0,8.903,7.216,16.131,16.104,16.131c3.138,0,6.065-0.941,8.472-2.408l10.563,11.73
					c0.104,0.104,0.209,0.209,0.314,0.313c1.776,1.572,4.391,1.469,5.959-0.313c1.569-1.676,1.358-4.398-0.313-5.971L45.387,40.956z
					 M37.646,42.527c-1.672,0.941-3.556,1.466-5.646,1.466c-6.588,0-11.922-5.343-11.922-11.94c0-6.6,5.334-11.941,11.922-11.941
					s11.922,5.342,11.922,11.941c0,2.199-0.627,4.295-1.674,6.074C41.098,40.014,39.529,41.479,37.646,42.527z"/>
			</g>
		</g>
	</g>
</g>
</svg>
