<?xml version="1.0" encoding="utf-8"?>
<!-- Generator: Adobe Illustrator 15.0.2, SVG Export Plug-In . SVG Version: 6.00 Build 0)  -->
<!DOCTYPE svg PUBLIC "-//W3C//DTD SVG 1.1//EN" "http://www.w3.org/Graphics/SVG/1.1/DTD/svg11.dtd">
<svg version="1.1" id="Calque_1" xmlns="http://www.w3.org/2000/svg" xmlns:xlink="http://www.w3.org/1999/xlink" x="0px" y="0px"
	 width="64px" height="64px" viewBox="0 0 64 64" enable-background="new 0 0 64 64" xml:space="preserve">
<g>
	<path fill="#DE6433" d="M55.271,32.451c0.621,0.072,1.254,0.021,1.881,0.059c0.563,0.033,0.762-0.18,0.752-0.754
		c-0.035-1.638-0.025-3.278-0.016-4.917c0.008-1.075,0.61-1.771,1.508-1.778c0.881-0.009,1.354,0.582,1.397,1.746
		c0.013,0.328,0.004,0.656,0.004,0.983c-0.002,1.339-0.002,2.677-0.012,4.014c-0.002,0.396,0.051,0.709,0.557,0.703
		c0.841-0.01,1.681-0.002,2.654-0.002c0-1.958,0.004-3.73-0.002-5.501c0-0.438,0.008-0.877-0.037-1.311
		c-0.228-2.166-1.806-3.499-3.94-3.163c-0.867,0.136-1.672,0.651-2.521,1.001c-0.033-0.146-0.104-0.455-0.177-0.779
		c-0.883,0-1.739,0-2.612,0c0,3.115-0.01,6.168,0.022,9.222C54.734,32.142,55.068,32.427,55.271,32.451z"/>
	<path fill="#DE6433" d="M5.57,25.957c0,0.596,0.001,1,0.002,1.405c-0.004,2.533,0.014,5.065-0.023,7.599
		c-0.012,0.756,0.205,1.098,1.007,1.051c0.854-0.051,1.714-0.039,2.569,0.004c0.727,0.037,0.998-0.254,0.98-0.975
		c-0.035-1.414-0.016-2.833-0.016-4.246c-0.002-1.555-0.001-3.109-0.001-4.813c1.026,0,1.935,0,2.952,0
		c0-1.035,0.057-1.927-0.037-2.802c-0.027-0.243-0.48-0.585-0.771-0.625c-0.684-0.093-1.387-0.029-2.045-0.029
		c-0.566-2.71,1.488-2.099,2.758-2.325c0-1.178,0-2.231,0-3.356c-1.318,0-2.545-0.064-3.763,0.015
		c-2.037,0.133-3.503,1.68-3.607,3.717c-0.032,0.619-0.005,1.24-0.005,1.955c-0.779,0-1.415-0.063-2.027,0.031
		c-0.255,0.038-0.635,0.395-0.656,0.633c-0.078,0.876-0.03,1.764-0.03,2.762C3.799,25.957,4.6,25.957,5.57,25.957z"/>
	<path fill="#DE6433" d="M50.049,22.854c-0.631,0.003-0.781,0.227-0.775,0.812c0.031,2.755,0.025,5.509,0.037,8.262
		c0.002,0.211,0.039,0.422,0.064,0.682c1.012,0,1.982,0,3.096,0c0-0.362,0-0.655,0-0.95c0.002-2.127,0-4.254,0.004-6.382
		C52.479,22.818,52.48,22.841,50.049,22.854z"/>
	<path fill="#DE6433" d="M50.842,21.849c1,0.009,1.725-0.632,1.744-1.546c0.021-0.915-0.715-1.646-1.656-1.652
		c-0.969-0.004-1.666,0.673-1.672,1.621C49.252,21.219,49.875,21.84,50.842,21.849z"/>
	<path fill="#DE6433" d="M15.189,45.244c-0.178,0.045-0.356,0.084-0.532,0.125c0.298-0.51,0.569-0.977,0.841-1.441
		c-0.057-0.043-0.112-0.086-0.169-0.127c-0.229,0.102-0.458,0.203-0.688,0.305c-0.667,0.291-1.218,0.386-1.946-0.114
		c-1.855-1.273-4.521-0.076-4.963,2.133C7.65,46.54,7.675,46.979,7.647,47.46c-2.694-0.131-4.756-1.467-6.592-3.377
		c-0.765,1.562-0.542,2.896,0.493,4.207c-0.392-0.07-0.668-0.121-1.023-0.187c0.055,1.564,0.831,2.535,2.146,3.229
		c-0.375,0.037-0.638,0.063-0.957,0.094c0.467,1.392,1.446,2.048,2.801,2.355C3.197,54.789,1.727,55.045,0,55.057
		c0.27,0.205,0.374,0.305,0.494,0.375c5.93,3.435,13.719-0.932,13.844-7.771c0.01-0.55,0.119-0.949,0.57-1.308
		c0.386-0.307,0.666-0.744,0.992-1.123C15.57,45.145,15.381,45.197,15.189,45.244z"/>
	<path fill="#DE6433" d="M63.805,45.906c-1.176-5.406-7.066-8.369-12.068-6c-3.178,1.506-4.848,4.109-4.998,7.625
		c-0.092,2.168,0.632,4.092,2.023,5.758c0.098,0.117,0.141,0.215,0.088,0.373c-0.121,0.359-0.217,0.729-0.32,1.096
		c-0.172,0.611-0.342,1.225-0.522,1.871c0.086-0.021,0.14-0.031,0.188-0.051c0.961-0.375,1.918-0.76,2.881-1.125
		c0.121-0.047,0.301-0.055,0.412,0c1.756,0.861,3.596,1.115,5.51,0.754C61.727,55.313,64.828,50.611,63.805,45.906z M60.477,51.738
		c-0.643,0.977-1.553,1.242-2.672,1.004c-1.246-0.264-2.336-0.832-3.34-1.596c-1.16-0.883-2.137-1.931-2.826-3.229
		c-0.453-0.856-0.699-1.772-0.77-2.74c-0.072-0.981,0.576-1.651,1.289-2.092c0.148-0.092,0.398-0.012,0.6-0.028
		c0.449-0.037,0.684,0.141,0.816,0.598c0.174,0.604,0.445,1.18,0.68,1.766c0.105,0.262,0.111,0.492-0.119,0.707
		c-0.229,0.217-0.424,0.469-0.648,0.691c-0.131,0.129-0.145,0.242-0.047,0.391c0.795,1.229,1.806,2.242,3.031,3.039
		c0.16,0.104,0.275,0.092,0.414-0.049c0.24-0.244,0.508-0.465,0.756-0.701c0.146-0.137,0.305-0.17,0.488-0.1
		c0.779,0.299,1.561,0.598,2.336,0.906c0.059,0.021,0.113,0.114,0.123,0.182c0.033,0.201,0.043,0.406,0.061,0.608
		c0.021,0.013,0.041,0.021,0.063,0.029C60.635,51.332,60.592,51.561,60.477,51.738z"/>
	<path fill="#DE6433" d="M42.854,29.086c-2.608-3.796-7.022-6.148-11.594-6.148c-2.695,0-5.461,0.875-7.797,2.461
		c-0.258,0.164-0.5,0.352-0.75,0.539c-0.273,0.203-0.531,0.43-0.789,0.648c-0.273,0.234-0.531,0.484-0.758,0.734
		c-0.258,0.258-0.5,0.531-0.711,0.797c-0.109,0.133-0.219,0.258-0.32,0.391c-0.109,0.156-0.211,0.297-0.32,0.438
		c-0.047,0.055-0.078,0.117-0.125,0.188c-0.07,0.094-0.133,0.188-0.156,0.235c-1.531,2.305-2.297,4.732-2.273,7.181
		c-0.023,1.873,0.422,3.734,1.297,5.478c0.047,0.094,0.078,0.18,0.125,0.272l0.023,0.048c0.367,0.739,0.789,1.483,1.289,2.227
		l0.234,0.336c0.578,0.859,1.117,1.672,1.633,2.555c0.117,0.297,0.242,0.578,0.366,0.859c0.259,0.594,0.493,1.148,0.656,1.742
		c0.22,0.789,0.32,1.555,0.336,2.289c0,0.117-0.007,0.242-0.016,0.358h16.212l-0.023-0.094c-0.094-0.431-0.022-0.938,0.063-1.5
		c0.094-0.603,0.25-1.22,0.461-1.828c0.103-0.306,0.22-0.603,0.336-0.883c0.022-0.063,0.07-0.117,0.108-0.181
		c0.134-0.233,0.281-0.492,0.353-0.772c0.484-0.836,1.022-1.642,1.595-2.483l0.266-0.398c0.57-0.859,1.039-1.688,1.43-2.508
		c0.906-1.844,1.336-3.734,1.289-5.609V36.27c-0.031-2.375-0.789-4.696-2.219-6.854C43.01,29.305,42.939,29.211,42.854,29.086z
		 M38.025,36.275L29.83,49.713c-0.109,0.18-0.383,0.078-0.352-0.125l1.328-8.953c0.023-0.117-0.07-0.229-0.188-0.229h-5.922
		c-0.148,0-0.242-0.162-0.164-0.287l8.194-13.439c0.109-0.18,0.383-0.078,0.353,0.125l-1.328,8.955
		c-0.023,0.115,0.07,0.219,0.188,0.219h5.922C38.01,35.979,38.104,36.148,38.025,36.275z"/>
	<path fill="#DE6433" d="M23.197,54.469v0.002v0.006c-0.023,0.354-0.047,0.767,0,1.189c0.234,1.734,1.914,1.834,2.461,1.875
		c0.281,0.008,0.563,0.021,0.844,0.021c0.766,0.008,0.921,0.086,1.188,0.557C28.354,59.281,29.775,60,31.416,60
		c1.578,0,2.891-0.654,3.555-1.764c0.328-0.557,0.531-0.666,1.32-0.666h0.375c0.602,0,1.836,0,2.516-0.914
		c0.57-0.764,0.406-1.602,0.273-2.188L23.197,54.469L23.197,54.469z"/>
	<path fill="#DE6433" d="M25.604,17.851c2.65,0.89,5.908,0.225,7.671-2.045c1.287-1.589,1.578-3.708,1.439-5.689
		c-2.268-0.021-4.537-0.014-6.805-0.01c-0.004,0.808,0,1.613,0.005,2.421c1.356,0.038,2.716,0.02,4.073,0.048
		c-0.342,1.175-1.122,2.268-2.309,2.694c-2.289,1.008-5.209-0.31-5.93-2.711c-0.871-2.299,0.553-5.075,2.904-5.744
		c1.457-0.512,2.958,0.064,4.205,0.822c0.632-0.591,1.22-1.223,1.804-1.861c-1.417-1.187-3.238-1.913-5.109-1.753
		c-3.674,0.044-6.887,3.434-6.748,7.103C20.746,14.094,22.791,16.927,25.604,17.851z"/>
	<path fill="#DE6433" d="M39.127,14.182c0.672,0,1.348-0.004,2.025,0c0.002-0.68,0.006-1.355,0.014-2.035
		c0.676-0.004,1.355-0.006,2.031-0.01c0-0.676,0-1.349,0-2.025c-0.676-0.003-1.355-0.006-2.031-0.013
		c-0.004-0.676-0.012-1.355-0.014-2.032c-0.678,0-1.351,0-2.021,0c-0.008,0.676-0.014,1.356-0.016,2.031
		c-0.68,0.008-1.355,0.011-2.031,0.014c0,0.675,0,1.349,0,2.025c0.676,0.004,1.355,0.006,2.031,0.014
		C39.121,12.827,39.121,13.502,39.127,14.182z"/>
</g>
</svg>
