<?xml version="1.0" encoding="utf-8"?>
<!-- Generator: Adobe Illustrator 15.0.2, SVG Export Plug-In . SVG Version: 6.00 Build 0)  -->
<!DOCTYPE svg PUBLIC "-//W3C//DTD SVG 1.1//EN" "http://www.w3.org/Graphics/SVG/1.1/DTD/svg11.dtd">
<svg version="1.1" id="Calque_1" xmlns="http://www.w3.org/2000/svg" xmlns:xlink="http://www.w3.org/1999/xlink" x="0px" y="0px"
	 width="64px" height="64px" viewBox="0 0 64 64" enable-background="new 0 0 64 64" xml:space="preserve">
<g>
	<g>
		<path fill="#DE6433" d="M44.123,9.481c-0.104-0.309-0.311-0.618-0.412-0.928c-0.412-0.618-1.135-1.133-1.855-1.339
			c-0.311-0.103-0.619-0.103-0.823-0.103h-1.959v-0.31C39.072,3.092,35.98,0,32.168,0h-0.207c-1.957,0-3.606,0.722-4.946,1.958
			c-1.237,1.237-2.062,2.989-2.062,4.844v0.31h-1.958c-0.309,0-0.618,0-0.824,0.103c-0.722,0.206-1.443,0.618-1.855,1.339
			c-0.206,0.31-0.309,0.619-0.412,0.928C19.8,9.688,19.8,9.894,19.8,10.1v3.813c0,0.206,0.103,0.412,0.103,0.618
			c0.412,1.34,1.649,2.371,3.092,2.371h18.036c1.441-0.103,2.68-1.031,3.092-2.371c0.102-0.206,0.102-0.412,0.102-0.618V9.997
			C44.225,9.894,44.123,9.688,44.123,9.481z M35.672,7.111h-7.421v-0.31c0.104-1.958,1.649-3.504,3.607-3.504h0.206
			c1.959,0,3.607,1.546,3.607,3.504L35.672,7.111L35.672,7.111z"/>
	</g>
	<path fill="#DE6433" d="M56.695,47.613v-0.618c0-1.546,0-3.093,0-4.534c0-3.607,0-0.619,0-4.227V36.38c0-5.565,0-11.233,0-16.902
		c0-4.225-1.752-7.317-5.256-9.172c-1.236-0.619-2.576-0.928-4.328-0.928h-0.928v4.432h0.205c0.618,0,1.135,0,1.547,0.103
		c2.371,0.103,4.328,2.164,4.432,4.432c0.104,2.267,0.104,4.535,0.104,6.596v17.933c0,5.358,0,5.05,0,10.408
		c0,1.237,0,2.475-0.619,3.606c-1.031,1.855-2.473,2.783-4.432,2.783H31.961H16.399c-1.958,0-3.401-0.928-4.432-2.783
		c-0.618-1.133-0.618-2.369-0.618-3.606c0-5.358,0-5.05,0-10.408V24.94c0-2.061,0-4.432,0.103-6.596
		c0.103-2.268,2.061-4.226,4.432-4.432c0.412,0,0.927,0,1.546-0.103h0.206V9.378h-0.928c-1.855,0-3.195,0.309-4.329,0.928
		c-3.401,1.958-5.153,5.05-5.153,9.172c0,5.668,0,11.336,0,16.902v1.854c0,3.606,0,0.619,0,4.227c0,1.545,0,3.092,0,4.534v0.618
		c0,4.328,0,3.092,0.103,7.42c0.103,2.371,1.031,4.639,2.783,6.287c1.752,1.752,4.02,2.68,6.39,2.68l0,0c5.05,0,9.997,0,15.046,0
		h0.412h0.516c5.051,0,9.997,0,15.047,0l0,0c2.371,0,4.637-0.928,6.389-2.68c1.754-1.648,2.68-3.916,2.783-6.287
		C56.799,50.705,56.799,51.941,56.695,47.613z"/>
	<g>
		<g>
			<g>
				<g>
					<g>
						<path fill="#DE6433" d="M34.332,32.566l4.121,2.268c-1.133,1.959-2.266,4.02-3.4,6.08c-0.205,0.413-0.516,0.928-0.721,1.34
							c-0.928,1.648-1.959,2.989-3.195,4.227c-0.721,0.722-1.34,1.236-2.164,1.442c-0.206,0-0.309,0.206-0.309,0.31
							c0,0-0.104,0.104-0.104,0.205c0,0,0,0.104-0.104,0.104v0.104c0,0.103-0.103,0.103-0.103,0.205
							c-0.104,0.104-0.104,0.104-0.206,0.104l0,0l0,0l0,0l0,0c-0.207,0-0.31-0.206-0.31-0.206l0,0c-0.103-0.103-0.103-0.206,0-0.31
							c0-0.104,0.103-0.104,0.103-0.205l0.104-0.104c0-0.104,0.104-0.104,0.104-0.206l0,0c0.103-0.104,0.103-0.31,0.103-0.413
							c-0.31-0.823-0.103-1.752,0.104-2.679c0.412-1.648,1.03-3.298,1.958-4.947c0.206-0.515,0.516-0.927,0.824-1.441
							C32.064,36.586,33.197,34.525,34.332,32.566z"/>
					</g>
				</g>
				<g>
					<g>
						<path fill="#DE6433" d="M43.299,21.333c1.441,0.825,1.957,2.577,1.133,3.917l-0.309,0.619l0.102,0.103
							c1.238,1.031,1.547,2.885,0.826,4.328l-1.855,3.4c-0.207,0.31-0.516,0.413-0.824,0.206c-0.311-0.206-0.412-0.516-0.207-0.824
							l1.855-3.4c0.516-0.825,0.309-1.959-0.31-2.68l-0.207-0.104l-3.813,6.905l-5.153-2.782l4.741-8.555
							C40.104,21.024,41.855,20.509,43.299,21.333z"/>
					</g>
				</g>
			</g>
			<path fill="#DE6433" d="M27.941,51.736c0-0.207-0.205-0.412-0.412-0.517c-0.205-0.104-0.412-0.206-0.618-0.104
				c-0.206,0-0.413,0.207-0.516,0.411c-0.103,0.207-0.206,0.412-0.103,0.619c0.103,0.517,0,1.03-0.309,1.236s-0.721,0.206-1.134,0
				c-0.309-0.206-0.618-0.516-0.927-0.824c-0.722-0.722-1.649-1.647-3.092-1.545c-1.031,0.103-1.649,0.721-1.958,1.752
				c-0.206,0.721-0.103,1.545-0.103,2.062v0.103c0,0.412,0.31,0.723,0.619,0.825l0,0h0.515V55.65c0.103,0,0.309-0.104,0.412-0.205
				c0.207-0.206,0.207-0.413,0.207-0.618v-0.104c0-0.516-0.104-1.134,0.103-1.546c0.103-0.411,0.309-0.411,0.412-0.411
				c0.515,0,0.927,0.31,1.649,1.029c0.412,0.412,0.824,0.824,1.34,1.135c1.03,0.617,2.164,0.617,3.091,0
				C27.839,54.209,28.148,52.973,27.941,51.736z"/>
		</g>
	</g>
</g>
</svg>
