<?xml version="1.0" encoding="utf-8"?>
<!-- Generator: Adobe Illustrator 14.0.0, SVG Export Plug-In  -->
<!DOCTYPE svg PUBLIC "-//W3C//DTD SVG 1.1//EN" "http://www.w3.org/Graphics/SVG/1.1/DTD/svg11.dtd" [
	<!ENTITY ns_flows "http://ns.adobe.com/Flows/1.0/">
]>
<svg version="1.1"
	 xmlns="http://www.w3.org/2000/svg" xmlns:xlink="http://www.w3.org/1999/xlink" xmlns:a="http://ns.adobe.com/AdobeSVGViewerExtensions/3.0/"
	 x="0px" y="0px" width="500px" height="184px" viewBox="0.362 0.13 500 184" enable-background="new 0.362 0.13 500 184"
	 xml:space="preserve">
<defs>
</defs>
<polygon fill="#FFFFFF" points="201.969,180.738 180.498,178.679 201.969,176.622 "/>
<polygon fill="#FFFFFF" points="298.03,176.622 319.501,178.679 298.03,180.738 "/>
<path fill="#FFFFFF" d="M210.082,183.093v-9.131h-1.415v-0.375h4.286c0.947,0,1.759,0.146,2.434,0.438
	c0.674,0.292,1.238,0.864,1.689,1.716c0.451,0.853,0.677,1.777,0.677,2.775c0,1.056-0.248,1.999-0.745,2.83
	c-0.497,0.829-1.068,1.391-1.716,1.683s-1.437,0.439-2.366,0.439h-4.258v-0.376H210.082z M211.693,173.962v9.131h1.178
	c0.618,0,1.123-0.063,1.513-0.184c0.39-0.124,0.713-0.392,0.968-0.805c0.254-0.412,0.427-0.935,0.518-1.568
	c0.09-0.634,0.135-1.462,0.135-2.484c0-1.228-0.143-2.144-0.43-2.748s-0.638-0.979-1.053-1.124
	c-0.415-0.146-0.956-0.218-1.624-0.218H211.693z"/>
<path fill="#FFFFFF" d="M222.375,173.962v4.237h0.819c0.289,0,0.534-0.029,0.735-0.091c0.201-0.063,0.381-0.229,0.542-0.499
	c0.16-0.27,0.251-0.692,0.274-1.268h0.352v4.186h-0.352c-0.036-0.796-0.177-1.319-0.423-1.572c-0.246-0.254-0.622-0.38-1.127-0.38
	h-0.819v4.518h1.848c1.047,0,1.773-0.24,2.177-0.719c0.403-0.479,0.644-1.217,0.721-2.215h0.345l-0.088,3.31h-8.049v-0.376h1.442
	v-9.131h-1.442v-0.375h7.717l0.156,2.637h-0.345c-0.118-0.8-0.359-1.377-0.725-1.73c-0.365-0.354-0.975-0.531-1.828-0.531H222.375z"
	/>
<path fill="#FFFFFF" d="M231.988,178.945v4.148h1.469v0.376h-4.522v-0.376h1.442v-9.131h-1.442v-0.375h4.677
	c1.056,0,1.852,0.255,2.387,0.766c0.534,0.512,0.802,1.14,0.802,1.887c0,0.766-0.27,1.409-0.809,1.928
	c-0.54,0.518-1.436,0.777-2.691,0.777H231.988z M231.988,173.962v4.599h0.873c0.456,0,0.835-0.041,1.138-0.126
	c0.302-0.083,0.563-0.304,0.782-0.663c0.219-0.357,0.329-0.914,0.329-1.665c0-0.664-0.096-1.15-0.288-1.462
	c-0.192-0.313-0.419-0.504-0.681-0.575s-0.586-0.107-0.975-0.107H231.988z"/>
<path fill="#FFFFFF" d="M245.644,173.962h-1.482v-0.375h3.242v0.375h-1.428v5.977c0,0.865-0.061,1.503-0.181,1.916
	c-0.119,0.412-0.337,0.76-0.652,1.04c-0.316,0.279-0.695,0.483-1.135,0.61c-0.44,0.129-0.895,0.191-1.363,0.191
	c-0.993,0-1.72-0.168-2.18-0.508c-0.46-0.339-0.744-0.757-0.85-1.252c-0.106-0.498-0.16-1.162-0.16-1.998v-5.977h-1.313v-0.375h4.34
	v0.375h-1.429v5.808c0,0.8,0.035,1.43,0.103,1.887c0.067,0.457,0.25,0.837,0.548,1.142c0.298,0.306,0.769,0.457,1.415,0.457
	c0.523,0,0.992-0.117,1.408-0.35c0.415-0.233,0.705-0.547,0.869-0.939c0.166-0.395,0.248-1.126,0.248-2.196V173.962z"/>
<path fill="#FFFFFF" d="M250.03,183.093v-9.131h-1.483v-0.375h4.59v0.375h-1.496v9.131h1.496v0.376h-4.59v-0.376H250.03z"/>
<path fill="#FFFFFF" d="M260.042,173.476l0.041,2.564h-0.319c-0.45-1.538-1.248-2.306-2.389-2.306c-0.633,0-1.123,0.19-1.473,0.571
	c-0.35,0.38-0.524,0.774-0.524,1.182c0,0.379,0.146,0.7,0.437,0.966s0.823,0.471,1.595,0.615s1.359,0.321,1.763,0.53
	c0.404,0.209,0.745,0.557,1.021,1.043c0.278,0.486,0.418,1.043,0.418,1.673c0,0.968-0.291,1.773-0.871,2.418
	c-0.579,0.643-1.298,0.964-2.155,0.964c-0.7,0-1.398-0.282-2.092-0.847l-0.637,0.619h-0.236v-2.764h0.29
	c0.267,0.869,0.64,1.523,1.118,1.96c0.478,0.438,1.002,0.656,1.57,0.656c0.564,0,1.082-0.203,1.553-0.608
	c0.473-0.405,0.708-0.918,0.708-1.536c0-0.521-0.163-0.96-0.491-1.316c-0.326-0.354-0.857-0.6-1.591-0.735s-1.296-0.292-1.688-0.472
	s-0.729-0.492-1.009-0.937c-0.28-0.445-0.42-0.937-0.42-1.478c0-0.747,0.244-1.414,0.731-2.001s1.147-0.88,1.983-0.88
	c0.699,0,1.352,0.241,1.956,0.722c0.167-0.172,0.313-0.374,0.433-0.604H260.042z"/>
<path fill="#FFFFFF" d="M268.761,173.764v9.329h1.565v0.376h-4.407v-0.376h1.557v-8.65h-1.557v-0.377h0.236
	C267.144,174.066,268.013,173.965,268.761,173.764z"/>
<path fill="#FFFFFF" d="M272.743,184v-0.303c1.963-0.354,3.104-1.748,3.426-4.186l-0.027-0.029c-0.43,0.526-0.932,0.789-1.509,0.789
	c-0.642,0-1.225-0.311-1.751-0.933c-0.525-0.622-0.789-1.348-0.789-2.178c0-0.884,0.256-1.669,0.769-2.354
	c0.512-0.687,1.166-1.028,1.961-1.028c0.843,0,1.54,0.378,2.091,1.134c0.551,0.757,0.826,1.742,0.826,2.956
	c0,1.557-0.477,2.913-1.428,4.068C275.358,183.09,274.168,183.779,272.743,184z M276.222,178.916l0.074-2.462
	c0-1.563-0.472-2.344-1.414-2.344c-0.475,0-0.817,0.208-1.029,0.623c-0.213,0.416-0.317,1.396-0.317,2.944
	c0,1.478,0.393,2.217,1.178,2.217C275.268,179.894,275.771,179.568,276.222,178.916z"/>
<path fill="#FFFFFF" d="M283.967,173.476v0.457c-2.058,0.274-3.205,1.592-3.439,3.95l0.027,0.029
	c0.415-0.521,0.908-0.781,1.482-0.781c0.694,0,1.294,0.313,1.797,0.939c0.504,0.627,0.756,1.354,0.756,2.186
	c0,0.894-0.271,1.688-0.817,2.384c-0.543,0.695-1.191,1.042-1.944,1.042c-0.822,0-1.504-0.396-2.045-1.189
	c-0.542-0.793-0.813-1.792-0.813-2.996c0-1.596,0.47-2.953,1.41-4.07C281.324,174.308,282.519,173.659,283.967,173.476z
	 M280.454,178.561l-0.041,1.304c0,1.799,0.166,2.823,0.501,3.077c0.334,0.253,0.639,0.38,0.915,0.38
	c0.423,0,0.749-0.195,0.977-0.587c0.229-0.39,0.343-1.187,0.343-2.39c0-1.273-0.106-2.066-0.315-2.382
	c-0.209-0.313-0.507-0.472-0.89-0.472C281.41,177.492,280.914,177.848,280.454,178.561z"/>
<path fill="#FFFFFF" d="M286.336,184v-0.303c1.963-0.354,3.104-1.748,3.425-4.186l-0.026-0.029c-0.43,0.526-0.932,0.789-1.51,0.789
	c-0.641,0-1.225-0.311-1.75-0.933s-0.789-1.348-0.789-2.178c0-0.884,0.257-1.669,0.769-2.354c0.513-0.687,1.165-1.028,1.96-1.028
	c0.844,0,1.54,0.378,2.092,1.134c0.551,0.757,0.826,1.742,0.826,2.956c0,1.557-0.477,2.913-1.428,4.068
	C288.952,183.09,287.761,183.779,286.336,184z M289.816,178.916l0.075-2.462c0-1.563-0.473-2.344-1.416-2.344
	c-0.474,0-0.817,0.208-1.029,0.623c-0.211,0.416-0.317,1.396-0.317,2.944c0,1.478,0.393,2.217,1.179,2.217
	C288.862,179.894,289.364,179.568,289.816,178.916z"/>
<path fill="#FFFFFF" d="M0,122.298c41.193-8.41,82.704-14.939,124.365-20.158c20.835-2.593,41.73-4.637,62.661-6.341
	c20.944-1.524,41.94-2.478,62.977-2.585c21.034,0.121,42.019,1.17,62.966,2.624c10.462,0.89,20.929,1.708,31.368,2.81
	c10.453,0.958,20.874,2.235,31.299,3.458c41.667,5.179,83.184,11.697,124.363,20.192c-41.58-5.657-83.195-10.678-124.859-14.848
	c-41.669-3.964-83.421-7.204-125.147-7.388c-20.854-0.029-41.723,0.911-62.586,2.184c-20.864,1.338-41.705,3.218-62.547,5.181
	C83.197,111.629,41.583,116.68,0,122.298z"/>
<polygon fill="#FFFFFF" points="102.149,91.332 179.645,46.379 218.55,71.427 177.331,55.835 "/>
<polygon fill="#FFFFFF" points="208.437,61.249 244.55,34.372 265.033,50.992 243.434,41.028 "/>
<polygon fill="#FFFFFF" points="397.85,91.322 295.312,45.212 213.269,87.104 298.949,34.468 "/>
<rect x="168.816" y="67.468" fill="#FFFFFF" width="6.764" height="6.058"/>
<rect x="177.924" y="67.468" fill="#FFFFFF" width="6.726" height="6.058"/>
<rect x="168.816" y="75.934" fill="#FFFFFF" width="6.764" height="11.408"/>
<rect x="177.924" y="75.934" fill="#FFFFFF" width="6.726" height="11.408"/>
<rect x="285.071" y="57.863" fill="#FFFFFF" width="8.395" height="7.518"/>
<rect x="296.375" y="57.863" fill="#FFFFFF" width="8.348" height="7.518"/>
<rect x="285.071" y="68.37" fill="#FFFFFF" width="8.395" height="14.158"/>
<rect x="296.375" y="68.37" fill="#FFFFFF" width="8.348" height="14.158"/>
<rect x="240.433" y="49.183" fill="#FFFFFF" width="6.437" height="10.504"/>
<path fill="#FFFFFF" d="M36.531,155.958h-0.884l8.586-25.259h1.311l8.586,25.259h-0.885l-3.081-9.026H39.612L36.531,155.958z
	 M44.823,131.555l-4.917,14.484h9.963l-4.917-14.484H44.823z"/>
<path fill="#FFFFFF" d="M56.916,137.406c0-4.637,4.063-7.063,8.128-7.063c2.917,0,5.801,1.249,7.177,3.674l-0.754,0.536
	c-1.179-2.319-3.834-3.317-6.489-3.317c-3.638,0-7.243,2.032-7.243,6.171v11.736c0,4.21,3.638,6.315,7.309,6.315
	c3.637,0,7.341-2.105,7.341-6.315v-4.779h-7.112v-0.856h7.932v5.636c0,4.781-4.097,7.172-8.161,7.172
	c-4.064,0-8.128-2.391-8.128-7.172V137.406z"/>
<path fill="#FFFFFF" d="M79.004,142.9H91v0.963H79.004v11.202h12.979v0.893H78.185v-25.259h13.798v0.893H79.004V142.9z"/>
<path fill="#FFFFFF" d="M111.777,155.101v-24.402h0.82v25.259h-1.409L97.586,131.84l-0.033,24.117h-0.852v-25.259h1.278
	L111.777,155.101z"/>
<path fill="#FFFFFF" d="M118.2,137.406c0-4.637,4.129-7.063,8.226-7.063c2.917,0,5.834,1.213,7.21,3.639l-0.721,0.571
	c-1.213-2.176-3.933-3.354-6.587-3.354c-3.605,0-7.309,2.068-7.309,6.207v11.844c0,4.139,3.703,6.172,7.309,6.172
	c2.622,0,5.309-1.035,6.587-3.175l0.721,0.393c-1.376,2.426-4.359,3.675-7.308,3.675c-4.031,0-8.128-2.391-8.128-7.064V137.406z"/>
<path fill="#FFFFFF" d="M138.65,142.9h11.996v0.963H138.65v11.202h12.979v0.893h-13.798v-25.259h13.798v0.893H138.65V142.9z"/>
<path fill="#FFFFFF" d="M181.157,155.958h-5.048l-2.032-5.779h-6.915l-1.934,5.779h-5.146l8.128-25.259h4.622L181.157,155.958z
	 M168.375,145.361h4.458l-1.476-5.493l-0.721-3.604h-0.229l-0.721,3.64L168.375,145.361z"/>
<path fill="#FFFFFF" d="M189.546,146.717h-1.705v9.24h-4.85v-25.259h9.144c4.654,0,8.161,2.319,8.292,8.063
	c0,4.638-1.934,6.885-5.277,7.599l6.915,9.597h-5.931L189.546,146.717z M192.135,141.936c2.131,0,3.475-0.927,3.475-3.139
	c0-2.141-1.442-2.89-3.475-2.818h-4.293v5.957H192.135z"/>
<path fill="#FFFFFF" d="M217.763,148.964c-0.262-1.641-0.656-4.815-0.688-5.351v-12.915h4.818v25.259h-5.146l-7.08-13.272
	l-1.408-3.425l-0.329,0.072l0.623,4.316v12.309h-4.85v-25.259h4.751l7.342,13.771l1.64,4.566L217.763,148.964z"/>
<path fill="#FFFFFF" d="M244.898,155.958h-5.047l-2.032-5.779h-6.916l-1.934,5.779h-5.145l8.128-25.259h4.621L244.898,155.958z
	 M232.116,145.361h4.457l-1.475-5.493l-0.721-3.604h-0.229l-0.721,3.64L232.116,145.361z"/>
<path fill="#FFFFFF" d="M250.799,147.644c0,2.354,2.097,3.532,4.227,3.532c2.229,0,4.293-1.178,4.293-3.532v-16.945h4.85v16.945
	c0,5.779-4.489,8.67-9.143,8.67c-4.556,0-9.079-2.891-9.079-8.67v-16.945h4.852V147.644z"/>
<path fill="#FFFFFF" d="M276.556,130.699c4.589,0,8.85,2.497,8.85,8.205v8.991c0,5.672-4.261,8.063-8.85,8.063h-8.521v-25.259
	H276.556z M276.556,150.676c2.098,0,3.999-0.749,3.999-2.781v-8.991c0-2.068-1.901-2.925-3.999-2.925h-3.703v14.697H276.556z"/>
<path fill="#FFFFFF" d="M310.017,146.574l0.557,0.321l-2.064,3.674l3.605,4.461h-0.95l-3.017-3.675
	c-1.999,2.925-4.063,4.744-7.046,4.744c-3.54,0-6.391-2.496-6.391-6.492c0-3.461,2.622-5.993,5.407-7.777
	c-1.441-1.854-2.982-4.067-2.982-6.102c0-3.174,2.458-5.101,5.179-5.101c2.393,0,4.588,1.962,4.588,4.71
	c0,3.14-2.425,4.923-4.816,6.278l-0.755,0.499l6.653,7.956L310.017,146.574z M300.61,142.329c-2.358,1.498-5.079,3.889-5.079,7.206
	c0,3.532,2.196,5.815,5.834,5.815c2.688,0,4.85-2.283,6.259-4.495L300.61,142.329z M297.957,135.658
	c0,2.034,1.703,4.388,2.884,5.852c2.752-1.5,5.277-3.176,5.277-6.03c0-2.39-1.64-4.066-3.901-4.066
	C299.922,131.413,297.957,133.16,297.957,135.658z"/>
<path fill="#FFFFFF" d="M340.955,155.958h-5.047l-2.032-5.779h-6.916l-1.934,5.779h-5.146l8.128-25.259h4.621L340.955,155.958z
	 M328.172,145.361h4.457l-1.475-5.493l-0.721-3.604h-0.229l-0.722,3.64L328.172,145.361z"/>
<path fill="#FFFFFF" d="M344.919,148.465c2.098,3.638,8.193,3.711,8.391,0.179c0.098-2.176-2.066-2.676-4.456-3.032
	c-3.641-0.607-7.409-2.463-7.343-8.027c0.262-4.781,4.292-7.278,8.455-7.278c3.015,0,5.898,1.285,7.833,4.46l-3.965,2.89
	c-0.984-1.642-2.36-2.391-3.868-2.391c-1.835,0-3.441,0.749-3.54,2.497v0.036c0.033,2.069,1.967,2.354,3.999,2.818
	c4.031,0.82,7.963,2.427,7.734,8.384c-0.393,4.744-4.588,7.313-8.816,7.313c-3.016,0-6.096-1.605-8.063-4.816L344.919,148.465z"/>
<path fill="#FFFFFF" d="M363.534,148.465c2.098,3.638,8.193,3.711,8.391,0.179c0.099-2.176-2.065-2.676-4.457-3.032
	c-3.64-0.607-7.408-2.463-7.342-8.027c0.262-4.781,4.292-7.278,8.455-7.278c3.015,0,5.899,1.285,7.833,4.46l-3.965,2.89
	c-0.983-1.642-2.36-2.391-3.868-2.391c-1.835,0-3.441,0.749-3.54,2.497v0.036c0.033,2.069,1.967,2.354,3.999,2.818
	c4.032,0.82,7.964,2.427,7.734,8.384c-0.393,4.744-4.588,7.313-8.816,7.313c-3.016,0-6.096-1.605-8.063-4.816L363.534,148.465z"/>
<path fill="#FFFFFF" d="M379.069,138.762c0-5.637,4.751-8.456,9.504-8.42c4.753,0,9.504,2.817,9.504,8.42v9.168
	c0,5.601-4.751,8.42-9.504,8.42s-9.504-2.783-9.504-8.42V138.762z M383.853,147.93c0,2.141,2.36,3.175,4.72,3.175
	c2.359-0.036,4.687-1.07,4.687-3.175v-9.168c0-2.178-2.358-3.247-4.72-3.212c-2.326,0-4.687,1.106-4.687,3.212V147.93z"/>
<path fill="#FFFFFF" d="M418.297,151.035c-1.999,3.53-5.178,5.279-8.258,5.279c-4.491,0-9.111-2.818-9.111-8.384v-9.204
	c0-5.53,4.522-8.384,9.111-8.384c3.08,0,6.488,1.712,8.062,5.423l-3.868,2.283c-0.917-1.891-2.785-2.747-4.556-2.711
	c-2.064,0.035-3.965,1.283-3.965,3.389v9.204c0,2.068,1.835,3.282,3.866,3.317c1.738,0.036,3.639-0.82,4.558-2.747L418.297,151.035z
	"/>
<path fill="#FFFFFF" d="M425.474,155.958h-4.817v-25.259h4.817V155.958z"/>
<path fill="#FFFFFF" d="M434.387,140.76h9.997v5.101h-9.997v4.994h10.882v5.103h-15.731v-25.294h15.731v5.138h-10.882V140.76z
	 M439.008,128.986h-4.457l3.114-5.064h5.571L439.008,128.986z"/>
<path fill="#FFFFFF" d="M451.103,148.465c2.097,3.638,8.192,3.711,8.39,0.179c0.098-2.176-2.065-2.676-4.457-3.032
	c-3.639-0.607-7.408-2.463-7.342-8.027c0.263-4.781,4.294-7.278,8.456-7.278c3.015,0,5.898,1.285,7.832,4.46l-3.965,2.89
	c-0.983-1.642-2.359-2.391-3.867-2.391c-1.836,0-3.442,0.749-3.541,2.497v0.036c0.033,2.069,1.969,2.354,4,2.818
	c4.03,0.82,7.964,2.427,7.733,8.384c-0.393,4.744-4.587,7.313-8.815,7.313c-3.015,0-6.096-1.605-8.063-4.816L451.103,148.465z"/>
<linearGradient id="SVGID_1_" gradientUnits="userSpaceOnUse" x1="249.9995" y1="0" x2="249.9995" y2="81.4063">
	<stop  offset="0" style="stop-color:#FBCA05"/>
	<stop  offset="0.3325" style="stop-color:#FFFAD2"/>
	<stop  offset="0.3745" style="stop-color:#FAF0C1"/>
	<stop  offset="0.4579" style="stop-color:#EDD694"/>
	<stop  offset="0.5739" style="stop-color:#D7AF4D"/>
	<stop  offset="0.6513" style="stop-color:#C89417"/>
	<stop  offset="0.8182" style="stop-color:#EACF77"/>
	<stop  offset="0.8536" style="stop-color:#F1DC8C"/>
	<stop  offset="1" style="stop-color:#FFFAD2"/>
</linearGradient>
<path fill="url(#SVGID_1_)" d="M35.692,81.406c3.955-2.752,8.017-5.325,12.07-7.924c4.077-2.551,8.189-5.042,12.319-7.507
	c8.259-4.933,16.682-9.561,25.143-14.136c16.975-9.037,34.359-17.306,52.148-24.691c8.904-3.664,17.901-7.134,27.029-10.268
	c4.565-1.562,9.148-3.092,13.772-4.498c4.626-1.401,9.282-2.724,13.964-3.968c18.738-4.88,38.053-8.37,57.917-8.415
	c9.888,0.046,19.679,0.931,29.332,2.357c9.649,1.468,19.167,3.473,28.558,5.868c18.768,4.861,37.045,11.183,54.854,18.535
	c17.817,7.342,35.201,15.643,52.156,24.732c16.894,9.208,33.549,18.87,49.354,29.913c-17.328-8.185-34.69-16.084-52.267-23.39
	c-17.546-7.353-35.209-14.299-53.063-20.485c-17.858-6.153-35.873-11.7-54.093-15.852c-9.102-2.088-18.247-3.865-27.414-5.094
	c-9.156-1.313-18.343-2.028-27.453-2.08c-9.08-0.038-18.243,0.739-27.394,2.034c-9.161,1.239-18.287,3.114-27.393,5.192
	c-18.197,4.269-36.223,9.819-54.069,16.042c-17.856,6.216-35.532,13.151-53.101,20.464C70.471,65.519,53.067,73.333,35.692,81.406z"
	/>
</svg>
