<?xml version="1.0" standalone="no"?>
<!DOCTYPE svg PUBLIC "-//W3C//DTD SVG 1.1//EN" "http://www.w3.org/Graphics/SVG/1.1/DTD/svg11.dtd" >
<svg xmlns="http://www.w3.org/2000/svg">
<metadata>
This is a custom SVG font generated by IcoMoon.
<iconset grid="20"></iconset>
</metadata>
<defs>
<font id="icov5" horiz-adv-x="640" >
<font-face units-per-em="640" ascent="608" descent="-32" />
<missing-glyph horiz-adv-x="640" />
<glyph class="hidden" unicode="&#xf000;" d="M0,608L 640 -32L0 -32 z" horiz-adv-x="0" />
<glyph unicode="&#xe000;" d="M 550.048,475.168c-53.504,49.12-140.256,49.12-193.76,0L 320,441.824L 283.68,475.168c-53.504,49.12-140.224,49.12-193.728,0
		c-60.192-55.232-60.192-144.768,0-200.032L 320,64l 230.048,211.136C 610.24,330.4, 610.24,419.936, 550.048,475.168z" data-tags="heart, love, like, favorite" />
<glyph unicode="&#xe001;" d="M 480,192c-22.016,0-42.176-7.456-58.368-19.904l-167.008,100.192C 255.424,277.408, 256,282.656, 256,288c0,5.376-0.576,10.592-1.376,15.712
		l 167.008,100.192C 437.824,391.456, 457.984,384, 480,384c 52.992,0, 96,42.976, 96,96s-43.008,96-96,96s-96-42.976-96-96c0-5.344, 0.576-10.592, 1.408-15.712
		L 218.4,364.064C 202.208,376.544, 182.016,384, 160,384c-53.024,0-96-42.976-96-96c0-52.992, 42.976-96, 96-96c 22.016,0, 42.208,7.456, 58.4,19.904l 167.008-100.192
		C 384.576,106.592, 384,101.376, 384,96c0-52.992, 43.008-96, 96-96s 96,43.008, 96,96S 532.992,192, 480,192z" data-tags="share, spread" />
<glyph unicode="&#xe002;" d="M 320,563.2c-151.968,0-275.2-123.232-275.2-275.2c0-152, 123.232-275.2, 275.2-275.2c 152,0, 275.2,123.2, 275.2,275.2C 595.2,439.968, 472,563.2, 320,563.2z
		 M 342.4,65.12L 342.4,188.8 L 297.6,188.8 l0-123.68 c-105.824,10.496-189.952,94.656-200.48,200.48L 220.8,265.6 L 220.8,310.4 L 97.12,310.4 C 107.648,416.224, 191.776,500.384, 297.6,510.88L 297.6,387.2 l 44.8,0 
		L 342.4,510.88 c 105.856-10.496, 189.984-94.656, 200.48-200.48L 419.2,310.4 l0-44.8 l 123.68,0 C 532.384,159.776, 448.256,75.616, 342.4,65.12z" data-tags="target, cross, goal" />
<glyph unicode="&#xe004;" d="M 315.904,595.168C 146.24,592.896, 10.56,453.536, 12.832,283.904c 2.272-169.664, 141.632-305.344, 311.296-303.104
		c 169.632,2.304, 305.344,141.632, 303.072,311.296C 624.864,461.76, 485.504,597.44, 315.904,595.168z M 323.232,45.504c-133.92-1.824-243.936,105.312-245.76,239.264
		C 75.712,418.688, 182.816,528.704, 316.768,530.496c 133.92,1.792, 243.936-105.312, 245.728-239.264S 457.184,47.328, 323.232,45.504z M 174.496,143.872
		c0,0, 146.208,20.064, 208.576,82.432c 62.368,62.368, 82.432,208.576, 82.432,208.576S 319.328,414.784, 256.96,352.448C 194.592,290.048, 174.496,143.872, 174.496,143.872z
		 M 288.48,320.896C 314.688,347.136, 364.8,365.728, 407.808,377.28c-11.552-42.912-30.24-93.408-56.288-119.424c-17.408-17.408-45.632-17.408-63.040,0
		C 271.040,275.264, 271.040,303.488, 288.48,320.896z" data-tags="compass, location" />
<glyph unicode="&#xe005;" d="M 629.856,447.232l-149.568,93.664c-6.624,4.16-14.912,4.16-21.536,0L 320,453.984L 181.248,540.864c-6.624,4.16-14.912,4.16-21.536,0
		L 10.144,447.232C 3.872,443.296,0,436.16,0,428.512l0-374.624 c0-7.872, 4.032-15.168, 10.624-19.040s 14.624-3.776, 21.088,0.288l 138.752,86.912l 138.752-86.912
		c 6.624-4.16, 14.912-4.16, 21.568,0l 138.752,86.912l 138.752-86.912C 611.584,33.056, 615.328,32, 619.072,32c 3.552,0, 7.104,0.96, 10.304,2.848
		C 635.936,38.72, 640,46.016, 640,53.888L 640,428.512 C 640,436.16, 636.128,443.296, 629.856,447.232z M 149.536,159.904L 41.856,92.48L 41.856,416.128 l 107.68,67.424L 149.536,159.904 z
		 M 299.072,92.48l-107.68,67.424L 191.392,483.552 l 107.68-67.424L 299.072,92.48 z M 448.608,159.904l-107.648-67.424L 340.96,416.128 l 107.648,67.424L 448.608,159.904 z M 598.112,92.48
		l-107.648,67.424L 490.464,483.552 l 107.648-67.424L 598.112,92.48 z" data-tags="map, location, address, directions" />
<glyph unicode="&#xe006;" d="M 320,544C 231.616,544, 160,472.352, 160,384c0-152.768, 160-352, 160-352s 160,199.232, 160,352C 480,472.352, 408.384,544, 320,544z M 320,295.68c-47.712,0-86.4,38.688-86.4,86.4
		s 38.688,86.4, 86.4,86.4s 86.4-38.688, 86.4-86.4S 367.712,295.68, 320,295.68z" data-tags="location, map marker, marker, pin" />
<glyph unicode="&#xe007;" d="M 359.328,248.672c-50.656-50.688-109.344-99.136-132.544-75.904c-33.216,33.184-53.664,62.112-126.88,3.296s-16.992-98.048, 15.2-130.24
		c 37.12-37.088, 175.488-1.952, 312.288,134.816c 136.736,136.768, 171.936,275.168, 134.784,312.288c-32.16,32.192-71.36,88.384-130.208,15.2
		s-29.92-93.664, 3.296-126.88C 458.4,358.016, 409.984,299.36, 359.328,248.672z" data-tags="phone, contact, call, telephone, support" />
<glyph unicode="&#xe008;" d="M 444.064,608L 195.936,608 C 160,608, 130.624,578.624, 130.624,542.688l0-509.376 C 130.624-2.592, 160-32, 195.936-32l 248.128,0 c 35.936,0, 65.312,29.408, 65.312,65.312
		L 509.376,542.688 C 509.376,578.624, 480,608, 444.064,608z M 320-5.888c-25.216,0-45.696,14.624-45.696,32.672s 20.48,32.672, 45.696,32.672
		c 25.248,0, 45.696-14.624, 45.696-32.672S 345.248-5.888, 320-5.888z M 457.12,92.096L 182.848,92.096 L 182.848,523.104 l 274.272,0 L 457.12,92.096 z" data-tags="mobile, phone, contact" />
<glyph unicode="&#xe009;" d="M 51.008,438.848c 15.616-8.416, 231.968-124.608, 240.032-128.928C 299.072,305.6, 309.504,303.52, 320,303.52c 10.528,0, 20.96,2.080, 28.992,6.432
		c 8.064,4.32, 224.384,120.512, 240,128.928C 604.64,447.264, 619.424,473.6, 590.72,473.6L 49.312,473.6 C 20.608,473.6, 35.36,447.264, 51.008,438.848z M 595.616,374.848
		c-17.76-9.28-235.744-123.232-246.624-128.928S 330.528,239.488, 320,239.488c-10.496,0-18.080,0.736-28.96,6.432S 62.144,365.6, 44.416,374.848
		C 31.904,381.376, 32,373.728, 32,367.84c0-5.888,0-234.72,0-234.72C 32,119.68, 49.888,102.4, 63.744,102.4l 512.544,0 c 13.888,0, 31.712,17.28, 31.712,30.688
		c0,0,0,228.832,0,234.72C 608,373.728, 608.128,381.376, 595.616,374.848z" data-tags="mail, email, message, letter, envelope, contact" />
<glyph unicode="&#xe00a;" d="M 598.208,523.68C 587.232,519.808, 43.936,328.384, 33.248,324.608c-9.088-3.2-11.136-11.040-0.32-15.328
	c 12.832-5.152, 121.472-48.672, 121.472-48.672L 154.368,260.608 l 72.032-28.864c0,0, 346.784,254.688, 351.488,258.112c 4.704,3.456, 10.176-3.040, 6.752-6.752
	c-3.424-3.744-251.872-272.448-251.872-272.448c-0.032,0-0.032,0-0.032,0l-14.464-16.128l 19.168-10.304l0,0c0,0, 148.8-80.096, 159.392-85.824
	c 9.28-4.992, 21.376-0.832, 24.064,10.72c 3.168,13.632, 91.040,392.384, 92.992,400.768C 616.448,520.864, 609.216,527.552, 598.208,523.68z M 225.76,58.816
	c0-7.904, 4.448-10.080, 10.592-4.512c 8,7.296, 91.168,81.92, 91.168,81.92l-101.76,52.672L 225.76,58.816 z" data-tags="paperplane, travel, plane, airplane" />
<glyph unicode="&#xe003;" d="M 529.952,497.984c-46.144,46.176-80.8,39.264-80.8,39.264L 287.456,375.552L 102.72,190.816L 70.4,38.4l 152.416,32.32l 184.736,184.736l 161.664,161.664
		C 569.216,417.12, 576.16,451.776, 529.952,497.984z M 213.728,89.056l-51.936-11.2c-5.024,9.376-11.072,18.752-22.112,29.824
		c-11.040,11.040-20.448,17.056-29.824,22.080l 11.232,51.968l 15.008,15.008c0,0, 28.288-0.576, 60.192-32.48c 31.936-31.936, 32.512-60.224, 32.512-60.224
		L 213.728,89.056z" data-tags="pencil, write, blog, edit, save" />
<glyph unicode="&#xe00b;" d="M 136.128-24.384c 9.792,32.032, 24.64,77.152, 44.512,142.432c 86.592,13.984, 122.432-11.168, 177.44,89.088
	c-44.64-13.952-98.464,25.888-95.552,43.136c 2.88,17.28, 125.216-12.448, 205.28,103.616c-100.928-22.688-133.248,27.296-120.224,34.848
	c 30.048,17.44, 119.264,7.232, 166.816,54.496c 24.512,24.32, 35.968,83.488, 26.016,104.608c-12,25.472-85.024,63.488-125.28,59.936
	c-40.256-3.584-103.392-156.448-122.112-155.232S 270.56,520.992, 303.232,583.52c-34.464-15.552-97.6-63.968-117.408-105.344
	c-36.896-76.992, 3.456-253.536-9.472-259.84c-12.96-6.272-56.512,81.056-69.504,120.64c-17.76-60.672-18.176-121.472, 33.728-202.24
	c-19.584-52.992-30.272-113.984-31.904-144.992C 107.904-33.088, 131.808-38.4, 136.128-24.384z" data-tags="feather, write, blog, quill, edit" />
<glyph unicode="&#xe00c;" d="M 158.752-32c-42.752,0-82.784,18.112-111.712,47.072c-56,56-71.648,153.792, 6.88,232.32C 99.968,293.376, 284.288,477.696, 376.288,569.696
		c 32.672,32.672, 74.208,45.28, 114.016,34.592c 39.072-10.432, 71.136-42.464, 81.6-81.568c 10.656-39.808-1.984-81.376-34.624-114.016l-308.224-308.256
		c-17.6-17.6-37.472-28.032-57.472-30.112c-19.776-2.080-38.656,4.288-51.904,17.504c-24,23.968-27.392,69.088, 12.48,108.928l 216.48,216.544
		c 8.896,8.864, 23.328,8.864, 32.224,0c 8.896-8.896, 8.896-23.328,0-32.224l-216.512-216.512c-18.72-18.72-20.448-36.608-12.48-44.576
		c 3.488-3.456, 8.8-5.056, 14.912-4.416c 9.376,0.992, 20.064,7.072, 30.048,17.056l 308.224,308.224c 21.152,21.152, 29.248,46.016, 22.816,70.048
		c-6.336,23.648-25.728,43.040-49.376,49.376c-24.032,6.432-48.896-1.696-70.048-22.816C 316.48,445.472, 132.16,261.152, 86.144,215.168
		c-60.032-60.032-45.664-129.12-6.912-167.904c 38.784-38.752, 107.872-53.152, 167.936,6.912L 569.504,376.48c 8.864,8.896, 23.328,8.896, 32.192,0
		c 8.896-8.896, 8.896-23.328,0-32.192L 279.36,21.952C 241.376-16.064, 198.88-32, 158.752-32z" data-tags="paperclip, attachment" />
<glyph unicode="&#xe00d;" d="M 618.848,302.624c-12.576,13.344-73.088,72.704-100.768,99.808c-8.512,8.288-20.672,13.568-33.376,13.568c-12.672,0-164.672,0-164.672,0
	s-152,0-164.704,0S 130.432,410.688, 121.952,402.4c-27.68-27.104-88.256-86.464-100.8-99.808c-15.648-16.64-24.224-29.92-20.128-46.368l 17.952-98.368
	c 4.064-16.448, 22.080-29.92, 40.032-29.92l 521.984,0 c 17.952,0, 35.968,13.472, 40.032,29.92l 17.984,98.368C 643.072,272.672, 634.496,285.984, 618.848,302.624
	z M 449.536,281.312c-3.264,0-6.176-1.664-7.648-4.256l-26.144-65.152L 224.288,211.904 l-26.144,65.152c-1.44,2.592-4.416,4.256-7.648,4.256L 77.056,281.312 
	l 65.312,73.888l 355.328,0 l 65.28-73.888L 449.536,281.312 z" data-tags="drawer, box, inbox, archive" />
<glyph unicode="&#xe00e;" d="M 320,569.6L 396.416,354.496L 601.6,354.496L 434.176,228.16L 494.016,6.4L 320,139.328L 145.984,6.4L 205.824,228.16L 38.4,354.496L 243.584,354.496 	z" data-tags="star, favorite, rate, bookmark" />
<glyph unicode="&#xe00f;" d="M 185.6,217.6L 185.6,416 L 64,416 C 28.8,416,0,387.2,0,352l0-192 c0-35.2, 28.8-64, 64-64l 32,0 l0-96 l 96,96l 160,0 c 35.2,0, 64,28.8, 64,64l0,58.24 c-2.048-0.448-4.224-0.672-6.4-0.672L 185.6,217.568 
		z M 576,576L 288,576 C 252.8,576, 224,547.2, 224,512l0-256 l 224,0 l 96-96l0,96 l 32,0 c 35.2,0, 64,28.8, 64,64L 640,512 C 640,547.2, 611.2,576, 576,576z" data-tags="chat, comments, talk, bubbles, conversation, discussion" />
<glyph unicode="&#xe010;" d="M 512,512L 128,512 C 92.8,512, 64,483.2, 64,448l0-224 c0-35.2, 28.8-64, 64-64l 128,0 l 128-96l0,96 l 128,0 c 35.2,0, 64,28.8, 64,64L 576,448 C 576,483.2, 547.2,512, 512,512z" data-tags="comment, bubble, chat, talk, discussion, conversation" />
<glyph unicode="&#xe011;" d="M 157.312,486.304c-51.52,0-93.312-42.976-93.312-96s 41.792-96, 93.312-96c 93.28,0, 31.104-185.6-93.312-185.6l0-44.768 
		C 286.016,63.936, 373.024,486.304, 157.312,486.304z M 426.080,486.304c-51.52,0-93.312-42.976-93.312-96s 41.792-96, 93.312-96c 93.28,0, 31.104-185.6-93.312-185.6
		l0-44.768 C 554.816,63.936, 641.824,486.304, 426.080,486.304z" data-tags="quote, rdquo" />
<glyph unicode="&#xe012;" d="M 600.64,278.4l-256.768,256.992c-13.12,13.632-34.592,13.632-47.712,0L 39.36,278.4c-13.152-13.6-8.256-24.768, 10.88-24.768l 53.536,0 l0-197.376 
		c0-14.24, 0.608-25.888, 26.368-25.888l 124.64,0 l0,198.016 l 130.4,0 l0-198.016 l 130.848,0 c 19.648,0, 20.192,11.616, 20.192,25.888l0,197.376 l 53.504,0 
		C 608.832,253.632, 613.76,264.768, 600.64,278.4z" data-tags="house, home, building" />
<glyph unicode="&#xe013;" d="M 561.44,113.024l-120.928,120.928c 18.24,29.984, 28.736,65.12, 28.736,102.784c0,109.312-94.752,204.064-204.096,204.064
		C 155.84,540.8, 67.2,452.16, 67.2,342.848c0-109.344, 94.72-204.096, 204.064-204.096c 36.352,0, 70.4,9.856, 99.68,26.976l 121.568-121.6
		c 11.936-11.904, 31.2-11.904, 43.072,0l 30.176,30.144C 577.632,86.176, 573.312,101.152, 561.44,113.024z M 128.128,342.848
		c0,75.68, 61.344,137.056, 137.024,137.056c 75.712,0, 143.168-67.456, 143.168-143.168s-61.344-137.056-137.056-137.056S 128.128,267.136, 128.128,342.848z" data-tags="search, magnifier, lookup, find" />
<glyph unicode="&#xe014;" d="M 48,383.936l 544,0 c 18.24,0, 15.264,19.456, 6.176,22.624C 589.088,409.728, 488,447.936, 470.4,447.936l-28.8,0 l0,96 L 198.4,543.936 l0-96 L 169.6,447.936 
		c-17.6,0-118.688-38.208-127.776-41.376C 32.736,403.392, 29.728,383.936, 48,383.936z M 598.4,348.736L 41.6,348.736 c-17.6,0-35.2-20.8-35.2-38.4l0-112 
		c0-17.6, 17.6-38.4, 35.2-38.4l 63.424,0 l-28.224-160l 486.4,0 l-28.224,160L 598.4,159.936 c 17.6,0, 35.2,20.8, 35.2,38.4l0,112 C 633.6,327.936, 616,348.736, 598.4,348.736z
		 M 140.8,63.936l 44.8,208l 268.8,0 l 44.768-208L 140.8,63.936 z" data-tags="printer" />
<glyph unicode="&#xe015;" d="M 468.8,335.584c-72.96,157.024-110.88,216.672-230.112,214.176c-42.464-0.864-32.256,30.752-64.64,18.752
		C 141.696,556.544, 169.472,538.976, 136.352,511.808c-92.864-76.224-84.32-146.752-41.248-314.88c 18.176-70.784-43.744-74.272-19.264-142.912
		c 17.888-50.016, 149.728-71.008, 288.832-19.36c 139.104,51.584, 226.88,154.016, 208.992,204.096C 549.184,307.36, 499.552,269.472, 468.8,335.584z M 349.568,76.928
		c-124.192-46.080-226.304-18.976-230.624-6.944c-7.424,20.768, 40.096,90.112, 182.112,142.816c 142.016,52.704, 221.28,33.152, 229.568,9.952
		C 535.52,209.056, 473.824,123.040, 349.568,76.928z M 309.664,188.736c-64.96-24.096-110.080-51.648-139.296-76.48
		c 20.576-18.688, 59.072-23.232, 97.472-8.992c 48.864,18.144, 78.88,59.776, 67.008,92.96c-0.128,0.416-0.352,0.768-0.512,1.152
		C 326.336,194.784, 318.112,191.904, 309.664,188.736z" data-tags="bell, alarm, alert, notification" />
<glyph unicode="&#xe016;" d="M 251.488,137.792l-25.92-25.728c-22.464-22.24-58.976-22.272-81.408,0c-10.784,10.72-16.704,24.896-16.704,40.032
		s 5.952,29.344, 16.704,40.064l 95.36,94.624c 19.744,19.616, 56.928,48.448, 84.032,21.568c 12.448-12.352, 32.544-12.256, 44.864,0.16
		c 12.352,12.416, 12.288,32.512-0.16,44.864c-46.048,45.696-114.144,37.248-173.44-21.568l-95.36-94.624C 76.608,214.464, 64,184.256, 64,152.096
		c0-32.128, 12.608-62.336, 35.488-85.056C 123.040,43.648, 153.952,32, 184.864,32s 61.888,11.648, 85.44,35.040l 25.92,25.76
		c 12.448,12.352, 12.512,32.448, 0.16,44.832C 284.032,150.048, 263.936,150.112, 251.488,137.792z M 540.512,505.312
		c-49.472,49.088-118.624,51.744-164.448,6.304l-32.288-32.032c-12.448-12.352-12.544-32.416-0.192-44.864c 12.384-12.448, 32.448-12.512, 44.864-0.16
		l 32.288,32.032c 23.712,23.552, 54.784,13.792, 75.072-6.304c 10.784-10.688, 16.704-24.928, 16.704-40.032c0-15.136-5.952-29.344-16.704-40.032
		l-101.76-100.928c-46.496-46.144-68.352-24.512-77.664-15.264c-12.448,12.352-32.512,12.256-44.832-0.16c-12.352-12.448-12.288-32.544, 0.16-44.864
		c 21.344-21.184, 45.76-31.68, 71.296-31.68c 31.296,0, 64.352,15.744, 95.776,46.944l 101.728,100.928C 563.392,357.888, 576,388.096, 576,420.224
		S 563.392,482.592, 540.512,505.312z" data-tags="link, anchor, chain" />
<glyph unicode="&#xe017;" d="M 591.552,458.24C 226.496,312.096, 374.368,705.44, 91.232,498.368L 32,477.12L 149.312,16l 64.608,0 L 156.48,241.856
		c 252.608,211.776, 150.336-230.752, 449.152,203.424C 612.576,455.36, 603.296,462.944, 591.552,458.24z" data-tags="flag, report" />
<glyph unicode="&#xe018;" d="M 551.136,383.072c-50.656,117.92-132.224,207.712-173.472,190.912c-70.048-28.48, 41.76-165.248-302.272-305.088
	c-29.728-12.064-37.248-60.416-24.8-89.312c 12.416-28.896, 53.056-57.664, 82.784-45.6c 5.12,2.080, 24.032,8.16, 24.032,8.16
	c 21.216-28.48, 43.424-11.584, 51.328-29.696c 9.472-21.76, 30.048-69.024, 37.024-85.088c 7.040-16.064, 22.912-30.976, 34.432-26.592
	c 11.456,4.384, 50.592,19.296, 65.568,24.96s 18.56,19.040, 13.984,29.568c-4.928,11.328-25.152,14.656-30.912,27.904
	c-5.792,13.248-24.64,55.648-30.048,69.024c-7.36,18.176, 8.288,32.96, 31.040,35.328c 156.608,16.32, 185.888-80.416, 239.2-58.72
	C 610.176,145.664, 601.792,265.152, 551.136,383.072z M 533.504,191.808c-9.152-3.712-70.784,44.864-110.176,136.544
	c-39.36,91.648-34.4,175.424-25.28,179.136c 9.152,3.744, 69.28-54.912, 108.672-146.56C 546.048,269.312, 542.656,195.52, 533.504,191.808z" data-tags="megaphone, advertise, announce, alert" />
<glyph unicode="&#xe019;" d="M 320,352c-52.992,0-96-43.008-96-96c0-53.024, 43.008-96, 96-96c 53.024,0, 96,42.976, 96,96C 416,308.992, 373.024,352, 320,352z M 576,448l-76.768,0 
		c-10.56,0-21.952,8.192-25.28,18.208l-19.84,59.552C 450.72,535.808, 439.36,544, 428.8,544L 211.2,544 C 200.64,544, 189.248,535.808, 185.952,525.792L 166.048,466.208
		C 162.72,456.192, 151.36,448, 140.8,448L 64,448 C 28.8,448,0,419.2,0,384l0-288 c0-35.2, 28.8-64, 64-64l 512,0 c 35.232,0, 64,28.8, 64,64L 640,384 C 640,419.2, 611.232,448, 576,448z M 320,96
		c-88.384,0-160,71.616-160,160c0,88.352, 71.616,160, 160,160c 88.352,0, 160-71.648, 160-160C 480,167.616, 408.352,96, 320,96z M 553.6,339.264
		c-12.352,0-22.368,10.016-22.368,22.4s 10.016,22.4, 22.368,22.4c 12.384,0, 22.4-10.016, 22.4-22.4S 565.984,339.264, 553.6,339.264z" data-tags="camera, picture, photo, images" />
<glyph unicode="&#xe01a;" d="M 617.312,595.008c-3.456,10.080-14.368,15.392-24.352,11.904s-15.232-14.528-11.744-24.64c 29.44-85.44-28.992-149.248-73.504-183.392
		l-18.016,26.048c-6.016,8.704-19.584,15.968-30.080,16.128l-100.96-0.48c-10.496,0.16-26.112-4.704-34.752-10.784l-297.472-210.816
		c-14.4-10.208-17.952-30.304-7.84-44.896l 135.232-195.424c 10.080-14.592, 26.304-12.832, 40.704-2.656l 297.472,210.848
		c 8.64,6.080, 18.464,19.328, 21.952,29.376l 31.616,100.672c 3.424,10.048, 1.344,25.408-4.672,34.112l-11.008,15.872
		C 589.696,413.12, 651.776,494.944, 617.312,595.008z M 478.912,295.616c-23.072-16.352-54.848-10.656-71.008,12.672
		c-16.128,23.328-10.528,55.488, 12.544,71.84c 18.304,12.992, 42.080,12.032, 59.2-0.576c-8.64-5.248-14.528-8.256-15.648-8.8
		c-9.536-4.544-13.632-16.064-9.12-25.728c 3.264-7.008, 10.112-11.136, 17.312-11.136c 2.72,0, 5.504,0.608, 8.128,1.856
		c 6.112,2.912, 12.736,6.464, 19.616,10.592C 503.008,327.36, 495.52,307.392, 478.912,295.616z" data-tags="tag, price" />
<glyph unicode="&#xe01b;" d="M 100.288,387.52C 130.176,410.72, 154.944,394.752, 188,356.48C 191.744,352.192, 196.736,357.216, 199.552,359.68c 2.816,2.496, 46.464,41.728, 48.576,43.552
	C 250.272,405.12, 252.832,408.64, 249.44,412.576s-15.808,20-23.776,30.4c-57.856,75.68, 158.272,127.008, 125.056,127.808
	c-16.864,0.448-84.672,1.216-94.784,0.16C 214.88,566.592, 163.328,528.224, 137.376,510.368c-33.92-23.328-46.624-36.864-48.704-38.752
	c-9.6-8.416-1.536-27.744-18.944-43.008C 51.328,412.48, 39.872,424.672, 29.216,415.328c-5.312-4.672-20.064-15.712-24.32-19.456
	C 0.672,392.16-0.096,385.856, 4.224,380.8c0,0, 40.416-44.672, 43.84-48.608C 51.456,328.256, 60.576,324.928, 66.24,329.92
	c 5.664,4.96, 20.192,17.728, 22.656,19.904C 91.392,351.968, 87.296,377.44, 100.288,387.52z M 282.976,371.008c-3.84,4.448-8.576,4.544-12.704,0.896
	L 224.352,331.872c-3.584-3.2-4.064-9.088-0.832-12.8l 265.408-302.016c 6.176-7.168, 16.928-7.904, 24.064-1.696l 31.072,25.984
	c 7.072,6.208, 7.808,17.088, 1.632,24.224L 282.976,371.008z M 636.864,499.552c-2.368,15.808-10.56,12.48-14.816,5.76
	c-4.192-6.688-23.072-35.232-30.816-48.128c-7.68-12.864-26.56-38.112-61.888-13.184c-36.736,25.984-23.936,44.128-17.568,56.32
	c 6.432,12.256, 26.176,46.56, 29.056,50.88c 2.816,4.32-0.512,16.864-11.872,11.616c-11.424-5.28-80.736-32.832-90.368-72.32
	c-9.824-40.224, 8.256-76.128-27.2-111.808l-42.944-44.8l 43.136-50.176l 52.928,50.272c 12.64,12.672, 39.552,24.992, 63.936,19.456
	c 52.256-11.84, 80.736,7.808, 97.952,40.224C 641.824,422.688, 639.264,483.744, 636.864,499.552z M 87.68,62.368c-6.656-6.72-6.656-17.6,0-24.288
	l 30.432-29.76c 6.656-6.688, 17.216-3.872, 23.872,2.816l 157.024,154.4L 250.88,220.352L 87.68,62.368z" data-tags="tools, hammer, generate, fix, settings, wrench, build, factory" />
<glyph unicode="&#xe01c;" d="M 537.12,288c0,33.536, 20.64,60, 51.68,78.176c-5.632,18.688-12.992,36.64-22.112,53.504c-34.88-9.12-63.072,4.544-86.752,28.224
		c-23.744,23.712-31.008,51.936-21.888,86.752c-16.864,9.12-34.752,16.576-53.504,22.144C 386.368,525.728, 353.504,505.088, 320,505.088
		c-33.504,0-66.336,20.64-84.544,51.712C 216.704,551.232, 198.816,543.776, 181.952,534.688C 191.040,499.84, 183.808,471.616, 160.096,447.904
		C 136.384,424.224, 108.16,410.56, 73.344,419.648C 64.224,402.816, 56.8,384.864, 51.2,366.176C 82.272,348, 102.912,321.536, 102.912,288
		c0-33.504-20.64-66.368-51.712-84.576c 5.6-18.72, 13.024-36.64, 22.144-53.504c 34.848,9.12, 63.040,1.856, 86.752-21.856
		c 23.712-23.712, 30.944-51.904, 21.856-86.752c 16.864-9.12, 34.784-16.576, 53.504-22.144c 18.208,31.104, 51.040,51.712, 84.544,51.712
		c 33.504,0, 66.4-20.64, 84.576-51.712c 18.752,5.6, 36.64,13.024, 53.504,22.144c-9.12,34.848-1.888,63.040, 21.888,86.752
		c 23.68,23.68, 51.872,37.344, 86.752,28.256c 9.12,16.864, 16.512,34.784, 22.112,53.504C 557.76,228.032, 537.12,254.496, 537.12,288z M 320,171.104
		c-64.544,0-116.864,52.352-116.864,116.896S 255.456,404.896, 320,404.896c 64.576,0, 116.896-52.352, 116.896-116.896S 384.576,171.104, 320,171.104z" data-tags="cog, settings, preferences, options" />
<glyph unicode="&#xe01d;" d="M 291.2,255.936L 348.8,255.936 l0-64 L 640,191.936 c0,0-4.736,142.656-6.4,187.328c-1.568,42.432-16.736,68.672-64,68.672l-102.656,0 
	c-15.904,29.984-33.024,62.24-38.272,72.16c-10.592,19.968-14.208,23.84-37.76,23.84L 249.088,543.936 c-23.552,0-27.168-3.872-37.76-23.84
	C 206.080,510.176, 188.96,477.92, 173.056,447.936L 70.4,447.936 c-47.264,0-62.24-26.24-64-68.672S0,191.936,0,191.936l 291.2,0 L 291.2,255.936 z M 244.8,482.656
	c 7.328,13.824, 9.856,16.512, 26.112,16.512l 98.144,0 c 16.32,0, 18.816-2.688, 26.112-16.512c 2.752-5.184, 10.176-19.2, 18.432-34.688L 226.4,447.968 
	C 234.624,463.424, 242.048,477.44, 244.8,482.656z M 348.8,95.936L 291.2,95.936 l0,64 L 16,159.936 c0,0, 4-57.536, 6.4-106.304c 0.992-20.256, 6.944-53.696, 57.568-53.696
	l 480.064,0 c 50.624,0, 56.448,33.472, 57.568,53.696c 2.784,50.144, 6.4,106.304, 6.4,106.304l-275.2,0 L 348.8,95.936 z" data-tags="briefcase, work, portfolio" />
<glyph unicode="&#xe01f;" d="M 320,582.4c-162.592,0-294.4-131.84-294.4-294.4c0-162.592, 131.808-294.4, 294.4-294.4s 294.4,131.808, 294.4,294.4C 614.4,450.592, 482.592,582.4, 320,582.4z M 320,57.6
			c-127.264,0-230.4,103.168-230.4,230.4S 192.736,518.4, 320,518.4s 230.4-103.168, 230.4-230.4S 447.264,57.6, 320,57.6zM 342.4,454.4L 297.6,454.4L 297.6,278.72L 406.56,169.76L 438.24,201.44L 342.4,297.28 		z" data-tags="clock, time, history" />
<glyph unicode="&#xe020;" d="M 320,467.2C 110.048,467.2,0,312.544,0,288s 110.048-179.2, 320-179.2s 320,154.656, 320,179.2S 529.952,467.2, 320,467.2z M 320,150.144
		c-78.528,0-142.208,61.728-142.208,137.856S 241.472,425.856, 320,425.856c 78.56,0, 142.24-61.728, 142.24-137.856S 398.56,150.144, 320,150.144z M 320,288
		c-12.992,14.272, 21.248,68.896,0,68.896c-39.264,0-71.104-30.848-71.104-68.896S 280.736,219.072, 320,219.072c 39.296,0, 71.136,30.88, 71.136,68.928
		C 391.136,305.472, 331.104,275.84, 320,288z" data-tags="eye, views" />
<glyph unicode="&#xe021;" d="M 579.904,490.656c-9.472,8.192-60.992,47.2-70.624,55.488S 484.608,556.8, 473.984,556.8L 166.016,556.8 c-10.592,0-25.664-2.336-35.264-10.656
		c-9.632-8.32-61.152-47.328-70.624-55.488S 42.752,470.144, 45.28,452.544c 2.528-17.6, 61.984-415.136, 61.984-415.136
		C 110.592,27.392, 121.984,19.2, 132.608,19.2l 374.816,0 c 10.624,0, 22.016,8.224, 25.344,18.208c0,0, 59.424,397.536, 61.984,415.136
		C 597.248,470.144, 589.376,482.464, 579.904,490.656z M 320,212.224c-103.936,0-126.176,147.104-130.784,177.408L 248,389.632 c 8.864-44.224, 28.992-119.808, 72-119.808
		s 63.168,75.584, 72.032,119.808l 58.752,0 C 446.176,359.328, 423.936,212.224, 320,212.224z M 94.816,448l 70.592,73.6l 309.184,0 L 545.184,448L 94.816,448 z" data-tags="bag, shop, cart, ecommerce, buy, purchase" />
<glyph unicode="&#xe022;" d="M 566.080,456.768c-16.064,95.296-103.040,158.944-194.208,142.112c-91.2-16.8-168.128-90.112-152.064-185.408C 223.296,392.96, 232.864,360.832, 244.224,337.792
	l-165.6-247.136c-6.112-9.12-9.568-25.568-7.744-36.512l 10.656-63.072c 1.856-10.944, 11.936-18.304, 22.4-16.384l 48.512,8.928
	c 10.496,1.952, 23.776,11.168, 29.568,20.512l 65.504,105.92l 0.576,0.672l 44.32,8.192l 76.448,124.096c 25.152-4.448, 61.184-2.944, 82.496,0.992
	C 542.592,260.832, 582.176,361.472, 566.080,456.768z M 485.312,407.936c-25.088-37.408-50.656-11.040-86.496,15.2
	c-35.808,26.208-68.32,42.336-43.232,79.744c 25.088,37.44, 74.432,46.56, 110.272,20.32C 501.696,496.992, 510.4,445.344, 485.312,407.936z" data-tags="key, password, login, sign in, log in, signin" />
<glyph unicode="&#xe023;" d="M 320,550.4c-136.928,0-222.016-45.12-217.408-81.728l 46.144-379.744C 150.56,74.144, 219.808,25.696, 320,25.6
		c 100.224,0.096, 169.44,48.576, 171.296,63.328l 46.112,379.744C 542.016,505.28, 456.96,550.4, 320,550.4z M 320,413.088C 219.808,413.184, 148.704,448.864, 148.704,462.208
		C 148.672,475.456, 219.808,511.232, 320,511.168c 100.192,0.032, 171.328-35.712, 171.296-48.96C 491.296,448.864, 420.224,413.184, 320,413.088z" data-tags="cup, trash, bin, container, glass" />
<glyph unicode="&#xe024;" d="M 88.416,174.016c-48.448-47.616-7.52-96.512-71.904-168.992c-29.056-32.704, 119.616-22.72, 193.28,49.696
	c 31.232,30.688, 22.432,75.456-11.072,108.416C 165.216,196.064, 119.648,204.704, 88.416,174.016z M 625.312,586.944c-24.864,24.416-300.128-196.16-382.080-276.704
	c-40.672-39.968-54.24-61.408-66.72-77.44c-5.408-6.976, 1.76-9.12, 4.96-10.784c 16.096-8.192, 27.36-15.808, 41.952-30.144
	c 14.592-14.304, 22.368-25.376, 30.688-41.216c 1.664-3.168, 3.872-10.208, 10.944-4.864c 16.32,12.256, 38.112,25.6, 78.752,65.568
	C 425.76,291.904, 650.112,562.496, 625.312,586.944z" data-tags="brush, painting, art" />
<glyph unicode="&#xe025;" d="M 576,569.6L 64,569.6 c-35.2,0-64-28.8-64-64l0-352 c0-35.2, 28.224-69.664, 62.752-76.576l 139.904-27.968c0,0-120.416-42.656-42.656-42.656l 320,0 
	c 77.76,0-42.656,42.656-42.656,42.656l 139.904,27.968C 611.744,83.936, 640,118.4, 640,153.6l0,352 C 640,540.8, 611.2,569.6, 576,569.6z M 576,156.8L 64,156.8 L 64,512 l 512,0 L 576,156.8 z" data-tags="screen, desktop, computer, monitor, pc" />
<glyph unicode="&#xe026;" d="M 576,544L 64,544 C 28.8,544,0,515.2,0,480l0-384 c0-35.232, 28.8-64, 64-64l 512,0 c 35.2,0, 64,28.768, 64,64L 640,480 C 640,515.2, 611.2,544, 576,544z M 147.2,484.16
	c 13.28,0, 24-10.432, 24-23.328c0-12.928-10.72-23.36-24-23.36S 123.2,447.904, 123.2,460.8C 123.2,473.728, 133.952,484.16, 147.2,484.16z M 59.2,460.8
	c0,12.896, 10.72,23.328, 24,23.328S 107.2,473.728, 107.2,460.8c0-12.928-10.72-23.36-24-23.36S 59.2,447.904, 59.2,460.8z M 576.64,96L 63.36,96 L 63.36,390.4 l 513.28,0 
	L 576.64,96 z M 576.64,441.6L 192,441.6 L 192,480 l 384.64,0 L 576.64,441.6 z" data-tags="browser, window, program, app" />
<glyph unicode="&#xe028;" d="M 499.2,544L 460.8,448L 179.2,448 L 140.8,544C 116.16,544, 96,523.84, 96,499.2l0-486.4 C 96-11.84, 116.16-32, 140.8-32l 358.4,0 c 24.672,0, 44.8,20.16, 44.8,44.8L 544,499.2 
	C 544,523.84, 523.84,544, 499.2,544z M 435.2,480l 28.8,64l-69.76,0 L 371.2,608L 268.8,608 L 245.76,544L 176,544 l 28.8-64L 435.2,480 z" data-tags="clipboard, board" />
<glyph unicode="&#xe029;" d="M 128,64c0-35.328, 28.672-64, 64-64c 35.36,0, 64,28.672, 64,64s-28.64,64-64,64C 156.672,128, 128,99.328, 128,64z M 448,64c0-35.328, 28.672-64, 64-64
	c 35.36,0, 64,28.672, 64,64s-28.64,64-64,64C 476.672,128, 448,99.328, 448,64z M 241.504,215.296L 595.712,316.48C 602.464,318.432, 608,325.76, 608,332.8L 608,508.8 L 156.8,508.8 L 156.8,563.2 
	C 156.8,570.24, 151.072,576, 144,576L 44.8,576 C 37.76,576, 32,570.24, 32,563.2L 32,512 l 62.176,0 l 62.976-289.824L 163.232,192l0-48 c0-7.040, 5.76-12.8, 12.768-12.8L 192,131.2 l 320,0 l 83.232,0 
	C 602.24,131.2, 608,136.96, 608,144L 608,192 L 248.064,192 C 211.296,192, 210.528,206.4, 241.504,215.296z" data-tags="cart, shop, buy, purchase, ecommerce" />
<glyph unicode="&#xe02a;" d="M 64.064,518.432l0-75.776 c 226.752,0, 410.56-183.84, 410.56-410.592l 75.808,0 C 550.432,300.672, 332.672,518.432, 64.064,518.432z M 64.064,366.848l0-75.808 
		c 143.040,0, 259.008-115.936, 259.008-258.976l 75.744,0 C 398.816,216.928, 248.96,366.848, 64.064,366.848z M 136.704,177.344c-40.096,0-72.64-32.544-72.64-72.672
		s 32.544-72.64, 72.64-72.64c 40.128,0, 72.672,32.512, 72.672,72.64S 176.832,177.344, 136.704,177.344z" data-tags="rss, atom, feed" />
<glyph unicode="&#xe02b;" d="M 22.080,245.376l 43.616-10.816l 32.832,51.584L 36.128,301.6c-15.616,3.904-31.392-5.568-35.264-21.12
	C-3.008,264.992, 6.496,249.248, 22.080,245.376z M 591.392,237.056l-142.816-128.576l-167.936,129.952c-3.2,2.496-6.88,4.256-10.816,5.248
	l-22.368,5.504l-32.832-51.552l 35.168-8.672l 182.336-141.056c 5.28-4.128, 11.552-6.112, 17.856-6.112c 7.008,0, 14.016,2.496, 19.52,7.488
	l 160.864,144.8c 11.936,10.752, 12.832,29.056, 2.080,40.928C 621.728,246.88, 603.328,247.808, 591.392,237.056z M 277.888,378.208l 156.384-100.128
	c 13.184-8.416, 30.72-4.928, 39.648,7.904l 160.896,231.744c 9.12,13.184, 5.824,31.2-7.392,40.32s-31.328,5.792-40.48-7.36l-144.896-208.704
	L 284.704,442.72C 278.208,446.88, 270.304,448.288, 262.72,446.624S 248.576,440.384, 244.448,433.856L 4.544,57.248c-8.64-13.504-4.608-31.36, 8.96-39.936
	C 18.336,14.24, 23.744,12.8, 29.088,12.8c 9.632,0, 19.040,4.736, 24.576,13.44L 277.888,378.208z" data-tags="statistics, graph, plot" />
<glyph unicode="&#xe02c;" d="M 320,556.8c-148.48,0-268.8-120.384-268.8-268.8c0-148.48, 120.352-268.8, 268.8-268.8c 148.448,0, 268.8,120.352, 268.8,268.8C 588.8,436.448, 468.448,556.8, 320,556.8z
		 M 352.704,255.296l0-128.864 L 287.296,126.432 l0,128.864 L 158.4,255.296 L 158.4,320.704 l 128.864,0 L 287.264,449.6 l 65.44,0 l0-128.864 l 128.864,0 l0-65.44 L 352.704,255.296 z" data-tags="plus, add, sum" />
<glyph unicode="&#xe02d;" d="M 320,556.8c-148.48,0-268.8-120.384-268.8-268.8c0-148.48, 120.352-268.8, 268.8-268.8c 148.448,0, 268.8,120.352, 268.8,268.8C 588.8,436.448, 468.448,556.8, 320,556.8z
		 M 481.6,320.704l0-65.44 L 158.4,255.264 L 158.4,320.704 L 481.6,320.704 z" data-tags="minus, subtract, remove, delete" />
<glyph unicode="&#xe02e;" d="M 512,544L 128,544 C 92.8,544, 64,515.2, 64,480l0-384 c0-35.2, 28.8-64, 64-64l 384,0 c 35.2,0, 64,28.8, 64,64L 576,480 C 576,515.2, 547.2,544, 512,544z M 417.952,134.752L 320,232.672
	l-97.952-97.952l-55.296,55.328L 264.672,288l-97.92,97.92l 55.296,55.328L 320,343.328l 97.92,97.92l 55.328-55.296L 375.328,288l 97.952-97.952L 417.952,134.752z" data-tags="cross, cancel, close, remove, delete" />
<glyph unicode="&#xe02f;" d="M 512,544L 128,544 C 92.8,544, 64,515.2, 64,480l0-384 c0-35.2, 28.8-64, 64-64l 384,0 c 35.2,0, 64,28.8, 64,64L 576,480 C 576,515.2, 547.2,544, 512,544z M 480,256l-128,0 l0-128 L 288,128 l0,128 L 160,256 L 160,320 l 128,0 L 288,448 l 64,0 l0-128 l 128,0 L 480,256 z" data-tags="plus, add, sum" />
<glyph unicode="&#xe030;" d="M 512,544L 128,544 C 92.8,544, 64,515.2, 64,480l0-384 c0-35.2, 28.8-64, 64-64l 384,0 c 35.2,0, 64,28.8, 64,64L 576,480 C 576,515.2, 547.2,544, 512,544z M 480,256L 160,256 L 160,320 l 320,0 L 480,256 z" data-tags="minus, subtract, remove, delete" />
<glyph unicode="&#xe031;" d="M 486.368,320l-134.4,0 L 351.968,454.4 c0,17.664-14.304,19.2-32,19.2c-17.664,0-32-1.504-32-19.2L 287.968,320 L 153.6,320 c-17.696,0-19.2-14.336-19.2-32s 1.504-32, 19.2-32l 134.368,0 
		l0-134.4 c0-17.664, 14.336-19.2, 32-19.2c 17.696,0, 32,1.536, 32,19.2L 351.968,256 l 134.4,0 c 17.696,0, 19.232,14.336, 19.232,32S 504.064,320, 486.368,320z" data-tags="plus, add, sum" />
<glyph unicode="&#xe032;" d="M 486.368,320L 153.6,320 c-17.696,0-19.2-14.336-19.2-32s 1.504-32, 19.2-32l 332.768,0 c 17.696,0, 19.232,14.336, 19.232,32S 504.064,320, 486.368,320z" data-tags="minus, remove, delete, substract" />
<glyph unicode="&#xe033;" d="M 320,556.8c-148.48,0-268.8-120.384-268.8-268.8c0-148.48, 120.352-268.8, 268.8-268.8c 148.448,0, 268.8,120.352, 268.8,268.8C 588.8,436.448, 468.448,556.8, 320,556.8z
		 M 375.328,288l 97.952-97.952l-55.328-55.328L 320,232.672l-97.952-97.952l-55.296,55.328L 264.672,288l-97.92,97.92l 55.296,55.328L 320,343.328l 97.952,97.92
		l 55.328-55.296L 375.328,288z" data-tags="cross, cancel, close, remove, delete" />
<glyph unicode="&#xe034;" d="M 459.168,187.136L 370.912,288l 88.256,100.864c 15.008,15.008, 15.008,39.328,0,54.304c-15.008,14.976-39.328,14.976-54.304,0L 320,346.176
		l-84.832,96.96c-15.008,15.008-39.328,15.008-54.304,0c-14.976-15.008-14.976-39.328,0-54.304L 269.088,288l-88.256-100.864
		c-14.976-15.008-14.976-39.264,0-54.24c 15.008-15.008, 39.328-15.008, 54.304,0L 320,229.824l 84.832-96.928c 15.008-15.008, 39.328-15.008, 54.304,0
		S 474.144,172.128, 459.168,187.136z" data-tags="cross, cancel, close, remove, delete" />
<glyph unicode="&#xe035;" d="M 265.44,64c-13.92,0-27.104,6.496-35.552,17.696L 115.52,232.672c-14.88,19.648-11.008,47.616, 8.64,62.496
			c 19.68,14.912, 47.616,11.008, 62.496-8.64l 75.232-99.328l 189.184,303.712c 13.024,20.896, 40.544,27.296, 61.472,14.272
			c 20.896-12.992, 27.296-40.544, 14.24-61.44L 303.328,85.024c-7.776-12.512-21.184-20.352-35.872-20.992C 266.784,64, 266.112,64, 265.44,64z" data-tags="checkmark, tick, correct" />
<glyph unicode="&#xe036;" d="M 623.616,531.616l-148.128-241.312c-5.504-8.928-16.256-10.4-23.936-3.232l-71.616,67.072c-7.68,7.168-18.688,5.888-24.512-2.88
	l-100.576-151.68c-5.792-8.736-16.896-10.112-24.672-3.072L 183.36,239.264c-7.776,7.072-19.488,6.144-26.048-2.016l-147.488-183.936
	C 3.232,45.088, 6.464,38.4, 16.928,38.4l 616.672,0 L 633.6,528.8 C 633.632,539.328, 629.12,540.608, 623.616,531.616z" data-tags="graph, area, statistics, plot" />
<glyph unicode="&#xe037;" d="M 544,576l-70.4,0 C 455.936,576, 448,561.664, 448,544l0-544 l 128,0 L 576,544 C 576,561.664, 561.696,576, 544,576z M 352,384L 281.6,384 C 263.936,384, 256,369.664, 256,352l0-352 l 128,0 L 384,352 
	C 384,369.664, 369.696,384, 352,384z M 160,192L 89.6,192 C 71.936,192, 64,177.696, 64,160l0-160 l 128,0 l0,160 C 192,177.696, 177.664,192, 160,192z" data-tags="bars, statistics, graph" />
<glyph unicode="&#xe038;" d="M 286.912,537.664C 163.584,523.008, 65.856,425.248, 51.2,301.952l 235.712,0 L 286.912,537.664 z M 354.336,537.184l0-270.56 c0-17.728-14.368-32.096-32.128-32.096L 51.648,234.528 
	c 17.312-132.32, 130.336-234.496, 267.328-234.496c 148.992,0, 269.824,120.768, 269.824,269.824C 588.8,406.848, 486.624,519.872, 354.336,537.184z" data-tags="pie, chart, graph, statistics" />
<glyph unicode="&#xe039;" d="M 397.824,608c 42.88,0, 64.32-29.248, 64.32-62.656c0-41.728-37.248-80.352-85.696-80.352c-40.64,0-64.32,24-63.2,63.648
		C 313.248,562.080, 341.408,608, 397.824,608z M 265.888-32c-33.856,0-58.656,20.864-34.976,112.736l 38.848,162.912c 6.752,26.080, 7.872,36.544,0,36.544
		c-10.176,0-54.080-18.016-80.064-35.776L 172.8,272.608c 82.336,69.952, 177.024,110.944, 217.632,110.944c 33.824,0, 39.424-40.704, 22.56-103.328l-44.512-171.264
		c-7.872-30.272-4.512-40.704, 3.36-40.704c 10.176,0, 43.424,12.576, 76.128,38.656l 19.2-26.080C 387.136-0.64, 299.712-32, 265.888-32z" data-tags="info, about" />
<glyph unicode="&#xe03a;" d="M 316.064,582.368c-162.56-2.176-292.608-135.744-290.432-298.336c 2.176-162.496, 135.744-292.576, 298.304-290.4
		c 162.56,2.176, 292.608,135.744, 290.432,298.336C 612.224,454.496, 478.624,584.544, 316.064,582.368z M 348.704,484.256c 29.92,0, 38.752-17.344, 38.752-37.216
		c0-24.8-19.872-47.744-53.76-47.744c-28.352,0-41.824,14.272-41.024,37.824C 292.672,456.992, 309.312,484.256, 348.704,484.256z M 271.968,104
		c-20.448,0-35.424,12.416-21.12,67.008l 23.456,96.768c 4.064,15.52, 4.736,21.728,0,21.728c-6.112,0-32.672-10.72-48.384-21.28l-10.208,16.736
		c 49.76,41.536, 106.976,65.92, 131.488,65.92c 20.448,0, 23.84-24.192, 13.632-61.408l-26.88-101.76c-4.736-17.984-2.688-24.192, 2.048-24.192
		c 6.112,0, 26.24,7.424, 46.016,22.976l 11.552-15.52C 345.216,122.624, 292.448,104, 271.968,104z" data-tags="info, about" />
<glyph unicode="&#xe03b;" d="M 316.096,582.368c-162.592-2.176-292.64-135.744-290.464-298.336c 2.176-162.496, 135.744-292.576, 298.336-290.4
	c 162.528,2.176, 292.608,135.744, 290.4,298.336C 612.224,454.496, 478.656,584.544, 316.096,582.368z M 315.232,108.8L 313.6,108.8 c-25.024,0.736-42.688,19.2-41.984,43.872
	c 0.704,24.224, 18.784,41.856, 43.008,41.856l 1.472-0.032c 25.728-0.768, 43.2-19.040, 42.432-44.416C 357.824,125.792, 340,108.8, 315.232,108.8z
	 M 420.544,317.824c-5.92-8.352-18.848-18.752-35.168-31.456l-17.984-12.416c-9.856-7.68-15.808-14.88-18.016-21.952
	c-1.792-5.632-2.624-7.072-2.784-18.432l-0.032-2.912L 277.984,230.656 l 0.192,5.824c 0.832,23.872, 1.44,37.888, 11.328,49.504
	c 15.52,18.208, 49.76,40.256, 51.2,41.184c 4.896,3.712, 9.024,7.904, 12.128,12.384c 7.2,9.92, 10.368,17.76, 10.368,25.408
	c0,10.656-3.168,20.512-9.408,29.28c-6.016,8.48-17.44,12.768-33.952,12.768c-16.384,0-27.584-5.216-34.304-15.872
	C 278.592,380.16, 275.136,368.672, 275.136,356.896l0-2.944 l-70.72,0 l 0.128,3.072c 1.824,43.328, 17.28,74.496, 45.952,92.704C 268.48,461.344, 290.88,467.2, 316.992,467.2
	c 34.208,0, 63.136-8.32, 85.856-24.704c 23.040-16.608, 34.72-41.504, 34.72-73.952C 437.568,350.368, 431.84,333.312, 420.544,317.824z" data-tags="help, question" />
<glyph unicode="&#xe03c;" d="M 624.384,32.576L 339.328,532.768C 335.392,539.68, 328,543.936, 320,543.936c-8,0-15.36-4.256-19.328-11.168L 15.648,32.576
		c-3.872-6.784-3.808-15.072, 0.16-21.792s 11.264-10.848, 19.136-10.848l 570.080,0 c 7.808,0, 15.136,4.128, 19.136,10.848
		C 628.128,17.504, 628.192,25.792, 624.384,32.576z M 355.2,63.936L 284.8,63.936 l0,64 l 70.4,0 L 355.2,63.936 z M 355.2,175.936L 284.8,175.936 l0,192 l 70.4,0 L 355.2,175.936 z" data-tags="warning, alert, exclamation" />
<glyph unicode="&#xe03d;" d="M 176.512,152.832c-72.384,77.856-71.104,199.84, 4.064,275.552c 30.784,30.976, 69.248,49.472, 109.248,55.552L 287.616,550.4
	C 231.488,543.584, 177.152,518.528, 134.112,475.2C 33.344,373.696, 32.16,209.92, 130.176,106.176l-55.712-56.096l 176.32-9.632l-0.48,186.688L 176.512,152.832z
	 M 389.184,535.52l 0.48-186.688l 73.824,74.336c 72.384-77.856, 71.136-199.84-4.064-275.552c-30.784-31.008-69.248-49.472-109.28-55.552l 2.208-66.432
	c 56.16,6.816, 110.496,31.872, 153.536,75.232c 100.736,101.472, 101.984,265.28, 3.904,368.992l 55.712,56.096L 389.184,535.52z" data-tags="cycle, refresh, synchronize, reload" />
<glyph unicode="&#xe03e;" d="M 280.736,550.4c 142.272,0, 257.952-113.984, 261.408-255.84L 620.8,294.56 l-117.728-131.232l-117.728,131.232l 91.392,0 C 473.312,400.192, 386.912,484.8, 280.736,484.8
			c-108.352,0-196.16-88.096-196.16-196.8s 87.808-196.8, 196.16-196.8c 43.456,0, 83.584,14.208, 116.096,38.176l 44.96-48.128
			C 397.408,46.4, 341.504,25.6, 280.736,25.6C 136.288,25.6, 19.2,143.072, 19.2,288C 19.2,432.928, 136.288,550.4, 280.736,550.4z" data-tags="cw, arrow, rotate" />
<glyph unicode="&#xe03f;" d="M 359.232,550.4c-142.24,0-257.92-113.984-261.408-255.84L 19.2,294.56 l 117.728-131.2l 117.696,131.2L 163.232,294.56 C 166.688,400.192, 253.088,484.8, 359.232,484.8
			c 108.384,0, 196.192-88.096, 196.192-196.8s-87.808-196.8-196.192-196.8c-43.424,0-83.552,14.208-116.064,38.176l-44.992-48.128
			C 242.56,46.4, 298.464,25.6, 359.232,25.6c 144.48,0, 261.6,117.472, 261.6,262.4C 620.8,432.928, 503.68,550.4, 359.232,550.4z" data-tags="ccw, rotate, arrow" />
<glyph unicode="&#xe040;" d="M 482.976,393.792L 505.6,393.792 l0-64.416 l 134.4,115.2l-134.4,115.2l0-76.384 l-22.624,0 c-118.176,0-184.832-87.584-243.648-164.864
	c-52.896-69.504-98.56-129.536-172.352-129.536L0,188.992 l0-89.632 l 66.976,0 c 118.208,0, 184.832,87.616, 243.68,164.896C 363.52,333.792, 409.184,393.792, 482.976,393.792z
	 M 173.152,337.344c 5.024,6.528, 10.112,13.184, 15.264,19.936c 12.512,16.448, 25.728,33.792, 40.032,51.072C 186.176,447.84, 135.168,476.992, 66.976,476.992L0,476.992 l0-89.6 
	l 66.976,0 C 109.44,387.392, 142.592,367.456, 173.152,337.344z M 505.6,182.624l-22.624,0 c-45.024,0-79.552,22.368-111.68,55.616
	c-3.232-4.192-6.432-8.448-9.696-12.736c-14.112-18.496-29.312-38.432-46.048-58.112c 43.424-42.368, 96.032-74.368, 167.424-74.368L 505.6,93.024 l0-76.8 l 134.4,115.2
	l-134.4,115.264L 505.6,182.624 z" data-tags="shuffle, arrows" />
<glyph unicode="&#xe041;" d="M 359.264,550.4c-142.272,0-257.952-113.984-261.408-255.84L 19.2,294.56 l 117.728-131.232l 117.696,131.232L 163.232,294.56 C 166.688,400.192, 253.088,484.8, 359.264,484.8
	c 108.352,0, 196.16-88.096, 196.16-196.8s-87.808-196.8-196.16-196.8c-43.456,0-83.584,14.208-116.096,38.176l-44.992-48.128
	C 242.592,46.4, 298.496,25.6, 359.264,25.6c 144.448,0, 261.568,117.472, 261.568,262.4C 620.8,432.928, 503.68,550.4, 359.264,550.4z M 336,428.8l0-150.080 l 96.16-96.16
	l 31.68,31.68L 380.8,297.28L 380.8,428.8 L 336,428.8 z" data-tags="history, time" />
<glyph unicode="&#xe042;" d="M 160,192L 128,192 c-17.664,0-32-14.304-32-32s 14.336-32, 32-32l 32,0 c 17.664,0, 32,14.304, 32,32S 177.664,192, 160,192z M 160,320L 128,320 c-17.664,0-32-14.336-32-32s 14.336-32, 32-32l 32,0 
	c 17.664,0, 32,14.336, 32,32S 177.664,320, 160,320z M 160,448L 128,448 C 110.336,448, 96,433.664, 96,416s 14.336-32, 32-32l 32,0 c 17.664,0, 32,14.336, 32,32S 177.664,448, 160,448z M 288,384l 224,0 
	c 17.696,0, 32,14.336, 32,32s-14.304,32-32,32L 288,448 C 270.336,448, 256,433.664, 256,416S 270.336,384, 288,384z M 512,320L 288,320 c-17.664,0-32-14.336-32-32s 14.336-32, 32-32l 224,0 
	c 17.696,0, 32,14.336, 32,32S 529.696,320, 512,320z M 512,192L 288,192 c-17.664,0-32-14.304-32-32s 14.336-32, 32-32l 224,0 c 17.696,0, 32,14.304, 32,32S 529.696,192, 512,192z" data-tags="list, menu, options, bullet" />
<glyph unicode="&#xe043;" d="M 236.8,480L 179.2,480 C 144,480, 128,464, 128,428.8l0-57.6 C 128,336, 144,320, 179.2,320l 57.6,0 C 272,320, 288,336, 288,371.2L 288,428.8 C 288,464, 272,480, 236.8,480z M 460.8,480L 403.2,480 
		C 368,480, 352,464, 352,428.8l0-57.6 C 352,336, 368,320, 403.2,320L 460.8,320 C 496,320, 512,336, 512,371.2L 512,428.8 C 512,464, 496,480, 460.8,480z M 236.8,256L 179.2,256 
		C 144,256, 128,240, 128,204.8L 128,147.2 C 128,112, 144,96, 179.2,96l 57.6,0 C 272,96, 288,112, 288,147.2L 288,204.8 C 288,240, 272,256, 236.8,256z M 460.8,256L 403.2,256 
		c-35.2,0-51.2-16-51.2-51.2L 352,147.2 c0-35.2, 16-51.2, 51.2-51.2L 460.8,96 c 35.2,0, 51.2,16, 51.2,51.2L 512,204.8 C 512,240, 496,256, 460.8,256z" data-tags="layout, grid, icons, squares" />
<glyph unicode="&#xe044;" d="M 512,320L 128,320 c-17.664,0-32-14.336-32-32s 14.336-32, 32-32l 384,0 c 17.696,0, 32,14.336, 32,32S 529.696,320, 512,320z M 128,384l 384,0 c 17.696,0, 32,14.336, 32,32
		s-14.304,32-32,32L 128,448 C 110.336,448, 96,433.664, 96,416S 110.336,384, 128,384z M 512,192L 128,192 c-17.664,0-32-14.304-32-32s 14.336-32, 32-32l 384,0 c 17.696,0, 32,14.304, 32,32
		S 529.696,192, 512,192z" data-tags="list, menu, options, lines" />
<glyph unicode="&#xe045;" d="M 485.504,544L 128,544 C 92.8,544, 64,515.2, 64,480l0-384 c0-35.2, 28.8-64, 64-64l 384,0 c 35.2,0, 64,28.8, 64,64L 576,443.936 L 485.504,544z M 448,352c0-17.6-14.4-32-32-32L 224,320 
	C 206.4,320, 192,334.4, 192,352L 192,512 l 256,0 L 448,352 z M 416,480l-64,0 l0-128 l 64,0 L 416,480 z" data-tags="disk, save, floppy, store" />
<glyph unicode="&#xe046;" d="M 618.88,174.592l-101.888,68.544l-62.816,0 l 108.8-83.456l-113.44,0 c-3.264,0-6.176-1.664-7.68-4.256l-26.112-71.52L 224.256,83.904 l-26.144,71.52
	c-1.44,2.592-4.416,4.256-7.68,4.256L 77.024,159.68 l 108.832,83.456L 123.008,243.136 l-101.856-68.544c-15.168-9.056-24.224-29.952-20.16-46.368l 17.952-98.368
	c 4.064-16.448, 22.112-29.92, 40.032-29.92l 522.016,0 c 17.984,0, 36,13.472, 40.064,29.92l 17.952,98.368
	C 643.136,144.672, 634.048,165.536, 618.88,174.592z M 486.432,380.096L 380.8,380.096 l0,163.84 l-121.6,0 l0-163.84 L 153.6,380.096 l 166.4-156.16L 486.432,380.096z" data-tags="download, archive, store, save" />
<glyph unicode="&#xe047;" d="M 320,543.936l-166.4-156.16l 105.6,0 l0-163.84 l 121.6,0 l0,163.84 l 105.632,0 L 320,543.936z M 618.88,174.592l-101.888,68.544l-62.816,0 l 108.8-83.456l-113.44,0 
		c-3.264,0-6.176-1.664-7.68-4.256l-26.112-71.52L 224.256,83.904 l-26.144,71.52c-1.44,2.592-4.416,4.256-7.68,4.256L 77.024,159.68 l 108.832,83.456L 123.008,243.136 
		l-101.856-68.544c-15.168-9.056-24.224-29.952-20.16-46.368l 17.952-98.368c 4.064-16.448, 22.112-29.92, 40.032-29.92l 522.016,0 
		c 17.984,0, 36,13.472, 40.064,29.92l 17.952,98.368C 643.136,144.672, 634.048,165.536, 618.88,174.592z" data-tags="upload, load, import" />
<glyph unicode="&#xe048;" d="M 108.448,354.816l 35.264-310.688C 145.6,29.376, 216.832-19.136, 320-19.2c 103.168,0.064, 174.432,48.576, 176.32,63.328l 35.264,310.688
	C 477.696,324.672, 397.152,310.4, 320,310.4S 162.304,324.672, 108.448,354.816z M 421.344,546.816l-27.488,30.496C 383.264,592.384, 371.744,595.2, 349.312,595.2L 290.688,595.2 
	c-22.4,0-33.92-2.816-44.544-17.888L 218.688,546.816C 136.448,532.448, 76.8,494.336, 76.8,466.24l0-5.472 c0-49.472, 108.864-89.6, 243.2-89.6s 243.2,40.128, 243.2,89.6
	L 563.2,466.24 C 563.2,494.336, 503.584,532.448, 421.344,546.816z M 386.208,475.552L 346.144,518.4L 293.856,518.4 L 253.792,475.552L 199.392,475.552 c0,0, 59.584,71.040, 67.552,80.672
	C 273.024,563.584, 279.264,566.4, 287.328,566.4l 65.376,0 c 8.064,0, 14.272-2.816, 20.384-10.176c 7.936-9.632, 67.552-80.672, 67.552-80.672L 386.208,475.552 z" data-tags="trash, bin, delete, remove, can, clear" />
<glyph unicode="&#xe049;" d="M 548,378.464l-65.472,180.352c-4.832,13.312-19.040,20.352-31.648,15.744L 15.776,415.744C 3.136,411.168-3.232,396.64, 1.6,383.328
		l 69.024-190.144L 70.624,295.104 c0,45.984, 36.736,83.36, 81.952,83.36l 114.976,0 l 137.12,96.256l 79.36-96.256L 548,378.464 z M 615.616,320.736L 152.576,320.736 
		c-13.44,0-24.384-11.488-24.384-25.664l0-301.472 c0-14.144, 10.912-25.664, 24.384-25.664l 463.040,0 c 13.472,0, 24.384,11.488, 24.384,25.664L 640,295.104 
		C 640,309.248, 629.088,320.736, 615.616,320.736z M 580.288,32.096L 196.448,32.096 l0,55.008 l 59.040,137.44l 88.608-109.984l 83.104,85.184l 106.848,38.56l 46.24-103.104
		L 580.288,32.096 z" data-tags="pictures, images, photos" />
<glyph unicode="&#xe04a;" d="M 371.616,540.416l 76.928-62.272l-96.96-93.76l 64-64l 93.824,97.024l 63.744-78.624L 573.152,540.416 L 371.616,540.416 z M 223.616,256.384l-93.792-96.96l-63.040,77.792
	l0-201.6 l 201.6,0 l-77.792,63.008l 96.992,93.792L 223.616,256.384z" data-tags="resize-enlarge, enlarge, fullscreen" />
<glyph unicode="&#xe04b;" d="M 131.2,156.8L 32,64l 64-64l 92.8,99.2l 64-67.2l0,188.8 L 64,220.8 L 131.2,156.8z M 608,512l-64,64l-92.8-99.2l-64,67.2l0-188.8 L 576,355.2 l-67.2,64L 608,512z" data-tags="resize-shrink, shrink" />
<glyph unicode="&#xe04c;" d="M 574.368,134.528L 574.368,208 c0,44.384-29.376,110.4-110.368,110.4l-64,0 c-45.184,0-49.376,22.144-49.6,33.6L 350.4,441.472 
	C 377.696,453.28, 396.8,480.416, 396.8,512c0,42.4-34.368,76.8-76.8,76.8C 277.568,588.8, 243.2,554.4, 243.2,512c0-31.584, 19.104-58.72, 46.4-70.528L 289.6,352 
	c0-8.288-2.4-33.6-49.6-33.6l-64,0 c-80.992,0-110.4-66.016-110.4-110.4l0-73.472 C 38.304,122.752, 19.2,95.584, 19.2,64c0-42.4, 34.368-76.8, 76.8-76.8
	c 42.4,0, 76.8,34.4, 76.8,76.8c0,31.584-19.104,58.752-46.4,70.528L 126.4,208 c0,8.288, 2.4,49.6, 49.6,49.6l 64,0 c 19.424,0, 35.808,2.944, 49.6,7.936
	l0-131.008 C 262.304,122.752, 243.2,95.584, 243.2,64c0-42.4, 34.368-76.8, 76.8-76.8c 42.432,0, 76.8,34.4, 76.8,76.8c0,31.584-19.136,58.752-46.432,70.528
	l0,131.008 c 13.792-4.992, 30.176-7.936, 49.6-7.936l 64,0 c 45.184,0, 49.376-38.144, 49.632-49.6l0-73.472 C 486.304,122.752, 467.2,95.584, 467.2,64
	c0-42.4, 34.368-76.8, 76.8-76.8s 76.8,34.4, 76.8,76.8C 620.8,95.584, 601.696,122.752, 574.368,134.528z M 140.32,64c0-24.48-19.84-44.32-44.32-44.32
	S 51.68,39.52, 51.68,64S 71.52,108.32, 96,108.32S 140.32,88.48, 140.32,64z M 275.68,512c0,24.48, 19.872,44.32, 44.32,44.32
	c 24.448,0, 44.288-19.84, 44.288-44.32S 344.448,467.68, 320,467.68C 295.552,467.68, 275.68,487.52, 275.68,512z M 364.32,64
	c0-24.48-19.872-44.32-44.288-44.32c-24.48,0-44.32,19.84-44.32,44.32S 295.552,108.32, 320,108.32C 344.448,108.32, 364.32,88.48, 364.32,64z
	 M 544,19.68c-24.448,0-44.32,19.84-44.32,44.32s 19.872,44.32, 44.32,44.32s 44.32-19.84, 44.32-44.32S 568.448,19.68, 544,19.68z" data-tags="flow-tree, tree" />
<glyph unicode="&#xe04d;" d="M 319.52,531.2L 319.52,408.704L 544.064,408.736L 544.064,167.072L 319.52,167.072L 319.52,44.8L 76.864,288 	z" data-tags="arrow-left, left, previous" />
<glyph unicode="&#xe04e;" d="M 563.2,287.52L 440.704,287.552L 440.736,512.064L 199.072,512.064L 199.072,287.52L 76.8,287.552L 320,44.864 	z" data-tags="arrow-down, download, bottom" />
<glyph unicode="&#xe04f;" d="M 563.2,288.48L 440.704,288.448L 440.736,63.936L 199.072,63.936L 199.072,288.48L 76.8,288.448L 320.032,531.136 	z" data-tags="arrow-up- upload, top" />
<glyph unicode="&#xe050;" d="M 320.48,531.2L 320.48,408.704L 95.936,408.736L 95.936,167.072L 320.48,167.072L 320.48,44.8L 563.136,288 	z" data-tags="arrow-right, right, next" />
<glyph unicode="&#xe051;" d="M 319.52,76.8L 319.52,199.296L 544.064,199.264L 544.064,376.928L 319.52,376.928L 319.52,499.2L 76.864,287.968 	z" data-tags="arrow-left, left, previous" />
<glyph unicode="&#xe052;" d="M 531.2,287.52L 408.704,287.552L 408.736,512.064L 231.072,512.064L 231.072,287.52L 108.8,287.552L 320,44.864 	z" data-tags="arrow-down, download, bottom" />
<glyph unicode="&#xe053;" d="M 531.2,288.48L 408.704,288.448L 408.736,63.936L 231.072,63.936L 231.072,288.48L 108.8,288.448L 320.032,531.136 	z" data-tags="arrow-up, upload, top" />
<glyph unicode="&#xe054;" d="M 396.768,178.624c 8.576-8.672, 8.576-22.688,0-31.328c-8.576-8.672-22.432-8.672-31.008,0l-122.56,125.024
	c-8.576,8.672-8.576,22.688,0,31.328l 122.56,125.056c 8.576,8.672, 22.432,8.672, 31.008,0s 8.576-22.656,0-31.328L 296.288,288L 396.768,178.624z" data-tags="arrow-left, left, previous" />
<glyph unicode="&#xe055;" d="M 274.016,463.488c 13.376-13.056, 144.064-150.272, 144.064-150.272C 425.248,306.24, 428.8,297.12, 428.8,288s-3.552-18.24-10.72-25.216
	c0,0-130.688-137.216-144.064-150.24c-13.376-13.056-37.408-13.952-51.712,0c-14.272,13.92-15.392,33.344,0,50.4L 342.24,288L 222.336,413.056
	c-15.392,17.088-14.272,36.512,0,50.432C 236.608,477.408, 260.672,476.544, 274.016,463.488z" data-tags="arrow-right, right, next" />
<glyph unicode="&#xe056;" d="M 495.456,242.016c-13.024,13.376-150.24,144.064-150.24,144.064C 338.24,393.216, 329.12,396.8, 320,396.8c-9.152,0-18.272-3.584-25.216-10.72
	c0,0-137.216-130.688-150.272-144.064c-13.024-13.376-13.92-37.44,0-51.712c 13.952-14.24, 33.376-15.392, 50.432,0L 320,310.208l 125.024-119.904
	c 17.088-15.392, 36.544-14.24, 50.432,0C 509.408,204.608, 508.544,228.672, 495.456,242.016z" data-tags="arrow-up, up, top" />
<glyph unicode="&#xe057;" d="M 495.456,333.984c-13.024-13.376-150.24-144.096-150.24-144.096C 338.24,182.752, 329.12,179.2, 320,179.2c-9.152,0-18.272,3.552-25.216,10.688
	c0,0-137.216,130.72-150.272,144.096c-13.024,13.376-13.92,37.408,0,51.712c 13.952,14.272, 33.376,15.392, 50.432,0L 320,265.76l 125.024,119.904
	c 17.088,15.392, 36.544,14.272, 50.432,0C 509.408,371.392, 508.544,347.328, 495.456,333.984z" data-tags="arrow-down, down, bottom" />
<glyph unicode="&#xe058;" d="M 365.984,463.488c-13.376-13.056-144.064-150.272-144.064-150.272C 214.784,306.24, 211.232,297.12, 211.232,288s 3.552-18.24, 10.688-25.216
	c0,0, 130.688-137.216, 144.064-150.24c 13.376-13.056, 37.44-13.952, 51.712,0c 14.24,13.92, 15.36,33.344-0.032,50.4L 297.76,288l 119.904,125.056
	c 15.392,17.088, 14.272,36.512, 0.032,50.432C 403.392,477.408, 379.328,476.544, 365.984,463.488z" data-tags="arrow-left, left, previous" />
<glyph unicode="&#xe059;" d="M 192.032,435.2L 192,140.8L 448,288 z" data-tags="arrow-right, triangle, right, next" />
<glyph unicode="&#xe05a;" d="M 172.8,160L 467.2,160L 319.968,416 z" data-tags="arrow-up, triangle, up, top" />
<glyph unicode="&#xe05b;" d="M 467.2,415.968L 172.8,416L 320,160 z" data-tags="arrow-down, triangle, down, bottom" />
<glyph unicode="&#xe05c;" d="M 447.968,435.2L 448,140.8L 192,288 z" data-tags="arrow-left, left, triangle, previous" />
<glyph unicode="&#xe05d;" d="M 25.6,288c0-162.592, 131.84-294.4, 294.4-294.4c 162.592,0, 294.4,131.808, 294.4,294.4C 614.4,450.592, 482.592,582.4, 320,582.4C 157.408,582.4, 25.6,450.592, 25.6,288z
		 M 550.4,288c0-127.232-103.168-230.4-230.4-230.4S 89.6,160.736, 89.6,288C 89.6,415.264, 192.736,518.4, 320,518.4S 550.4,415.264, 550.4,288z M 196.8,345.6l0-115.2 l 130.88,0 l0-72 
		L 449.6,288l-121.92,129.6L 327.68,345.6 L 196.8,345.6 z" data-tags="arrow-right, right, next" />
<glyph unicode="&#xe05e;" d="M 320.032-6.4c 162.592,0, 294.368,131.808, 294.368,294.4s-131.776,294.4-294.368,294.4C 157.408,582.4, 25.6,450.592, 25.6,288S 157.408-6.4, 320.032-6.4z
		 M 320.032,518.4c 127.264,0, 230.368-103.168, 230.368-230.4s-103.136-230.4-230.368-230.4C 192.736,57.6, 89.6,160.736, 89.6,288S 192.736,518.4, 320.032,518.4z M 262.4,164.8
		l 115.232,0 L 377.632,295.68 l 72,0 l-129.6,121.92L 190.4,295.68L 262.4,295.68 L 262.4,164.8 z" data-tags="arrow-up, upload, top" />
<glyph unicode="&#xe05f;" d="M 320,582.4c-162.592,0-294.4-131.808-294.4-294.4s 131.808-294.4, 294.4-294.4s 294.4,131.808, 294.4,294.4S 482.592,582.4, 320,582.4z M 320,57.6
		c-127.264,0-230.4,103.168-230.4,230.4S 192.736,518.4, 320,518.4s 230.4-103.168, 230.4-230.4S 447.264,57.6, 320,57.6z M 377.6,411.2L 262.4,411.2 l0-130.88 L 190.4,280.32 L 320,158.4
		l 129.6,121.92L 377.6,280.32 L 377.6,411.2 z" data-tags="arrow-down, download, bottom" />
<glyph unicode="&#xe060;" d="M 614.4,288c0,162.592-131.808,294.4-294.4,294.4S 25.6,450.592, 25.6,288c0-162.624, 131.808-294.432, 294.4-294.432S 614.4,125.408, 614.4,288z M 89.6,288
		c0,127.232, 103.168,230.4, 230.4,230.4s 230.4-103.168, 230.4-230.4c0-127.264-103.168-230.432-230.4-230.432S 89.6,160.736, 89.6,288z M 443.2,230.4L 443.2,345.6 L 312.32,345.6 L 312.32,417.6 
		L 190.4,288l 121.92-129.6L 312.32,230.4 L 443.2,230.4 z" data-tags="arrow-left, left, previous" />
<glyph unicode="&#xe061;" d="M 320.48,499.2L 320.48,376.704L 95.936,376.736L 95.936,199.072L 320.48,199.072L 320.48,76.8L 563.136,288.032 	z" data-tags="arrow-right, right, next" />
<glyph unicode="&#xe062;" d="M 429.376,364.768c 8.672,8.576, 22.688,8.576, 31.328,0c 8.672-8.576, 8.672-22.432,0-31.008l-125.024-122.56
	c-8.672-8.576-22.688-8.576-31.328,0l-125.056,122.56c-8.64,8.576-8.64,22.432,0,31.008c 8.672,8.576, 22.656,8.576, 31.328,0L 320,264.288
	L 429.376,364.768z" data-tags="arrow-down, down, bottom" />
<glyph unicode="&#xe063;" d="M 210.592,211.232c-8.672-8.576-22.656-8.576-31.328,0c-8.64,8.576-8.672,22.432,0,31.040L 304.32,364.768
	c 8.672,8.576, 22.688,8.576, 31.328,0l 125.056-122.528c 8.672-8.608, 8.672-22.464,0-31.040s-22.656-8.576-31.328,0L 319.968,311.712L 210.592,211.232z" data-tags="arrow-up, up, top" />
<glyph unicode="&#xe064;" d="M 243.232,178.624c-8.576-8.672-8.576-22.688,0-31.328c 8.544-8.672, 22.432-8.672, 31.008,0l 122.56,125.024
	c 8.576,8.672, 8.576,22.688,0,31.328l-122.56,125.056c-8.576,8.672-22.432,8.672-31.008,0S 234.656,406.048, 243.2,397.408L 343.712,288L 243.232,178.624z" data-tags="arrow-right, right, next" />
<glyph unicode="&#xe065;" d="M 460.768,50.624c 8.576-8.672, 8.576-22.656,0-31.328s-22.432-8.672-31.008,0l-250.56,253.024c-8.576,8.672-8.576,22.688,0,31.328
	l 250.56,253.056c 8.576,8.672, 22.432,8.672, 31.008,0s 8.576-22.656,0-31.328L 232.288,288L 460.768,50.624z" data-tags="arrow-left, previous, left" />
<glyph unicode="&#xe066;" d="M 82.624,428.768c-8.672,8.576-22.688,8.576-31.328,0c-8.64-8.544-8.64-22.432,0-31.008l 253.056-250.56c 8.672-8.576, 22.656-8.576, 31.328,0
	l 253.056,250.56c 8.64,8.576, 8.672,22.432,0,31.008S 566.016,437.344, 557.408,428.8L 320,200.288L 82.624,428.768z" data-tags="arrow-down, down, bottom" />
<glyph unicode="&#xe067;" d="M 557.376,147.232c 8.672-8.576, 22.688-8.576, 31.328,0c 8.672,8.576, 8.672,22.432,0,31.008l-253.056,250.56
	c-8.64,8.576-22.656,8.576-31.296,0l-253.056-250.56c-8.64-8.576-8.672-22.432,0-31.008s 22.656-8.576, 31.328,0l 237.376,228.512L 557.376,147.232z" data-tags="arrow-up, up, top" />
<glyph unicode="&#xe068;" d="M 179.19,50.624c -8.576-8.672, -8.576-22.656,0-31.328s 22.432-8.672 31.008,0l 250.56,253.024c 8.576,8.672 8.576,22.688,0,31.328
	l -250.56,253.056c -8.576,8.672, -22.432,8.672, -31.008,0s -8.576-22.656,0-31.328L 407.67,288L 179.19,50.624z" />
<glyph unicode="&#xe069;" d="M 159.456,128L 159.488,231.296L 633.6,231.264L 633.6,344.96L 159.456,344.96L 159.488,448L 6.4,288 z" data-tags="arrow-left, previous, left" />
<glyph unicode="&#xe06a;" d="M 480,127.424L 376.704,127.456L 376.736,601.6L 263.040,601.6L 263.040,127.424L 160,127.456L 320-25.6 z" data-tags="arrow-down, down, bottom" />
<glyph unicode="&#xe06b;" d="M 480,448.544L 376.704,448.544L 376.736-25.6L 263.040-25.6L 263.040,448.544L 160,448.544L 320,601.6 z" data-tags="arrow-up, up, top" />
<glyph unicode="&#xe06c;" d="M 480.576,128L 480.544,231.296L 6.4,231.264L 6.4,344.96L 480.576,344.96L 480.544,448L 633.6,288 z" data-tags="arrow-right, right, next" />
<glyph unicode="&#xe06d;" d="M 320,608L 172.8,374.4l 294.368,0L 320,608z M 320.032-32l 147.168,233.6L 172.8,201.632L 320.032-32z" data-tags="menu, arrows, up-down, dropdown" />
<glyph unicode="&#xe06e;" d="M 96,358.4c-38.88,0-70.4-31.52-70.4-70.4c0-38.88, 31.52-70.4, 70.4-70.4s 70.4,31.52, 70.4,70.4C 166.4,326.88, 134.88,358.4, 96,358.4z M 320,358.4
		c-38.88,0-70.4-31.52-70.4-70.4c0-38.88, 31.52-70.4, 70.4-70.4s 70.368,31.52, 70.368,70.4C 390.368,326.88, 358.88,358.4, 320,358.4z M 544,358.4
		c-38.88,0-70.4-31.52-70.4-70.4c0-38.88, 31.52-70.4, 70.4-70.4s 70.4,31.52, 70.4,70.4C 614.4,326.88, 582.88,358.4, 544,358.4z" data-tags="ellipsis, dots, circles" />
<glyph unicode="&#xe06f;" d="M 614.4,470.624c-21.696-9.632-44.96-16.096-69.408-19.040c 24.96,14.944, 44.128,38.624, 53.12,66.816c-23.328-13.824-49.184-23.904-76.672-29.312
	c-22.048,23.488-53.44,38.144-88.192,38.144c-66.72,0-120.8-54.080-120.8-120.768c0-9.472, 1.056-18.688, 3.136-27.52
	c-100.384,5.024-189.408,53.12-248.96,126.208C 56.192,487.328, 50.208,466.56, 50.208,444.416c0-41.92, 21.344-78.88, 53.76-100.544
	c-19.808,0.64-38.432,6.048-54.72,15.104c0-0.512,0-0.992,0-1.504c0-58.528, 41.664-107.328, 96.896-118.464c-10.112-2.752-20.8-4.224-31.84-4.224
	c-7.776,0-15.328,0.736-22.72,2.144c 15.36-48, 60-82.912, 112.832-83.872c-41.344-32.416-93.408-51.712-150.016-51.712
	c-9.76,0-19.36,0.576-28.8,1.696c 53.44-34.272, 116.928-54.272, 185.184-54.272c 222.176,0, 343.68,184.064, 343.68,343.712
	c0,5.216-0.096,10.432-0.352,15.616C 577.728,425.12, 598.176,446.4, 614.4,470.624z" data-tags="twitter, social" />
<glyph unicode="&#xe070;" d="M 320,595.2c-169.664,0-307.2-137.536-307.2-307.2s 137.536-307.2, 307.2-307.2s 307.2,137.536, 307.2,307.2S 489.664,595.2, 320,595.2z M 444.928,343.52
	c 0.128-2.592, 0.192-5.216, 0.192-7.84c0-79.936-60.864-172.128-172.16-172.128c-34.144,0-65.984,9.984-92.736,27.2
	c 4.736-0.576, 9.568-0.832, 14.432-0.832c 28.352,0, 54.432,9.664, 75.168,25.92c-26.464,0.48-48.832,17.984-56.544,41.984
	c 3.68-0.704, 7.488-1.088, 11.36-1.088c 5.536,0, 10.88,0.736, 15.936,2.112c-27.648,5.568-48.544,30.016-48.544,59.328
	c0,0.256,0,0.512, 0.032,0.736C 200.224,314.4, 209.568,311.68, 219.456,311.36C 203.264,322.208, 192.576,340.704, 192.576,361.728
	c0,11.104, 2.976,21.504, 8.192,30.432C 230.592,355.52, 275.2,331.424, 325.472,328.928c-1.024,4.416-1.568,9.024-1.568,13.792
	c0,33.408, 27.104,60.512, 60.512,60.512c 17.408,0, 33.12-7.328, 44.16-19.104c 13.792,2.688, 26.752,7.712, 38.432,14.656
	c-4.544-14.112-14.112-25.984-26.624-33.472c 12.256,1.472, 23.904,4.704, 34.752,9.536C 467.040,362.72, 456.736,352.064, 444.928,343.52z" data-tags="twitter, social" />
<glyph unicode="&#xe071;" d="M 480,475.872l-91.392,0 c-10.816,0-22.88-14.208-22.88-33.248L 365.728,376.64 L 480,376.64 l0-94.080 l-114.272,0 L 365.728,0 L 257.824,0 l0,282.528 L 160,282.528 L 160,376.64 l 97.824,0 L 257.824,432 
	c0,79.392, 55.104,144, 130.752,144L 480,576 L 480,475.872 z" data-tags="facebook, social" />
<glyph unicode="&#xe072;" d="M 320,595.2c-169.664,0-307.2-137.536-307.2-307.2s 137.536-307.2, 307.2-307.2s 307.2,137.536, 307.2,307.2S 489.664,595.2, 320,595.2z M 392.736,382.912L 346.56,382.912 
	c-5.44,0-11.52-7.2-11.52-16.768l0-33.344 l 57.728,0 l0-47.552 L 335.040,285.248 l0-142.752 L 280.512,142.496 l0,142.752 L 231.104,285.248 L 231.104,332.768 l 49.408,0 L 280.512,360.736 
	c0,40.128, 27.84,72.736, 66.048,72.736l 46.176,0 L 392.736,382.912 z" data-tags="facebook, social" />
<glyph unicode="&#xe073;" d="M 526.4,563.2L 113.6,563.2 C 75.776,563.2, 44.8,532.224, 44.8,494.4l0-412.8 c0-37.856, 30.976-68.768, 68.768-68.768l 208.768,0 l0,197.344 l-65.92,0 L 256.416,296.128 l 65.92,0 L 322.336,339.2 
	c0,66.4, 49.024,118.4, 111.616,118.4l 60.736,0 l0-97.088 l-54.368,0 c-14.208,0-18.368-8.16-18.368-19.424l0-44.928 l 72.736,0 l0-85.984 l-72.736,0 L 421.952,12.8 l 104.416,0 
	c 37.856,0, 68.768,30.944, 68.768,68.768L 595.136,494.4 C 595.2,532.224, 564.256,563.2, 526.4,563.2z" data-tags="facebook, social" />
<glyph unicode="&#xe074;" d="M 63.68,429.152c0-47.776, 15.968-82.304, 47.424-102.56c 25.76-16.608, 55.68-19.104, 71.232-19.104c 3.776,0, 6.784,0.16, 8.896,0.288
	c0,0-4.928-32.096, 18.88-63.872l-1.088,0.032c-41.248,0-175.808-8.64-175.808-119.264c0-112.544, 123.584-118.24, 148.352-118.24
	c 1.952,0, 3.072,0.032, 3.072,0.032c 0.288,0, 2.048-0.064, 5.056-0.064c 15.904,0, 57.024,1.984, 95.232,20.576
	c 49.536,24.032, 74.688,65.888, 74.688,124.32c0,56.48-38.272,90.080-66.24,114.656c-17.056,14.976-31.808,27.904-31.808,40.48
	c0,12.8, 10.752,22.432, 24.384,34.624c 22.016,19.712, 42.816,47.776, 42.816,100.832c0,46.656-6.048,77.952-43.328,97.792
	c 3.904,1.984, 17.632,3.424, 24.448,4.384c 20.192,2.752, 49.728,5.888, 49.728,22.368L 359.616,569.6 L 212.48,569.6 C 211.008,569.568, 63.68,564.096, 63.68,429.152z
	 M 301.216,140.736c 2.816-44.992-35.68-78.208-93.472-82.4c-58.688-4.32-107.040,22.112-109.856,67.104c-1.344,21.6, 8.128,42.752, 26.72,59.616
	c 18.88,17.056, 44.736,27.584, 72.928,29.696c 3.328,0.192, 6.624,0.352, 9.92,0.352C 261.76,215.104, 298.56,183.168, 301.216,140.736z M 262.784,459.968
	c 14.432-50.784-7.36-103.872-42.080-113.664C 216.704,345.184, 212.576,344.608, 208.416,344.608c-31.84,0-63.36,32.192-75.040,76.544
	C 126.848,446.080, 127.36,467.84, 134.848,488.8C 142.208,509.376, 155.424,523.328, 172.064,528c 4,1.152, 8.16,1.696, 12.32,1.696
	C 222.784,529.696, 247.488,513.76, 262.784,459.968z M 510.752,349.376l0,96 l-60.8,0 l0-96 l-96,0 l0-60.8 l 96,0 l0-96 l 60.8,0 l0,96 l 96,0 l0,60.8 L 510.752,349.376 z" data-tags="googleplus, social" />
<glyph unicode="&#xe075;" d="M 291.104,374.88c-7.712,27.2-20.192,35.232-39.616,35.232c-2.080,0-4.192-0.288-6.208-0.832C 236.832,406.88, 230.176,399.84, 226.464,389.44
	C 222.656,378.88, 222.4,367.84, 225.728,355.296c 5.888-22.4, 21.824-38.688, 37.92-38.688c 2.080,0, 4.192,0.288, 6.208,0.832
	C 287.36,322.4, 298.368,349.216, 291.104,374.88z M 320,595.2c-169.664,0-307.2-137.536-307.2-307.2s 137.536-307.2, 307.2-307.2c 169.696,0, 307.2,137.536, 307.2,307.2
	S 489.696,595.2, 320,595.2z M 302.304,156.096c-19.328-9.376-40.096-10.368-48.128-10.368c-1.536,0-2.4,0.032-2.528,0.032c0,0-0.608,0-1.568,0
	c-12.544,0-74.976,2.88-74.976,59.744c0,55.872, 67.968,60.224, 88.8,60.224l 0.576,0 C 252.48,281.792, 254.976,297.984, 254.976,297.984
	C 253.92,297.92, 252.352,297.856, 250.464,297.856c-7.872,0-23.008,1.248-36,9.664C 198.56,317.728, 190.496,335.168, 190.496,359.328
	c0,68.192, 74.432,70.944, 75.2,70.976l 74.336,0 l0-1.632 c0-8.32-14.912-9.92-25.12-11.328C 311.456,416.864, 304.544,416.16, 302.56,415.168
	c 18.848-10.048, 21.888-25.888, 21.888-49.44c0-26.784-10.496-40.96-21.632-50.944C 295.936,308.64, 290.496,303.744, 290.496,297.28
	c0-6.336, 7.424-12.864, 16.064-20.448c 14.112-12.416, 33.472-29.408, 33.472-57.952C 340.032,189.376, 327.328,168.256, 302.304,156.096z M 464.864,288.288
	l-48.512,0 l0-48.512 l-30.72,0 L 385.632,288.288 l-48.512,0 l0,30.72 l 48.512,0 L 385.632,367.488 l 30.72,0 l0-48.512 l 48.512,0 L 464.864,288.288 z M 263.136,251.168c-1.664,0-3.328-0.064-4.992-0.192
	c-14.208-1.024-27.328-6.368-36.832-15.008c-9.408-8.512-14.176-19.232-13.504-30.112c 1.408-22.72, 25.856-36.064, 55.488-33.92
	c 29.216,2.112, 48.672,18.912, 47.232,41.664C 309.152,235.008, 290.56,251.168, 263.136,251.168z" data-tags="googleplus, social" />
<glyph unicode="&#xe076;" d="M 499.2,25.728c-24.832-11.84-47.36-20.192-67.488-24.96c-20.16-4.736-41.984-7.168-65.376-7.168c-26.592,0-50.080,3.424-70.56,10.208
	c-20.416,6.816-37.824,16.512-52.288,29.024c-14.432,12.64-24.448,25.984-30.016,40.16c-5.6,14.176-8.384,34.72-8.384,61.632L 205.088,341.152 L 140.8,341.152 L 140.8,424.48 
	C 163.648,432, 183.264,442.72, 199.52,456.768c 16.32,14.016, 29.376,30.88, 39.264,50.56C 248.64,527.008, 255.392,552, 259.136,582.4l 82.72,0 l0-148.832 l 138.080,0 l0-92.416 
	l-138.080,0 l0-151.008 c0-34.112, 1.792-56.032, 5.408-65.76c 3.52-9.664, 10.176-17.408, 19.872-23.2c 12.928-7.808, 27.616-11.712, 44.192-11.712
	c 29.472,0, 58.752,9.696, 87.872,29.056L 499.2,25.728 z" data-tags="tumblr, social" />
<glyph unicode="&#xe077;" d="M 320,595.2C 150.336,595.2, 12.8,457.664, 12.8,288S 150.336-19.2, 320-19.2c 169.664,0, 307.168,137.536, 307.168,307.2S 489.696,595.2, 320,595.2z M 402.432,155.456
	c-12.576-5.984-23.936-10.176-34.048-12.608c-10.176-2.4-21.248-3.616-33.056-3.616c-13.44,0-25.312,1.728-35.648,5.152
	c-10.304,3.424-19.136,8.352-26.432,14.688c-7.296,6.336-12.352,13.12-15.168,20.288s-4.224,17.536-4.224,31.136L 253.856,314.848 L 221.376,314.848 L 221.376,356.928 
	c 11.52,3.808, 21.44,9.248, 29.664,16.352c 8.224,7.072, 14.848,15.584, 19.808,25.536C 275.84,408.736, 279.296,421.408, 281.152,436.736l 41.792,0 l0-75.232 l 69.728,0 
	l0-46.688 l-69.728,0 l0-76.288 c0-17.248, 0.896-28.32, 2.72-33.216s 5.152-8.8, 10.048-11.712c 6.528-3.936, 13.984-5.952, 22.336-5.952
	c 14.88,0, 29.696,4.896, 44.384,14.72L 402.432,155.456 z" data-tags="tumblr, social" />
<glyph unicode="&#xe078;" d="M 633.6,448L 633.6,486.4 C 633.6,500.544, 622.112,512, 608,512L 32,512 C 17.856,512, 6.4,500.544, 6.4,486.4L 6.4,448 l 64,0 l0-64 l-64,0 l0-64 l 64,0 l0-64 l-64,0 l0-64 l 64,0 l0-64 l-64,0 l0-38.4 
		C 6.4,75.456, 17.856,64, 32,64l 576,0 c 14.112,0, 25.6,11.456, 25.6,25.6L 633.6,128 l-64,0 l0,64 l 64,0 l0,64 l-64,0 L 569.6,320 l 64,0 L 633.6,384 l-64,0 L 569.6,448 L 633.6,448 z M 249.6,192L 249.6,384 l 160-96L 249.6,192z" data-tags="video, movie, play, film" />
<glyph unicode="&#xe079;" d="M0,528l0-520 l 640,0 L 640,528 L0,528 z M 600,48L 40,48 L 40,488 l 560,0 L 600,48 zM 440,388A60,60 2700 1 1 560,388A60,60 2700 1 1 440,388zM 560,88 L 80,88 L 200,408 L 360,208 L 440,268 Z" data-tags="image, picture, photo, graphic" />
<glyph unicode="&#xe07a;" d="M 80,448l0-400 l 560,0 L 640,448 L 80,448 z M 600,114.666L 520,248l-90.666-75.555L 360,288L 120,88L 120,408 l 480,0 L 600,114.666 zM 160,308A60,60 7740 1 1 280,308A60,60 7740 1 1 160,308zM 560,528L0,528L0,128L 40,128L 40,488L 560,488 	z" data-tags="images, pictures, photos, graphics" />
<glyph unicode="&#xe027;" d="M 240,208l 80,40L 600,528l-40,40L 280,288L 240,208z M 180.813,66.064c-19.77,41.705-41.041,62.976-82.747,82.746L 160,319.305
	L 240,368L 480,608l-120,0 L 120,368L0-32l 400,120l 240,240l0,120 L 400,208l-48.695-80" data-tags="pencil, write, edit, blog, note" />
<glyph unicode="&#xe07b;" d="M 540,608 C 595.227,608 640,563.229 640,508 C 640,485.487 632.556,464.714 620,448 L 580,408 L 440,548 L 480,588 C 496.714,600.556 517.486,608 540,608 ZM 40,148L0-32l 180,40l 370,370L 410,518L 40,148z M 447.236,380.764l-280-280l-34.472,34.472l 280,280L 447.236,380.764z" data-tags="pencil, write, edit, blog, note" />
<glyph unicode="&#xe07c;" d="M 80,28A60,60 10980 1 1 200,28A60,60 10980 1 1 80,28zM 480,28A60,60 10980 1 1 600,28A60,60 10980 1 1 480,28zM 600,288L 600,528 L 80,528 C 80,572.182, 44.184,608,0,608l0-40 c 22.056,0, 40-17.944, 40-40l 30.046-257.534C 51.737,255.805, 40,233.279, 40,208
		c0-44.184, 35.818-80, 80-80l 480,0 l0,40 L 120,168 c-22.091,0-40,17.909-40,40c0,0.138, 0.009,0.273, 0.010,0.41L 600,288z" data-tags="cart, ecommerce, shopping, products, purchase, buy, store" />
<glyph unicode="&#xe07d;" d="M 610.989,486.461c-21.24,6.067-43.381-6.231-49.45-27.473L 558.4,448L 185.311,448 l-5.62,44.961
		C 177.189,512.979, 160.173,528, 140,528L 40,528 C 17.909,528,0,510.091,0,488s 17.909-40, 40-40l 64.689,0 l 35.62-284.961
		C 142.811,143.022, 159.827,128, 180,128l 340,0 c 17.859,0, 33.555,11.84, 38.461,29.011l 80,280
		C 644.53,458.252, 632.23,480.392, 610.989,486.461z M 320,288l0,40 l 79.998,0 l0-40 L 320,288 z M 399.998,248l0-40 L 320,208 l0,40 L 399.998,248 z M 320,368l0,40 
		l 79.998,0 l0-40 L 320,368 z M 190.311,408L 280,408 l0-40 l-84.689,0 L 190.311,408z M 200.311,328L 280,328 l0-40 l-74.689,0 L 200.311,328z M 210.311,248L 280,248 l0-40 l-64.689,0 
		L 210.311,248z M 489.828,208l-49.83,0 l0,40 l 61.259,0 L 489.828,208z M 512.685,288l-72.688,0 l0,40 l 84.116,0 L 512.685,288z M 535.543,368l-95.545,0 
		l0,40 l 106.974,0 L 535.543,368zM 160,28A60,60 2700 1 1 280,28A60,60 2700 1 1 160,28zM 400,28A60,60 2700 1 1 520,28A60,60 2700 1 1 400,28z" data-tags="cart, ecommerce, shopping, products, purchase, buy, store" />
<glyph unicode="&#xe07e;" d="M 400,448L 400,608 L 120,608 L0,488l0-360 l 240,0 l0-160 l 400,0 L 640,448 L 400,448 z M 120,551.431L 120,488 L 56.569,488 L 120,551.431z M 40,168L 40,448 l 120,0 L 160,568 l 200,0 l0-120 l-120-120l0-160 L 40,168 z
	 M 360,391.431L 360,328 l-63.431,0 L 360,391.431z M 600,8L 280,8 L 280,288 l 120,0 l0,120 l 200,0 L 600,8 z" data-tags="copy, duplicate, files, pages, papers, documents" />
<glyph unicode="&#xe07f;" d="M 540,528l-40,0 l0-40 l 20,0 l0-320 L 360,168 l0-160 L 120,8 L 120,488 l 20,0 L 140,528 L 100,528 c-11.001,0-20-9-20-20l0-520 c0-11, 8.999-20, 20-20l 315,0 l 145,145L 560,508 
	C 560,519, 551,528, 540,528z M 400,8l0,120 l 120,0 L 400,8zM 480,528l-80,0 L 400,568 c0,22-18,40-40,40l-80,0 c-22.003,0-40-18-40-40l0-40 l-80,0 l0-80 l 320,0 L 480,528 z M 360,528l-80,0 L 280,567.929 
	c 0.021,0.024, 0.045,0.049, 0.071,0.071l 79.855,0 c 0.026-0.022, 0.051-0.048, 0.074-0.071L 360,528 z" data-tags="copy, duplicate" />
<glyph unicode="&#xe080;" d="M 520,448l-120,0 L 400,488 L 280,608L0,608 l0-480 l 240,0 l0-160 l 400,0 L 640,328 L 520,448z M 520,391.431L 583.431,328L 520,328 L 520,391.431 z M 280,551.431L 343.431,488L 280,488 
	L 280,551.431 z M 40,568l 200,0 l0-120 l 120,0 l0-280 L 40,168 L 40,568 z M 600,8L 280,8 l0,120 l 120,0 L 400,408 l 80,0 l0-120 l 120,0 L 600,8 z" data-tags="copy, duplicate, files, pages, papers, documents" />
<glyph unicode="&#xe081;" d="M 564.645,483.356l-89.29,89.289C 455.91,592.090, 417.5,608, 390,608L 90,608 C 62.5,608, 40,585.5, 40,558l0-540 c0-27.5, 22.5-50, 50-50l 460,0 c 27.5,0, 50,22.5, 50,50
	L 600,398 C 600,425.5, 584.090,463.911, 564.645,483.356z M 536.361,455.071c 1.956-1.956, 3.906-4.359, 5.8-7.071L 440,448 L 440,550.16 
	c 2.712-1.894, 5.115-3.844, 7.071-5.8L 536.361,455.071z M 560,18c0-5.42-4.58-10-10-10L 90,8 c-5.42,0-10,4.58-10,10L 80,558 c0,5.42, 4.58,10, 10,10
	l 300,0 c 3.020,0, 6.409-0.381, 10-1.065L 400,408 l 158.935,0 c 0.684-3.591, 1.065-6.979, 1.065-10L 560,18 z" data-tags="file, paper, page, new, empty, blank, document" />
<glyph unicode="&#xe082;" d="M 540,608L 60,608 C 27,608,0,581,0,548l0-520 c0-33, 27-60, 60-60l 480,0 c 33,0, 60,27, 60,60L 600,548 C 600,581, 573,608, 540,608z M 520,48L 80,48 
		L 80,528 l 440,0 L 520,48 zM 160,248L 440,248L 440,208L 160,208zM 160,168L 440,168L 440,128L 160,128zM 200,428A60,60 4860 1 1 320,428A60,60 4860 1 1 200,428zM 300,368l-80,0 c-33,0-60-18-60-40l0-40 l 200,0 l0,40 C 360,350, 333,368, 300,368z" data-tags="profile, page, user, paper, file, document" />
<glyph unicode="&#xe083;" d="M 620,568L 480,568 c-33,0-79.091-19.091-102.426-42.426L 142.426,290.426c-23.334-23.334-23.334-61.517,0-84.853l 175.147-175.146
	c 23.334-23.335, 61.517-23.335, 84.853,0l 235.146,235.146C 660.909,288.909, 680,335, 680,368L 680,508 C 680,541, 653,568, 620,568z M 540,368
	c-33.138,0-60,26.862-60,60s 26.862,60, 60,60s 60-26.862, 60-60S 573.138,368, 540,368zM 54.141,233.859 L 268.127,19.872 C 245.463,7.898 216.589,11.411 197.574,30.428 L 22.426,205.574 C -0.907,228.909 -0.907,267.092 22.426,290.426 L 257.574,525.574 C 280.909,548.909 327,568 360,568 L 54.141,262.143 C 46.364,254.364 46.364,241.638 54.141,233.859 Z" horiz-adv-x="680" data-tags="tags, prices" />
<glyph unicode="&#xe084;" d="M 579.883,608L 399.531,608 c-33.066,0-79.248-19.129-102.627-42.509L 17.535,286.123c-23.38-23.38-23.38-61.64,0-85.020
	l 215.569-215.566c 23.38-23.381, 61.639-23.381, 85.019,0l 279.369,279.368C 620.871,288.285, 640,334.468, 640,367.531L 640,547.883 
	C 640,580.948, 612.946,608, 579.883,608z M 500,408c-33.138,0-60,26.862-60,60s 26.862,60, 60,60s 60-26.862, 60-60S 533.138,408, 500,408z" data-tags="tag, price" />
<glyph unicode="&#xe085;" d="M 440,528l-80,0 L 360,568 c0,22-18,40-40,40l-80,0 c-22.003,0-40-18-40-40l0-40 L 120,528 l0-80 l 320,0 L 440,528 z M 320,528l-80,0 L 240,567.929 
		c 0.021,0.024, 0.045,0.049, 0.071,0.071l 79.855,0 c 0.026-0.022, 0.051-0.048, 0.074-0.071L 320,528 zM 520,408L 520,508 c0,11-9,20-20,20l-40,0 l0-40 l 20,0 l0-80 L 240,408 l0-280 L 80,128 L 80,488 l 20,0 L 100,528 L 60,528 c-11.001,0-20-9-20-20l0-400 c0-11, 8.999-20, 20-20l 180,0 
		l0-120 l 280,0 l 120,120L 640,408 L 520,408 z M 520,24.569L 520,88 l 63.431,0 L 520,24.569z M 600,128l-120,0 l0-120 L 280,8 L 280,368 l 320,0 L 600,128 z" data-tags="paste, clipboard" />
<glyph unicode="&#xe086;" d="M 240,568L 40,568 C 18,568,0,550,0,528l0-200 c0-22, 17.997-40, 40-40l 200,0 c 22,0, 40,18, 40,40L 280,528 C 280,550, 262,568, 240,568z
	 M 240,408L 40,408 l0,40 l 200,0 L 240,408 z M 560,568L 360,568 c-22.003,0-40-18-40-40l0-520 c0-22, 17.997-40, 40-40l 200,0 c 22,0, 40,18, 40,40L 600,528 
	C 600,550, 582,568, 560,568z M 560,208L 360,208 l0,40 l 200,0 L 560,208 z M 560,328L 360,328 l0,40 l 200,0 L 560,328 z M 240,248L 40,248 c-22,0-40-18-40-40l0-200 
	c0-22, 17.997-40, 40-40l 200,0 c 22,0, 40,18, 40,40L 280,208 C 280,230, 262,248, 240,248z M 240,88l-80,0 l0-80 L 120,8 l0,80 L 40,88 l0,40 l 80,0 l0,80 l 40,0 l0-80 l 80,0 
	L 240,88 z" data-tags="calculate, sum, calculator, compute, math, arithmetic" />
<glyph unicode="&#xe087;" d="M 440,208c-40-40-40-80-80-80s-80,40-120,80s-80,80-80,120s 40,40, 80,80S 160,568, 120,568S0,448,0,448c0-80, 82.188-242.188, 160-320
	s 240-160, 320-160c0,0, 120,80, 120,120S 480,248, 440,208z" data-tags="phone, contact, telephone, support, call" />
<glyph unicode="&#xe088;" d="M 200,368L 280,368L 280,288L 200,288zM 320,368L 400,368L 400,288L 320,288zM 440,368L 520,368L 520,288L 440,288zM 80,128L 160,128L 160,48L 80,48zM 200,128L 280,128L 280,48L 200,48zM 320,128L 400,128L 400,48L 320,48zM 200,248L 280,248L 280,168L 200,168zM 320,248L 400,248L 400,168L 320,168zM 440,248L 520,248L 520,168L 440,168zM 80,248L 160,248L 160,168L 80,168zM 520,608l0-40 l-80,0 L 440,608 L 160,608 l0-40 L 80,568 L 80,608 L0,608 l0-640 l 600,0 L 600,608 L 520,608 z M 560,8L 40,8 L 40,448 l 520,0 L 560,8 z" data-tags="calendar, schedule, date, time, day" />
<glyph unicode="&#xe01e;" d="M 460,608L 180,608 c-33,0-60-27-60-60l0-520 c0-33, 27-60, 60-60l 280,0 c 33,0, 60,27, 60,60L 520,548 C 520,581, 493,608, 460,608z M 240,578
	l 160,0 l0-20 L 240,558 L 240,578 z M 320,8c-22.091,0-40,17.909-40,40s 17.909,40, 40,40s 40-17.909, 40-40S 342.091,8, 320,8z M 480,128L 160,128 L 160,528 l 320,0 L 480,128 
	z" data-tags="mobile, phone, handheld" />
<glyph unicode="&#xe089;" d="M 480,608L 120,608 C 98,608, 80,590.001, 80,568l0-560 c0-22, 17.999-40, 40-40l 360,0 c 22,0, 40,18, 40,40L 520,568 C 520,590.001, 502,608, 480,608z
	 M 300-3.114c-17.183,0-31.114,13.931-31.114,31.114s 13.931,31.114, 31.114,31.114s 31.114-13.931, 31.114-31.114
	S 317.183-3.114, 300-3.114z M 480,88L 120,88 L 120,528 l 360,0 L 480,88 z" data-tags="mobile, phone, handheld" />
<glyph unicode="&#xe08a;" d="M 500,608L 100,608 C 67,608, 40,581, 40,548l0-520 c0-33, 27-60, 60-60l 400,0 c 33,0, 60,27, 60,60L 560,548 C 560,581, 533,608, 500,608z M 300-12
	c-11.045,0-20,8.954-20,20s 8.955,20, 20,20s 20-8.954, 20-20S 311.045-12, 300-12z M 480,48L 120,48 L 120,528 l 360,0 L 480,48 z" data-tags="tablet, mobile" />
<glyph unicode="&#xe08b;" d="M 440,488L 200,488 L0,248l0-160 c0-22.091, 17.909-40, 40-40l 560,0 c 22.093,0, 40,17.909, 40,40L 640,248 L 440,488z M 400,168L 240,168 l-40,40l 240,0 
		L 400,168z M 52.069,248l 166.666,200l 202.53,0 l 166.666-200L 52.069,248 zM 178.102,368L 461.897,368L 428.564,408L 211.435,408 	zM 111.436,288L 528.565,288L 495.231,328L 144.769,328 	z" data-tags="drawer, inbox, box, archive, storage, category" />
<glyph unicode="&#xe08c;" d="M 561.56,608 L 603.587,250.775 L 556.413,245.225 L 518.88,564.25 L 121.12,564.25 L 83.588,245.225 L 36.413,250.775 L 78.439,608 ZM 160,528L 480,528L 480,488L 160,488zM 160,448L 480,448L 480,408L 160,408zM 160,368L 480,368L 480,328L 160,328zM 160,288L 480,288L 480,248L 160,248zM 620,208L 20,208 c-11,0-17.154-8.537-13.675-18.974L 73.675-13.026C 77.154-23.462, 89-32, 100-32l 440,0 
	c 11,0, 22.845,8.537, 26.325,18.974l 67.351,202.054C 637.155,199.463, 631,208, 620,208z M 400,128L 240,128 l0,40 l 160,0 L 400,128 z" data-tags="drawer, inbox, box, archive, storage, category" />
<glyph unicode="&#xe08d;" d="M 300,528 C 268.334,528 237.761,523.031 209.134,513.233 C 182.306,504.049 158.438,491.085 138.195,474.704 C 100.668,444.335 80,405.452 80,365.22 C 80,342.726 86.291,320.877 98.7,300.284 C 111.629,278.821 131.136,259.163 155.113,243.435 C 174.137,230.955 186.947,210.965 190.339,188.466 C 190.903,184.722 191.358,180.962 191.701,177.196 C 193.403,178.771 195.091,180.392 196.773,182.067 C 211.859,197.092 232.202,205.388 253.224,205.388 C 256.566,205.388 259.923,205.178 263.283,204.751 C 275.382,203.219 287.735,202.441 300,202.441 C 331.666,202.441 362.238,207.409 390.865,217.209 C 417.694,226.391 441.563,239.355 461.805,255.736 C 499.334,286.105 520,324.988 520,365.22 C 520,405.452 499.334,444.334 461.805,474.704 C 441.563,491.086 417.694,504.049 390.865,513.233 C 362.238,523.031 331.666,528 300,528 Z M 300,608 L 300,608 C 465.685,608 600,499.304 600,365.22 C 600,231.136 465.685,122.44 300,122.44 C 284.089,122.44 268.471,123.453 253.229,125.384 C 188.787,61.2 114.371,49.691 40,48 L 40,63.709 C 80.157,83.305 112.5,119 112.5,159.793 C 112.5,165.484 112.055,171.073 111.231,176.539 C 43.383,221.048 0,289.031 0,365.22 C 0,499.304 134.315,608 300,608 ZM 622.5,63.821 C 622.5,28.857 645.196-1.74 680-18.536 L 680-32 C 615.546-30.551 556.384-20.686 500.536,34.329 C 487.324,32.673 473.79,31.804 460,31.804 C 400.331,31.804 345.37,47.903 301.491,74.954 C 391.912,75.27 477.279,104.238 542.013,156.624 C 574.643,183.031 600.384,214.015 618.521,248.716 C 637.75,285.507 647.5,324.705 647.5,365.22 C 647.5,371.75 647.219,378.242 646.714,384.7 C 692.070,347.241 720,296.186 720,239.902 C 720,174.598 682.401,116.326 623.6,78.175 C 622.886,73.49 622.5,68.7 622.5,63.821 Z" horiz-adv-x="720" data-tags="bubbles, comments, chat, talk" />
<glyph unicode="&#xe08e;" d="M 300,608 L 300,608 C 465.685,608 600,499.304 600,365.22 C 600,231.136 465.685,122.44 300,122.44 C 284.089,122.44 268.471,123.453 253.229,125.384 C 188.787,61.2 114.371,49.691 40,48 L 40,63.709 C 80.157,83.305 112.5,119 112.5,159.793 C 112.5,165.484 112.055,171.073 111.231,176.539 C 43.383,221.048 0,289.031 0,365.22 C 0,499.304 134.315,608 300,608 ZM 622.5,63.821 C 622.5,28.857 645.196-1.74 680-18.536 L 680-32 C 615.546-30.551 556.384-20.686 500.536,34.329 C 487.324,32.673 473.79,31.804 460,31.804 C 400.331,31.804 345.37,47.903 301.491,74.954 C 391.912,75.27 477.279,104.238 542.013,156.624 C 574.643,183.031 600.384,214.015 618.521,248.716 C 637.75,285.507 647.5,324.705 647.5,365.22 C 647.5,371.75 647.219,378.242 646.714,384.7 C 692.070,347.241 720,296.186 720,239.902 C 720,174.598 682.401,116.326 623.6,78.175 C 622.886,73.49 622.5,68.7 622.5,63.821 Z" horiz-adv-x="720" data-tags="bubbles, comments, chat, talk" />
<glyph unicode="&#xe08f;" d="M 680,44.771 C 680,16.334 696.268-8.296 720-20.344 L 720-30.305 C 713.359-31.214 706.58-31.695 699.688-31.695 C 657.183-31.695 618.845-13.865 591.736,14.72 C 575.348,10.356 557.985,8 540,8 C 440.589,8 360,79.635 360,168 C 360,256.365 440.589,328 540,328 C 639.411,328 720,256.365 720,168 C 720,133.408 707.648,101.38 686.653,75.209 C 682.387,65.944 680,55.639 680,44.771 ZM 320,608 C 494.036,608 635.62,495.116 639.898,354.55 C 609.159,368.25 575.156,375.5 540,375.5 C 480.275,375.5 423.865,354.596 381.164,316.639 C 336.885,277.281 312.5,224.493 312.5,168 C 312.5,140.080 318.465,113.070 329.835,88.132 C 326.567,88.054 323.293,88 320,88 C 303.027,88 286.369,89.084 270.11,91.153 C 201.374,22.416 119.329,10.090 40,8.28 L 40,25.102 C 82.835,46.089 120,84.315 120,128 C 120,134.096 119.526,140.081 118.648,145.935 C 46.275,193.6 0,266.406 0,348 C 0,491.594 143.269,608 320,608 Z" horiz-adv-x="720" data-tags="bubbles, comments, chat, talk" />
<glyph unicode="&#xe090;" d="M 320,568 C 496.731,568 640,451.594 640,308 C 640,164.405 496.731,48 320,48 C 303.027,48 286.369,49.084 270.11,51.153 C 201.374-17.584 119.329-29.91 40-31.72 L 40-14.898 C 82.835,6.089 120,44.315 120,88 C 120,94.096 119.526,100.081 118.648,105.935 C 46.275,153.6 0,226.406 0,308 C 0,451.594 143.269,568 320,568 Z" data-tags="bubble, comment, chat, talk" />
<glyph unicode="&#xe091;" d="M 476.164-32C 547.242,96.77, 559.219,293.191, 280,286.64L 280,128 L 40,368L 280,608l0-155.233 
	C 614.351,461.481, 651.606,157.634, 476.164-32z" data-tags="undo, arrow, left" />
<glyph unicode="&#xe092;" d="M 360,452.767L 360,608 l 240-240L 360,128L 360,286.64 C 80.781,293.191, 92.758,96.77, 163.837-32
	C-11.607,157.634, 25.65,461.481, 360,452.767z" data-tags="redo, arrow, right" />
<glyph unicode="&#xe093;" d="M 163.837,608C 92.758,479.23, 80.781,282.81, 360,289.36L 360,448 l 240-240L 360-32L 360,123.232 C 25.65,114.519-11.607,418.366, 163.837,608z" data-tags="forward, arrow, right" />
<glyph unicode="&#xe094;" d="M 280,123.232L 280-32 L 40,208l 240,240l0-158.64 C 559.219,282.81, 547.242,479.23, 476.164,608
	C 651.607,418.366, 614.351,114.519, 280,123.232z" data-tags="reply, arrow, left" />
<glyph unicode="&#xe095;" d="M 389.266,168.79c-13.819,2.199-14.134,40.196-14.134,40.196s 40.605,40.198, 49.455,94.251
	c 23.806,0, 38.511,57.466, 14.701,77.685C 440.283,402.206, 469.889,548, 320,548c-149.889,0-120.281-145.794-119.29-167.078
	c-23.809-20.219-9.106-77.685, 14.701-77.685c 8.849-54.054, 49.455-94.251, 49.455-94.251s-0.315-37.998-14.134-40.196
	C 206.22,161.707, 40,88.394, 40,8l 280,0 l 280,0 C 600,88.394, 433.78,161.707, 389.266,168.79z" data-tags="user, profile, avatar, person, talk, member" />
<glyph unicode="&#xe096;" d="M 459.371,104.641c-11.845,1.867-12.115,34.159-12.115,34.159s 34.805,34.16, 42.39,80.095
	c 20.407,0, 33.009,48.836, 12.603,66.017c 0.851,18.088, 26.23,141.985-102.249,141.985c-128.477,0-103.099-123.897-102.249-141.985
	c-20.409-17.181-7.805-66.017, 12.601-66.017c 7.584-45.935, 42.391-80.095, 42.391-80.095s-0.27-32.291-12.115-34.159
	C 302.474,98.621, 160,36.319, 160-32l 240,0 l 240,0 C 640,36.319, 497.526,98.621, 459.371,104.641zM 215.034,93.744c 27.559,16.969, 61.016,32.693, 88.461,42.14c-9.845,14.020-20.809,33.085-27.706,55.664
	c-9.629,7.854-17.465,19.082-22.499,32.876c-5.041,13.815-6.951,29.282-5.38,43.552c 1.127,10.245, 4.049,19.791, 8.531,28.18
	c-2.719,29.116-4.634,86.271, 32.78,127.957c 14.509,16.166, 32.847,27.788, 54.813,34.804C 340.112,499.393, 319.559,546.899, 240,546.899
	c-128.477,0-103.099-123.897-102.249-141.985c-20.409-17.181-7.805-66.017, 12.601-66.017c 7.584-45.935, 42.391-80.095, 42.391-80.095
	s-0.27-32.291-12.115-34.159C 142.474,218.621,0,156.319,0,88l 205.998,0 C 208.941,89.921, 211.939,91.837, 215.034,93.744z" data-tags="users, people, group, team, members, community" />
<glyph unicode="&#xe097;" d="M 40,248 L 280,248 L 280,8 L 193.588,94.413 L 67.337-31.837 L 0.163,35.337 L 126.412,161.587 ZM 513.587,161.587 L 639.837,35.337 L 572.663-31.837 L 446.413,94.413 L 360,8 L 360,248 L 600,248 ZM 600,328 L 360,328 L 360,568 L 446.413,481.588 L 572.663,607.837 L 639.837,540.663 L 513.587,414.412 ZM 193.588,481.588 L 280,568 L 280,328 L 40,328 L 126.412,414.412 L 0.163,540.663 L 67.337,607.837 Z" data-tags="contract, minimize, shrink, collapse" />
<glyph unicode="&#xe098;" d="M 640,608 L 640,348 L 540,448 L 420,328 L 360,388 L 480,508 L 380,608 ZM 280,188 L 160,68 L 260-32 L 0-32 L 0,228 L 100,128 L 220,248 Z" data-tags="expand, enlarge, maximize, fullscreen" />
<glyph unicode="&#xe099;" d="M 640,608 L 640,368 L 553.587,454.412 L 421.087,321.913 L 353.913,389.088 L 486.413,521.588 L 400,608 ZM 153.588,521.588 L 286.087,389.088 L 218.912,321.913 L 86.412,454.412 L 0,368 L 0,608 L 240,608 ZM 553.587,121.587 L 640,208 L 640-32 L 400-32 L 486.413,54.413 L 353.913,186.913 L 421.087,254.087 ZM 286.087,186.913 L 153.588,54.413 L 240-32 L 0-32 L 0,208 L 86.412,121.587 L 218.912,254.087 Z" data-tags="expand, enlarge, maximize, fullscreen" />
<glyph unicode="&#xe09a;" d="M 505.632,351.936L 448,351.936 l0,44.8 c0,92.704-42.688,147.2-128,147.2c-85.28,0-128-54.496-128-147.2l0-44.8 L 128,351.936 c-17.664,0-32-20.704-32-38.4l0-249.6 
		c0-17.6, 13.728-36.448, 30.464-41.824l 38.272-12.384c 16.736-5.408, 44.832-9.824, 62.464-9.824l 185.6,0 c 17.6,0, 45.728,4.416, 62.464,9.824l 38.272,12.384
		C 530.304,27.488, 544,46.336, 544,63.936l0,249.6 C 544,331.232, 523.296,351.936, 505.632,351.936z M 256,409.536c0,46.24, 25.536,70.4, 64,70.4
		c 38.496,0, 64-24.16, 64-70.4l0-57.6 L 256,351.936 L 256,409.536 z" data-tags="lock, password, encrypted, secure" />
<glyph unicode="&#xe09b;" d="M 505.6,352L 448,352 L 448,428.8 C 448,521.504, 405.28,576, 320,576C 234.688,576, 192,521.504, 192,428.8L 192,416 l 64,0 L 256,441.6 C 256,487.84, 281.504,512, 320,512c 38.464,0, 64-24.16, 64-70.4L 384,352 L 128,352 
		C 110.304,352, 96,331.296, 96,313.6L 96,64 c0-17.6, 13.728-36.416, 30.464-41.824l 38.272-12.384C 181.504,4.416, 209.6,0, 227.2,0l 185.6,0 
		c 17.632,0, 45.728,4.416, 62.464,9.824l 38.272,12.384C 530.272,27.584, 544,46.4, 544,64L 544,313.6 C 544,331.296, 523.296,352, 505.6,352z" data-tags="lock-open, unlocked" />
<glyph unicode="&#xe09c;" d="M 583.619,226.594c-33.579,58.159-13.385,132.69, 45.095,166.555l-62.891,108.933c-17.969-10.534-38.86-16.574-61.154-16.574
	c-67.21,0-121.692,54.841-121.692,122.494L 257.19,608.001 c 0.166-20.881-5.046-42.051-16.224-61.407
	c-33.578-58.16-108.222-77.939-166.789-44.224L 11.287,393.437c 18.106-10.295, 33.781-25.367, 44.929-44.674
	c 33.524-58.068, 13.445-132.45-44.817-166.39l 62.891-108.933c 17.906,10.435, 38.697,16.409, 60.875,16.409
	c 66.998,0, 121.34-54.495, 121.688-121.849l 125.784,0 c-0.054,20.671, 5.17,41.606, 16.229,60.761
	c 33.523,58.066, 107.985,77.871, 166.509,44.383l 62.891,108.931C 610.277,192.368, 594.707,207.387, 583.619,226.594z M 320,158.418
	c-71.567,0-129.585,58.015-129.585,129.584c0,71.567, 58.016,129.584, 129.585,129.584c 71.567,0, 129.582-58.016, 129.582-129.584
	C 449.581,216.433, 391.567,158.418, 320,158.418z" data-tags="cog, preferences, settings, gear, generate, control, options" />
<glyph unicode="&#xe09d;" d="M 227.326,156.717l 25.811,36.135l-28.284,28.285l-36.136-25.81c-6.701,3.746-13.878,6.734-21.416,8.87L 160,248L 120,248 
		l-7.3-43.804c-7.539-2.136-14.715-5.124-21.416-8.87L 55.148,221.137L 26.862,192.853l 25.811-36.135
		c-3.746-6.7-6.734-13.879-8.87-21.416L0,128l0-40 l 43.804-7.301c 2.136-7.538, 5.124-14.715, 8.87-21.416L 26.862,23.148l 28.284-28.285
		l 36.136,25.81c 6.701-3.746, 13.878-6.734, 21.416-8.87L 120-32l 40,0 l 7.3,43.804c 7.539,2.136, 14.715,5.124, 21.416,8.87l 36.136-25.81
		l 28.284,28.285l-25.811,36.135c 3.746,6.7, 6.734,13.879, 8.87,21.416L 280,88l0,40 l-43.804,7.301
		C 234.060,142.839, 231.072,150.016, 227.326,156.717z M 140,68c-22.093,0-40,17.909-40,40s 17.907,40, 40,40s 40-17.909, 40-40
		S 162.093,68, 140,68zM 640,368l0,40 l-42.114,7.656c-0.776,5.029-1.77,9.986-2.953,14.869l 35.974,23.188L 615.6,490.668l-41.84-9.043
		c-2.634,4.319-5.454,8.512-8.433,12.581l 24.379,35.214l-28.285,28.284l-35.214-24.379c-4.070,2.979-8.263,5.797-12.581,8.434
		l 9.043,41.84L 485.714,598.908l-23.188-35.974c-4.883,1.182-9.84,2.176-14.869,2.953L 440,608l-40,0 l-7.658-42.114
		c-5.029-0.776-9.985-1.77-14.869-2.953L 354.288,598.908L 317.333,583.6l 9.043-41.84c-4.319-2.635-8.512-5.455-12.581-8.434
		l-35.214,24.379l-28.284-28.284l 24.379-35.214c-2.979-4.069-5.799-8.263-8.434-12.581l-41.84,9.043l-15.308-36.955l 35.974-23.188
		c-1.182-4.883-2.176-9.839-2.953-14.869L 200,408l0-40 l 42.114-7.656c 0.776-5.029, 1.77-9.986, 2.953-14.869l-35.974-23.188
		l 15.308-36.955l 41.84,9.043c 2.635-4.319, 5.455-8.511, 8.434-12.581l-24.379-35.214l 28.284-28.285l 35.214,24.379
		c 4.069-2.979, 8.263-5.797, 12.581-8.433l-9.043-41.84l 36.955-15.308l 23.189,35.974c 4.881-1.182, 9.839-2.176, 14.867-2.953L 400,168l 40,0 
		l 7.658,42.114c 5.027,0.776, 9.985,1.77, 14.869,2.953l 23.188-35.974l 36.955,15.308l-9.043,41.84
		c 4.319,2.635, 8.512,5.454, 12.581,8.433l 35.214-24.379l 28.285,28.285l-24.379,35.214c 2.979,4.070, 5.797,8.263, 8.433,12.581
		l 41.84-9.043l 15.308,36.956l-35.974,23.188c 1.182,4.883, 2.176,9.839, 2.953,14.869L 640,368z M 420,301
		c-48.049,0-87,38.951-87,87c0,48.049, 38.95,87, 87,87s 87-38.951, 87-87C 507,339.951, 468.050,301, 420,301z" data-tags="cogs, settings, gears, generate, control, options" />
<glyph unicode="&#xe09e;" d="M 280,248L 280,528 C 125.36,528,0,402.64,0,248s 125.36-280, 280-280s 280,125.36, 280,280c0,45.021-10.642,87.553-29.522,125.239
		L 280,248zM 570.477,453.239C 524.507,544.999, 429.619,608, 320,608l0-280 L 570.477,453.239z" data-tags="pie, statistics, stats, chart, graph" />
<glyph unicode="&#xe09f;" d="M0,88L 640,88L 640,8L0,8zM 80,248L 160,248L 160,128L 80,128zM 200,408L 280,408L 280,128L 200,128zM 320,288L 400,288L 400,128L 320,128zM 440,528L 520,528L 520,128L 440,128z" data-tags="bars, statistics, stats, chart, graph" />
<glyph unicode="&#xe0a0;" d="M 640,384.153 C 640,330.176 616.739,281.634 579.694,248 L 580,248 L 380,48 C 360,28 340,8 320,8 C 300,8 280,28 260,48 L 60,248 L 60.306,248 C 23.261,281.634 0,330.176 0,384.153 C 0,485.689 82.311,568 183.847,568 C 237.824,568 286.366,544.739 320,507.694 C 353.634,544.739 402.176,568 456.153,568 C 557.688,568 640,485.689 640,384.153 Z" data-tags="heart, like, love, favorite" />
<glyph unicode="&#xe0a1;" d="M 640,384.153C 640,485.689, 557.688,568, 456.153,568C 402.176,568, 353.634,544.739, 320,507.694C 286.366,544.739, 237.824,568, 183.847,568
	C 82.311,568,0,485.689,0,384.153C0,330.176, 23.261,281.634, 60.306,248L 60,248 l 200-200c 20-20, 40-40, 60-40s 40,20, 60,40l 200,200l-0.306,0 
	C 616.739,281.634, 640,330.176, 640,384.153z M 525.918,307.23L 323.431,104.569c-1.049-1.049-2.208-2.208-3.431-3.425
	c-1.225,1.219-2.384,2.376-3.431,3.425L 114.083,307.229C 92.104,327.184, 80,354.502, 80,384.153C 80,441.414, 126.586,488, 183.847,488
	c 29.65,0, 56.969-12.104, 76.922-34.082L 320,388.68l 59.23,65.236C 399.185,475.896, 426.502,488, 456.153,488
	C 513.414,488, 560,441.414, 560,384.153C 560,354.502, 547.895,327.184, 525.918,307.23z" data-tags="heart, like, love, favorite" />
<glyph unicode="&#xe0a2;" d="M 533.339,608L 106.679,608 C 48.008,608,0,559.994,0,501.319l0-426.639 C0,15.969, 48.008-32, 106.679-32l 426.66,0 
	C 592.011-32, 640,15.969, 640,74.681L 640,501.319 C 640,559.994, 592.011,608, 533.339,608z M 523.783,394.354
	c 0.205-4.589, 0.306-9.205, 0.306-13.842c0-141.384-105.76-304.418-299.161-304.418c-59.378,0-114.646,17.718-161.179,48.074
	c 8.225-0.993, 16.595-1.496, 25.081-1.496c 49.264,0, 94.599,17.106, 130.584,45.801c-46.010,0.862-84.84,31.797-98.221,74.301
	c 6.421-1.25, 13.008-1.921, 19.782-1.921c 9.59,0, 18.879,1.31, 27.7,3.755c-48.1,9.832-84.344,53.072-84.344,104.91
	c0,0.451,0,0.899, 0.010,1.345c 14.175-8.012, 30.39-12.825, 47.625-13.381c-28.214,19.186-46.776,51.932-46.776,89.055
	c0,19.606, 5.184,37.986, 14.236,53.786c 51.859-64.731, 129.335-107.325, 216.721-111.789c-1.794,7.832-2.724,15.998-2.724,24.384
	c0,59.086, 47.079,106.988, 105.144,106.988c 30.244,0, 57.574-12.991, 76.751-33.786c 23.95,4.798, 46.453,13.7, 66.77,25.964
	c-7.851-24.985-24.521-45.951-46.229-59.194c 21.266,2.586, 41.532,8.338, 60.388,16.846C 562.156,428.282, 544.329,409.437, 523.783,394.354
	z" data-tags="twitter, tweet, social" />
<glyph unicode="&#xe0a3;" d="M 533.337,608L 106.679,608 C 48.006,608,0,559.992,0,501.32l0-426.643 C0,15.969, 48.008-32, 106.68-32L 533.337-32 
	c 58.672,0, 106.662,47.968, 106.662,106.677L 640,501.32 C 640,559.992, 592.010,608, 533.337,608z M 174.34,88.47C 144.359,88.47, 120,112.652, 120,142.613
	c0,29.802, 24.358,54.258, 54.34,54.258c 30.099,0, 54.413-24.455, 54.413-54.258C 228.751,112.652, 204.438,88.47, 174.34,88.47z
	 M 310.918,88.003c0,51.131-19.88,99.261-55.912,135.278c-36.071,36.094-83.985,56.016-134.94,56.016L 120.065,357.537 
	c 148.532,0, 269.454-120.901, 269.454-269.534L 310.918,88.003L 310.918,88.003z M 449.768,88.003
	c0,181.914-147.911,329.963-329.61,329.963L 120.157,496.245 c 225.001,0, 408.091-183.203, 408.091-408.245L 449.768,88.003L 449.768,88.003z" data-tags="feed, rss, social" />
<glyph unicode="&#xe0a4;" d="M 320,608C 143.269,608,0,464.731,0,288s 143.269-320, 320-320s 320,143.269, 320,320S 496.731,608, 320,608z M 200,128
	c-22.091,0-40,17.909-40,40s 17.909,40, 40,40s 40-17.909, 40-40S 222.091,128, 200,128z M 310,128c0,82.71-67.29,150-150,150l0,60 
	c 115.795,0, 210-94.205, 210-210L 310,128 z M 430,128c0,72.119-28.085,139.923-79.081,190.919C 299.923,369.915, 232.12,398, 160,398l0,60 
	c 88.146,0, 171.016-34.326, 233.346-96.655C 455.674,299.016, 490,216.146, 490,128L 430,128 z" data-tags="feed, rss, social" />
<glyph unicode="&#xe0a5;" d="M 520,528L 120,528 c-66,0-120-54-120-120l0-240 c0-66, 54-120, 120-120l 400,0 c 66,0, 120,54, 120,120L 640,408 C 640,474, 586,528, 520,528z
	 M 240,128L 240,448 l 200-160L 240,128z" data-tags="youtube, social" />
<glyph unicode="&#xe0a6;" d="M 520,528L 120,528 c-66,0-120-54-120-120l0-240 c0-66, 54-120, 120-120l 400,0 c 66,0, 120,54, 120,120L 640,408 C 640,474, 586,528, 520,528z
		 M 600,168c0-21.236-8.359-41.289-23.534-56.466C 561.289,96.359, 541.237,88, 520,88L 120,88 c-21.236,0-41.289,8.359-56.465,23.534
		C 48.359,126.711, 40,146.764, 40,168L 40,408 c0,21.236, 8.359,41.289, 23.535,56.465S 98.764,488, 120,488l 400,0 
		c 21.236,0, 41.289-8.359, 56.466-23.535C 591.643,449.289, 600,429.236, 600,408L 600,168 zM 240,128L 440,288L 240,448 	z" data-tags="youtube, social" />
<glyph unicode="&#xe0a7;" d="M 533.362,608L 106.68,608 C 48.006,608, 0.001,559.991, 0.001,501.321l0-426.641 C 0.001,15.969, 48.006-32, 106.68-32L 533.362-32 
	C 592.031-32, 640,15.969, 640,74.68L 640,501.323 C 639.995,559.991, 592.026,608, 533.362,608z M 457.322,92.57
	c-18.845-8.867-35.955-15.117-51.25-18.711c-15.31-3.556-31.85-5.349-49.626-5.349c-20.195,0-32.11,2.536-47.617,7.618
	c-15.505,5.118-28.75,12.42-39.688,21.795c-10.974,9.455-18.554,19.499-22.791,30.121c-4.24,10.628-6.348,26.058-6.348,46.253L 240.002,329.173 
	l-59.997,0 l0,62.541 c 17.34,5.625, 37.46,13.709, 49.802,24.219c 12.4,10.545, 22.324,23.161, 29.802,37.927
	c 7.502,14.729, 12.656,33.516, 15.47,56.291l 62.813,0 L 337.893,408 L 440,408 l0-78.829 l-102.111,0 l0-113.242 c0-25.625-0.33-40.391, 2.385-47.656
	c 2.695-7.225, 9.454-14.725, 16.814-19.063c 9.785-5.86, 20.94-8.787, 33.516-8.787c 22.366,0, 44.611,7.266, 66.719,21.797L 457.322,92.57 
	L 457.322,92.57z" data-tags="tumblr, social" />
<glyph unicode="&#xe0a8;" d="M 533.34,608L 106.677,608 C 48.008,608,0,559.991,0,501.32l0-426.641 C0,15.967, 48.008-32, 106.677-32l 426.662,0.001
	c 58.672,0, 106.66,47.966, 106.66,106.68L 640,501.32 C 640,559.991, 592.011,608, 533.34,608z M 544.12,288L 440,288 l0-280 l-120,0 L 320,288 l-57.829,0 l0,91.602 L 320,379.603 
	l0,59.491 C 320,519.933, 354.87,568, 449.919,568l 109.528,0 l0-99.106 l-89.456,0 c-26.551,0.044-29.845-13.845-29.845-39.695L 440,379.603l 120,0 
	L 544.12,288z" data-tags="facebook, social" />
<glyph unicode="&#xe0a9;" d="M 0.504,64.46c-0.152,1.583-0.283,3.169-0.365,4.769C 0.22,67.629, 0.351,66.043, 0.504,64.46zM 147.442,254.782c 57.506-1.711, 96.084,57.936, 86.164,133.249c-9.934,75.3-64.623,135.73-122.13,137.451
		c-57.516,1.706-96.088-55.926-86.157-131.25C 35.245,318.94, 89.914,256.499, 147.442,254.782zM 640,448L 640,501.319 C 640,559.994, 592.011,608, 533.339,608L 106.679,608 C 49.006,608, 1.671,561.605, 0.076,504.296
		c 36.476,32.116, 87.078,58.948, 139.296,58.948c 55.815,0, 223.278,0, 223.278,0l-49.967-42.261l-70.793,0 
		c 46.956-18.002, 71.972-72.578, 71.972-128.576c0-47.030-26.131-87.471-63.055-116.23c-36.027-28.064-42.858-39.817-42.858-63.674
		c0-20.361, 38.591-55, 58.77-69.242c 58.989-41.586, 78.072-80.195, 78.072-144.66c0-10.268-1.276-20.519-3.791-30.6l 192.339,0 
		C 592.011-32, 640,15.969, 640,74.681L 640,407.999 l-120,0 L 520,288 l-40,0 l0,120 l-119.999,0 l0,40 L 480,448 L 480,568 l 40,0 l0-120 L 640,448 zM 116.179,129.29c 13.509,0, 25.889,0.369, 38.71,0.369c-16.966,16.459-30.391,36.625-30.391,61.487
		c0,14.755, 4.728,28.96, 11.334,41.575c-6.739-0.481-13.619-0.621-20.704-0.621c-46.472,0-85.941,15.047-115.127,39.909l0-42.026 
		l 0.004-126.081C 33.404,119.76, 73.059,129.29, 116.179,129.29zM 2.138,53.464c-0.695,3.411-1.229,6.879-1.589,10.396C 0.907,60.342, 1.442,56.875, 2.138,53.464zM 284.656,12.471c-9.411,36.754-42.784,54.977-89.305,87.23c-16.92,5.457-35.559,8.671-55.559,8.88
		c-56.011,0.603-108.192-21.839-137.635-55.233C 12.107,4.783, 55.304-32, 106.679-32l 179.028,0 c 1.135,6.955, 1.685,14.145, 1.685,21.52
		C 287.391-2.646, 286.433,5.015, 284.656,12.471z" data-tags="google plus, social" />
<glyph unicode="&#xe0aa;" d="M 37.836,608l 51.34-576.019L 319.649-32l 231.077,64.078L 602.164,608L 37.836,608 z M 490.394,419.608l-0.244,0 L 220.056,419.608 l 6.439-72.344
	L 483.975,347.264 l-19.401-216.881L 319.988,90.273l-0.144-0.049l-0.096,0 l-0.076,0 l-144.733,40.159l-9.894,110.945l 70.934,0 l 5.030-56.395
	l 78.664-21.197l 0.174,0.049l 78.709,21.245l 8.169,91.594L 161.886,276.623 L 142.827,490.248l 353.884,0 L 490.394,419.608z" data-tags="html5, w3c" />
<glyph unicode="&#xe0ab;" d="M 37.836,608l 51.34-576.019L 319.649-32l 231.077,64.078L 602.164,608L 37.836,608 z M 506.726,68.735L 320.96,17.25l0-0.291 
		l-0.485,0.146l-0.489-0.146L 319.986,17.25 l-185.764,51.485L 90.321,560.914l 460.31,0 L 506.726,68.735zM 406.721,276.623L 398.553,185.028L 319.842,163.782L 319.671,163.734L 241.008,184.931L 235.976,241.327L 165.045,241.327L 174.939,130.382L 319.671,90.224L 319.746,90.224L 319.842,90.224L 319.986,90.273L 464.575,130.382L 483.975,347.265L 226.496,347.265L 220.058,419.608L 490.146,419.608L 490.391,419.608L 496.711,490.249L 142.825,490.249L 161.886,276.623 	z" data-tags="html5, w3c" />
</font>
</defs>
</svg>
