<?xml version="1.0" encoding="utf-8"?>
<!-- Generator: Adobe Illustrator 14.0.0, SVG Export Plug-In . SVG Version: 6.00 Build 43363)  -->
<!DOCTYPE svg PUBLIC "-//W3C//DTD SVG 1.1//EN" "http://www.w3.org/Graphics/SVG/1.1/DTD/svg11.dtd">
<svg version="1.1" id="Calque_1" xmlns="http://www.w3.org/2000/svg" xmlns:xlink="http://www.w3.org/1999/xlink" x="0px" y="0px"
	 width="64px" height="64px" viewBox="0 0 64 64" enable-background="new 0 0 64 64" xml:space="preserve">
<g>
	<path fill="#B2B2B2" d="M41.158,11.163c-0.389-4.33-2.432-7.519-6.535-9.221c-1.829-0.754-3.748-1.085-5.702-1.108
		c-1.954,0.023-3.874,0.354-5.702,1.108c-4.102,1.703-6.147,4.891-6.536,9.221c-0.057,0.641-0.011,1.269-0.011,1.908
		c0.034,4.502,1.051,8.787,2.822,12.912c0.892,2.057,2.205,3.816,3.771,5.404c1.623,1.646,3.634,2.434,5.656,2.354
		c2.022,0.08,4.033-0.708,5.657-2.354c1.564-1.588,2.879-3.349,3.77-5.404c1.771-4.125,2.789-8.41,2.822-12.912
		C41.17,12.432,41.217,11.804,41.158,11.163z"/>
	<path fill="#B2B2B2" d="M42.213,60.926c-2.855,0.335-5.723,0.518-8.598,0.618c-0.708,0.03-1.408,0.041-2.117,0.061
		c0,0-5.63-0.03-6.329-0.061c-3.686-0.142-7.362-0.395-10.987-0.901c-3.717-0.516-7.393-1.296-11.008-2.471
		c-0.507-0.162-1.003-0.344-1.499-0.557c-1.995-0.841-1.69-0.436-1.61-2.491c0.011-0.354,0.021-0.719,0.031-1.094
		c0.142-2.866,0.385-5.731,1.285-8.496c0.284-0.881,0.607-1.813,1.175-2.512c0.03-0.051,0.071-0.091,0.111-0.141
		c0.588-0.689,1.388-1.367,2.208-1.601c2.451-0.658,4.892-1.286,7.352-1.903c0,0,0,0,0.011,0c2.866-0.729,5.742-1.438,8.628-2.157
		c0.183-0.051,0.386-0.041,0.709-0.061c0.041,0.151,0.071,0.283,0.111,0.436c0.568,2.065,1.094,4.151,1.722,6.197
		c0.771,2.451,1.61,4.871,2.461,7.291c0.102,0.264,0.223,0.526,0.354,0.78c0.294-2.178,0.76-5.731,1.022-7.757
		c0.122-0.881,0.183-1.469,0.183-1.52c-0.122-0.313-0.243-0.607-0.385-0.9c-0.011-0.041-0.021-0.062-0.052-0.092
		c-0.061-0.162-0.141-0.344-0.212-0.506c-0.021-0.041-0.061-0.091-0.081-0.142c-0.011-0.021-0.02-0.04-0.03-0.061
		c-0.132-0.223-0.253-0.456-0.253-0.75c0-0.131,0.03-0.263,0.07-0.374c0.011-0.254,0.091-0.456,0.253-0.607
		c0-0.011,0.011-0.031,0.021-0.041l0.02-0.011c0.011-0.05,0.011-0.07,0.031-0.081c0.151-0.232,0.323-0.273,0.445-0.304h0.172
		c0.071-0.03,0.121-0.03,0.172-0.03c0.264-0.02,0.952-0.02,1.792-0.02c0.852,0,1.51,0,1.772,0.02c0.041,0,0.122,0,0.172,0.03h0.193
		c0.081,0.03,0.182,0.05,0.293,0.121c0.051,0.04,0.102,0.092,0.152,0.183c0,0.01,0.03,0.03,0.041,0.04l0.02,0.051
		c0.03,0.071,0.081,0.132,0.092,0.192c0.02,0.051,0.02,0.071,0.051,0.102l0.03,0.081c0.07,0.183,0.172,0.415,0.172,0.647
		c0,0.294-0.142,0.527-0.253,0.75c-0.03,0.061-0.071,0.142-0.111,0.203c-0.082,0.162-0.152,0.344-0.223,0.506
		c-0.021,0.04-0.041,0.091-0.052,0.121c-0.131,0.274-0.253,0.577-0.395,0.871c0,0.091,0.334,2.663,0.678,5.327
		c0.183,1.417,0.375,2.855,0.527,3.949c0.132-0.254,0.264-0.517,0.354-0.78c0.84-2.42,1.702-4.84,2.45-7.291
		c0.648-2.046,1.176-4.121,1.732-6.188c0.031-0.151,0.082-0.294,0.111-0.445c0.334,0.02,0.537,0.011,0.719,0.061
		c3.211,0.811,6.432,1.6,9.641,2.409c0.537,0.133,1.072,0.274,1.609,0.416C42.982,40.472,38.1,45.626,38.1,51.925
		C38.102,55.519,39.691,58.739,42.213,60.926z"/>
	<path fill="#B2B2B2" d="M63.328,60.298c-0.832-0.658-1.672-1.315-2.502-1.975c-0.162-0.131-0.334-0.263-0.496-0.395
		c-0.75-0.587-1.5-1.175-2.26-1.772c2.32-4.507,0.566-9.519-3.199-11.817c-3.768-2.31-8.699-1.51-11.494,1.853
		c-2.865,3.453-2.764,8.395,0.203,11.727c2.936,3.281,8.506,4.191,12.586,0.679c0.072,0.07,0.143,0.172,0.234,0.242
		c0.668,0.527,1.326,1.054,1.994,1.58c0.994,0.791,1.996,1.58,2.988,2.359c0.75,0.588,1.723,0.496,2.279-0.212
		C64.219,61.857,64.076,60.896,63.328,60.298z M50.762,58.804c-3.539,0.294-6.945-2.221-7.4-6.054
		c-0.465-3.862,2.295-7.249,6.186-7.677c3.682-0.408,7.088,2.363,7.496,6.082C57.508,54.894,54.719,58.48,50.762,58.804z"/>
</g>
</svg>
