<?xml version="1.0" encoding="utf-8"?>
<!-- Generator: Adobe Illustrator 14.0.0, SVG Export Plug-In . SVG Version: 6.00 Build 43363)  -->
<!DOCTYPE svg PUBLIC "-//W3C//DTD SVG 1.1//EN" "http://www.w3.org/Graphics/SVG/1.1/DTD/svg11.dtd">
<svg version="1.1" id="Calque_1" xmlns="http://www.w3.org/2000/svg" xmlns:xlink="http://www.w3.org/1999/xlink" x="0px" y="0px"
	 width="2000px" height="2000px" viewBox="0 0 2000 2000" enable-background="new 0 0 2000 2000" xml:space="preserve">
<path fill="#0F0D0A" stroke="#DBDADA" stroke-width="0.6535" stroke-miterlimit="10" d="M1041.536,1020.088h-81.763
	c-5.868,0-10.611-4.778-10.611-10.658v-18.683c0-5.894,4.743-10.659,10.611-10.659h81.777c5.854,0,10.611,4.765,10.611,10.659
	v18.697C1052.147,1015.31,1047.404,1020.088,1041.536,1020.088z"/>
<linearGradient id="SVGID_1_" gradientUnits="userSpaceOnUse" x1="-41.4829" y1="619.7041" x2="-41.4829" y2="620.2061" gradientTransform="matrix(27.137 0 0 27.137 2092.7231 -15814.2598)">
	<stop  offset="0" style="stop-color:#EDEAE8"/>
	<stop  offset="0" style="stop-color:#E7E3E0"/>
	<stop  offset="0.0495" style="stop-color:#D9D4D4"/>
	<stop  offset="0.144" style="stop-color:#B1ADB0"/>
	<stop  offset="0.2033" style="stop-color:#979397"/>
	<stop  offset="0.5225" style="stop-color:#F9F9F9"/>
	<stop  offset="0.5698" style="stop-color:#EAE8E9"/>
	<stop  offset="0.6605" style="stop-color:#C5C2C3"/>
	<stop  offset="0.7615" style="stop-color:#969192"/>
	<stop  offset="0.8764" style="stop-color:#8C878A"/>
	<stop  offset="1" style="stop-color:#DBDADA"/>
	<stop  offset="1" style="stop-color:#B3B2B2"/>
</linearGradient>
<path fill="url(#SVGID_1_)" d="M969.779,1004.708c0,0.102,0,0.174-0.014,0.203c0,0.028-0.015,0.043-0.043,0.015
	c-0.029-0.029-0.086-0.072-0.144-0.116s-0.159-0.072-0.303-0.072c-0.13,0-0.245,0-0.346,0.015c-0.101,0.014-0.202,0.043-0.317,0.087
	c-0.101,0.043-0.216,0.101-0.332,0.174c-0.116,0.072-0.245,0.174-0.39,0.289c-0.202,0.174-0.433,0.435-0.677,0.768
	c-0.245,0.333-0.491,0.71-0.735,1.101c-0.245,0.406-0.476,0.812-0.692,1.217s-0.418,0.782-0.577,1.101
	c-0.058,0.116-0.115,0.246-0.188,0.392c-0.072,0.145-0.129,0.304-0.173,0.448c-0.058,0.146-0.101,0.29-0.13,0.42
	c-0.029,0.131-0.058,0.218-0.058,0.29c0,0.188,0.058,0.275,0.188,0.275c0.072,0,0.159-0.044,0.26-0.116
	c0.101-0.072,0.187-0.174,0.274-0.318c0.086-0.131,0.158-0.305,0.23-0.493c0.058-0.202,0.086-0.42,0.086-0.666
	c0-0.087,0-0.145-0.014-0.202c-0.015-0.058-0.029-0.102-0.043-0.131c0-0.043,0.015-0.087,0.058-0.13
	c0.029-0.029,0.058-0.058,0.101-0.102c0.043-0.043,0.072-0.072,0.115-0.087c0.015,0,0.029,0,0.043,0.015
	c0,0.145,0.029,0.261,0.072,0.348c0.058,0.087,0.116,0.174,0.202,0.231c0.072,0.058,0.173,0.102,0.259,0.131
	c0.087,0.028,0.188,0.043,0.26,0.043c0.115,0,0.245-0.015,0.389-0.058c0.144-0.044,0.274-0.102,0.418-0.188
	c0.029-0.015,0.058-0.015,0.072,0c0.014,0.029,0,0.043-0.043,0.058c-0.216,0.116-0.418,0.203-0.605,0.261
	c-0.188,0.059-0.36,0.087-0.519,0.087c-0.129,0-0.245-0.028-0.36-0.087c-0.101-0.058-0.188-0.13-0.245-0.202
	c0,0.261-0.043,0.507-0.129,0.724c-0.087,0.218-0.188,0.392-0.317,0.551c-0.13,0.145-0.26,0.261-0.404,0.348s-0.274,0.13-0.389,0.13
	s-0.202-0.029-0.274-0.102c-0.072-0.072-0.116-0.174-0.116-0.318c0-0.116,0.029-0.246,0.072-0.405
	c0.043-0.159,0.115-0.319,0.188-0.479s0.144-0.318,0.216-0.463c0.072-0.146,0.144-0.275,0.188-0.362
	c0.187-0.348,0.389-0.695,0.605-1.058c0.216-0.361,0.447-0.724,0.678-1.071c0.245-0.348,0.49-0.695,0.75-1.028
	s0.548-0.637,0.851-0.912c0.086-0.072,0.188-0.159,0.317-0.275c0.129-0.102,0.259-0.203,0.403-0.29
	c0.145-0.087,0.289-0.174,0.447-0.231c0.144-0.058,0.288-0.087,0.404-0.087c0.129,0,0.216,0.029,0.288,0.102
	C969.736,1004.52,969.779,1004.606,969.779,1004.708z"/>
<linearGradient id="SVGID_2_" gradientUnits="userSpaceOnUse" x1="-41.5317" y1="619.7046" x2="-41.5317" y2="620.2057" gradientTransform="matrix(27.137 0 0 27.137 2092.7231 -15814.2598)">
	<stop  offset="0" style="stop-color:#EDEAE8"/>
	<stop  offset="0" style="stop-color:#E7E3E0"/>
	<stop  offset="0.0495" style="stop-color:#D9D4D4"/>
	<stop  offset="0.144" style="stop-color:#B1ADB0"/>
	<stop  offset="0.2033" style="stop-color:#979397"/>
	<stop  offset="0.5225" style="stop-color:#F9F9F9"/>
	<stop  offset="0.5698" style="stop-color:#EAE8E9"/>
	<stop  offset="0.6605" style="stop-color:#C5C2C3"/>
	<stop  offset="0.7615" style="stop-color:#969192"/>
	<stop  offset="0.8764" style="stop-color:#8C878A"/>
	<stop  offset="1" style="stop-color:#DBDADA"/>
	<stop  offset="1" style="stop-color:#B3B2B2"/>
</linearGradient>
<path fill="url(#SVGID_2_)" d="M966.968,1011.269c-0.101,0-0.173-0.015-0.23-0.058c-0.058-0.044-0.086-0.102-0.086-0.188
	c0-0.145,0.086-0.348,0.259-0.623c0.173-0.274,0.375-0.594,0.62-0.97c0.029-0.029,0.043-0.059,0.072-0.072
	c0.014-0.015,0.043-0.029,0.058-0.044c0.029,0,0.086-0.015,0.144-0.029c0.058-0.014,0.101-0.014,0.115-0.014
	c0.029,0,0.043,0.014,0.043,0.028c-0.245,0.435-0.461,0.797-0.62,1.072c-0.173,0.275-0.259,0.492-0.259,0.637
	c0,0.087,0.043,0.131,0.115,0.131c0.029,0,0.072-0.015,0.129-0.029c0.058-0.015,0.116-0.043,0.173-0.087
	c0.058-0.029,0.115-0.072,0.173-0.116c0.058-0.043,0.101-0.072,0.13-0.115c0.058-0.059,0.159-0.203,0.274-0.449
	c0.115-0.231,0.274-0.507,0.447-0.811c0.086-0.16,0.159-0.275,0.231-0.392c0.072-0.102,0.129-0.159,0.188-0.159
	c0.028,0.015,0.058,0.043,0.072,0.102c0.029,0.058,0.043,0.115,0.043,0.159c0,0.029-0.029,0.087-0.087,0.188
	c-0.058,0.102-0.144,0.217-0.245,0.348c-0.101,0.13-0.202,0.274-0.317,0.434c-0.115,0.16-0.216,0.29-0.332,0.421
	c-0.245,0.376-0.505,0.768-0.75,1.173s-0.504,0.796-0.764,1.173c-0.259,0.376-0.519,0.738-0.793,1.071
	c-0.274,0.334-0.548,0.623-0.836,0.884c-0.289,0.246-0.577,0.449-0.894,0.594c-0.303,0.145-0.634,0.218-0.966,0.218
	c-0.202,0-0.375-0.044-0.534-0.146s-0.245-0.261-0.245-0.507c0-0.058,0-0.115,0.015-0.174c0.014-0.058,0.029-0.102,0.043-0.145
	c0-0.015,0.015-0.029,0.029-0.044c0.015,0,0.015,0,0.015,0.029c0,0.188,0.072,0.362,0.202,0.507
	c0.144,0.159,0.389,0.231,0.735,0.231c0.289,0,0.563-0.072,0.851-0.217c0.274-0.145,0.548-0.333,0.822-0.564
	c0.26-0.232,0.519-0.507,0.764-0.826c0.245-0.318,0.49-0.637,0.721-0.97c0.23-0.333,0.447-0.681,0.663-1.028
	c0.202-0.348,0.404-0.666,0.577-0.971c0.014-0.029,0.014-0.043,0-0.029c-0.014,0-0.029,0.015-0.029,0.015
	c-0.072,0.059-0.173,0.131-0.317,0.203C967.242,1011.239,967.112,1011.269,966.968,1011.269z"/>
<linearGradient id="SVGID_3_" gradientUnits="userSpaceOnUse" x1="-41.2808" y1="619.8564" x2="-41.2808" y2="620.0481" gradientTransform="matrix(27.137 0 0 27.137 2092.7231 -15814.2598)">
	<stop  offset="0" style="stop-color:#EDEAE8"/>
	<stop  offset="0" style="stop-color:#E7E3E0"/>
	<stop  offset="0.0495" style="stop-color:#D9D4D4"/>
	<stop  offset="0.144" style="stop-color:#B1ADB0"/>
	<stop  offset="0.2033" style="stop-color:#979397"/>
	<stop  offset="0.5225" style="stop-color:#F9F9F9"/>
	<stop  offset="0.5698" style="stop-color:#EAE8E9"/>
	<stop  offset="0.6605" style="stop-color:#C5C2C3"/>
	<stop  offset="0.7615" style="stop-color:#969192"/>
	<stop  offset="0.8764" style="stop-color:#8C878A"/>
	<stop  offset="1" style="stop-color:#DBDADA"/>
	<stop  offset="1" style="stop-color:#B3B2B2"/>
</linearGradient>
<path fill="url(#SVGID_3_)" d="M973.125,1007.083l1.629,4.143h-0.966l-0.36-0.956h-1.875l-0.375,0.956h-0.966l1.644-4.128
	c0.086-0.217,0.202-0.55,0.634-0.55C972.908,1006.548,973.023,1006.809,973.125,1007.083z M972.49,1007.836l-0.62,1.579h1.226
	L972.49,1007.836z"/>
<linearGradient id="SVGID_4_" gradientUnits="userSpaceOnUse" x1="-41.1558" y1="619.8564" x2="-41.1558" y2="620.0479" gradientTransform="matrix(27.137 0 0 27.137 2092.7231 -15814.2598)">
	<stop  offset="0" style="stop-color:#EDEAE8"/>
	<stop  offset="0" style="stop-color:#E7E3E0"/>
	<stop  offset="0.0495" style="stop-color:#D9D4D4"/>
	<stop  offset="0.144" style="stop-color:#B1ADB0"/>
	<stop  offset="0.2033" style="stop-color:#979397"/>
	<stop  offset="0.5225" style="stop-color:#F9F9F9"/>
	<stop  offset="0.5698" style="stop-color:#EAE8E9"/>
	<stop  offset="0.6605" style="stop-color:#C5C2C3"/>
	<stop  offset="0.7615" style="stop-color:#969192"/>
	<stop  offset="0.8764" style="stop-color:#8C878A"/>
	<stop  offset="1" style="stop-color:#DBDADA"/>
	<stop  offset="1" style="stop-color:#B3B2B2"/>
</linearGradient>
<path fill="url(#SVGID_4_)" d="M975.057,1007.822h0.735v0.304c0.26-0.304,0.476-0.348,0.634-0.348c0.13,0,0.245,0.029,0.289,0.072
	v0.71c-0.072-0.058-0.159-0.087-0.303-0.087c-0.13,0-0.519,0.116-0.519,0.753v0.623v1.375h-0.851v-3.402H975.057L975.057,1007.822z"
	/>
<linearGradient id="SVGID_5_" gradientUnits="userSpaceOnUse" x1="-40.7319" y1="619.8564" x2="-40.7319" y2="620.0479" gradientTransform="matrix(27.137 0 0 27.137 2092.7231 -15814.2598)">
	<stop  offset="0" style="stop-color:#EDEAE8"/>
	<stop  offset="0" style="stop-color:#E7E3E0"/>
	<stop  offset="0.0495" style="stop-color:#D9D4D4"/>
	<stop  offset="0.144" style="stop-color:#B1ADB0"/>
	<stop  offset="0.2033" style="stop-color:#979397"/>
	<stop  offset="0.5225" style="stop-color:#F9F9F9"/>
	<stop  offset="0.5698" style="stop-color:#EAE8E9"/>
	<stop  offset="0.6605" style="stop-color:#C5C2C3"/>
	<stop  offset="0.7615" style="stop-color:#969192"/>
	<stop  offset="0.8764" style="stop-color:#8C878A"/>
	<stop  offset="1" style="stop-color:#DBDADA"/>
	<stop  offset="1" style="stop-color:#B3B2B2"/>
</linearGradient>
<path fill="url(#SVGID_5_)" d="M986.562,1007.822h0.735v0.304c0.26-0.304,0.476-0.348,0.634-0.348c0.13,0,0.245,0.029,0.289,0.072
	v0.71c-0.072-0.058-0.159-0.087-0.303-0.087c-0.13,0-0.519,0.116-0.519,0.753v0.623v1.375h-0.851v-3.402H986.562L986.562,1007.822z"
	/>
<linearGradient id="SVGID_6_" gradientUnits="userSpaceOnUse" x1="-41.0767" y1="619.8564" x2="-41.0767" y2="620.048" gradientTransform="matrix(27.137 0 0 27.137 2092.7231 -15814.2598)">
	<stop  offset="0" style="stop-color:#EDEAE8"/>
	<stop  offset="0" style="stop-color:#E7E3E0"/>
	<stop  offset="0.0495" style="stop-color:#D9D4D4"/>
	<stop  offset="0.144" style="stop-color:#B1ADB0"/>
	<stop  offset="0.2033" style="stop-color:#979397"/>
	<stop  offset="0.5225" style="stop-color:#F9F9F9"/>
	<stop  offset="0.5698" style="stop-color:#EAE8E9"/>
	<stop  offset="0.6605" style="stop-color:#C5C2C3"/>
	<stop  offset="0.7615" style="stop-color:#969192"/>
	<stop  offset="0.8764" style="stop-color:#8C878A"/>
	<stop  offset="1" style="stop-color:#DBDADA"/>
	<stop  offset="1" style="stop-color:#B3B2B2"/>
</linearGradient>
<path fill="url(#SVGID_6_)" d="M977.58,1006.562h0.851v1.261h0.504v0.738h-0.504v2.679h-0.851v-2.679h-0.433v-0.738h0.433V1006.562z
	"/>
<linearGradient id="SVGID_7_" gradientUnits="userSpaceOnUse" x1="-40.9717" y1="619.8564" x2="-40.9717" y2="620.048" gradientTransform="matrix(27.137 0 0 27.137 2092.7231 -15814.2598)">
	<stop  offset="0" style="stop-color:#EDEAE8"/>
	<stop  offset="0" style="stop-color:#E7E3E0"/>
	<stop  offset="0.0495" style="stop-color:#D9D4D4"/>
	<stop  offset="0.144" style="stop-color:#B1ADB0"/>
	<stop  offset="0.2033" style="stop-color:#979397"/>
	<stop  offset="0.5225" style="stop-color:#F9F9F9"/>
	<stop  offset="0.5698" style="stop-color:#EAE8E9"/>
	<stop  offset="0.6605" style="stop-color:#C5C2C3"/>
	<stop  offset="0.7615" style="stop-color:#969192"/>
	<stop  offset="0.8764" style="stop-color:#8C878A"/>
	<stop  offset="1" style="stop-color:#DBDADA"/>
	<stop  offset="1" style="stop-color:#B3B2B2"/>
</linearGradient>
<path fill="url(#SVGID_7_)" d="M980.881,1008.517c-0.533,0-0.663,0.449-0.663,0.754v1.955h-0.851v-4.649h0.851v1.579
	c0.173-0.146,0.332-0.246,0.505-0.319c0.173-0.072,0.346-0.101,0.519-0.101c0.332,0,0.62,0.115,0.851,0.348
	c0.202,0.202,0.303,0.507,0.303,0.897v2.26h-0.836v-1.956C981.544,1008.879,981.371,1008.517,980.881,1008.517z"/>
<linearGradient id="SVGID_8_" gradientUnits="userSpaceOnUse" x1="-40.8384" y1="619.856" x2="-40.8384" y2="620.0479" gradientTransform="matrix(27.137 0 0 27.137 2092.7231 -15814.2598)">
	<stop  offset="0" style="stop-color:#EDEAE8"/>
	<stop  offset="0" style="stop-color:#E7E3E0"/>
	<stop  offset="0.0495" style="stop-color:#D9D4D4"/>
	<stop  offset="0.144" style="stop-color:#B1ADB0"/>
	<stop  offset="0.2033" style="stop-color:#979397"/>
	<stop  offset="0.5225" style="stop-color:#F9F9F9"/>
	<stop  offset="0.5698" style="stop-color:#EAE8E9"/>
	<stop  offset="0.6605" style="stop-color:#C5C2C3"/>
	<stop  offset="0.7615" style="stop-color:#969192"/>
	<stop  offset="0.8764" style="stop-color:#8C878A"/>
	<stop  offset="1" style="stop-color:#DBDADA"/>
	<stop  offset="1" style="stop-color:#B3B2B2"/>
</linearGradient>
<path fill="url(#SVGID_8_)" d="M983,1007.822h0.865v1.636c0,0.319,0.029,0.536,0.072,0.667c0.043,0.13,0.115,0.217,0.216,0.289
	s0.216,0.102,0.36,0.102c0.145,0,0.26-0.029,0.361-0.102c0.101-0.072,0.173-0.174,0.216-0.304c0.029-0.102,0.058-0.305,0.058-0.623
	v-1.665H986v1.448c0,0.594-0.043,0.999-0.145,1.216c-0.115,0.261-0.288,0.479-0.504,0.623s-0.505,0.217-0.851,0.217
	c-0.375,0-0.678-0.087-0.909-0.246c-0.23-0.174-0.389-0.405-0.49-0.695c-0.072-0.202-0.101-0.579-0.101-1.129V1007.822L983,1007.822
	z"/>
<linearGradient id="SVGID_9_" gradientUnits="userSpaceOnUse" x1="-40.5269" y1="619.8564" x2="-40.5269" y2="620.0477" gradientTransform="matrix(27.137 0 0 27.137 2092.7231 -15814.2598)">
	<stop  offset="0" style="stop-color:#EDEAE8"/>
	<stop  offset="0" style="stop-color:#E7E3E0"/>
	<stop  offset="0.0495" style="stop-color:#D9D4D4"/>
	<stop  offset="0.144" style="stop-color:#B1ADB0"/>
	<stop  offset="0.2033" style="stop-color:#979397"/>
	<stop  offset="0.5225" style="stop-color:#F9F9F9"/>
	<stop  offset="0.5698" style="stop-color:#EAE8E9"/>
	<stop  offset="0.6605" style="stop-color:#C5C2C3"/>
	<stop  offset="0.7615" style="stop-color:#969192"/>
	<stop  offset="0.8764" style="stop-color:#8C878A"/>
	<stop  offset="1" style="stop-color:#DBDADA"/>
	<stop  offset="1" style="stop-color:#B3B2B2"/>
</linearGradient>
<path fill="url(#SVGID_9_)" d="M994.03,1008.517c-0.476,0-0.649,0.377-0.649,0.667v2.056h-0.865v-2.056
	c0-0.246-0.173-0.652-0.663-0.652s-0.663,0.392-0.663,0.695v2.013h-0.851v-3.417h0.851v0.391c0.144-0.159,0.303-0.275,0.49-0.362
	c0.173-0.072,0.375-0.115,0.577-0.115c0.216,0,0.404,0.058,0.577,0.159s0.303,0.261,0.418,0.463c0.13-0.202,0.303-0.348,0.504-0.463
	c0.202-0.102,0.418-0.159,0.649-0.159c0.245,0,0.461,0.058,0.634,0.174c0.188,0.115,0.317,0.261,0.39,0.448
	c0.086,0.188,0.115,0.479,0.115,0.884v1.998h-0.865v-2.056C994.693,1008.908,994.52,1008.517,994.03,1008.517z"/>
<linearGradient id="SVGID_10_" gradientUnits="userSpaceOnUse" x1="-40.311" y1="619.8564" x2="-40.311" y2="620.0477" gradientTransform="matrix(27.137 0 0 27.137 2092.7231 -15814.2598)">
	<stop  offset="0" style="stop-color:#EDEAE8"/>
	<stop  offset="0" style="stop-color:#E7E3E0"/>
	<stop  offset="0.0495" style="stop-color:#D9D4D4"/>
	<stop  offset="0.144" style="stop-color:#B1ADB0"/>
	<stop  offset="0.2033" style="stop-color:#979397"/>
	<stop  offset="0.5225" style="stop-color:#F9F9F9"/>
	<stop  offset="0.5698" style="stop-color:#EAE8E9"/>
	<stop  offset="0.6605" style="stop-color:#C5C2C3"/>
	<stop  offset="0.7615" style="stop-color:#969192"/>
	<stop  offset="0.8764" style="stop-color:#8C878A"/>
	<stop  offset="1" style="stop-color:#DBDADA"/>
	<stop  offset="1" style="stop-color:#B3B2B2"/>
</linearGradient>
<path fill="url(#SVGID_10_)" d="M999.898,1008.517c-0.476,0-0.649,0.377-0.649,0.667v2.056h-0.865v-2.056
	c0-0.246-0.173-0.652-0.663-0.652c-0.49,0-0.664,0.392-0.664,0.695v2.013h-0.851v-3.417h0.851v0.391
	c0.145-0.159,0.303-0.275,0.49-0.362c0.173-0.072,0.375-0.115,0.577-0.115c0.216,0,0.404,0.058,0.577,0.159
	c0.173,0.102,0.303,0.261,0.418,0.463c0.129-0.202,0.303-0.348,0.504-0.463c0.202-0.102,0.418-0.159,0.649-0.159
	c0.245,0,0.447,0.058,0.634,0.174c0.188,0.115,0.317,0.261,0.39,0.448c0.086,0.188,0.115,0.479,0.115,0.884v1.998h-0.865v-2.056
	C1000.561,1008.908,1000.402,1008.517,999.898,1008.517z"/>
<linearGradient id="SVGID_11_" gradientUnits="userSpaceOnUse" x1="-40.0527" y1="619.855" x2="-40.0527" y2="620.0484" gradientTransform="matrix(27.137 0 0 27.137 2092.7231 -15814.2598)">
	<stop  offset="0" style="stop-color:#EDEAE8"/>
	<stop  offset="0" style="stop-color:#E7E3E0"/>
	<stop  offset="0.0495" style="stop-color:#D9D4D4"/>
	<stop  offset="0.144" style="stop-color:#B1ADB0"/>
	<stop  offset="0.2033" style="stop-color:#979397"/>
	<stop  offset="0.5225" style="stop-color:#F9F9F9"/>
	<stop  offset="0.5698" style="stop-color:#EAE8E9"/>
	<stop  offset="0.6605" style="stop-color:#C5C2C3"/>
	<stop  offset="0.7615" style="stop-color:#969192"/>
	<stop  offset="0.8764" style="stop-color:#8C878A"/>
	<stop  offset="1" style="stop-color:#DBDADA"/>
	<stop  offset="1" style="stop-color:#B3B2B2"/>
</linearGradient>
<path fill="url(#SVGID_11_)" d="M1005.823,1010.327c0.13,0,0.245,0.044,0.347,0.145c0.101,0.102,0.144,0.218,0.144,0.348
	c0,0.131-0.043,0.247-0.144,0.348c-0.102,0.102-0.217,0.146-0.347,0.146s-0.245-0.044-0.346-0.146
	c-0.101-0.101-0.145-0.217-0.145-0.348c0-0.13,0.044-0.246,0.145-0.348C1005.578,1010.385,1005.694,1010.327,1005.823,1010.327z"/>
<linearGradient id="SVGID_12_" gradientUnits="userSpaceOnUse" x1="-39.7046" y1="619.8564" x2="-39.7046" y2="620.0477" gradientTransform="matrix(27.137 0 0 27.137 2092.7231 -15814.2598)">
	<stop  offset="0" style="stop-color:#EDEAE8"/>
	<stop  offset="0" style="stop-color:#E7E3E0"/>
	<stop  offset="0.0495" style="stop-color:#D9D4D4"/>
	<stop  offset="0.144" style="stop-color:#B1ADB0"/>
	<stop  offset="0.2033" style="stop-color:#979397"/>
	<stop  offset="0.5225" style="stop-color:#F9F9F9"/>
	<stop  offset="0.5698" style="stop-color:#EAE8E9"/>
	<stop  offset="0.6605" style="stop-color:#C5C2C3"/>
	<stop  offset="0.7615" style="stop-color:#969192"/>
	<stop  offset="0.8764" style="stop-color:#8C878A"/>
	<stop  offset="1" style="stop-color:#DBDADA"/>
	<stop  offset="1" style="stop-color:#B3B2B2"/>
</linearGradient>
<path fill="url(#SVGID_12_)" d="M1016.349,1008.517c-0.476,0-0.648,0.377-0.648,0.667v2.056h-0.865v-2.056
	c0-0.246-0.173-0.652-0.663-0.652s-0.663,0.392-0.663,0.695v2.013h-0.851v-3.417h0.851v0.391c0.144-0.159,0.303-0.275,0.49-0.362
	c0.173-0.072,0.374-0.115,0.576-0.115c0.216,0,0.403,0.058,0.577,0.159c0.173,0.102,0.303,0.261,0.418,0.463
	c0.13-0.202,0.303-0.348,0.504-0.463c0.202-0.102,0.419-0.159,0.649-0.159c0.245,0,0.461,0.058,0.634,0.174
	c0.188,0.115,0.317,0.261,0.39,0.448c0.087,0.188,0.115,0.479,0.115,0.884v1.998h-0.865v-2.056
	C1016.997,1008.908,1016.839,1008.517,1016.349,1008.517z"/>
<linearGradient id="SVGID_13_" gradientUnits="userSpaceOnUse" x1="-40.1401" y1="619.856" x2="-40.1401" y2="620.048" gradientTransform="matrix(27.137 0 0 27.137 2092.7231 -15814.2598)">
	<stop  offset="0" style="stop-color:#EDEAE8"/>
	<stop  offset="0" style="stop-color:#E7E3E0"/>
	<stop  offset="0.0495" style="stop-color:#D9D4D4"/>
	<stop  offset="0.144" style="stop-color:#B1ADB0"/>
	<stop  offset="0.2033" style="stop-color:#979397"/>
	<stop  offset="0.5225" style="stop-color:#F9F9F9"/>
	<stop  offset="0.5698" style="stop-color:#EAE8E9"/>
	<stop  offset="0.6605" style="stop-color:#C5C2C3"/>
	<stop  offset="0.7615" style="stop-color:#969192"/>
	<stop  offset="0.8764" style="stop-color:#8C878A"/>
	<stop  offset="1" style="stop-color:#DBDADA"/>
	<stop  offset="1" style="stop-color:#B3B2B2"/>
</linearGradient>
<path fill="url(#SVGID_13_)" d="M1004.93,1009.878c0,1.261-1.081,1.42-1.485,1.42c-0.403,0-1.484-0.174-1.484-1.42v-0.651
	c0-1.26,1.081-1.419,1.484-1.419c0.404,0,1.485,0.174,1.485,1.419V1009.878z M1002.825,1009.965c0,0.507,0.446,0.58,0.634,0.58
	s0.635-0.073,0.635-0.58v-0.811c0-0.507-0.447-0.579-0.635-0.579s-0.634,0.072-0.634,0.579V1009.965z"/>
<linearGradient id="SVGID_14_" gradientUnits="userSpaceOnUse" x1="-39.8735" y1="619.856" x2="-39.8735" y2="620.048" gradientTransform="matrix(27.137 0 0 27.137 2092.7231 -15814.2598)">
	<stop  offset="0" style="stop-color:#EDEAE8"/>
	<stop  offset="0" style="stop-color:#E7E3E0"/>
	<stop  offset="0.0495" style="stop-color:#D9D4D4"/>
	<stop  offset="0.144" style="stop-color:#B1ADB0"/>
	<stop  offset="0.2033" style="stop-color:#979397"/>
	<stop  offset="0.5225" style="stop-color:#F9F9F9"/>
	<stop  offset="0.5698" style="stop-color:#EAE8E9"/>
	<stop  offset="0.6605" style="stop-color:#C5C2C3"/>
	<stop  offset="0.7615" style="stop-color:#969192"/>
	<stop  offset="0.8764" style="stop-color:#8C878A"/>
	<stop  offset="1" style="stop-color:#DBDADA"/>
	<stop  offset="1" style="stop-color:#B3B2B2"/>
</linearGradient>
<path fill="url(#SVGID_14_)" d="M1012.168,1009.878c0,1.261-1.082,1.42-1.485,1.42c-0.404,0-1.485-0.174-1.485-1.42v-0.651
	c0-1.26,1.081-1.419,1.485-1.419c0.403,0,1.485,0.174,1.485,1.419V1009.878z M1010.063,1009.965c0,0.507,0.447,0.58,0.635,0.58
	c0.187,0,0.634-0.073,0.634-0.58v-0.811c0-0.507-0.447-0.579-0.634-0.579c-0.188,0-0.635,0.072-0.635,0.579V1009.965z"/>
<linearGradient id="SVGID_15_" gradientUnits="userSpaceOnUse" x1="-39.9829" y1="619.856" x2="-39.9829" y2="620.0479" gradientTransform="matrix(27.137 0 0 27.137 2092.7231 -15814.2598)">
	<stop  offset="0" style="stop-color:#EDEAE8"/>
	<stop  offset="0" style="stop-color:#E7E3E0"/>
	<stop  offset="0.0495" style="stop-color:#D9D4D4"/>
	<stop  offset="0.144" style="stop-color:#B1ADB0"/>
	<stop  offset="0.2033" style="stop-color:#979397"/>
	<stop  offset="0.5225" style="stop-color:#F9F9F9"/>
	<stop  offset="0.5698" style="stop-color:#EAE8E9"/>
	<stop  offset="0.6605" style="stop-color:#C5C2C3"/>
	<stop  offset="0.7615" style="stop-color:#969192"/>
	<stop  offset="0.8764" style="stop-color:#8C878A"/>
	<stop  offset="1" style="stop-color:#DBDADA"/>
	<stop  offset="1" style="stop-color:#B3B2B2"/>
</linearGradient>
<path fill="url(#SVGID_15_)" d="M1008.174,1010.516c-0.188,0-0.635-0.072-0.635-0.579v-0.725c0-0.507,0.447-0.579,0.635-0.579
	c0.115,0,0.418-0.029,0.563,0.102v-0.854c-0.188-0.043-0.447-0.058-0.563-0.058c-0.404,0-1.485,0.174-1.485,1.419v0.651
	c0,1.26,1.082,1.42,1.485,1.42c0.115,0,0.39-0.015,0.563-0.059v-0.84C1008.577,1010.53,1008.274,1010.516,1008.174,1010.516z"/>
<linearGradient id="SVGID_16_" gradientUnits="userSpaceOnUse" x1="-40.665" y1="619.856" x2="-40.665" y2="620.0474" gradientTransform="matrix(27.137 0 0 27.137 2092.7231 -15814.2598)">
	<stop  offset="0" style="stop-color:#EDEAE8"/>
	<stop  offset="0" style="stop-color:#E7E3E0"/>
	<stop  offset="0.0495" style="stop-color:#D9D4D4"/>
	<stop  offset="0.144" style="stop-color:#B1ADB0"/>
	<stop  offset="0.2033" style="stop-color:#979397"/>
	<stop  offset="0.5225" style="stop-color:#F9F9F9"/>
	<stop  offset="0.5698" style="stop-color:#EAE8E9"/>
	<stop  offset="0.6605" style="stop-color:#C5C2C3"/>
	<stop  offset="0.7615" style="stop-color:#969192"/>
	<stop  offset="0.8764" style="stop-color:#8C878A"/>
	<stop  offset="1" style="stop-color:#DBDADA"/>
	<stop  offset="1" style="stop-color:#B3B2B2"/>
</linearGradient>
<path fill="url(#SVGID_16_)" d="M989.748,1006.953c0,0.145-0.058,0.275-0.159,0.391c-0.101,0.102-0.23,0.159-0.389,0.159
	c-0.145,0-0.274-0.058-0.389-0.159c-0.101-0.102-0.159-0.231-0.159-0.391s0.058-0.275,0.159-0.392
	c0.101-0.101,0.23-0.159,0.389-0.159c0.144,0,0.274,0.059,0.389,0.159C989.69,1006.678,989.748,1006.809,989.748,1006.953z
	 M989.618,1006.953c0-0.116-0.043-0.218-0.115-0.305c-0.086-0.087-0.173-0.115-0.303-0.115c-0.115,0-0.216,0.043-0.303,0.115
	c-0.086,0.087-0.115,0.188-0.115,0.305c0,0.115,0.043,0.217,0.115,0.304c0.086,0.087,0.173,0.116,0.303,0.116
	c0.115,0,0.216-0.044,0.303-0.116C989.575,1007.185,989.618,1007.083,989.618,1006.953z M989.445,1007.242h-0.145l-0.101-0.231
	h-0.058v0.231h-0.13v-0.579h0.23c0.058,0,0.101,0.015,0.145,0.059c0.029,0.028,0.058,0.072,0.058,0.13
	c0,0.072-0.029,0.131-0.101,0.159L989.445,1007.242z M989.301,1006.852c0-0.015-0.014-0.043-0.029-0.058
	c-0.014-0.015-0.029-0.029-0.058-0.029h-0.086v0.145h0.086c0.029,0,0.043,0,0.058-0.014
	C989.301,1006.895,989.301,1006.866,989.301,1006.852z"/>
<linearGradient id="SVGID_17_" gradientUnits="userSpaceOnUse" x1="-40.6655" y1="619.856" x2="-40.6655" y2="620.0477" gradientTransform="matrix(27.137 0 0 27.137 2092.7231 -15814.2598)">
	<stop  offset="0" style="stop-color:#EDEAE8"/>
	<stop  offset="0" style="stop-color:#E7E3E0"/>
	<stop  offset="0.0495" style="stop-color:#D9D4D4"/>
	<stop  offset="0.144" style="stop-color:#B1ADB0"/>
	<stop  offset="0.2033" style="stop-color:#979397"/>
	<stop  offset="0.5225" style="stop-color:#F9F9F9"/>
	<stop  offset="0.5698" style="stop-color:#EAE8E9"/>
	<stop  offset="0.6605" style="stop-color:#C5C2C3"/>
	<stop  offset="0.7615" style="stop-color:#969192"/>
	<stop  offset="0.8764" style="stop-color:#8C878A"/>
	<stop  offset="1" style="stop-color:#DBDADA"/>
	<stop  offset="1" style="stop-color:#B3B2B2"/>
</linearGradient>
<path fill="url(#SVGID_17_)" d="M988.768,1007.808h0.851v3.418h-0.851V1007.808z"/>
<linearGradient id="SVGID_18_" gradientUnits="userSpaceOnUse" x1="-40.6021" y1="619.2339" x2="-40.6021" y2="620.1281" gradientTransform="matrix(27.137 0 0 27.137 2092.7231 -15814.2598)">
	<stop  offset="0" style="stop-color:#EDEAE8"/>
	<stop  offset="0" style="stop-color:#E7E3E0"/>
	<stop  offset="0.0643" style="stop-color:#D9D4D4"/>
	<stop  offset="0.187" style="stop-color:#B1ADB0"/>
	<stop  offset="0.264" style="stop-color:#979397"/>
	<stop  offset="0.5225" style="stop-color:#F9F9F9"/>
	<stop  offset="0.5874" style="stop-color:#EAE9EA"/>
	<stop  offset="0.7119" style="stop-color:#C5C2C4"/>
	<stop  offset="0.8764" style="stop-color:#8C878A"/>
	<stop  offset="1" style="stop-color:#DBDADA"/>
	<stop  offset="1" style="stop-color:#B3B2B2"/>
</linearGradient>
<path fill="url(#SVGID_18_)" d="M997.707,992.673c0.332-0.623,0.49-1.216,0.49-1.767c0-0.565-0.13-1.057-0.389-1.448
	c-0.245-0.376-0.577-0.695-0.98-0.927c-0.389-0.217-0.836-0.376-1.312-0.463c-0.476-0.087-0.937-0.13-1.384-0.13
	c-0.245,0-0.591,0.014-1.038,0.058c-0.433,0.043-0.937,0.087-1.485,0.16c-0.548,0.058-1.139,0.116-1.759,0.145
	c-0.62,0.043-1.226,0.058-1.831,0.058c-0.245,0-0.49,0-0.75-0.015c-0.245-0.014-0.461-0.029-0.634-0.072
	c-0.13-0.029-0.173-0.058-0.188-0.058l0,0c-0.072-0.261-0.23-0.29-0.303-0.29c-0.245,0-0.36,0.275-0.403,0.391
	c-0.101,0.246-0.116,0.333-0.116,0.405c0,0.203,0.101,0.565,0.793,0.565c0.649,0,1.298-0.043,1.917-0.13
	c0.577-0.072,1.168-0.13,1.759-0.145c-0.015,0.043-0.029,0.087-0.058,0.145c-0.058,0.159-0.13,0.333-0.202,0.507
	c-0.072,0.217-0.159,0.391-0.23,0.565c-0.072,0.159-0.13,0.261-0.173,0.333c-0.433,0.811-0.937,1.738-1.542,2.81
	c-0.577,1.028-1.125,1.984-1.629,2.838c-0.418,0.71-0.865,1.463-1.326,2.245c-0.461,0.796-0.851,1.506-1.139,2.158
	c-0.115,0.275-0.173,0.478-0.173,0.637c0,0.231,0.101,0.42,0.274,0.564c0.144,0.102,0.303,0.188,0.49,0.246
	c0.173,0.059,0.36,0.087,0.533,0.116c0.188,0.015,0.317,0.029,0.404,0.029c0.447,0,0.908-0.015,1.37-0.059
	c0.461-0.043,0.879-0.087,1.254-0.159c0.303-0.058,0.332-0.274,0.332-0.348c0-0.318-0.404-0.318-0.562-0.318
	c-0.606,0-1.067-0.072-1.355-0.203c-0.245-0.115-0.36-0.304-0.36-0.608c0-0.246,0.101-0.579,0.303-0.985
	c0.346-0.666,0.764-1.462,1.269-2.36c0.505-0.913,1.024-1.854,1.572-2.81c0.548-0.97,1.096-1.912,1.615-2.795l1.384-2.332
	c0.129-0.217,0.273-0.348,0.476-0.405c0.389-0.102,0.822-0.145,1.312-0.145c0.678,0,1.269,0.145,1.745,0.42
	c0.447,0.26,0.663,0.767,0.663,1.535c0,0.58-0.13,1.159-0.389,1.738c-0.26,0.58-0.62,1.115-1.082,1.579
	c-0.447,0.464-0.995,0.854-1.629,1.144c-0.62,0.29-1.312,0.435-2.033,0.435c-0.23,0-0.476-0.014-0.735-0.058
	c-0.332-0.043-0.461-0.087-0.504-0.102l-0.087-0.015c-0.202,0-0.346,0.145-0.346,0.348c0,0.087,0.029,0.203,0.188,0.304l0.043,0.015
	c0.404,0.145,0.879,0.231,1.413,0.231c1.096,0,2.076-0.174,2.941-0.521c0.851-0.348,1.601-0.782,2.206-1.318
	C996.914,993.875,997.389,993.296,997.707,992.673z"/>
<linearGradient id="SVGID_19_" gradientUnits="userSpaceOnUse" x1="-40.3359" y1="619.2339" x2="-40.3359" y2="620.129" gradientTransform="matrix(27.137 0 0 27.137 2092.7231 -15814.2598)">
	<stop  offset="0" style="stop-color:#EDEAE8"/>
	<stop  offset="0" style="stop-color:#E7E3E0"/>
	<stop  offset="0.0643" style="stop-color:#D9D4D4"/>
	<stop  offset="0.187" style="stop-color:#B1ADB0"/>
	<stop  offset="0.264" style="stop-color:#979397"/>
	<stop  offset="0.5225" style="stop-color:#F9F9F9"/>
	<stop  offset="0.5874" style="stop-color:#EAE9EA"/>
	<stop  offset="0.7119" style="stop-color:#C5C2C4"/>
	<stop  offset="0.8764" style="stop-color:#8C878A"/>
	<stop  offset="1" style="stop-color:#DBDADA"/>
	<stop  offset="1" style="stop-color:#B3B2B2"/>
</linearGradient>
<path fill="url(#SVGID_19_)" d="M1000.734,996.555c0.058,0.058,0.101,0.116,0.144,0.159c0.043,0.058,0.129,0.188,0.274,0.188
	c0.158,0,0.288-0.087,0.332-0.232c0.028-0.058,0.086-0.173,0.23-0.42c0.13-0.188,0.245-0.362,0.36-0.492l0.058-0.058v-0.087
	c0-0.174-0.101-0.333-0.288-0.478c-0.375-0.26-0.894-0.231-1.514,0.058c-0.317,0.145-0.649,0.333-0.98,0.55
	s-0.649,0.449-0.937,0.695c0.058-0.102,0.115-0.203,0.158-0.304c0.087-0.174,0.13-0.304,0.13-0.406c0-0.26-0.115-0.478-0.346-0.623
	c-0.245-0.159-0.346-0.188-0.418-0.188c-0.159,0-0.274,0.13-0.418,0.405c-0.072,0.174-0.231,0.449-0.447,0.811
	c-0.216,0.376-0.476,0.811-0.779,1.318l-0.937,1.622c-0.332,0.579-0.663,1.144-0.98,1.723c-0.159,0.29-0.245,0.492-0.245,0.666
	c0,0.131,0.086,0.261,0.274,0.435s0.303,0.246,0.404,0.246c0.245,0,0.346-0.13,0.375-0.217c0.288-0.449,0.548-0.884,0.778-1.318
	c0.23-0.435,0.49-0.854,0.75-1.26c0.259-0.405,0.533-0.811,0.821-1.188c0.274-0.376,0.606-0.709,0.98-1.028
	c0.231-0.217,0.505-0.405,0.808-0.579c0.288-0.159,0.548-0.246,0.764-0.246c0.23,0,0.346,0.043,0.418,0.072
	C1000.604,996.453,1000.691,996.511,1000.734,996.555z"/>
<linearGradient id="SVGID_20_" gradientUnits="userSpaceOnUse" x1="-40.0376" y1="619.2339" x2="-40.0376" y2="620.1284" gradientTransform="matrix(27.137 0 0 27.137 2092.7231 -15814.2598)">
	<stop  offset="0" style="stop-color:#EDEAE8"/>
	<stop  offset="0" style="stop-color:#E7E3E0"/>
	<stop  offset="0.0643" style="stop-color:#D9D4D4"/>
	<stop  offset="0.187" style="stop-color:#B1ADB0"/>
	<stop  offset="0.264" style="stop-color:#979397"/>
	<stop  offset="0.5225" style="stop-color:#F9F9F9"/>
	<stop  offset="0.5874" style="stop-color:#EAE9EA"/>
	<stop  offset="0.7119" style="stop-color:#C5C2C4"/>
	<stop  offset="0.8764" style="stop-color:#8C878A"/>
	<stop  offset="1" style="stop-color:#DBDADA"/>
	<stop  offset="1" style="stop-color:#B3B2B2"/>
</linearGradient>
<path fill="url(#SVGID_20_)" d="M1007.366,1002.333c0.217,0,0.505-0.043,0.865-0.116c0.36-0.072,0.735-0.217,1.081-0.434
	c0.36-0.218,0.663-0.507,0.923-0.869c0.274-0.377,0.403-0.854,0.403-1.419c0-0.304-0.086-0.594-0.244-0.869
	c-0.145-0.246-0.303-0.492-0.462-0.738c-0.173-0.261-0.317-0.463-0.418-0.637c-0.072-0.13-0.115-0.246-0.115-0.362
	c0-0.246,0.101-0.405,0.317-0.536c0.245-0.145,0.49-0.217,0.735-0.217c0.389,0,0.504,0.145,0.562,0.275
	c0.072,0.145,0.188,0.174,0.245,0.174c0.115,0,0.217-0.058,0.317-0.232c0.043-0.102,0.087-0.217,0.145-0.333
	c0.058-0.13,0.115-0.232,0.173-0.333l0.029-0.058v-0.058c0-0.159-0.072-0.536-0.707-0.536c-0.331,0-0.678,0.087-1.023,0.275
	c-0.332,0.174-0.635,0.376-0.908,0.623c-0.274,0.246-0.52,0.521-0.692,0.826c-0.188,0.318-0.288,0.623-0.288,0.912
	c0,0.058,0,0.13,0.015,0.188c-0.087,0-0.188,0.043-0.274,0.13c-0.26,0.333-0.577,0.695-0.966,1.086
	c-0.39,0.391-0.808,0.739-1.255,1.072c-0.446,0.318-0.922,0.594-1.398,0.811c-0.461,0.203-0.908,0.319-1.341,0.319
	c-0.62,0-0.894-0.319-0.894-1.029c0-0.376,0.058-0.768,0.173-1.129c0.087-0.304,0.173-0.536,0.26-0.71
	c0.605-0.014,1.153-0.101,1.601-0.275c0.49-0.174,0.894-0.406,1.211-0.681s0.576-0.565,0.735-0.869
	c0.173-0.319,0.26-0.623,0.26-0.898c0-0.217-0.087-0.42-0.245-0.564c-0.159-0.145-0.404-0.217-0.735-0.217
	c-0.548,0-1.125,0.203-1.716,0.594c-0.577,0.391-1.096,0.869-1.571,1.448c-0.477,0.565-0.865,1.202-1.168,1.883
	c-0.303,0.681-0.461,1.332-0.461,1.926c0,0.681,0.289,1.506,1.644,1.506c0.605,0,1.226-0.116,1.846-0.362
	c0.403-0.159,0.822-0.361,1.226-0.594C1005.521,1001.985,1006.228,1002.333,1007.366,1002.333z M1008.866,999.06
	c0.115,0.174,0.216,0.362,0.316,0.58c0.087,0.188,0.13,0.405,0.13,0.637c0,0.29-0.058,0.536-0.173,0.695
	c-0.115,0.174-0.26,0.304-0.433,0.405c-0.158,0.102-0.346,0.159-0.533,0.188c-0.217,0.029-0.404,0.044-0.548,0.044
	c-0.332,0-0.605-0.116-0.851-0.334c-0.217-0.202-0.375-0.434-0.476-0.709c0.403-0.304,0.735-0.594,1.038-0.869
	c0.432-0.42,0.821-0.84,1.153-1.231L1008.866,999.06z M1004.354,995.859c0.173-0.13,0.331-0.188,0.49-0.188
	c0.144,0,0.173,0.029,0.173,0.174c0,0.507-0.188,0.941-0.592,1.303c-0.403,0.376-0.864,0.565-1.384,0.565c-0.029,0-0.072,0-0.115,0
	c0.086-0.174,0.188-0.348,0.303-0.536c0.173-0.275,0.36-0.536,0.563-0.768C1003.964,996.178,1004.166,995.99,1004.354,995.859z"/>
<linearGradient id="SVGID_21_" gradientUnits="userSpaceOnUse" x1="-39.6738" y1="619.2344" x2="-39.6738" y2="620.1279" gradientTransform="matrix(27.137 0 0 27.137 2092.7231 -15814.2598)">
	<stop  offset="0" style="stop-color:#EDEAE8"/>
	<stop  offset="0" style="stop-color:#E7E3E0"/>
	<stop  offset="0.0643" style="stop-color:#D9D4D4"/>
	<stop  offset="0.187" style="stop-color:#B1ADB0"/>
	<stop  offset="0.264" style="stop-color:#979397"/>
	<stop  offset="0.5225" style="stop-color:#F9F9F9"/>
	<stop  offset="0.5874" style="stop-color:#EAE9EA"/>
	<stop  offset="0.7119" style="stop-color:#C5C2C4"/>
	<stop  offset="0.8764" style="stop-color:#8C878A"/>
	<stop  offset="1" style="stop-color:#DBDADA"/>
	<stop  offset="1" style="stop-color:#B3B2B2"/>
</linearGradient>
<path fill="url(#SVGID_21_)" d="M1012.283,1000.697c0,0.536,0.144,0.926,0.446,1.159c0.288,0.217,0.62,0.333,0.98,0.333
	c0.62,0,1.255-0.102,1.86-0.318c0.605-0.203,1.254-0.536,1.917-0.971c0.159-0.058,0.217-0.159,0.231-0.232
	c0.014-0.058,0.028-0.174-0.087-0.29c-0.087-0.102-0.188-0.13-0.26-0.13c-0.058,0-0.144,0.015-0.23,0.087
	c-0.447,0.275-0.88,0.493-1.269,0.652c-0.39,0.159-0.721,0.246-1.024,0.246c-0.548,0-0.778-0.261-0.778-0.869
	c0-0.493,0.145-1.086,0.433-1.767c0.288-0.666,0.707-1.492,1.226-2.462c0.274-0.015,0.591-0.029,0.938-0.058
	c0.403-0.014,0.793-0.043,1.182-0.058c0.375-0.015,0.735-0.029,1.053-0.043c0.317-0.015,0.563-0.015,0.721-0.015h0.058l0.044-0.029
	c0.115-0.058,0.188-0.174,0.188-0.29c0-0.087-0.029-0.203-0.188-0.304l-0.058-0.043h-3.432c0.346-0.594,0.691-1.188,1.053-1.781
	c0.433-0.71,0.879-1.391,1.341-2.042c0.071-0.13,0.201-0.247,0.375-0.333c0.187-0.102,0.346-0.174,0.49-0.203l0.043-0.014
	c0.23-0.116,0.245-0.29,0.201-0.42c-0.058-0.13-0.173-0.217-0.303-0.217l-0.071,0.014c-0.317,0.102-0.663,0.247-1.053,0.406
	c-0.404,0.159-0.707,0.29-0.938,0.405l-0.058,0.029l-0.028,0.058c-0.159,0.304-0.361,0.623-0.592,0.971
	c-0.23,0.362-0.461,0.724-0.691,1.101l-0.663,1.129c-0.202,0.333-0.375,0.637-0.549,0.913l-1.499,0.029l-0.058,0.043
	c-0.202,0.159-0.36,0.333-0.447,0.492l-0.028,0.058v0.058c0,0.174,0.115,0.348,0.375,0.348c0.058,0,0.273-0.015,0.634-0.043
	l0.447-0.043c-0.591,0.999-1.067,1.854-1.384,2.563C1012.471,999.64,1012.283,1000.262,1012.283,1000.697z"/>
<linearGradient id="SVGID_22_" gradientUnits="userSpaceOnUse" x1="-39.4058" y1="619.2344" x2="-39.4058" y2="620.1257" gradientTransform="matrix(27.137 0 0 27.137 2092.7231 -15814.2598)">
	<stop  offset="0" style="stop-color:#EDEAE8"/>
	<stop  offset="0" style="stop-color:#E7E3E0"/>
	<stop  offset="0.0643" style="stop-color:#D9D4D4"/>
	<stop  offset="0.187" style="stop-color:#B1ADB0"/>
	<stop  offset="0.264" style="stop-color:#979397"/>
	<stop  offset="0.5225" style="stop-color:#F9F9F9"/>
	<stop  offset="0.5874" style="stop-color:#EAE9EA"/>
	<stop  offset="0.7119" style="stop-color:#C5C2C4"/>
	<stop  offset="0.8764" style="stop-color:#8C878A"/>
	<stop  offset="1" style="stop-color:#DBDADA"/>
	<stop  offset="1" style="stop-color:#B3B2B2"/>
</linearGradient>
<path fill="url(#SVGID_22_)" d="M1023.038,992.384c0.332,0,0.62-0.145,0.88-0.435c0.245-0.29,0.375-0.579,0.375-0.883
	c0-0.391-0.23-0.623-0.62-0.623c-0.346,0-0.648,0.145-0.894,0.449c-0.217,0.29-0.332,0.579-0.332,0.898
	C1022.447,992.167,1022.663,992.384,1023.038,992.384z"/>
<linearGradient id="SVGID_23_" gradientUnits="userSpaceOnUse" x1="-39.5884" y1="619.2339" x2="-39.5884" y2="620.128" gradientTransform="matrix(27.137 0 0 27.137 2092.7231 -15814.2598)">
	<stop  offset="0" style="stop-color:#EDEAE8"/>
	<stop  offset="0" style="stop-color:#E7E3E0"/>
	<stop  offset="0.0643" style="stop-color:#D9D4D4"/>
	<stop  offset="0.187" style="stop-color:#B1ADB0"/>
	<stop  offset="0.264" style="stop-color:#979397"/>
	<stop  offset="0.5225" style="stop-color:#F9F9F9"/>
	<stop  offset="0.5874" style="stop-color:#EAE9EA"/>
	<stop  offset="0.7119" style="stop-color:#C5C2C4"/>
	<stop  offset="0.8764" style="stop-color:#8C878A"/>
	<stop  offset="1" style="stop-color:#DBDADA"/>
	<stop  offset="1" style="stop-color:#B3B2B2"/>
</linearGradient>
<path fill="url(#SVGID_23_)" d="M1031.4,993.716c0-0.188-0.043-0.391-0.115-0.594l0,0c-0.043-0.102-0.158-0.42-0.433-0.42
	c-0.288,0-0.476,0.29-0.591,0.507c-0.188,0.318-0.36,0.623-0.533,0.912c-0.145,0.247-0.289,0.478-0.418,0.724
	c-0.059,0-0.13-0.014-0.217-0.014c-0.52,0-1.038,0.13-1.557,0.391c-0.563,0.275-1.125,0.695-1.673,1.26
	c-0.533,0.55-1.009,1.144-1.428,1.767c-0.101,0.159-0.201,0.319-0.303,0.463c-0.389,0.406-0.793,0.782-1.226,1.13
	c-0.461,0.376-0.937,0.695-1.412,0.97c-0.447,0.246-0.865,0.377-1.226,0.377c-0.173,0-0.289-0.044-0.39-0.116
	c-0.072-0.072-0.115-0.188-0.115-0.362c0-0.203,0.058-0.478,0.188-0.84c0.13-0.376,0.303-0.796,0.519-1.231
	c0.217-0.463,0.477-0.927,0.735-1.405c0.26-0.463,0.534-0.912,0.779-1.303c0.058-0.058,0.101-0.145,0.144-0.246
	c0.044-0.116,0.058-0.188,0.058-0.261c0-0.116-0.072-0.319-0.375-0.319c-0.086,0-0.216,0.029-0.591,0.188
	c-0.288,0.13-0.505,0.304-0.62,0.478c-0.158,0.231-0.375,0.564-0.663,1.014c-0.273,0.449-0.548,0.912-0.821,1.405
	c-0.274,0.492-0.52,0.97-0.722,1.434c-0.216,0.492-0.316,0.869-0.316,1.173c0,0.275,0.058,0.492,0.173,0.666
	c0.115,0.159,0.245,0.29,0.403,0.377c0.159,0.102,0.332,0.159,0.533,0.188c0.174,0.028,0.317,0.028,0.447,0.028
	c0.36,0,0.778-0.072,1.226-0.217c0.433-0.145,0.88-0.362,1.298-0.638c0.346-0.231,0.721-0.506,1.11-0.839
	c-0.174,0.434-0.26,0.767-0.26,1.042c0,0.318,0.086,0.564,0.245,0.738c0.36,0.362,0.937,0.333,1.557-0.115
	c0.317-0.218,0.649-0.521,0.995-0.898c0.173-0.203,0.36-0.42,0.563-0.651c-0.332,0.623-0.707,1.289-1.096,2.013
	c-0.548,1-1.11,2.057-1.701,3.143c-0.592,1.101-1.14,2.129-1.673,3.1c-0.793,1.521-1.614,2.824-2.437,3.853
	s-1.673,1.883-2.523,2.534c-0.836,0.637-1.701,1.101-2.552,1.376c-1.672,0.535-3.374,0.507-4.83,0.159
	c-0.706-0.174-1.312-0.42-1.831-0.738c-0.504-0.319-0.894-0.725-1.182-1.202c-0.274-0.479-0.418-1.058-0.418-1.724l-0.015-0.087
	c-0.043-0.087-0.145-0.333-0.375-0.275c-0.13,0.029-0.274,0.116-0.288,0.652c0,0.607,0.071,1.201,0.216,1.752
	c0.145,0.579,0.418,1.101,0.793,1.55c0.375,0.448,0.894,0.811,1.543,1.086c0.634,0.261,1.456,0.391,2.437,0.391
	c1.312,0,2.537-0.188,3.633-0.579c1.096-0.376,2.12-0.912,3.057-1.578c0.923-0.666,1.788-1.463,2.552-2.375
	c0.765-0.913,1.471-1.897,2.12-2.926c0.793-1.304,1.528-2.52,2.234-3.664c0.707-1.13,1.428-2.331,2.148-3.563
	s1.499-2.578,2.307-4.012c0.793-1.434,1.688-3.07,2.725-4.996C1031.343,994.151,1031.4,993.934,1031.4,993.716z M1024.812,1000.291
	c0.102-0.391,0.274-0.854,0.52-1.347c0.23-0.492,0.533-1,0.894-1.521c0.346-0.507,0.778-0.971,1.269-1.391
	c0.159-0.13,0.332-0.217,0.548-0.261c0.245-0.043,0.49-0.072,0.765-0.072h0.101c-0.317,0.623-0.691,1.231-1.11,1.839l0,0
	c-0.476,0.709-0.951,1.347-1.398,1.897c-0.446,0.551-0.851,1.014-1.211,1.347c-0.303,0.29-0.461,0.391-0.519,0.434
	c0-0.015,0-0.043,0-0.087C1024.653,1001.016,1024.682,1000.784,1024.812,1000.291z"/>
<linearGradient id="SVGID_24_" gradientUnits="userSpaceOnUse" x1="-38.98" y1="619.2339" x2="-38.98" y2="620.1276" gradientTransform="matrix(27.137 0 0 27.137 2092.7231 -15814.2598)">
	<stop  offset="0" style="stop-color:#EDEAE8"/>
	<stop  offset="0" style="stop-color:#E7E3E0"/>
	<stop  offset="0.0643" style="stop-color:#D9D4D4"/>
	<stop  offset="0.187" style="stop-color:#B1ADB0"/>
	<stop  offset="0.264" style="stop-color:#979397"/>
	<stop  offset="0.5225" style="stop-color:#F9F9F9"/>
	<stop  offset="0.5874" style="stop-color:#EAE9EA"/>
	<stop  offset="0.7119" style="stop-color:#C5C2C4"/>
	<stop  offset="0.8764" style="stop-color:#8C878A"/>
	<stop  offset="1" style="stop-color:#DBDADA"/>
	<stop  offset="1" style="stop-color:#B3B2B2"/>
</linearGradient>
<path fill="url(#SVGID_24_)" d="M1038.782,997.873L1038.782,997.873c-0.13-0.058-0.273-0.029-0.403,0.102
	c-0.26,0.333-0.577,0.695-0.966,1.086c-0.39,0.391-0.808,0.739-1.255,1.072c-0.446,0.319-0.923,0.594-1.398,0.811
	c-0.461,0.203-0.923,0.319-1.341,0.319c-0.62,0-0.894-0.319-0.894-1.028c0-0.377,0.058-0.768,0.173-1.13
	c0.087-0.304,0.173-0.536,0.26-0.709c0.62-0.015,1.153-0.102,1.601-0.275c0.49-0.174,0.894-0.405,1.211-0.681
	c0.317-0.275,0.576-0.564,0.735-0.869c0.173-0.319,0.259-0.623,0.259-0.898c0-0.217-0.086-0.42-0.244-0.565
	c-0.159-0.145-0.404-0.217-0.736-0.217c-0.547,0-1.124,0.203-1.715,0.594c-0.577,0.391-1.096,0.869-1.572,1.448
	c-0.476,0.565-0.864,1.202-1.168,1.883c-0.303,0.681-0.461,1.333-0.461,1.926c0,0.681,0.288,1.506,1.644,1.506
	c0.605,0,1.226-0.115,1.846-0.362c0.605-0.231,1.196-0.55,1.773-0.941c0.563-0.376,1.096-0.811,1.571-1.274s0.895-0.913,1.24-1.347
	l0.043-0.058v-0.087C1038.999,998.061,1038.912,997.931,1038.782,997.873z M1034.717,995.859c0.173-0.13,0.332-0.188,0.49-0.188
	c0.145,0,0.173,0.029,0.173,0.174c0,0.507-0.188,0.941-0.591,1.303c-0.404,0.376-0.865,0.565-1.385,0.565c-0.028,0-0.071,0-0.115,0
	c0.087-0.174,0.188-0.348,0.303-0.536c0.174-0.275,0.36-0.536,0.563-0.768C1034.327,996.178,1034.515,995.99,1034.717,995.859z"/>
<linearGradient id="SVGID_25_" gradientUnits="userSpaceOnUse" x1="-41.2207" y1="618.9951" x2="-41.2207" y2="619.7263" gradientTransform="matrix(27.137 0 0 27.137 2092.7231 -15814.2598)">
	<stop  offset="0" style="stop-color:#EDEAE8"/>
	<stop  offset="0" style="stop-color:#E7E3E0"/>
	<stop  offset="0.0643" style="stop-color:#D9D4D4"/>
	<stop  offset="0.187" style="stop-color:#B1ADB0"/>
	<stop  offset="0.264" style="stop-color:#979397"/>
	<stop  offset="0.5225" style="stop-color:#F9F9F9"/>
	<stop  offset="0.5874" style="stop-color:#EAE9EA"/>
	<stop  offset="0.7119" style="stop-color:#C5C2C4"/>
	<stop  offset="0.8764" style="stop-color:#8C878A"/>
	<stop  offset="1" style="stop-color:#DBDADA"/>
	<stop  offset="1" style="stop-color:#B3B2B2"/>
</linearGradient>
<path fill="url(#SVGID_25_)" d="M974.119,1001.16l-2.754-0.796l-1.254-4.881c-0.159-0.564-0.894-0.623-0.779-0.681
	c0,0,4.441-2.143,4.556-2.201s0.188-0.072,0.23-0.072h0.015c0.043,0,0.115,0.014,0.23,0.072s4.556,2.201,4.556,2.201
	c0.101,0.058-0.62,0.116-0.779,0.681l-1.269,4.881l-2.739,0.811h-0.015V1001.16L974.119,1001.16z"/>
<linearGradient id="SVGID_26_" gradientUnits="userSpaceOnUse" x1="-41.2212" y1="618.9849" x2="-41.2212" y2="619.7141" gradientTransform="matrix(27.137 0 0 27.137 2092.7231 -15814.2598)">
	<stop  offset="0" style="stop-color:#EDEAE8"/>
	<stop  offset="0" style="stop-color:#E7E3E0"/>
	<stop  offset="0.0643" style="stop-color:#D9D4D4"/>
	<stop  offset="0.187" style="stop-color:#B1ADB0"/>
	<stop  offset="0.264" style="stop-color:#979397"/>
	<stop  offset="0.5225" style="stop-color:#F9F9F9"/>
	<stop  offset="0.5874" style="stop-color:#EAE9EA"/>
	<stop  offset="0.7119" style="stop-color:#C5C2C4"/>
	<stop  offset="0.8764" style="stop-color:#8C878A"/>
	<stop  offset="1" style="stop-color:#DBDADA"/>
	<stop  offset="1" style="stop-color:#B3B2B2"/>
</linearGradient>
<path fill="url(#SVGID_26_)" d="M968.655,991.529l6.127-1.405c0.548-0.087,1.355-0.13,1.875,0.232c0,0,0.245,0.217-0.159,0.217
	c-0.259,0-0.577,0.101-1.053,0.333c-0.403,0.203-4.931,2.273-5.796,2.665c-0.865,0.391-2.234,0.159-2.898,0.087
	c-0.663-0.072-0.144-2.462,1.428-3.143c1.946-0.84,4.21-1.839,4.296-1.883c0.014-0.014,0.043-0.014,0.058-0.029l0,0
	c0.058-0.015,0.115-0.029,0.188-0.029h0.029c0.014,0,0.014,0,0.029,0s0.029,0,0.029,0c0.043,0,0.086,0.014,0.13,0.043
	c0.317,0.159,0.721,0.376,1.196,0.434c0.087,0.015,0.173,0.015,0.274,0.015c0.029,0,0.072,0,0.116-0.015
	c0.303-0.014,0.663-0.072,1.067-0.217c0.187-0.058,0.245-0.102,0.548,0.014c0.403,0.159,3.561,1.506,3.561,1.506
	c1.99,0.898,2.437,3.099,1.73,3.316c0,0-2.004,0.318-2.912-0.116c-2.091-1.014-3.547-1.68-3.547-1.68s-0.216-0.13,0.043-0.261
	c0.26-0.13,1.038-0.478,1.038-0.478c0.375-0.174,0.461-0.174,0.909-0.102c0.707,0.13,2.912,0.738,2.912,0.738
	s0.043-0.347-0.36-0.492c-0.418-0.145-2.292-0.666-2.292-0.666s-0.346-1.246-2.509-0.84l-5.507,1.202
	C969.174,990.979,968.554,991.225,968.655,991.529z"/>
<linearGradient id="SVGID_27_" gradientUnits="userSpaceOnUse" x1="-41.2222" y1="618.9878" x2="-41.2222" y2="619.7151" gradientTransform="matrix(27.137 0 0 27.137 2092.7231 -15814.2598)">
	<stop  offset="0" style="stop-color:#EDEAE8"/>
	<stop  offset="0" style="stop-color:#E7E3E0"/>
	<stop  offset="0.0643" style="stop-color:#D9D4D4"/>
	<stop  offset="0.187" style="stop-color:#B1ADB0"/>
	<stop  offset="0.264" style="stop-color:#979397"/>
	<stop  offset="0.5225" style="stop-color:#F9F9F9"/>
	<stop  offset="0.5874" style="stop-color:#EAE9EA"/>
	<stop  offset="0.7119" style="stop-color:#C5C2C4"/>
	<stop  offset="0.8764" style="stop-color:#8C878A"/>
	<stop  offset="1" style="stop-color:#DBDADA"/>
	<stop  offset="1" style="stop-color:#B3B2B2"/>
</linearGradient>
<path fill="url(#SVGID_27_)" d="M971.711,983.912c-4.239,1.057-7.382,4.91-7.382,9.5c0,5.402,4.369,9.79,9.747,9.79
	c5.377,0,9.746-4.388,9.746-9.79c0-4.46-2.84-8.168-6.906-9.327l0.202,0.608c3.662,1.216,6.171,4.62,6.171,8.718
	c0,5.112-4.138,9.269-9.228,9.269s-9.228-4.156-9.228-9.269c0-4.214,2.812-7.777,6.661-8.907L971.711,983.912z"/>
<linearGradient id="SVGID_28_" gradientUnits="userSpaceOnUse" x1="-41.2134" y1="618.979" x2="-41.2134" y2="619.7116" gradientTransform="matrix(27.137 0 0 27.137 2092.7231 -15814.2598)">
	<stop  offset="0" style="stop-color:#EDEAE8"/>
	<stop  offset="0" style="stop-color:#E7E3E0"/>
	<stop  offset="0.0643" style="stop-color:#D9D4D4"/>
	<stop  offset="0.187" style="stop-color:#B1ADB0"/>
	<stop  offset="0.264" style="stop-color:#979397"/>
	<stop  offset="0.5225" style="stop-color:#F9F9F9"/>
	<stop  offset="0.5874" style="stop-color:#EAE9EA"/>
	<stop  offset="0.7119" style="stop-color:#C5C2C4"/>
	<stop  offset="0.8764" style="stop-color:#8C878A"/>
	<stop  offset="1" style="stop-color:#DBDADA"/>
	<stop  offset="1" style="stop-color:#B3B2B2"/>
</linearGradient>
<path fill="url(#SVGID_28_)" d="M976.513,985.418c0.173,1.506-0.663,2.853-1.875,2.983c-1.211,0.145-2.321-0.971-2.494-2.477
	c-0.173-1.506,0.663-2.853,1.874-2.983C975.215,982.796,976.339,983.912,976.513,985.418z"/>
</svg>
