<?xml version="1.0" encoding="utf-8"?>
<!-- Generator: Adobe Illustrator 23.1.0, SVG Export Plug-In . SVG Version: 6.00 Build 0)  -->
<svg version="1.1" id="Calque_1" xmlns="http://www.w3.org/2000/svg" xmlns:xlink="http://www.w3.org/1999/xlink" x="0px" y="0px"
	 viewBox="0 0 772 260" style="enable-background:new 0 0 772 260;" xml:space="preserve">
<style type="text/css">
	.st0{fill:#00414B;}
	.st1{fill:#1C938E;}
</style>
<g>
	<g>
		<g>
			<polygon class="st0" points="75.9,243.1 7.6,242.8 8.1,4.7 46.9,4.7 			"/>
			<path class="st1" d="M78,137.2c0,0,49.3,3.4,73.1-30.3c0,69.7,0,136,0,136H90.9L78,137.2z"/>
			<path class="st0" d="M60.4,4.7l14.8,119.4c0,0,52.4,3.7,69.9-33.9S137.6,23,126,15.4S103.8,3,60.4,4.7z"/>
		</g>
	</g>
	<g>
		<g>
			<path class="st0" d="M226.2,130.8c0,11.3-9.3,18-20,18h-9.4v-8.6h9.6c5.9,0,11.4-3.1,11.4-9.4c0-5.2-4.3-9.1-9.3-9.5h-16.8v18.9
				v10.3V177h-8.6v-64.3c7.7,0,15.2,0.1,22.9,0.1C216.7,112.6,226.2,119.3,226.2,130.8z"/>
			<path class="st0" d="M227.9,177.6h-9.3l27.3-64.8h6.3l27.4,64.8h-9.4L265,165h-31.9L227.9,177.6z M236.7,156.5h24.6l-12.3-29.1
				L236.7,156.5z"/>
			<path class="st0" d="M305,168.2c4.3,0.6,10.1,0.4,13.1-3.2c0.8-1,1.3-2.2,1.5-3.4c0.3-1.3,0.1-2.7-0.3-4
				c-3.6-10.7-19-6.4-27.5-18.4c-1.8-2.6-3-5.6-3.3-8.7c-0.3-3.3,0.6-6.4,2.4-9.1c5.3-8.2,17.4-10.8,26.1-7.1
				c4.1,1.8,8.4,5.1,10.5,9.2l0.8,1.7l-7.6,3.9l-0.8-1.7c-1.2-2.3-4-4.2-6.2-5.2c-5-2.1-12.6-0.8-15.7,3.9c-0.7,1.2-1,2.4-0.9,3.8
				c0.2,1.6,0.8,3.1,1.7,4.5c6.9,9.8,23.1,4.3,28.7,20.5c5.1,15.2-9.6,23.8-23.6,21.7c-6-0.9-12.8-5.1-16.6-9.8l-1.2-1.4l6.5-5.4
				l1.2,1.3C296.5,164.6,300.7,167.5,305,168.2z"/>
			<path class="st0" d="M395.6,162.6c-2.9,4.5-6.8,8.3-11.5,11c-4.7,2.6-9.9,4-15.3,4c-8.5,0-16.6-3.5-22.5-9.5
				c-6.1-6.1-9.3-14.3-9.3-22.9c0-17.7,14-32.4,31.8-32.4c5.4,0,10.6,1.4,15.3,4c4.7,2.8,8.7,6.6,11.5,11l1.1,1.7l-7.3,4.5l-1-1.6
				c-2.1-3.4-5-6.1-8.5-8.1c-3.4-1.9-7.2-2.9-11.1-2.9c-13,0-23.1,10.9-23.1,23.7c0,6.4,2.4,12.4,6.7,16.9
				c4.4,4.4,10.2,6.9,16.4,6.9c3.9,0,7.7-1,11.1-2.9c3.4-1.9,6.4-4.7,8.5-8.2l1-1.5l7.3,4.5L395.6,162.6z"/>
			<path class="st0" d="M410.9,177.6h-9.3l27.3-64.8h6.3l27.4,64.8h-9.4L448,165h-31.9L410.9,177.6z M419.7,156.5h24.6l-12.3-29.1
				L419.7,156.5z"/>
			<path class="st0" d="M509.6,169v8.6h-38.7v-64.9h8.7V169H509.6z"/>
			<path class="st0" d="M524.7,177.6h-5.1v-64.9h5.1V177.6z"/>
			<path class="st0" d="M555,121.2l-15.2,56.4h-5.3l17.5-64.9h6.1l14.5,53.3l14.4-53.3h6.1l17.5,64.9h-5.3L589.9,121
				c-2.5,9.5-5.1,18.9-7.6,28.3c-2.6,9.4-5.1,18.8-7.7,28.3h-4.3L555,121.2z"/>
			<path class="st0" d="M639.8,121.2l-15.2,56.4h-5.3l17.5-64.9h6.1l14.5,53.3l14.4-53.3h6.1l17.5,64.9h-5.3L674.7,121
				c-2.5,9.5-5.1,18.9-7.6,28.3c-2.6,9.4-5.1,18.8-7.7,28.3h-4.3L639.8,121.2z"/>
			<path class="st0" d="M709.7,122.2c3-2.9,6.4-5.2,10.3-6.9c3.9-1.7,8.1-2.6,12.6-2.6c4.5,0,8.7,0.9,12.6,2.6
				c3.9,1.7,7.4,4,10.3,6.9c2.9,3,5.2,6.4,6.9,10.3c1.7,3.9,2.5,8.1,2.5,12.7c0,4.5-0.8,8.7-2.5,12.6s-4,7.3-6.9,10.3
				c-3,3-6.4,5.3-10.3,7c-3.9,1.7-8.1,2.5-12.6,2.5c-4.5,0-8.7-0.8-12.6-2.5c-3.9-1.7-7.4-4-10.3-7c-2.9-2.9-5.2-6.3-6.9-10.3
				c-1.7-3.9-2.6-8.1-2.6-12.6c0-4.5,0.9-8.8,2.6-12.7C704.5,128.6,706.8,125.2,709.7,122.2z M732.7,118.1c-3.8,0-7.3,0.7-10.6,2.1
				c-3.3,1.4-6.2,3.3-8.6,5.8c-2.5,2.5-4.4,5.3-5.8,8.6c-1.4,3.3-2.1,6.8-2.1,10.6c0,3.8,0.7,7.3,2.1,10.6c1.4,3.3,3.3,6.2,5.8,8.6
				c2.5,2.5,5.3,4.4,8.6,5.8c3.3,1.4,6.8,2.1,10.6,2.1c3.8,0,7.3-0.7,10.6-2.1c3.3-1.4,6.2-3.3,8.6-5.8c2.5-2.5,4.4-5.3,5.8-8.6
				c1.4-3.3,2.1-6.8,2.1-10.6c0-3.8-0.7-7.3-2.1-10.6c-1.4-3.3-3.3-6.2-5.8-8.6c-2.5-2.5-5.3-4.4-8.6-5.8
				C740,118.8,736.5,118.1,732.7,118.1z"/>
		</g>
		<g>
			<path class="st1" d="M202.9,238.5c0,2.2,0.2,4.5,0.3,5.2h-4c-0.2-0.5-0.3-1.7-0.4-3.1c-0.8,1.6-2.7,3.7-7.4,3.7
				c-5.6,0-8.1-3.7-8.1-7.3c0-5.3,4.2-7.8,11.3-7.8c1.7,0,3.2,0,4.1,0v-2c0-2.1-0.7-4.7-5.2-4.7c-4,0-4.7,2-5.1,3.9h-4
				c0.3-3.3,2.4-7.1,9.2-7.1c5.9,0,9.1,2.4,9.1,7.8V238.5z M198.9,232.1c-0.8,0-2.6,0-3.9,0c-4.8,0-7.3,1.3-7.3,4.7
				c0,2.5,1.7,4.3,4.7,4.3c5.8,0,6.5-3.9,6.5-8.2V232.1z"/>
			<path class="st1" d="M236.2,241.6c0,7.7-3.2,12-11,12c-7.3,0-9.5-4.1-9.9-7.3h4.2c0.7,2.6,2.8,4,5.9,4c5.4,0,6.8-3.4,6.8-9v-1.9
				c-1.3,2.7-3.5,4.2-7.5,4.2c-5.9,0-9.9-4.8-9.9-11.8c0-7.8,4.5-12.6,10.3-12.6c4.6,0,6.5,2.1,7.1,3.7c0-1.1,0.1-2.7,0.2-3.2h3.9
				c0,1.4-0.1,4.6-0.1,6.9V241.6z M219,231.6c0,5.1,2.6,8.5,6.5,8.5c5.2,0,6.7-3.5,6.7-8.8c0-5.4-1.4-8.6-6.5-8.6
				C221.3,222.7,219,226.5,219,231.6z"/>
			<path class="st1" d="M252.1,232.5c0,4.9,2.5,8.3,6.5,8.3c3.8,0,5-2,5.8-3.7h4.2c-0.9,3.1-3.5,7.2-10.1,7.2
				c-7.5,0-10.6-6.1-10.6-12.3c0-7.1,3.6-12.8,10.9-12.8c7.7,0,10.3,6.2,10.3,11.3c0,0.7,0,1.3-0.1,2H252.1z M264.8,229.6
				c0-3.9-2-7.1-6.1-7.1c-4.2,0-6.1,2.9-6.5,7.1H264.8z"/>
			<path class="st1" d="M280.8,225.8c0-2.1,0-4.2,0-6h4c0.1,0.7,0.2,3.2,0.2,3.9c1-2.1,2.9-4.5,7.5-4.5c4.5,0,8,2.7,8,9.1v15.4h-4.1
				v-14.9c0-3.6-1.4-6.1-5.1-6.1c-4.5,0-6.3,3.4-6.3,8.3v12.7h-4.1V225.8z"/>
			<path class="st1" d="M310.5,219.8h4.1v-7.1h4.1v7.1h5.3v3.4h-5.3v14c0,2.3,0.6,3.5,2.7,3.5c0.6,0,1.4,0,2.1-0.2v3.1
				c-1,0.4-2.4,0.4-3.6,0.4c-3.7,0-5.4-1.9-5.4-5.9v-15h-4.1V219.8z"/>
			<path class="st1" d="M337.4,236.9c0.7,2.6,2.6,4.2,5.9,4.2c3.5,0,4.9-1.5,4.9-3.7c0-2.2-1.1-3.3-5.7-4.4c-6.8-1.7-8.3-3.8-8.3-7
				c0-3.4,2.5-6.7,8.6-6.7c6.2,0,8.7,3.6,9,6.9h-4c-0.3-1.5-1.5-3.7-5.2-3.7c-3.4,0-4.4,1.6-4.4,3.2c0,1.8,1,2.7,5.4,3.7
				c7.3,1.7,8.7,4.1,8.7,7.7c0,4.2-3.3,7.3-9.3,7.3c-6.2,0-9.2-3.1-9.9-7.4H337.4z"/>
			<path class="st1" d="M400.3,238.5c0,2.2,0.2,4.5,0.3,5.2h-4c-0.2-0.5-0.3-1.7-0.4-3.1c-0.8,1.6-2.7,3.7-7.4,3.7
				c-5.6,0-8.1-3.7-8.1-7.3c0-5.3,4.2-7.8,11.3-7.8c1.7,0,3.2,0,4.1,0v-2c0-2.1-0.7-4.7-5.2-4.7c-4,0-4.7,2-5.1,3.9h-4
				c0.3-3.3,2.4-7.1,9.2-7.1c5.9,0,9.1,2.4,9.1,7.8V238.5z M396.3,232.1c-0.8,0-2.6,0-3.9,0c-4.8,0-7.3,1.3-7.3,4.7
				c0,2.5,1.7,4.3,4.7,4.3c5.8,0,6.5-3.9,6.5-8.2V232.1z"/>
			<path class="st1" d="M432.7,236.4c-1,4.1-3.8,7.9-9.9,7.9c-6.6,0-10.7-4.7-10.7-12.4c0-6.8,3.8-12.7,11-12.7c6.9,0,9.3,4.9,9.6,8
				h-4.1c-0.6-2.4-2.1-4.5-5.6-4.5c-4.2,0-6.6,3.6-6.6,9.1c0,5.5,2.3,9.1,6.5,9.1c3,0,4.7-1.6,5.7-4.5H432.7z"/>
			<path class="st1" d="M441.5,219.8h4.1v-7.1h4.1v7.1h5.3v3.4h-5.3v14c0,2.3,0.6,3.5,2.7,3.5c0.6,0,1.4,0,2.1-0.2v3.1
				c-1,0.4-2.4,0.4-3.6,0.4c-3.7,0-5.4-1.9-5.4-5.9v-15h-4.1V219.8z"/>
			<path class="st1" d="M465.8,209.1h4.1v5.2h-4.1V209.1z M465.8,219.8h4.1v23.9h-4.1V219.8z"/>
			<path class="st1" d="M484.5,243.8v-20.6h-3.9v-3.4h3.9v-2.9c0-4.4,1.7-8.3,7-8.3c0.9,0,2.1,0.1,2.6,0.3v3.5
				c-0.6-0.1-1.5-0.2-2.1-0.2c-2.5,0-3.4,1.5-3.4,5v2.6h4.8v3.4h-4.8v20.6H484.5z"/>
			<path class="st1" d="M505.8,236.9c0.7,2.6,2.6,4.2,5.9,4.2c3.5,0,4.9-1.5,4.9-3.7c0-2.2-1.1-3.3-5.7-4.4c-6.8-1.7-8.3-3.8-8.3-7
				c0-3.4,2.5-6.7,8.6-6.7c6.2,0,8.7,3.6,9,6.9h-4c-0.3-1.5-1.5-3.7-5.2-3.7c-3.4,0-4.4,1.6-4.4,3.2c0,1.8,1,2.7,5.4,3.7
				c7.3,1.7,8.7,4.1,8.7,7.7c0,4.2-3.3,7.3-9.3,7.3c-6.2,0-9.2-3.1-9.9-7.4H505.8z"/>
			<path class="st1" d="M573.5,222.9l-8.4,12.3c-3.9,5.8-6.7,9-12.7,9c-6.2,0-9.4-4.4-9.4-8.7c0-4.3,2.4-7.2,8.9-10.6
				c4.2-2.3,6.6-3.9,6.6-6.9c0-2.3-1.4-4.4-4.1-4.4c-2.5,0-4.3,1.7-4.3,4.6c0,2.1,1.5,3.9,4,6.2l19.8,19.4h-5.6l-17.6-17.3
				c-2.6-2.5-4.4-4.8-4.4-8.1c0-4.2,3-7.9,8.2-7.9c4.9,0,7.9,3.4,7.9,7.5c0,3.6-2.3,5.9-8.2,9.2c-5.7,2.9-6.8,5.3-6.8,8
				c0,2.9,2.3,5.4,5.4,5.4c3.7,0,5.8-1.5,9.9-7.7l6.5-9.9H573.5z"/>
			<path class="st1" d="M593.8,232.5c0,4.9,2.5,8.3,6.5,8.3c3.8,0,5-2,5.8-3.7h4.2c-0.9,3.1-3.5,7.2-10.1,7.2
				c-7.5,0-10.6-6.1-10.6-12.3c0-7.1,3.6-12.8,10.9-12.8c7.7,0,10.3,6.2,10.3,11.3c0,0.7,0,1.3-0.1,2H593.8z M606.5,229.6
				c0-3.9-2-7.1-6.1-7.1c-4.2,0-6.1,2.9-6.5,7.1H606.5z"/>
			<path class="st1" d="M622.4,225.8c0-2.1,0-4.2,0-6h4c0.1,0.7,0.2,3.2,0.2,3.9c1-2.1,2.9-4.5,7.5-4.5c4.5,0,8,2.7,8,9.1v15.4H638
				v-14.9c0-3.6-1.4-6.1-5.1-6.1c-4.5,0-6.3,3.4-6.3,8.3v12.7h-4.1V225.8z"/>
			<path class="st1" d="M652.2,219.8h4.1v-7.1h4.1v7.1h5.3v3.4h-5.3v14c0,2.3,0.6,3.5,2.7,3.5c0.6,0,1.4,0,2.1-0.2v3.1
				c-1,0.4-2.4,0.4-3.6,0.4c-3.7,0-5.4-1.9-5.4-5.9v-15h-4.1V219.8z"/>
			<path class="st1" d="M676.5,209.1h4.1v5.2h-4.1V209.1z M676.5,219.8h4.1v23.9h-4.1V219.8z"/>
			<path class="st1" d="M696.5,232.5c0,4.9,2.5,8.3,6.5,8.3c3.8,0,5-2,5.8-3.7h4.2c-0.9,3.1-3.5,7.2-10.1,7.2
				c-7.5,0-10.6-6.1-10.6-12.3c0-7.1,3.6-12.8,10.9-12.8c7.7,0,10.3,6.2,10.3,11.3c0,0.7,0,1.3-0.1,2H696.5z M709.3,229.6
				c0-3.9-2-7.1-6.1-7.1c-4.2,0-6.1,2.9-6.5,7.1H709.3z"/>
			<path class="st1" d="M725.2,226.3c0-3.3,0-5.2,0-6.5h4.1c0.1,0.7,0.1,2.6,0.1,4.9c1.3-3.2,4.1-5.3,8.1-5.5v4.1
				c-4.9,0.1-8.1,2.7-8.1,8.8v11.6h-4.1V226.3z"/>
			<path class="st1" d="M750.3,236.9c0.7,2.6,2.6,4.2,5.9,4.2c3.5,0,4.9-1.5,4.9-3.7c0-2.2-1.1-3.3-5.7-4.4c-6.8-1.7-8.3-3.8-8.3-7
				c0-3.4,2.5-6.7,8.6-6.7c6.2,0,8.7,3.6,9,6.9h-4c-0.3-1.5-1.5-3.7-5.2-3.7c-3.4,0-4.4,1.6-4.4,3.2c0,1.8,1,2.7,5.4,3.7
				c7.3,1.7,8.7,4.1,8.7,7.7c0,4.2-3.3,7.3-9.3,7.3c-6.2,0-9.2-3.1-9.9-7.4H750.3z"/>
		</g>
	</g>
</g>
</svg>
