<?xml version="1.0" encoding="utf-8"?>
<!-- Generator: Adobe Illustrator 15.0.2, SVG Export Plug-In . SVG Version: 6.00 Build 0)  -->
<!DOCTYPE svg PUBLIC "-//W3C//DTD SVG 1.1//EN" "http://www.w3.org/Graphics/SVG/1.1/DTD/svg11.dtd">
<svg version="1.1" id="Calque_1" xmlns="http://www.w3.org/2000/svg" xmlns:xlink="http://www.w3.org/1999/xlink" x="0px" y="0px"
	 width="64px" height="64px" viewBox="0 0 64 64" enable-background="new 0 0 64 64" xml:space="preserve">
<g>
	<g>
		<path fill="#00427A" d="M47.32,16.07c-6.209,5.457-12.426,10.926-18.646,16.363c-0.012,0-0.021,0.01-0.021,0.02
			c-1.552,1.338-3.82,1.338-5.361,0c-0.01-0.01-0.021-0.02-0.03-0.02C17.044,26.996,10.835,21.527,4.617,16.07
			c-0.424-0.362-0.484-0.603-0.363-0.785c0.523-0.764,2.57-0.704,3.346-0.743c1.612-0.101,3.225,0.01,4.838,0.01
			c2.57-0.01,5.14-0.01,7.711-0.01c1.935,0,3.881-0.01,5.825-0.01c1.936,0,3.88,0.01,5.825,0.01c2.571,0,5.131,0,7.7,0.01
			c1.623,0,3.226-0.111,4.839-0.01c0.775,0.04,2.832-0.021,3.355,0.743C47.814,15.467,47.745,15.708,47.32,16.07z"/>
		<path fill="#00427A" d="M51.948,21.85v19.791c0,4.976-2.662,7.851-7.278,7.851c-2.096,0.01-4.191,0.01-6.289,0.01H19.846
			c-4.193-0.01-8.375,0-12.578-0.01C2.662,49.49,0,46.615,0,41.641V21.85c0-1.598,0.373-3.036,1.25-4.332
			c0.251,0.412,0.595,0.814,1.038,1.196l3.759,3.306c4.959,4.354,9.929,8.715,14.927,13.087c1.391,1.207,3.164,1.869,5,1.869
			c1.804,0,3.548-0.643,4.928-1.817l0.102-0.08c4.809-4.204,9.605-8.424,14.403-12.635l4.213-3.699
			c0.453-0.393,0.806-0.804,1.067-1.227C51.575,18.814,51.948,20.251,51.948,21.85z"/>
		<g>
			<path fill="#00427A" d="M62.943,22.717h-8.629c-0.584,0-1.057-0.472-1.057-1.053s0.473-1.052,1.057-1.052h8.629
				c0.584,0,1.057,0.471,1.057,1.052S63.527,22.717,62.943,22.717z"/>
		</g>
		<g>
			<path fill="#00427A" d="M60.835,29.028h-6.521c-0.584,0-1.057-0.472-1.057-1.052c0-0.582,0.473-1.053,1.057-1.053h6.521
				c0.582,0,1.056,0.471,1.056,1.053C61.891,28.557,61.418,29.028,60.835,29.028z"/>
		</g>
		<g>
			<path fill="#00427A" d="M57.152,35.34h-2.838c-0.584,0-1.057-0.469-1.057-1.051s0.473-1.053,1.057-1.053h2.838
				c0.582,0,1.055,0.471,1.055,1.053S57.734,35.34,57.152,35.34z"/>
		</g>
	</g>
</g>
</svg>
