<?xml version="1.0" encoding="utf-8"?>
<!-- Generator: Adobe Illustrator 15.0.2, SVG Export Plug-In . SVG Version: 6.00 Build 0)  -->
<!DOCTYPE svg PUBLIC "-//W3C//DTD SVG 1.1//EN" "http://www.w3.org/Graphics/SVG/1.1/DTD/svg11.dtd">
<svg version="1.1" id="Calque_1" xmlns="http://www.w3.org/2000/svg" xmlns:xlink="http://www.w3.org/1999/xlink" x="0px" y="0px"
	 width="64px" height="64px" viewBox="0 0 64 64" enable-background="new 0 0 64 64" xml:space="preserve">
<g>
	<path fill="#00427A" d="M62.416,27.62c-0.734-0.558-1.467-1.117-2.188-1.675c-1.15-0.896-2.314-1.78-3.467-2.664L46.35,15.277
		l-2.049-1.571c-3.152-2.419-6.316-4.852-9.469-7.271c-0.547-0.418-1.092-0.698-1.639-0.873c-0.023-0.011-0.047-0.011-0.07-0.023
		c-0.162-0.046-0.326-0.093-0.488-0.128c-0.094-0.011-0.187-0.022-0.291-0.035c-0.115-0.012-0.232-0.012-0.338-0.012
		c-0.115,0-0.232,0-0.35,0.012c-0.092,0.011-0.197,0.022-0.289,0.035c-0.164,0.036-0.327,0.082-0.49,0.128
		c-0.021,0.012-0.047,0.012-0.068,0.023c-0.547,0.175-1.094,0.453-1.629,0.873c-3.85,2.943-7.689,5.898-11.527,8.842v-3.281
		c0-0.779-0.641-1.419-1.432-1.419H10.8c-0.792,0-1.431,0.64-1.431,1.431c0.012,3.222,0.034,5.956-0.047,8.678
		c-0.012,0.478-0.268,1.047-0.617,1.466c-1.641,1.268-3.281,2.524-4.932,3.792c-0.724,0.559-1.457,1.117-2.178,1.676
		c-0.987,0.756-1.652,1.629-1.592,2.746c-0.012,0.582,0.139,1.152,0.488,1.653c0.826,1.209,2.548,1.836,4.141,1.372
		c0.36-0.104,0.709-0.267,1.047-0.465v21.406c0,0.104,0.012,0.208,0.023,0.301H3.398v4.002H60.6v-4.004h-2.303
		c0.012-0.093,0.021-0.197,0.021-0.302V32.924c0.338,0.198,0.688,0.36,1.059,0.465c1.584,0.465,3.305-0.162,4.131-1.372
		c0.35-0.501,0.5-1.071,0.488-1.653C64.055,29.249,63.404,28.376,62.416,27.62z M10.275,54.631c0.011-0.093,0.021-0.197,0.021-0.302
		V37.415c0,0,0,0,0.012,0v-7.631c0-0.116,0.023-0.232,0.047-0.349c6.736-5.141,13.472-10.284,20.16-15.46l0.698-0.511
		c0.28-0.175,0.534-0.245,0.79-0.268c0.245,0.023,0.502,0.094,0.779,0.268l0.698,0.511c6.701,5.176,13.427,10.319,20.172,15.46
		c0.013,0.116,0.035,0.233,0.035,0.349v7.631c0.013,0,0.013,0,0.013,0v16.914c0,0.104,0.012,0.211,0.022,0.304H10.275V54.631z"/>
	<g>
		<path fill="#0272B3" d="M25.315,44.798c1.138,0,2.276-0.003,3.413,0c0.651,0,1.107,0.427,1.1,1.021
			c-0.008,0.574-0.465,0.986-1.104,0.986c-2.296,0.002-4.593,0.004-6.89,0c-0.535-0.002-0.961-0.367-1.029-0.865
			c-0.07-0.502,0.252-0.981,0.756-1.108c0.119-0.03,0.248-0.032,0.372-0.032C23.063,44.795,24.188,44.798,25.315,44.798z"/>
		<path fill="#0272B3" d="M24.31,42.271c0.01-0.56,0.474-1,1.037-0.983c0.541,0.014,0.979,0.478,0.971,1.021
			c-0.011,0.553-0.484,1.004-1.04,0.985C24.737,43.275,24.299,42.814,24.31,42.271z"/>
		<path fill="#0272B3" d="M24.309,49.298c0.006-0.558,0.473-1.004,1.032-0.989c0.542,0.015,0.98,0.471,0.975,1.018
			c-0.005,0.541-0.46,0.99-1.002,0.99C24.756,50.313,24.303,49.855,24.309,49.298z"/>
		<path fill="#0272B3" d="M24.309,33.428c-0.831,0-1.613,0.002-2.398,0c-0.659-0.002-1.116-0.417-1.113-1.008
			c0.002-0.588,0.463-0.998,1.123-1c0.781,0,1.564,0,2.388,0c0-0.233,0-0.449,0-0.664c0-0.616-0.007-1.233,0.002-1.849
			c0.008-0.56,0.452-0.995,0.997-0.998c0.545-0.002,0.998,0.431,1.005,0.99c0.011,0.825,0.003,1.65,0.003,2.521
			c0.114,0,0.213,0,0.313,0c0.72,0,1.441-0.002,2.163,0.003c0.585,0.004,1.029,0.435,1.035,0.99
			c0.007,0.567-0.444,1.012-1.044,1.015c-0.812,0.006-1.624,0.002-2.467,0.002c0,0.854,0.005,1.676-0.002,2.498
			c-0.003,0.449-0.269,0.811-0.679,0.953c-0.399,0.141-0.852,0.035-1.091-0.318c-0.132-0.194-0.218-0.457-0.226-0.691
			C24.293,35.068,24.309,34.268,24.309,33.428z"/>
		<path fill="#0272B3" d="M38.668,44.8c-1.127,0-2.256,0-3.383,0c-0.656-0.002-1.113-0.419-1.111-1.01
			c0.004-0.592,0.457-0.999,1.121-0.999c2.275-0.001,4.551-0.002,6.826,0c0.629,0,1.08,0.427,1.08,1.01
			c0,0.575-0.459,0.997-1.09,0.997C40.965,44.8,39.814,44.798,38.668,44.8z"/>
		<path fill="#0272B3" d="M38.688,46.803c1.138,0,2.275-0.001,3.412,0.002c0.654,0,1.111,0.426,1.104,1.016
			c-0.009,0.578-0.463,0.992-1.101,0.992c-2.287,0-4.571,0-6.858,0c-0.608,0-1.063-0.424-1.07-0.986
			c-0.008-0.581,0.447-1.02,1.068-1.021C36.391,46.8,37.539,46.803,38.688,46.803z"/>
		<path fill="#0272B3" d="M38.688,31.018c0.785-0.788,1.535-1.556,2.304-2.307c0.573-0.562,1.479-0.305,1.682,0.468
			c0.099,0.376-0.021,0.699-0.291,0.97c-0.68,0.68-1.358,1.358-2.036,2.039c-0.072,0.072-0.142,0.148-0.242,0.256
			c0.489,0.486,0.975,0.958,1.455,1.434c0.268,0.263,0.534,0.529,0.799,0.797c0.449,0.455,0.465,1.06,0.043,1.474
			c-0.41,0.406-1.008,0.39-1.449-0.049c-0.676-0.668-1.346-1.344-2.018-2.016c-0.072-0.072-0.15-0.143-0.265-0.251
			c-0.229,0.239-0.446,0.474-0.674,0.702c-0.529,0.533-1.06,1.066-1.597,1.594c-0.426,0.416-1.026,0.414-1.43,0.012
			c-0.4-0.401-0.4-1.005,0.02-1.428c0.748-0.756,1.507-1.503,2.279-2.273c-0.09-0.097-0.162-0.181-0.24-0.259
			c-0.666-0.665-1.332-1.328-1.993-1.994c-0.455-0.457-0.479-1.055-0.066-1.473c0.416-0.419,1.021-0.402,1.474,0.049
			C37.18,29.499,37.914,30.241,38.688,31.018z"/>
	</g>
</g>
</svg>
