<?xml version="1.0" standalone="no"?> <!DOCTYPE svg PUBLIC "-//W3C//DTD SVG 1.0//EN" "http://www.w3.org/TR/2001/REC-SVG-20010904/DTD/svg10.dtd" > <svg xmlns="http://www.w3.org/2000/svg" width="100%" height="100%">
<defs >
<font id="matrixscriptregularlining" horiz-adv-x="465" ><font-face
    font-family="MatrixScriptRegularLining"
    units-per-em="1200"
    panose-1="0 0 0 0 0 0 0 0 0 0"
    ascent="936"
    descent="-400"
    alphabetic="0" />
<missing-glyph horiz-adv-x="600" d="M75 0V936H525V0H75ZM150 75H450V861H150V75Z" />
<glyph unicode=" " glyph-name="space" horiz-adv-x="280" />
<glyph unicode="!" glyph-name="exclam" horiz-adv-x="325" d="M304 635L188 176H159V635Q159 669 184 695T244 721Q272 721 289 703T307 655Q307 647 304 635ZM213 52Q209 27 190 10T145 -8Q120 -8 105 9T92 52Q96 77 116 95T162 113Q187 113 202 95T213 52Z" />
<glyph unicode="&quot;" glyph-name="quotedbl" horiz-adv-x="429" d="M428 652L357 481H338L314 652Q310 679 331 700T380 721Q402 721 416 706T431 669Q431 659 428 652ZM250 652L179 481H160L136 652Q132 679 153 700T202 721Q224 721 238 706T253 669Q253
659 250 652Z" />
<glyph unicode="#" glyph-name="numbersign" horiz-adv-x="363" d="M398 602L370 533H321L286 425H338L310 357H262L225 248H183L220 357H145L108 248H66L103 357H50L78 425H127L162 533H110L138 602H186L223 711H265L228 602H303L340 711H382L345 602H398ZM279
533H204L169 425H244L279 533Z" />
<glyph unicode="$" glyph-name="dollar" horiz-adv-x="500" d="M431 232Q421 162 371 121T250 79L232 -48H187L205 81Q154 88 118 125T81 214Q81 253 107 277Q128 296 154 296Q208 296 208 244Q207 238 207 235Q200 187 153 176L150 175Q172 128 240 128Q279 128
312 151T346 213V218Q346 260 286 310L185 394Q123 446 123 507Q123 516 124 520Q143 653 288 669L308 810H353L333 671Q378 666 409 640Q444 612 444 569Q444 536 424 518T379 499Q355 499 341 515T330 555Q335 588 363 601Q344 622 309 622Q272 622 243 603Q211
582 206 547Q201 513 241 479L356 381Q432 316 432 251Q432 239 431 232Z" />
<glyph unicode="%" glyph-name="percent" horiz-adv-x="646" d="M665 708L108 -17L85 3L501 665H336Q358 636 358 590Q358 577 357 570Q349 515 310 475Q269 432 215 432Q166 432 136 465T105 549Q105 556 107 570Q115 625 157 666T253 708H665ZM578 134Q570 78
531 38Q490 -5 435 -5Q386 -5 356 29T326 113Q326 120 328 134Q336 189 377 230T474 271Q522 271 551 238T580 155Q580 149 578 134ZM318 570Q319 577 319 587Q319 617 306 638Q290 664 262 664Q230 664 206 632Q186 605 181 570Q180 562 180 553Q180 523 193 502Q208
477 236 477Q268 477 292 509Q313 536 318 570ZM539 134Q540 141 540 151Q540 180 525 203T483 227Q451 227 427 196Q407 168 402 134Q401 127 401 117Q401 87 414 66Q429 40 457 40Q489 40 513 72Q534 100 539 134Z" />
<glyph unicode="&amp;" glyph-name="ampersand" horiz-adv-x="716" d="M701 401Q693 352 659 321T575 289L571 263Q552 142 476 67Q396 -11 276 -11Q191 -11 131 35Q65 85 65 167V179Q67 188 67 192Q76 261 129 313T253 378Q205 390 173 430T141 520Q141 531 142
538Q153 623 235 675Q307 721 398 721Q468 721 515 690Q570 654 570 587L531 569Q513 657 411 657Q351 657 307 623T255 531Q253 517 253 509Q253 466 282 433T354 395H363L354 337H350Q289 337 240 295T181 193Q180 186 180 177Q180 124 224 90Q265 58 319 58Q404
58 461 126Q511 186 525 276L527 289H476Q454 289 437 274T416 237L413 216H390L398 268Q405 315 439 347T521 380H623Q645 380 662 395T683 432L686 453H709L701 401Z" />
<glyph unicode="&apos;" glyph-name="quotesingle" horiz-adv-x="255" d="M251 652L180 481H161L137 652Q133 679 154 700T203 721Q225 721 239 706T254 669Q254 659 251 652Z" />
<glyph unicode="(" glyph-name="parenleft" horiz-adv-x="338" d="M286 -81L271 -102Q82 38 82 264Q82 304 89 354Q130 647 399 810L408 789Q292 667 240 539Q207 457 192 354Q184 298 184 241Q184 72 286 -81Z" />
<glyph unicode=")" glyph-name="parenright" horiz-adv-x="338" d="M298 354Q257 63 -11 -102L-21 -81Q96 40 148 169Q181 251 196 354Q204 410 204 467Q204 639 101 789L117 810Q304 674 304 441Q304 396 298 354Z" />
<glyph unicode="*" glyph-name="asterisk" horiz-adv-x="405" d="M383 480Q371 463 353 463Q337 463 324 479L256 560L271 450Q274 430 264 415T233 399Q205 399 205 430Q205 441 209 450L256 560L164 478Q146 462 130 462Q102 462 102 492Q102 521 141 531L256
560L149 589Q121 597 121 621Q121 633 128 641Q140 658 159 658Q175 658 187 643L256 560L240 670Q237 689 248 705T278 721Q307 721 307 691Q307 682 302 670L256 560L348 641Q366 657 382 657Q400 657 406 640Q409 634 409 627Q409 597 371 588L256 560L363 532Q391
525 391 501Q391 489 383 480Z" />
<glyph unicode="+" glyph-name="plus" horiz-adv-x="432" d="M380 253H254L235 124H180L199 253H75L82 309H206L224 437H279L261 309H387L380 253Z" />
<glyph unicode="," glyph-name="comma" horiz-adv-x="311" d="M178 55Q164 -39 17 -115L8 -99Q70 -59 92 -6Q45 5 52 55Q56 81 76 99T124 118Q151 118 166 100T178 55Z" />
<glyph unicode="-" glyph-name="hyphen" horiz-adv-x="375" d="M331 255H66L73 307H338L331 255Z" />
<glyph unicode="." glyph-name="period" horiz-adv-x="311" d="M120 118Q144 118 159 103T175 64Q174 58 174 55Q170 27 150 10T102 -8Q78 -8 63 7T47 46Q48 52 48 55Q52 83 72 100T120 118Z" />
<glyph unicode="/" glyph-name="slash" horiz-adv-x="523" d="M603 707L45 -11L20 11L445 707H603Z" />
<glyph unicode="0" glyph-name="zero" horiz-adv-x="638" d="M598 355Q578 216 508 114Q423 -11 298 -11Q190 -11 133 83Q87 160 87 276Q87 314 93 355Q113 493 187 596Q275 721 401 721Q507 721 560 629Q604 554 604 441Q604 397 598 355ZM419 650Q333 650 273
540Q229 458 214 355Q208 313 208 275Q208 195 233 137Q266 59 336 59Q421 59 482 169Q527 253 542 355Q548 397 548 433Q548 514 523 572Q490 650 419 650Z" />
<glyph unicode="1" glyph-name="one" horiz-adv-x="380" d="M209 0H108L191 591H129L136 637H171Q208 637 237 661T273 721H310L209 0Z" />
<glyph unicode="2" glyph-name="two" horiz-adv-x="549" d="M445 0H30L34 27L262 293Q376 426 391 528Q392 535 392 548Q392 595 364 629T289 663Q235 663 200 636Q244 627 244 581Q244 574 243 571Q239 542 216 522T163 501Q134 501 117 521T103 571Q113 646
190 687Q254 721 337 721Q411 721 459 677T507 559Q507 554 506 544T505 528Q497 472 450 410Q415 364 323 274L149 104H460L445 0Z" />
<glyph unicode="3" glyph-name="three" horiz-adv-x="556" d="M489 191Q477 102 405 45T242 -12Q156 -12 102 32Q43 79 43 163L86 178Q112 56 219 56Q280 56 325 96T380 197Q381 204 381 216Q381 270 345 303T253 336L261 394Q311 394 353 438Q393 479 400 530Q401
537 401 550Q401 601 370 633T288 665Q255 665 227 648Q260 634 254 592Q250 563 227 543T174 522Q145 522 128 542T114 592Q122 652 195 689Q256 720 324 720Q403 720 455 682Q514 639 514 563V552Q512 544 512 540Q504 484 461 439Q422 396 366 377Q422 366 456
320T491 216Q491 205 489 191Z" />
<glyph unicode="4" glyph-name="four" horiz-adv-x="555" d="M481 200H406L378 0H277L305 200H28L33 232Q264 428 370 718H502Q442 576 320 431Q212 304 127 255H313L327 356H428L414 255H489L481 200Z" />
<glyph unicode="5" glyph-name="five" horiz-adv-x="545" d="M483 204Q470 110 399 50T233 -11Q166 -11 112 28Q51 72 51 136Q51 177 79 201Q102 221 132 221Q193 221 193 160Q192 154 192 151Q183 96 129 85Q157 39 227 39Q292 39 337 76T391 177Q393 192 393
200Q393 271 334 310Q283 344 209 344Q169 344 130 334L182 708H516L502 608H219L197 454Q315 454 392 408Q486 352 486 242Q486 226 483 204Z" />
<glyph unicode="6" glyph-name="six" horiz-adv-x="601" d="M541 214Q527 112 458 50T286 -12Q187 -12 136 61Q91 125 91 228Q91 259 96 296Q123 498 231 619Q322 722 421 722Q477 722 514 698Q557 670 557 617Q557 606 556 601Q551 573 530 554T480 535Q455 535
439 550T423 591Q423 619 441 639Q454 655 475 662Q461 670 457 671Q446 675 426 675Q342 675 281 557Q240 477 219 368Q280 435 374 435Q451 435 497 383T544 253Q544 235 541 214ZM432 238Q432 292 413 329Q389 375 339 375Q300 375 261 354Q219 332 205 298Q203
293 201 282Q191 243 190 209L189 182Q189 37 293 37Q344 37 381 81Q432 141 432 238Z" />
<glyph unicode="7" glyph-name="seven" horiz-adv-x="500" d="M551 708Q453 547 371 364Q271 143 247 0H125Q167 199 445 608H163L148 496H106L135 708H551Z" />
<glyph unicode="8" glyph-name="eight" horiz-adv-x="568" d="M503 195Q490 100 416 42Q346 -13 248 -13Q171 -13 121 27Q66 71 66 145Q66 157 67 164Q78 240 155 308Q180 330 231 361Q200 386 184 405Q137 460 137 516Q137 527 138 534Q150 624 219 674Q283 721
376 721Q437 721 481 683T526 584Q526 576 525 569Q515 498 455 437Q437 418 397 389Q432 362 450 341Q504 279 504 216Q504 202 503 195ZM463 563Q464 570 464 581Q464 624 435 646T362 669Q315 669 282 639T241 561Q240 554 240 546Q240 495 294 449Q311 435
349 413Q382 435 401 453Q455 505 463 563ZM391 152Q392 159 392 173Q392 236 332 286Q315 301 272 324Q149 259 135 162Q134 158 134 149Q134 99 169 68T255 37Q308 37 346 68T391 152Z" />
<glyph unicode="9" glyph-name="nine" horiz-adv-x="601" d="M552 413Q525 211 417 90Q326 -13 227 -13Q171 -13 134 11Q91 39 91 92Q91 131 119 155Q141 174 169 174Q193 174 209 159T225 119Q225 90 207 69Q194 54 173 47Q196 34 222 34Q306 34 367 152Q408
232 429 341Q371 274 274 274Q197 274 151 326T105 456Q105 474 108 495Q122 596 191 658T362 721Q461 721 512 648Q557 585 557 482Q557 450 552 413ZM454 457Q457 476 458 501L459 527Q459 672 355 672Q298 672 259 619Q228 575 219 512Q216 491 216 471Q216
334 309 334Q348 334 388 355T443 411Q444 415 447 427Q453 451 454 457Z" />
<glyph unicode=":" glyph-name="colon" horiz-adv-x="311" d="M218 373Q215 347 194 329T147 310Q121 310 105 328T92 373Q95 398 117 417T164 436Q191 436 206 418T218 373ZM174 55Q170 29 149 11T102 -8Q75 -8 60 10T48 55Q52 80 73 99T120 118Q147 118 162
100T174 55Z" />
<glyph unicode=";" glyph-name="semicolon" horiz-adv-x="311" d="M218 373Q215 347 194 329T147 310Q121 310 105 328T92 373Q95 398 117 417T164 436Q191 436 206 418T218 373ZM178 55Q164 -39 17 -115L8 -99Q70 -59 92 -6Q45 5 52 55Q56 81 76 99T124 118Q151
118 166 100T178 55Z" />
<glyph unicode="&lt;" glyph-name="less" horiz-adv-x="350" d="M296 506L151 254L178 2L75 254L296 506Z" />
<glyph unicode="=" glyph-name="equal" horiz-adv-x="375" d="M341 330H76L84 385H349L341 330ZM320 176H55L63 232H328L320 176Z" />
<glyph unicode="&gt;" glyph-name="greater" horiz-adv-x="350" d="M162 506L275 254L44 2L189 254L162 506Z" />
<glyph unicode="?" glyph-name="question" horiz-adv-x="580" d="M572 531Q561 452 489 394Q468 378 358 316Q288 277 283 242Q281 229 292 218Q294 216 315 201L300 180Q225 195 225 254Q225 262 226 266Q235 321 289 367Q323 393 390 445Q445 488 451 534Q452
541 452 551Q452 597 418 625T337 653Q273 653 221 619T142 526L104 541Q130 619 214 672Q293 721 379 721Q461 721 514 682Q574 638 574 559Q574 554 573 545T572 531ZM328 51Q324 26 305 8T260 -10Q235 -10 220 8T207 51Q211 76 231 94T277 112Q303 112 317 94T328
51Z" />
<glyph unicode="@" glyph-name="at" horiz-adv-x="750" d="M693 324Q693 199 588 91Q490 -10 394 -10Q369 -10 353 5T337 46Q339 64 339 78Q318 44 282 18Q241 -11 206 -11Q152 -11 124 40Q101 81 101 140Q101 173 108 205Q124 281 172 344Q229 421 297 421Q332
421 357 396T389 335L400 381Q410 421 448 421Q490 421 481 381L413 67Q412 62 412 54Q412 32 433 32Q479 32 534 112Q596 202 596 300Q596 395 534 458T377 521Q261 521 152 425L145 444Q268 572 417 572Q563 572 637 481Q693 412 693 324ZM314 366Q272 366 235
304Q207 257 196 205Q189 172 189 142Q189 44 244 44Q284 44 322 107Q352 156 363 205Q369 232 369 262Q369 297 358 326Q343 366 314 366Z" />
<glyph unicode="A" glyph-name="A" horiz-adv-x="578" d="M558 0H359L366 49H409L379 202H144L71 49H127L120 0H-38L-31 49H13L330 708H385L518 49H565L558 0ZM370 251L311 550L168 251H370Z" />
<glyph unicode="B" glyph-name="B" horiz-adv-x="570" d="M523 177Q511 90 430 42Q360 0 266 0H36L43 49H93L179 659H129L135 708H340Q425 708 477 675Q538 635 538 554V542Q538 536 536 521Q529 471 488 424T397 363Q456 348 490 306T525 203V190Q523 181 523
177ZM334 659H280L241 382H295Q353 382 390 424Q425 461 433 521Q433 526 434 535T435 549Q435 597 408 628T334 659ZM420 177Q422 191 422 201Q422 254 394 291Q364 332 313 332H234L194 49H273Q329 49 370 85T420 177Z" />
<glyph unicode="C" glyph-name="C" horiz-adv-x="531" d="M578 583Q574 553 550 532T496 510Q468 510 450 527T432 573Q432 602 452 625Q468 643 491 649Q481 665 448 665Q345 665 271 558Q209 469 193 355Q187 313 187 275Q187 177 226 117Q272 47 365 47Q399
47 464 73L478 34Q402 -11 321 -11Q201 -11 135 81Q77 162 77 286Q77 319 82 355Q102 497 190 603Q289 721 424 721Q488 721 530 692Q579 659 579 599Q579 590 578 583Z" />
<glyph unicode="D" glyph-name="D" horiz-adv-x="635" d="M603 354Q584 213 500 113Q405 0 270 0H36L43 49H93L179 659H129L135 708H369Q486 708 551 621Q608 543 608 422Q608 392 603 354ZM492 354Q498 397 498 436Q498 528 467 586Q427 659 343 659H280L194
49H257Q359 49 425 155Q476 237 492 354Z" />
<glyph unicode="E" glyph-name="E" horiz-adv-x="562" d="M536 169Q509 87 430 37Q355 -11 266 -11Q182 -11 123 35Q59 84 59 166Q59 170 60 179T61 192Q71 262 124 313T248 378Q200 393 168 432T135 521Q135 534 136 541Q148 624 230 675Q304 721 392 721Q458
721 508 695Q569 662 569 602Q569 594 568 587Q564 557 540 536T486 514Q456 514 438 535T423 587Q430 635 474 651Q449 668 417 668Q355 668 306 630T248 530Q247 523 247 517V510Q247 462 277 430T345 396L362 395L353 337H341Q279 337 232 296T175 193Q174 186
174 176Q174 123 216 89Q255 58 309 58Q443 58 496 185L536 169Z" />
<glyph unicode="F" glyph-name="F" horiz-adv-x="464" d="M515 578H467L479 659H280L243 402H435L429 354H237L194 49H244L237 0H36L43 49H93L179 659H129L135 708H533L515 578Z" />
<glyph unicode="G" glyph-name="G" horiz-adv-x="597" d="M516 45Q425 -11 318 -11Q198 -11 134 79Q77 158 77 282Q77 477 197 610Q297 721 429 721Q531 721 582 672L559 629Q509 663 438 663Q343 663 271 553Q212 463 197 356Q192 320 192 285Q192 192 225 125Q267
39 350 39Q393 39 418 62L450 292H367L374 341H558L516 45Z" />
<glyph unicode="H" glyph-name="H" horiz-adv-x="659" d="M575 0H374L381 49H431L474 359H235L192 49H242L235 0H34L41 49H91L177 659H127L133 708H334L328 659H278L242 407H481L517 659H467L473 708H674L668 659H618L532 49H582L575 0Z" />
<glyph unicode="I" glyph-name="I" horiz-adv-x="335" d="M243 0H42L49 49H99L185 659H135L141 708H342L336 659H286L200 49H250L243 0Z" />
<glyph unicode="J" glyph-name="J" horiz-adv-x="332" d="M339 659H289L196 0Q167 -207 -5 -207Q-45 -207 -77 -182T-121 -117L-84 -94Q-62 -154 -12 -154Q73 -154 92 -20L188 659H138L144 708H345L339 659Z" />
<glyph unicode="K" glyph-name="K" horiz-adv-x="596" d="M583 715Q610 715 628 698T647 653Q647 646 646 643Q642 613 618 592T563 570Q524 570 509 603L330 394L464 78Q472 59 497 59Q539 59 545 101L549 130H577L572 90Q567 46 531 16T449 -15Q418 -15 391
3T352 50L236 349L187 0H36L43 49H93L179 659H129L135 708H286L238 362L465 630Q506 678 525 693Q553 715 583 715Z" />
<glyph unicode="L" glyph-name="L" horiz-adv-x="488" d="M442 0H36L43 49H93L179 659H129L135 708H336L330 659H280L195 56H402L416 156H464L442 0Z" />
<glyph unicode="M" glyph-name="M" horiz-adv-x="849" d="M803 0H595L602 49H648V547L402 0H336L248 557L111 49H165L158 0H-1L6 49H56L222 659H162L168 708H333L423 177L661 708H820L814 659H754V49H810L803 0Z" />
<glyph unicode="N" glyph-name="N" horiz-adv-x="637" d="M653 659H603L510 0H456L216 515L151 49H201L194 0H36L43 49H93L179 659H129L135 708H242L480 197L545 659H495L501 708H659L653 659Z" />
<glyph unicode="O" glyph-name="O" horiz-adv-x="629" d="M599 355Q581 226 503 117Q412 -11 294 -11Q184 -11 126 84Q76 164 76 280Q76 313 82 355Q101 493 179 597Q270 721 397 721Q500 721 557 620Q604 537 604 426Q604 391 599 355ZM409 650Q323 650 258 541Q207
455 193 355Q188 320 188 285Q188 204 217 141Q255 59 326 59Q413 59 477 168Q528 255 542 355Q547 392 547 425Q547 506 518 569Q481 650 409 650Z" />
<glyph unicode="P" glyph-name="P" horiz-adv-x="568" d="M594 504Q580 411 500 354Q425 300 328 300H240L205 49H255L248 0H47L54 49H104L190 659H110L116 708H385Q471 708 530 663Q596 613 596 530Q596 526 595 517T594 504ZM488 504Q490 512 490 521V535Q490
589 461 624T379 659H291L247 349H335Q396 349 439 397Q479 441 488 504Z" />
<glyph unicode="Q" glyph-name="Q" horiz-adv-x="629" d="M599 355Q584 248 528 154Q465 49 376 8L425 -105Q433 -124 458 -124Q499 -124 506 -83L511 -53H538L532 -93Q525 -137 490 -167T409 -198Q375 -198 349 -179T313 -133L268 -9Q171 2 120 95Q76 173 76
279Q76 313 82 355Q101 493 179 597Q270 721 397 721Q500 721 557 620Q604 537 604 426Q604 391 599 355ZM409 650Q323 650 258 541Q207 455 193 355Q188 320 188 285Q188 204 217 141Q255 59 326 59Q413 59 477 168Q528 255 542 355Q547 392 547 425Q547 506 518
569Q481 650 409 650Z" />
<glyph unicode="R" glyph-name="R" horiz-adv-x="610" d="M604 90Q599 46 563 16T481 -15Q410 -15 385 50L275 333H245L198 0H47L54 49H104L190 659H110L116 708H350Q439 708 501 674Q579 633 579 551V539Q577 530 577 526Q567 455 510 405Q458 360 383 344L497
78Q505 59 529 59Q571 59 577 101L581 130H609L604 90ZM471 526Q472 533 472 544Q472 595 434 627T344 659H291L252 382H305Q365 382 413 424T471 526Z" />
<glyph unicode="S" glyph-name="S" horiz-adv-x="501" d="M469 177Q456 86 384 35Q318 -11 223 -11Q151 -11 98 34Q42 82 42 153Q42 199 72 228Q97 252 126 252Q154 252 172 235T190 189Q190 182 189 179Q180 123 124 111L114 110Q123 78 163 59Q197 42 234 42Q284
42 322 69T367 145Q368 149 368 152V159Q368 215 295 277L171 382Q92 449 92 521Q92 529 93 536Q106 627 173 676Q236 721 331 721Q390 721 434 689Q484 654 484 597Q484 586 483 580Q478 553 457 534T408 515Q381 515 365 534T353 580Q359 622 398 636Q369 669
322 669Q274 669 237 644Q196 616 190 570Q189 566 189 563V556Q189 519 233 481L375 359Q424 317 444 287Q471 247 471 200V189Q469 181 469 177Z" />
<glyph unicode="T" glyph-name="T" horiz-adv-x="450" d="M526 578H477L488 655H343L258 49H308L301 0H100L107 49H157L242 655H96L85 578H37L55 708H544L526 578Z" />
<glyph unicode="U" glyph-name="U" horiz-adv-x="616" d="M652 659H602L539 211Q525 108 459 48T290 -13Q201 -13 151 30Q98 76 98 164Q98 183 102 211L165 659H115L121 708H322L316 659H266L203 211Q200 190 200 169Q200 44 317 44Q387 44 430 94Q469 138 479
211L542 659H492L498 708H658L652 659Z" />
<glyph unicode="V" glyph-name="V" horiz-adv-x="573" d="M652 659H603L289 0H232L104 659H57L63 708H266L260 659H215L306 163L540 659H494L500 708H658L652 659Z" />
<glyph unicode="W" glyph-name="W" horiz-adv-x="817" d="M900 659H850L577 0H517L452 486L251 0H192L106 659H54L60 708H266L260 659H210L268 162L483 708H528L594 162L790 659H742L748 708H906L900 659Z" />
<glyph unicode="X" glyph-name="X" horiz-adv-x="583" d="M-21 61Q-17 91 7 112T62 133Q97 133 114 106L266 331L178 628Q171 652 147 652Q105 652 99 611L94 575H66L72 616Q79 661 111 691T189 721Q261 721 280 655L342 443L490 663Q528 720 583 720Q610 720
628 702T646 657Q646 650 645 647Q640 617 617 596T563 575Q524 575 511 602L361 381L449 80Q456 56 482 56Q524 56 530 97L535 133H562L556 92Q550 49 516 18T439 -13Q409 -13 382 5T347 53L284 269L133 45Q95 -12 41 -12Q14 -12 -4 6T-22 51Q-22 58 -21 61Z"
/>
<glyph unicode="Y" glyph-name="Y" horiz-adv-x="519" d="M571 659H526Q480 362 370 131Q210 -202 -18 -202Q-69 -202 -106 -181Q-151 -156 -151 -109Q-151 -74 -123 -50Q-100 -30 -72 -30Q-12 -30 -12 -88Q-12 -111 -23 -126Q-31 -137 -43 -145Q-29 -149 4 -149Q102
-149 194 -27L122 659H75L81 708H291L285 659H233L287 84Q323 157 332 176Q428 391 467 659H417L423 708H577L571 659Z" />
<glyph unicode="Z" glyph-name="Z" horiz-adv-x="468" d="M519 708L115 104H389L399 181H448L423 0H-19L386 604H134L125 541H77L100 708H519Z" />
<glyph unicode="[" glyph-name="bracketleft" horiz-adv-x="280" d="M203 -75H34L155 783H324L319 749H242L131 -41H208L203 -75Z" />
<glyph unicode="\" glyph-name="backslash" horiz-adv-x="400" d="M327 0L24 758H98L401 0H327Z" />
<glyph unicode="]" glyph-name="bracketright" horiz-adv-x="280" d="M174 -75H5L10 -41H87L198 749H121L126 783H295L174 -75Z" />
<glyph unicode="^" glyph-name="asciicircum" horiz-adv-x="400" d="M369 650L347 637L209 715L52 637L32 650L222 806L369 650Z" />
<glyph unicode="_" glyph-name="underscore" horiz-adv-x="560" d="M519 -72H-20L-13 -21H526L519 -72Z" />
<glyph unicode="`" glyph-name="grave" horiz-adv-x="366" d="M304 683L280 680L124 738Q97 748 101 776Q106 813 142 813Q161 813 184 792L304 683Z" />
<glyph unicode="a" glyph-name="a" horiz-adv-x="595" d="M563 86Q557 45 523 15T447 -15Q409 -15 384 9T359 72Q359 77 361 89Q338 48 297 18Q251 -15 208 -15Q134 -15 94 59Q61 120 61 200V222Q61 227 65 255Q79 352 132 430Q197 524 284 524Q327 524 363 491Q395
461 407 417L415 475Q418 495 435 510T472 525Q493 525 506 511T516 475L461 86Q459 71 469 60T494 48Q532 48 537 86L543 130H569L563 86ZM387 302Q387 352 371 396Q349 456 308 456Q256 456 216 378Q185 319 176 255Q174 239 173 225L172 202Q172 151 188 110Q209
54 252 54Q290 54 331 114Q387 196 387 302Z" />
<glyph unicode="b" glyph-name="b" horiz-adv-x="556" d="M513 254Q499 158 446 79Q381 -15 294 -15Q251 -15 216 18Q184 47 171 91L163 34Q160 13 144 -1T106 -16Q85 -16 72 -2T62 34L144 621Q149 659 112 659Q73 659 68 621L62 577H36L42 621Q48 662 82 692T158
722Q196 722 221 698T246 635Q246 628 245 621L217 418Q281 524 370 524Q445 524 485 449Q517 389 517 307Q517 282 513 254ZM402 254Q405 276 405 305Q405 356 390 398Q369 455 326 455Q276 455 235 376Q202 315 194 254Q190 225 190 205Q190 155 206 112Q228
53 269 53Q320 53 361 131Q393 192 402 254Z" />
<glyph unicode="c" glyph-name="c" horiz-adv-x="491" d="M478 361Q473 328 451 305T397 282Q368 282 351 301T337 350Q341 375 360 394T404 417L421 418Q396 465 340 465Q213 465 186 255Q181 217 181 187Q181 44 281 44Q356 44 401 139L438 126Q380 -10 250
-10Q163 -10 110 57Q62 119 62 209Q62 233 65 255Q79 358 149 435Q225 519 324 519Q389 519 434 481T479 379Q479 368 478 361Z" />
<glyph unicode="d" glyph-name="d" horiz-adv-x="595" d="M563 86Q557 45 523 15T447 -15Q409 -15 384 10T359 73Q359 83 360 88Q335 48 295 18Q250 -15 208 -15Q134 -15 94 59Q61 120 61 200V222Q61 227 65 255Q79 352 132 430Q197 524 284 524Q328 524 363 491Q395
461 407 417L447 707H548L461 86Q459 71 469 60T494 48Q532 48 537 86L543 130H569L563 86ZM387 302Q387 352 371 396Q349 456 308 456Q256 456 216 378Q185 319 176 255Q174 239 173 225L172 202Q172 151 188 110Q209 54 252 54Q290 54 331 114Q387 196 387 302Z"
/>
<glyph unicode="e" glyph-name="e" horiz-adv-x="493" d="M324 524Q388 524 428 497Q475 466 475 405Q475 395 474 389Q461 308 358 268Q280 237 182 237Q178 211 178 179Q178 43 276 43Q358 43 399 146L438 136Q384 -10 239 -10Q153 -10 104 57Q61 116 61 206Q61
227 65 255Q80 361 147 438Q222 524 324 524ZM373 401Q374 408 374 416Q374 478 320 478Q265 478 226 402Q198 346 188 278Q253 278 305 307Q365 341 373 401Z" />
<glyph unicode="f" glyph-name="f" horiz-adv-x="407" d="M409 453H260Q309 421 337 341Q361 274 361 205V178Q361 175 357 150Q342 44 288 -63Q217 -202 132 -202Q66 -202 66 -84Q66 -23 83 98L133 453H63L70 502H140L168 708H269L241 502H416L409 453ZM227 406L183
95Q167 -18 167 -68Q167 -118 185 -118Q210 -118 245 -43Q285 42 300 147Q304 175 304 206Q304 349 227 406Z" />
<glyph unicode="g" glyph-name="g" horiz-adv-x="477" d="M419 3Q406 -85 338 -143T181 -202Q123 -202 74 -175Q21 -144 4 -92L45 -70Q76 -149 172 -149Q226 -149 270 -114T321 -26Q322 -19 322 -8Q322 39 291 67T211 96Q183 96 132 72Q122 67 114 67Q93 67 81
81T71 116Q73 135 91 151T136 177Q61 218 61 306Q61 313 63 327Q73 401 135 450T273 500H407Q453 500 462 559H486L479 512Q470 451 417 422Q437 388 437 348Q437 342 435 327Q422 228 324 180Q421 135 421 32Q421 17 419 3ZM292 452Q244 452 209 414T165 327Q164
320 164 307Q164 264 189 234T257 203Q305 203 342 242Q376 278 384 327Q385 333 385 348Q385 391 360 421T292 452Z" />
<glyph unicode="h" glyph-name="h" horiz-adv-x="583" d="M552 86Q546 45 512 15T436 -15Q398 -15 373 9T348 72Q348 79 349 86L392 391Q395 414 382 430T346 447Q304 447 237 360L200 312L156 0H55L154 708H255L209 379L243 425Q316 524 389 524Q436 524 465
494T495 417Q495 406 494 399L450 86Q448 71 458 60T483 48Q521 48 526 86L532 130H558L552 86Z" />
<glyph unicode="i" glyph-name="i" horiz-adv-x="307" d="M143 634Q146 656 164 671T204 687Q226 687 239 672T250 634Q247 612 229 597T189 581Q167 581 154 596T143 634ZM272 86Q266 45 232 15T156 -15Q118 -15 93 9T68 72Q68 79 69 86L128 502H229L170 86Q168
71 178 60T203 48Q241 48 246 86L252 130H278L272 86Z" />
<glyph unicode="j" glyph-name="j" horiz-adv-x="284" d="M176 -25Q165 -102 115 -152T-11 -202Q-53 -202 -84 -177T-126 -111L-90 -90Q-71 -155 -22 -155Q58 -155 71 -60L150 502H251L176 -25ZM165 634Q168 656 186 671T226 687Q248 687 261 672T272 634Q269
612 251 597T211 581Q189 581 176 596T165 634Z" />
<glyph unicode="k" glyph-name="k" horiz-adv-x="522" d="M498 86Q492 43 459 14T382 -15Q320 -15 284 58L191 249L156 0H55L154 708H255L193 264L395 390Q367 408 367 443Q368 449 368 452Q372 481 396 503T450 525Q480 525 499 504T513 452Q507 412 461 383L289
274L392 73Q401 55 426 55Q467 55 473 96L478 130H504L498 86Z" />
<glyph unicode="l" glyph-name="l" horiz-adv-x="306" d="M272 86Q266 45 232 15T156 -15Q118 -15 93 9T68 72Q68 79 69 86L156 708H257L170 86Q168 71 178 60T203 48Q241 48 246 86L252 130H278L272 86Z" />
<glyph unicode="m" glyph-name="m" horiz-adv-x="858" d="M826 86Q820 45 786 15T710 -15Q672 -15 647 9T622 72Q622 79 623 86L667 400Q670 420 658 435T626 450Q591 450 526 374L503 347L454 0H353L409 400Q412 420 400 435T368 450Q330 450 268 374L246 347L197
0H96L154 412Q156 427 146 438T121 450Q83 450 78 412L72 368H46L52 412Q58 453 92 483T168 513Q206 513 231 490T256 428Q256 420 255 416L286 451Q351 524 412 524Q457 524 484 492T511 413L545 453Q605 524 670 524Q714 524 742 495T770 422Q770 412 769 405L724
86Q722 71 732 60T757 48Q795 48 800 86L806 130H832L826 86Z" />
<glyph unicode="n" glyph-name="n" horiz-adv-x="629" d="M598 86Q592 45 558 15T482 -15Q444 -15 419 9T394 72Q394 79 395 86L438 391Q441 414 429 430T393 447Q342 447 277 360L241 312L197 0H96L154 412Q156 427 146 438T121 450Q83 450 78 412L72 368H46L52
412Q58 453 92 483T168 513Q205 513 230 489T256 427Q256 418 255 412L250 380L284 425Q359 524 435 524Q482 524 511 494T541 417Q541 406 540 399L496 86Q494 71 504 60T529 48Q567 48 572 86L578 130H604L598 86Z" />
<glyph unicode="o" glyph-name="o" horiz-adv-x="525" d="M482 254Q468 152 405 74Q334 -15 238 -15Q154 -15 105 56Q62 119 62 207Q62 233 65 254Q79 355 145 435Q218 524 314 524Q398 524 445 453Q486 392 486 304Q486 282 482 254ZM332 455Q270 455 223 383Q185
324 176 254Q173 231 173 210Q173 152 195 108Q223 54 276 54Q339 54 385 125Q422 183 432 254Q435 275 435 297Q435 356 413 400Q385 455 332 455Z" />
<glyph unicode="p" glyph-name="p" horiz-adv-x="595" d="M551 254Q537 158 484 80Q420 -15 333 -15Q289 -15 255 16T210 92L169 -200H68L154 412Q156 427 146 438T121 450Q83 450 78 412L72 368H46L52 412Q58 453 92 483T168 513Q207 513 231 487T256 421Q281
461 321 491Q367 524 409 524Q483 524 523 449Q555 389 555 308Q555 282 551 254ZM440 254Q444 284 444 307Q444 357 429 399Q407 455 365 455Q315 455 274 376Q241 315 233 254Q229 225 229 205Q229 155 245 112Q267 53 308 53Q360 53 400 131Q431 191 440 254Z"
/>
<glyph unicode="q" glyph-name="q" horiz-adv-x="555" d="M421 -200H320L361 92Q335 48 297 19Q253 -15 208 -15Q134 -15 94 59Q61 120 61 200V222Q61 228 65 255Q79 352 132 430Q197 524 284 524Q328 524 363 491Q394 462 407 417L415 475Q418 495 435 510T472
525Q494 525 506 511T516 475L421 -200ZM384 255Q387 276 387 303Q387 353 371 396Q349 456 308 456Q255 456 215 378Q186 321 176 255Q174 240 173 225L172 202Q172 150 187 110Q209 54 252 54Q300 54 342 133Q376 196 384 255Z" />
<glyph unicode="r" glyph-name="r" horiz-adv-x="429" d="M251 381L309 454Q365 525 411 525Q442 525 459 504T473 452Q469 421 445 401T390 380Q342 380 330 423L241 311L197 0H96L154 412Q156 427 146 438T121 450Q83 450 78 412L72 368H46L52 412Q58 453 92
483T168 513Q206 513 231 489T256 426Q256 420 255 412L251 381Z" />
<glyph unicode="s" glyph-name="s" horiz-adv-x="456" d="M404 118Q394 51 334 13Q280 -20 209 -20Q142 -20 92 27Q48 69 28 138L191 369Q167 405 167 435Q167 443 168 447Q174 485 202 507T268 530Q296 530 314 512T332 465Q332 437 310 410Q305 404 292 392L372
252Q405 194 405 135Q405 125 404 118ZM304 103Q306 118 306 126Q306 162 287 196L217 320L87 136Q126 38 207 38Q241 38 268 53Q300 72 304 103Z" />
<glyph unicode="t" glyph-name="t" horiz-adv-x="365" d="M389 453H251L199 86Q197 71 207 60T232 48Q270 48 275 86L281 130H307L301 86Q295 45 261 15T185 -15Q147 -15 122 9T97 72Q97 79 98 86L150 453H44L51 502H157L174 626H275L258 502H396L389 453Z" />
<glyph unicode="u" glyph-name="u" horiz-adv-x="623" d="M591 86Q585 45 551 15T475 -15Q438 -15 413 9T387 71Q387 79 388 86L393 122L361 79Q287 -20 215 -20Q168 -20 139 9T110 86Q110 98 111 105L154 412Q156 427 146 438T121 450Q83 450 78 412L72 368H46L52
412Q58 453 92 483T168 513Q206 513 231 489T256 426Q256 419 255 412L213 113Q210 90 222 74T258 57Q302 57 368 144L403 190L447 502H548L489 86Q487 71 497 60T522 48Q560 48 565 86L571 130H597L591 86Z" />
<glyph unicode="v" glyph-name="v" horiz-adv-x="512" d="M511 405Q490 261 421 141Q332 -15 210 -15Q163 -15 136 17Q111 46 111 94Q111 106 112 113L154 412Q156 427 146 438T121 450Q83 450 78 412L72 368H46L52 412Q58 453 92 483T168 513Q206 513 231 489T256
426Q256 419 255 412L217 142Q216 135 216 127Q216 73 262 73Q332 73 394 198Q441 295 455 386Q436 378 422 378Q392 378 374 399T359 451Q363 481 388 503T443 525Q513 525 513 435V424Q513 419 511 405Z" />
<glyph unicode="w" glyph-name="w" horiz-adv-x="752" d="M734 405Q713 259 652 142Q568 -15 448 -15Q406 -15 381 14T355 86L356 89Q285 -15 205 -15Q159 -15 135 15T111 92Q111 106 112 113L154 412Q156 427 146 438T121 450Q83 450 78 412L72 368H46L52 412Q58
453 92 483T168 513Q206 513 231 489T256 426Q256 419 255 412L217 143Q216 136 216 124Q216 73 256 73Q317 73 365 185L410 502H511L460 143Q459 136 459 126Q459 73 499 73Q570 73 624 199Q663 288 677 386Q664 378 645 378Q615 378 597 399T582 451Q586 481
611 503T666 525Q736 525 736 436V425Q736 419 734 405Z" />
<glyph unicode="x" glyph-name="x" horiz-adv-x="534" d="M471 515Q499 515 517 495T531 447Q526 418 504 398T452 378Q420 378 404 404L317 277L376 76Q383 51 408 51Q450 51 456 93L462 133H488L481 88Q474 45 441 16T365 -13Q291 -13 273 60L244 175L139 20Q117
-13 74 -13Q48 -13 32 3T15 45Q15 79 42 104Q64 124 93 124Q125 124 143 98L229 224L171 427Q164 451 138 451Q97 451 91 410L85 370H59L65 414Q71 457 104 486T181 515Q254 515 273 442L303 327L408 481Q431 515 471 515Z" />
<glyph unicode="y" glyph-name="y" horiz-adv-x="513" d="M501 502Q465 257 378 71Q252 -202 66 -202Q24 -202 -8 -184Q-46 -162 -46 -123Q-45 -116 -45 -113Q-41 -84 -19 -64T33 -44Q59 -44 76 -61T93 -104Q92 -110 92 -113Q89 -139 69 -155Q86 -156 93 -156Q187
-150 268 -25L145 422Q139 443 112 443Q95 443 81 431T64 402L60 368H34L40 412Q46 455 79 484T156 513Q190 513 217 493T253 440L341 101Q419 300 447 502H501Z" />
<glyph unicode="z" glyph-name="z" horiz-adv-x="434" d="M395 111Q389 64 353 32T270 0H-11L296 398H169Q127 398 101 424T75 493Q75 502 76 510L81 551H105V531Q109 502 145 502H436L129 104H318Q339 104 357 119T377 156L378 166H402L395 111Z" />
<glyph unicode="{" glyph-name="braceleft" horiz-adv-x="384" d="M313 -80L300 -100Q155 -41 155 88V118Q159 141 171 189L189 254Q190 258 190 267Q190 336 81 346L83 365Q205 375 217 458Q218 465 218 479Q218 489 218 508Q217 527 217 537V559Q219 568 219
571Q234 667 283 722T428 810L435 791Q376 757 350 710Q329 671 319 595Q317 580 317 567V546Q317 535 318 524Q318 488 310 464Q296 420 241 384Q222 372 187 356Q218 340 233 328Q280 290 280 247Q280 221 268 178L251 116Q245 74 245 44Q245 -35 313 -80Z" />
<glyph unicode="|" glyph-name="bar" horiz-adv-x="324" d="M202 0H127V800H202V0Z" />
<glyph unicode="}" glyph-name="braceright" horiz-adv-x="384" d="M351 346Q229 336 217 254Q216 247 216 242V204Q216 198 217 174Q217 174 217 160Q217 152 215 139Q200 44 150 -13Q102 -65 7 -100L-1 -80Q59 -46 85 1Q106 39 116 116Q118 131 118 144V182Q118
225 125 247Q138 290 194 327Q212 339 247 356Q216 372 201 384Q155 421 155 464Q155 491 167 533Q184 593 184 595Q190 636 190 666Q190 745 121 791L135 810Q279 753 279 622V591Q273 562 259 504L245 458Q244 454 244 444Q244 375 353 365L351 346Z" />
<glyph unicode="~" glyph-name="asciitilde" horiz-adv-x="350" d="M317 420Q300 381 270 354Q236 322 199 322Q175 322 148 341T111 361Q76 361 59 332L34 336Q51 375 81 402Q116 435 153 435Q182 435 206 415T239 395Q275 395 293 425L317 420Z" />
</font>
</defs>
</svg>
