<?xml version="1.0" standalone="no"?> <!DOCTYPE svg PUBLIC "-//W3C//DTD SVG 1.0//EN" "http://www.w3.org/TR/2001/REC-SVG-20010904/DTD/svg10.dtd" > <svg xmlns="http://www.w3.org/2000/svg" width="100%" height="100%">
<defs >
<font id="induction" horiz-adv-x="1157" ><font-face
    font-family="Induction"
    units-per-em="1000"
    panose-1="0 0 0 0 0 0 0 0 0 0"
    ascent="800"
    descent="-202"
    alphabetic="0" />
<missing-glyph horiz-adv-x="500" d="M31 0V800H469V0H31ZM438 31V769H62V31H438Z" />
<glyph unicode=" " glyph-name="space" horiz-adv-x="564" />
<glyph unicode="!" glyph-name="exclam" horiz-adv-x="224" d="M162 162H11H6V639H162V162ZM162 -159H11H6V-4H162V-159Z" />
<glyph unicode="&quot;" glyph-name="quotedbl" horiz-adv-x="548" d="M503 483H352H348V795H503V483ZM182 483H31H26V795H182V483Z" />
<glyph unicode="#" glyph-name="numbersign" horiz-adv-x="520" d="M131 416V342H21V264H131V156H213V264H287V156H369V264H475V346H369V416H475V498H369V608H287V502H213V608H131V498L25 502V416H131ZM213 342V416H287V342H213Z" />
<glyph unicode="$" glyph-name="dollar" horiz-adv-x="1360" d="M1287 162L1126 1H6V157H1126V478H171L6 644V795H162V644H1126L1287 478V162ZM546 660H395H390V795H546V660ZM826 664H675H670V799H826V664ZM546 180H395H390V455H546V180ZM826 184H675H670V459H826V184ZM546
-200H395H390V-25H546V-200ZM826 -196H675H670V-21H826V-196Z" />
<glyph unicode="%" glyph-name="percent" horiz-adv-x="584" d="M536 639L216 1H211H60L380 639H536ZM178 484H27H22V639H178V484ZM522 -1H371H366V154H522V-1Z" />
<glyph unicode="&amp;" glyph-name="ampersand" horiz-adv-x="532" d="M321 447V607H183V447H27V315H183V155H321V315H477V447H321Z" />
<glyph unicode="&apos;" glyph-name="quotesingle" horiz-adv-x="240" d="M182 483H31H26V795H182V483Z" />
<glyph unicode="(" glyph-name="parenleft" horiz-adv-x="352" d="M162 -76H303L236 -145H66V793H232L299 726H162V-76Z" />
<glyph unicode=")" glyph-name="parenright" horiz-adv-x="354" d="M44 -76H184V728H50L116 795H280V-143H108L44 -76Z" />
<glyph unicode="*" glyph-name="asterisk" horiz-adv-x="496" d="M243 475L133 587L39 495L149 381L39 271L133 173L243 287L355 173L449 271L335 381L449 495L355 587L243 475ZM313 447V607H175V447H19V315H175V155H313V315H469V447H313Z" />
<glyph unicode="+" glyph-name="plus" horiz-adv-x="532" d="M321 447V607H183V447H27V315H183V155H321V315H477V447H321Z" />
<glyph unicode="," glyph-name="comma" horiz-adv-x="224" d="M162 -189H11H6V56H162V-189Z" />
<glyph unicode="-" glyph-name="hyphen" horiz-adv-x="1360" d="M1287 483H77V639H1287V483Z" />
<glyph unicode="." glyph-name="period" horiz-adv-x="224" d="M162 -159H11H6V-4H162V-159Z" />
<glyph unicode="/" glyph-name="slash" horiz-adv-x="516" d="M516 639L196 1H191H40L360 639H516Z" />
<glyph unicode="0" glyph-name="zero" horiz-adv-x="1360" d="M1287 162L1126 1H167L6 162V478L167 639H1126L1287 478V162ZM1126 162V478H167V162H172H1126Z" />
<glyph unicode="1" glyph-name="one" horiz-adv-x="236" d="M162 1H11H6V639H162V1Z" />
<glyph unicode="2" glyph-name="two" horiz-adv-x="1360" d="M1287 1H167L6 162V478L167 639H1131V795H1287V483H167V157H1287V1Z" />
<glyph unicode="3" glyph-name="three" horiz-adv-x="1360" d="M1287 162L1126 1H11H6V157H1126V483H6V639H1126V795H1287V162Z" />
<glyph unicode="4" glyph-name="four" horiz-adv-x="1360" d="M1287 -159H1137H1131V1H167L6 162V639H162V162H1131V639H1287V-159Z" />
<glyph unicode="5" glyph-name="five" horiz-adv-x="1360" d="M1287 162L1126 1H6V157H1126V478H171L6 644V795H162V644H1126L1287 478V162Z" />
<glyph unicode="6" glyph-name="six" horiz-adv-x="1360" d="M1287 162L1126 1H172H167L6 162V795H162V639H1126L1287 478V162ZM1126 162V478H167V162H1126Z" />
<glyph unicode="7" glyph-name="seven" horiz-adv-x="1360" d="M1287 1H1137H1131V483H6V639H1126L1287 478V1Z" />
<glyph unicode="8" glyph-name="eight" horiz-adv-x="1360" d="M1287 1L1131 -159H172H167L6 1V639L162 795H1131L1287 639V1ZM1126 394V631H167V394H172H1126ZM1126 1V238H167V1H172H1126Z" />
<glyph unicode="9" glyph-name="nine" horiz-adv-x="1360" d="M1287 -159H1137H1131V1H167L6 162V478L167 639H1126L1287 478V-159ZM1126 191V468H167V191H172H1126Z" />
<glyph unicode=":" glyph-name="colon" horiz-adv-x="224" d="M162 371H11H6V526H162V371ZM162 -189H11H6V-24H162V-189Z" />
<glyph unicode=";" glyph-name="semicolon" horiz-adv-x="224" d="M162 371H11H6V526H162V371ZM162 -189H11H6V56H162V-189Z" />
<glyph unicode="&lt;" glyph-name="less" horiz-adv-x="910" d="M520 640L278 398L520 156L590 230L418 398L590 570L520 640Z" />
<glyph unicode="=" glyph-name="equal" horiz-adv-x="922" d="M684 530H230V432H684V530ZM684 362H230V266H684V362Z" />
<glyph unicode="&gt;" glyph-name="greater" horiz-adv-x="926" d="M406 160L648 402L406 644L336 570L504 402L336 230L406 160Z" />
<glyph unicode="?" glyph-name="question" horiz-adv-x="1360" d="M1287 323L1126 162H6V317H1126V644H6V795H1131L1287 639V323ZM162 -159H11H6V-4H162V-159Z" />
<glyph unicode="@" glyph-name="at" horiz-adv-x="1430" d="M673 -1H595V77H111V-1H35L33 318L113 399H593L673 318V-1ZM593 160V318H113V160H593ZM1368 321H806V80H730L728 477H806V399H1368V321Z" />
<glyph unicode="A" glyph-name="A" horiz-adv-x="1390" d="M1337 -179H1141V-24H212V-179H16V486L189 659H1164L1337 486V-179ZM1297 -139V470L1148 619H205L56 470V-139H172V16H1181V-139H1297ZM1176 142H177V498H1176V142ZM1136 182V458H217V182H1136Z" />
<glyph unicode="B" glyph-name="B" horiz-adv-x="1390" d="M1337 154L1164 -19H202H189L16 154V795H212V659H1164L1337 486V154ZM1297 170V470L1148 619H172V755H56V170L205 21H1148L1297 170ZM1176 142H177V498H1176V142ZM1136 182V458H217V182H1136Z" />
<glyph unicode="C" glyph-name="C" horiz-adv-x="1390" d="M1337 -19H189L16 154V486L189 659H1337V463H212V182H1337V-19ZM1297 21V142H172V503H1297V619H205L56 470V170L205 21H1297Z" />
<glyph unicode="D" glyph-name="D" horiz-adv-x="1390" d="M1337 -19H189L16 154V486L189 659H1141V795H1337V463H217V177H1337V-19ZM1297 21V137H177V503H1297V755H1181V619H205L56 470V170L205 21H1297Z" />
<glyph unicode="E" glyph-name="E" horiz-adv-x="1390" d="M1337 -19H189L16 154V795H1337V594H212V504H1337V303H212V177H1337V-19ZM1297 21V137H172V343H1297V464H172V634H1297V755H56V170L202 21H1297Z" />
<glyph unicode="F" glyph-name="F" horiz-adv-x="1390" d="M1337 -19H217V-179H16V486L189 659H1337V463H217V177H1337V-19ZM1297 21V137H177V503H1297V619H205L56 470V-139H177V21H1297Z" />
<glyph unicode="G" glyph-name="G" horiz-adv-x="1390" d="M1337 154L1164 -19H189L16 154V480L189 659H1337V463H217V177H1136V337H1337V154ZM1297 170V297H1176V137H177V503H1297V619H205L56 464V170L205 21H1148L1297 170Z" />
<glyph unicode="H" glyph-name="H" horiz-adv-x="1390" d="M1337 -19H1141V303H212V-19H16V659H212V503H1141V659H1337V-19ZM1297 21V619H1181V463H172V619H56V21H172V343H1181V21H1297Z" />
<glyph unicode="I" glyph-name="I" horiz-adv-x="272" d="M212 -19H16V659H212V-19ZM172 21V619H56V21H172Z" />
<glyph unicode="J" glyph-name="J" horiz-adv-x="1390" d="M1337 154L1164 -19H16V177H1141V659H1337V154ZM1297 170V619H1181V137H56V21H1148L1297 170Z" />
<glyph unicode="K" glyph-name="K" horiz-adv-x="1390" d="M1337 -19H1141V137H212V-19H16V659H212V343H513L829 659H1337V463H888L764 337H1164L1337 165V-19ZM1297 21V149L1148 297H668L872 503H1297V619H845L529 303H172V619H56V21H172V177H1181V21H1297Z" />
<glyph unicode="L" glyph-name="L" horiz-adv-x="1390" d="M1337 -19H16V659H212V182H1337V-19ZM1297 21V142H172V619H56V21H1297Z" />
<glyph unicode="M" glyph-name="M" horiz-adv-x="1390" d="M1337 -19H1141V463H775V-19H573V463H212V-19H16V486L189 659H1164L1337 486V-19ZM1297 21V470L1148 619H205L56 470V21H172V503H613V21H735V503H1181V21H1297Z" />
<glyph unicode="N" glyph-name="N" horiz-adv-x="1390" d="M1337 -19H1141V458H212V-19H16V498L188 659H1164L1337 486V-19ZM1297 21V470L1148 619H205L56 475V21H172V498H1181V21H1297Z" />
<glyph unicode="O" glyph-name="O" horiz-adv-x="1390" d="M1337 154L1164 -19H189L16 154V486L189 659H1164L1337 486V154ZM1297 170V470L1148 619H205L56 470V170L205 21H1148L1297 170ZM1176 142H177V498H1176V142ZM1136 182V458H217V182H1136Z" />
<glyph unicode="P" glyph-name="P" horiz-adv-x="1390" d="M1337 154L1164 -19H217V-179H16V486L189 659H1164L1337 486V154ZM1297 170V470L1148 619H205L56 470V-139H177V21H1148L1297 170ZM1176 142H177V498H1176V142ZM1136 182V458H217V182H1136Z" />
<glyph unicode="Q" glyph-name="Q" horiz-adv-x="1390" d="M1337 -179H1141V-19H189L16 154V486L189 659H1164L1337 486V-179ZM1297 -139V470L1148 619H205L56 470V170L205 21H1181V-139H1297ZM1176 142H177V498H1176V142ZM1136 182V458H217V182H1136Z" />
<glyph unicode="R" glyph-name="R" horiz-adv-x="1390" d="M1337 463H217V-19H16V486L189 659H1337V463ZM1297 503V619H205L56 470V21H177V503H1297Z" />
<glyph unicode="S" glyph-name="S" horiz-adv-x="1390" d="M1337 154L1164 -19H16V177H1136V458H193L16 636V795H212V664H1164L1337 486V154ZM1297 170V470L1148 624H172V755H56V652L209 498H1176V137H56V21H1148L1297 170Z" />
<glyph unicode="T" glyph-name="T" horiz-adv-x="1390" d="M1337 463H212V-19H16V795H212V659H1337V463ZM1297 503V619H172V755H56V21H172V503H1297Z" />
<glyph unicode="U" glyph-name="U" horiz-adv-x="1390" d="M1337 154L1164 -19H189L16 154V659H212V182H1143V659H1337V154ZM1297 170V619H1183V142H172V619H56V170L202 21H1148L1297 170Z" />
<glyph unicode="V" glyph-name="V" horiz-adv-x="1544" d="M1531 659L852 -19H670L-4 659H269L759 170L1249 659H1531ZM1435 619H1265L760 115L253 619H92L683 21H836L1435 619Z" />
<glyph unicode="W" glyph-name="W" horiz-adv-x="1390" d="M1339 154L1166 -19H191L18 154V659H214V177H581V659H781V177H1138V659H1339V154ZM1299 170V619H1178V137H741V619H621V137H174V619H58V170L204 21H1150L1299 170Z" />
<glyph unicode="X" glyph-name="X" horiz-adv-x="1390" d="M1337 463H980V659H1337V463ZM1337 -19H980V177H1337V-19ZM1337 233H16V428H1337V233ZM373 463H16V659H373V463ZM373 -19H16V177H373V-19ZM1297 503V619H1020V503H1297ZM1297 21V137H1020V21H1297ZM1297
273V388H56V273H1297ZM333 503V619H56V503H333ZM333 21V137H56V21H333Z" />
<glyph unicode="Y" glyph-name="Y" horiz-adv-x="1390" d="M1337 -179H1141V-19H189L16 154V659H212V182H1141V659H1337V-179ZM1297 -139V619H1181V142H172V619H56V170L205 21H1181V-139H1297Z" />
<glyph unicode="Z" glyph-name="Z" horiz-adv-x="1390" d="M1337 -19H189L16 154V486L189 659H1141V795H1337V463H217V182H1337V-19ZM1297 21V142H177V503H1297V755H1181V619H205L56 470V170L205 21H1297Z" />
<glyph unicode="[" glyph-name="bracketleft" horiz-adv-x="352" d="M162 -76H303L236 -145H66V793H232L299 726H162V-76Z" />
<glyph unicode="\" glyph-name="backslash" horiz-adv-x="516" d="M482 1H331H326L6 639H162L482 1Z" />
<glyph unicode="]" glyph-name="bracketright" horiz-adv-x="354" d="M44 -76H184V728H50L116 795H280V-143H108L44 -76Z" />
<glyph unicode="^" glyph-name="asciicircum" horiz-adv-x="656" />
<glyph unicode="_" glyph-name="underscore" horiz-adv-x="1212" d="M1212 -202H2V-46H1212V-202Z" />
<glyph unicode="`" glyph-name="grave" horiz-adv-x="385" d="M337 483H186H181L26 795H182L337 483Z" />
<glyph unicode="a" glyph-name="a" horiz-adv-x="1360" d="M1287 -159H1131V-4H162V-159H11H6V478L167 639H1126L1287 478V-159ZM1126 162V478H167V162H172H1126Z" />
<glyph unicode="b" glyph-name="b" horiz-adv-x="1360" d="M1287 162L1126 1H172H167L6 162V795H162V639H1126L1287 478V162ZM1126 162V478H167V162H1126Z" />
<glyph unicode="c" glyph-name="c" horiz-adv-x="1360" d="M1287 1H172H167L6 162V478L167 639H1287V483H162V162H1287V1Z" />
<glyph unicode="d" glyph-name="d" horiz-adv-x="1360" d="M1287 1H167L6 162V478L167 639H1131V795H1287V483H167V157H1287V1Z" />
<glyph unicode="e" glyph-name="e" horiz-adv-x="1360" d="M1287 1H172H167L6 162V795H1287V634H162V494H1287V333H162V157H1287V1Z" />
<glyph unicode="f" glyph-name="f" horiz-adv-x="1360" d="M1287 1H1066H167V-159H11H6V478L167 639H1287V483H167V157H1287V1Z" />
<glyph unicode="g" glyph-name="g" horiz-adv-x="1360" d="M1287 162L1126 1H1056H167L6 162V472L167 639H1287V483H167V157H1126V317H1287V162Z" />
<glyph unicode="h" glyph-name="h" horiz-adv-x="1360" d="M1287 1H1131V323H162V1H11H6V639H162V483H1131V639H1287V1Z" />
<glyph unicode="i" glyph-name="i" horiz-adv-x="232" d="M162 1H11H6V639H162V1Z" />
<glyph unicode="j" glyph-name="j" horiz-adv-x="1360" d="M1287 162L1126 1H11H6V157H1131V639H1287V162Z" />
<glyph unicode="k" glyph-name="k" horiz-adv-x="1360" d="M1287 1H1131V157H162V1H11H6V639H162V323H491L807 639H1287V483H850L686 317H1126L1287 157V1Z" />
<glyph unicode="l" glyph-name="l" horiz-adv-x="1360" d="M1287 1H6V639H162V162H1287V1Z" />
<glyph unicode="m" glyph-name="m" horiz-adv-x="1360" d="M1287 1H1131V483H725V1H563V483H162V1H11H6V478L167 639H1126L1287 478V1Z" />
<glyph unicode="n" glyph-name="n" horiz-adv-x="1360" d="M1287 1H1131V478H162V1H13H6V478Q11 478 89 558Q115 584 167 639H1126L1287 478V1Z" />
<glyph unicode="o" glyph-name="o" horiz-adv-x="1360" d="M1287 162L1126 1H167L6 162V478L167 639H1126L1287 478V162ZM1126 162V478H167V162H1126Z" />
<glyph unicode="p" glyph-name="p" horiz-adv-x="1360" d="M1287 162L1126 1H167V-159H11H6V478L167 639H1126L1287 478V162ZM1126 162V478H167V162H172H1126Z" />
<glyph unicode="q" glyph-name="q" horiz-adv-x="1360" d="M1287 -159H1137H1131V1H167L6 162V478L167 639H1126L1287 478V-159ZM1126 162V478H167V162H172H1126Z" />
<glyph unicode="r" glyph-name="r" horiz-adv-x="1360" d="M1287 483H167V1H11H6V478L167 639H1287V483Z" />
<glyph unicode="s" glyph-name="s" horiz-adv-x="1360" d="M1287 162L1126 1H6V157H1126V478H171L6 644V795H162V644H1126L1287 478V162Z" />
<glyph unicode="t" glyph-name="t" horiz-adv-x="1360" d="M1287 483H162V1H11H6V795H162V639H1287V483Z" />
<glyph unicode="u" glyph-name="u" horiz-adv-x="1360" d="M1287 162L1126 1H172H167L6 162V639H162V162H1133V639H1287V162Z" />
<glyph unicode="v" glyph-name="v" horiz-adv-x="1467" d="M1447 639L804 1H643H638L4 639H221L719 142L1217 639H1447Z" />
<glyph unicode="w" glyph-name="w" horiz-adv-x="1360" d="M1289 162L1128 1H174H169L8 162V639H164V157H571V639H731V157H1128V639H1289V162Z" />
<glyph unicode="x" glyph-name="x" horiz-adv-x="1360" d="M1287 483H975H970V639H1287V483ZM1287 1H975H970V157H1287V1ZM1287 253H11H6V408H1287V253ZM323 483H11H6V639H323V483ZM323 1H11H6V157H323V1Z" />
<glyph unicode="y" glyph-name="y" horiz-adv-x="1360" d="M1287 -159H1137H1131V1H167L6 162V639H162V162H1131V639H1287V-159Z" />
<glyph unicode="z" glyph-name="z" horiz-adv-x="1360" d="M1287 1H167L6 162V478L167 639H1131V795H1287V483H167V162H1287V1Z" />
<glyph unicode="|" glyph-name="bar" horiz-adv-x="1360" d="M162 -189H11H6V799H162V-189Z" />
<glyph unicode="~" glyph-name="asciitilde" horiz-adv-x="240" d="M182 483H31H26V795H182V483Z" />
</font>
</defs>
</svg>
