<?xml version="1.0" encoding="utf-8"?>
<!-- Generator: Adobe Illustrator 14.0.0, SVG Export Plug-In . SVG Version: 6.00 Build 43363)  -->
<!DOCTYPE svg PUBLIC "-//W3C//DTD SVG 1.1//EN" "http://www.w3.org/Graphics/SVG/1.1/DTD/svg11.dtd">
<svg version="1.1" id="Calque_1" xmlns="http://www.w3.org/2000/svg" xmlns:xlink="http://www.w3.org/1999/xlink" x="0px" y="0px"
	 width="64px" height="64px" viewBox="0 0 64 64" enable-background="new 0 0 64 64" xml:space="preserve">
<g>
	<g>
		<path fill="#B2B2B2" d="M18.92,51.044l-4.99,7.371C5.52,52.657,0,42.97,0,32.006c0-6.019,1.656-11.646,4.546-16.452l7.317,5.163
			c-1.884,3.334-2.955,7.187-2.955,11.29C8.908,39.896,12.869,46.877,18.92,51.044z"/>
		<g>
			<path fill="#B2B2B2" d="M19.331,12.696c-1.765,1.147-3.355,2.544-4.73,4.124l-7.317-5.152C13.162,4.535,22.048,0,31.994,0
				c14.061,0,26.01,9.07,30.297,21.68l-8.703,2.143C50.297,15.1,41.877,8.908,31.994,8.908c-2.933,0-5.736,0.552-8.322,1.559
				C22.135,11.051,20.684,11.798,19.331,12.696z"/>
		</g>
		<path fill="#B2B2B2" d="M64,32.006c0-1.98-0.184-3.929-0.531-5.813l-8.68,2.133c0.205,1.189,0.303,2.424,0.303,3.68
			c0,7.923-3.994,14.926-10.086,19.082l0.018,0.026c-1.277,0.88-2.658,1.635-4.127,2.249l-0.025-0.034
			c-2.729,1.146-5.727,1.774-8.876,1.774s-6.147-0.628-8.876-1.774l-5.064,7.489c2.158,1.049,4.455,1.859,6.855,2.402l-0.018,0.044
			c4.563,1.046,9.441,1.096,14.303-0.026c4.977-1.15,9.422-3.41,13.115-6.463l-0.025-0.021C59.436,50.887,64,41.983,64,32.006z"/>
		<g>
			<path fill="#B2B2B2" d="M24.963,43.923c1.678,0,3.303,0,4.962,0c0-9.089,0-18.094,0-27.12c-1.684,0-3.323,0-4.962,0
				C24.963,25.872,24.963,34.894,24.963,43.923z"/>
		</g>
		<g>
			<path fill="#B2B2B2" d="M33.748,43.921c1.678,0,3.301,0,4.967,0c0-4.553,0-9.049,0-13.56c-1.68,0-3.32,0-4.967,0
				C33.748,34.9,33.748,39.408,33.748,43.921z"/>
		</g>
		<g>
			<path fill="#B2B2B2" d="M16.174,43.921c1.676,0,3.299,0,4.965,0c0-6.06,0-12.015,0-17.998c-1.682,0-3.322,0-4.965,0
				C16.174,31.957,16.174,37.934,16.174,43.921z"/>
		</g>
		<g>
			<path fill="#B2B2B2" d="M42.518,43.919c1.658,0,3.281,0,4.986,0c0-7.485,0-14.911,0-22.392c-1.674,0-3.313,0-4.986,0
				C42.518,29.012,42.518,36.437,42.518,43.919z"/>
		</g>
	</g>
</g>
</svg>
