<?xml version="1.0" standalone="no"?> <!DOCTYPE svg PUBLIC "-//W3C//DTD SVG 1.0//EN" "http://www.w3.org/TR/2001/REC-SVG-20010904/DTD/svg10.dtd" > <svg xmlns="http://www.w3.org/2000/svg" width="100%" height="100%">
<defs >
<font id="familiarpro-bold" horiz-adv-x="979" ><font-face
    font-family="Familiar Pro"
    units-per-em="2048"
    panose-1="2 11 7 4 2 2 2 3 2 4"
    ascent="2016"
    descent="-459"
    alphabetic="0" />
<missing-glyph horiz-adv-x="1024" d="M8 0V1409H1014V0H8ZM168 1309L512 795L852 1309H168ZM109 1217V190L451 705L109 1217ZM913 1217L571 705L913 190V1217ZM852 100L512 612L168 100H852Z" />
<glyph unicode=" " glyph-name="space" horiz-adv-x="569" />
<glyph unicode="!" glyph-name="exclam" horiz-adv-x="681" d="M494 1468V1079L416 397H262L182 1079V1468H494ZM176 139Q176 223 209 258T338 293T468 258T502 139Q502 56 468 22T338 -12T209 22T176 139Z" />
<glyph unicode="&quot;" glyph-name="quotedbl" horiz-adv-x="970" d="M610 924L569 1196V1468H805V1196L764 924H610ZM205 924L164 1196V1468H401V1196L360 924H205Z" />
<glyph unicode="#" glyph-name="numbersign" horiz-adv-x="1138" d="M412 391L346 -8H143L207 391H31L47 588H240L283 852H70L86 1049H313L379 1450H582L518 1049H723L786 1450H993L928 1049H1106L1090 852H897L854 588H1067L1051 391H821L756 -8H553L618 391H412ZM692
852H485L442 588H649L692 852Z" />
<glyph unicode="$" glyph-name="dollar" horiz-adv-x="1138" d="M514 193V618Q435 637 383 654T272 706T179 784T123 900T100 1065Q100 1155 120 1224T187 1347T316 1430T514 1464V1585H625V1464Q679 1459 713 1454T792 1438T865 1409T925 1363T976 1293T1012
1195T1036 1063H776Q769 1164 737 1200T625 1245V856Q691 838 736 823T832 787T914 742T978 685T1028 612T1056 519T1067 401Q1067 307 1045 236T973 107T835 15T625 -29V-223H514V-29Q391 -18 308 12T173 98T96 234T68 430H334Q346 299 384 251T514 193ZM625 586V188Q718
195 759 240T801 377Q801 430 789 467T751 528T696 563T625 586ZM514 887V1245Q431 1239 394 1200T356 1083Q356 1007 393 958T514 887Z" />
<glyph unicode="%" glyph-name="percent" horiz-adv-x="1820" d="M281 1087Q281 986 311 946T424 905Q504 905 534 945T565 1087Q565 1190 535 1232T424 1274Q343 1274 312 1233T281 1087ZM68 1085Q68 1175 85 1241T142 1360T253 1439T428 1466Q614 1466 696 1374T778
1087Q778 999 761 934T705 818T594 740T420 713Q231 713 150 804T68 1085ZM592 -43H420L1225 1466H1393L592 -43ZM1038 338Q1038 428 1055 494T1111 612T1222 690T1397 717Q1584 717 1666 626T1749 340Q1749 251 1732 186T1676 69T1565 -9T1391 -35Q1201 -35 1120
56T1038 338ZM1251 342Q1251 239 1282 199T1395 158Q1475 158 1505 198T1536 340T1506 483T1395 524Q1313 524 1282 484T1251 342Z" />
<glyph unicode="&amp;" glyph-name="ampersand" horiz-adv-x="1478" d="M1253 1079V891H1417V639H1253V0H621Q502 0 412 21T264 79T170 170T119 286T104 424Q104 486 114 537T149 636T219 723T330 786Q250 821 206 889T162 1087Q162 1290 273 1379T608 1468H872V1217H739Q662
1217 614 1213T532 1199T483 1171T461 1129T455 1065Q455 957 499 924T682 891H969V1079H1253ZM969 639H676Q506 639 452 600T397 442Q397 362 420 325T515 270T735 252H969V639Z" />
<glyph unicode="&apos;" glyph-name="quotesingle" horiz-adv-x="487" d="M319 924H166L125 1196V1468H360V1196L319 924Z" />
<glyph unicode="(" glyph-name="parenleft" horiz-adv-x="681" d="M631 -397H426Q349 -290 293 -194T186 20T109 268T82 539Q82 680 109 813T189 1062T297 1273T428 1468H633Q570 1353 529 1261T449 1055T393 814T375 541Q375 399 392 276T446 37T524 -173T631 -397Z" />
<glyph unicode=")" glyph-name="parenright" horiz-adv-x="681" d="M49 1468H254Q331 1361 387 1265T494 1051T571 802T598 532Q598 391 571 259T491 9T384 -201T252 -397H47Q109 -283 149 -195T228 8T286 253T305 530Q305 1055 49 1468Z" />
<glyph unicode="*" glyph-name="asterisk" horiz-adv-x="796" d="M254 793L119 891L274 1087L47 1153L98 1311L315 1225L307 1477H483L473 1225L696 1309L748 1147L516 1087L670 889L532 795L395 993L254 793Z" />
<glyph unicode="+" glyph-name="plus" horiz-adv-x="1196" d="M477 72V467H82V707H477V1102H717V707H1112V467H717V72H477Z" />
<glyph unicode="," glyph-name="comma" horiz-adv-x="569" d="M283 -12Q187 -12 154 22T121 139Q121 225 154 259T287 293Q385 293 415 255T446 94Q446 -72 416 -161T327 -284T160 -317V-184Q228 -184 251 -151T283 -12Z" />
<glyph unicode="-" glyph-name="hyphen" horiz-adv-x="681" d="M57 422V694H623V422H57Z" />
<glyph unicode="." glyph-name="period" horiz-adv-x="569" d="M121 139Q121 223 154 258T283 293T412 258T446 139Q446 56 413 22T283 -12T154 22T121 139Z" />
<glyph unicode="/" glyph-name="slash" horiz-adv-x="569" d="M-43 -66L383 1468H612L182 -66H-43Z" />
<glyph unicode="0" glyph-name="zero" horiz-adv-x="1138" d="M567 1460Q684 1460 769 1431T910 1345T1001 1197T1049 988T1063 713Q1063 555 1049 441T1002 233T912 84T770 -3T567 -33Q469 -33 394 -14T265 48T173 149T114 294T83 480T74 711Q74 873 88 989T136
1198T226 1347T367 1431T567 1460ZM567 1227Q486 1227 446 1189T386 1042T367 713Q367 495 386 386T445 239T567 201Q628 201 664 219T725 294T760 449T770 713T761 977T726 1132T664 1208T567 1227Z" />
<glyph unicode="1" glyph-name="one" horiz-adv-x="1138" d="M233 252H479V1100L233 1020V1239L532 1460H764V252H1010V0H233V252Z" />
<glyph unicode="2" glyph-name="two" horiz-adv-x="1138" d="M1042 252V0H53Q53 102 76 191T135 343T228 465T336 563T457 647Q536 697 570 719T646 773T702 822T730 867T747 922T750 989Q750 1123 708 1175T553 1227Q442 1227 404 1174T360 973H76Q82 1233 192
1346T557 1460T927 1350T1042 1004Q1042 961 1039 924T1027 854T1010 795T983 742T950 696T908 654T861 615T803 575T740 537T668 494Q542 419 497 375T416 252H1042Z" />
<glyph unicode="3" glyph-name="three" horiz-adv-x="1138" d="M63 426H348Q351 365 358 329T385 261T446 215T551 201Q665 201 713 252T762 430Q762 548 713 594T526 641H449V870H528Q628 870 672 907T717 1057Q717 1148 679 1187T539 1227Q482 1227 446 1216T390
1177T362 1115T350 1022H86Q91 1129 114 1206T189 1342T330 1430T549 1460Q1010 1460 1010 1073Q1010 948 961 878T817 778Q930 754 992 670T1055 420Q1055 196 932 82T547 -33Q314 -33 194 71T63 426Z" />
<glyph unicode="4" glyph-name="four" horiz-adv-x="1138" d="M633 0V313H49V559Q282 1055 618 1458H920V543H1083V313H920V0H633ZM279 543H633L637 1118Q424 836 279 543Z" />
<glyph unicode="5" glyph-name="five" horiz-adv-x="1138" d="M68 385H352Q363 284 411 243T561 201Q674 201 723 259T772 471Q772 618 723 672T549 727Q470 727 427 702T350 616L113 653L223 1434H1004V1182H432L387 913Q458 961 608 961Q843 961 954 845T1065
477Q1065 355 1039 265T954 106T793 2T545 -33Q317 -33 200 63T68 385Z" />
<glyph unicode="6" glyph-name="six" horiz-adv-x="1138" d="M1038 1092H758Q753 1155 717 1191T594 1227Q537 1227 496 1209T430 1161T390 1079T367 976T356 846Q439 942 627 942Q859 942 963 821T1067 467Q1067 209 946 88T575 -33Q385 -33 277 42T121 284T72
745Q72 802 73 847T81 953T99 1061T130 1163T177 1259T246 1339T339 1404T459 1444T612 1460Q813 1460 912 1371T1038 1092ZM369 459Q369 313 420 257T586 201Q619 201 643 205T696 225T741 269T770 347T782 469Q782 605 737 657T582 709Q468 709 419 654T369 459Z"
/>
<glyph unicode="7" glyph-name="seven" horiz-adv-x="1138" d="M68 1182V1434H1071V1219Q1012 1158 951 1076T819 873T693 622T599 327T553 0H266Q273 154 312 312T404 596T524 842T648 1041T758 1182H68Z" />
<glyph unicode="8" glyph-name="eight" horiz-adv-x="1138" d="M571 881Q662 881 705 921T748 1057Q748 1148 706 1187T569 1227Q469 1227 428 1185T387 1059Q387 964 432 923T571 881ZM1067 422Q1067 319 1040 239T956 95T799 -1T563 -35Q430 -35 334 -3T181
89T98 226T72 401Q72 546 127 645T291 778Q198 820 158 889T117 1075Q117 1271 225 1365T569 1460Q694 1460 781 1434T920 1356T995 1234T1018 1069Q1018 955 981 891T848 784Q963 739 1015 650T1067 422ZM774 422Q774 538 727 592T565 647Q454 647 410 595T365
426Q365 301 412 250T567 199Q678 199 726 250T774 422Z" />
<glyph unicode="9" glyph-name="nine" horiz-adv-x="1138" d="M92 336H371Q384 267 423 234T547 201Q589 201 620 209T682 242T732 307T763 418T776 582Q702 483 485 483Q63 483 63 956Q63 1460 539 1460Q631 1460 706 1441T835 1388T929 1303T994 1193T1034 1059T1055
909T1061 743Q1061 334 937 151T532 -33Q421 -33 339 -6T207 71T129 187T92 336ZM758 961Q758 1108 709 1167T555 1227Q440 1227 398 1165T356 969Q356 824 401 771T559 717Q612 717 646 727T707 763T746 838T758 961Z" />
<glyph unicode=":" glyph-name="colon" horiz-adv-x="681" d="M178 139Q178 223 211 258T340 293T470 258T504 139Q504 56 470 22T340 -12T211 22T178 139ZM178 899Q178 983 211 1018T340 1053T470 1018T504 899Q504 816 470 782T340 748T211 782T178 899Z" />
<glyph unicode=";" glyph-name="semicolon" horiz-adv-x="681" d="M178 899Q178 983 211 1018T340 1053T470 1018T504 899Q504 816 470 782T340 748T211 782T178 899ZM340 -12Q244 -12 211 22T178 139Q178 225 211 259T344 293Q442 293 473 255T504 94Q504 -31
489 -111T437 -237T349 -300T217 -317V-184Q285 -184 309 -151T340 -12Z" />
<glyph unicode="&lt;" glyph-name="less" horiz-adv-x="1196" d="M1112 1128V887L383 586L1112 287V45L82 483V688L1112 1128Z" />
<glyph unicode="=" glyph-name="equal" horiz-adv-x="1196" d="M82 244V483H1112V244H82ZM82 692V932H1112V692H82Z" />
<glyph unicode="&gt;" glyph-name="greater" horiz-adv-x="1196" d="M82 45V287L811 588L82 887V1128L1112 688V485L82 45Z" />
<glyph unicode="?" glyph-name="question" horiz-adv-x="1251" d="M399 1024H115Q116 1160 150 1251T253 1393T410 1464T625 1485Q748 1485 837 1466T998 1399T1106 1266T1143 1055Q1143 1015 1139 981T1129 920T1110 868T1087 824T1056 786T1021 754T980 725T936
697T885 668Q802 620 780 575T758 410H494Q494 483 497 534T513 626T537 693T577 745T629 789T700 836Q736 858 753 870T793 902T825 943T842 993T850 1063Q850 1167 801 1209T633 1251Q565 1251 523 1240T456 1199T419 1130T399 1024ZM471 139Q471 223 504 258T633
293T763 258T797 139Q797 56 763 22T633 -12T504 22T471 139Z" />
<glyph unicode="@" glyph-name="at" horiz-adv-x="1996" d="M1470 0L1585 -121Q1390 -272 1067 -272Q917 -272 789 -246T546 -159T352 -6T225 227T178 543Q178 734 232 889T391 1159T662 1336T1044 1399Q1411 1399 1611 1223T1812 725Q1812 575 1768 452T1647
249T1471 126T1262 82Q1188 82 1151 105T1104 193Q1052 138 998 110T860 82Q786 82 726 104T619 173T546 295T520 473Q520 626 575 749T741 946T999 1020Q1083 1020 1140 991T1245 885L1272 995H1481L1352 410Q1337 342 1337 324Q1337 297 1348 288T1382 279Q1491
279 1563 390T1636 702Q1636 958 1495 1093T1049 1229Q367 1229 367 547Q367 388 404 271T522 69T739 -59T1065 -102Q1208 -102 1302 -76T1470 0ZM754 485Q754 379 793 329T918 279T1065 329T1157 455T1186 623Q1186 722 1146 773T1016 825Q892 825 823 729T754
485Z" />
<glyph unicode="A" glyph-name="A" horiz-adv-x="1478" d="M1450 0H1118Q1090 109 1030 311H434Q401 201 348 0H27Q259 777 567 1468H907Q1233 743 1450 0ZM733 1133Q620 876 514 563H950Q854 852 733 1133Z" />
<glyph unicode="B" glyph-name="B" horiz-adv-x="1478" d="M154 1468H870Q1094 1468 1205 1379T1317 1087Q1317 1022 1305 971T1277 891T1235 839T1192 806T1149 786Q1214 761 1259 723T1329 637T1364 537T1374 424Q1374 348 1360 287T1309 171T1216 79T1068 21T858
0H154V1468ZM739 1217H457V891H797Q870 891 910 896T978 921T1015 973T1024 1065Q1024 1098 1021 1119T1007 1159T978 1187T927 1204T849 1214T739 1217ZM788 639H457V252H729Q804 252 851 254T939 263T1002 283T1040 317T1062 368T1067 440Q1067 508 1056 546T1010
605T927 633T788 639Z" />
<glyph unicode="C" glyph-name="C" horiz-adv-x="1478" d="M1087 483H1391Q1383 370 1346 281T1237 119T1044 7T758 -33Q420 -33 256 147T92 727Q92 1123 254 1312T760 1501Q1318 1501 1391 1012H1087Q1075 1058 1064 1087T1030 1149T974 1200T887 1230T760 1243Q570
1243 485 1118T399 700Q399 581 416 497T475 349T587 256T764 225Q919 225 994 282T1087 483Z" />
<glyph unicode="D" glyph-name="D" horiz-adv-x="1478" d="M154 1468H766Q1112 1468 1253 1303T1395 741Q1395 357 1248 179T764 0H154V1468ZM692 1217H457V252H725Q838 252 906 274T1016 356T1072 504T1087 739Q1087 819 1085 874T1075 982T1055 1066T1021 1127T972
1171T902 1198T811 1213T692 1217Z" />
<glyph unicode="E" glyph-name="E" horiz-adv-x="1366" d="M154 0V1468H1237V1217H457V895H1178V643H457V252H1270V0H154Z" />
<glyph unicode="F" glyph-name="F" horiz-adv-x="1251" d="M154 0V1468H1186V1217H457V872H1094V621H457V0H154Z" />
<glyph unicode="G" glyph-name="G" horiz-adv-x="1593" d="M1499 788V616Q1499 472 1468 362T1379 177T1235 56T1045 -12T811 -33Q728 -33 656 -24T509 9T373 70T258 168T167 306T109 494T88 735Q88 874 111 987T173 1178T269 1316T388 1409T524 1465T667 1494T811
1501Q1436 1501 1477 1012H1174Q1164 1088 1131 1136T1020 1214T819 1243Q709 1243 634 1220T503 1140T421 983T395 733Q395 608 414 518T466 371T553 282T668 237T813 225Q962 225 1046 258T1163 358T1196 537H856V788H1499Z" />
<glyph unicode="H" glyph-name="H" horiz-adv-x="1478" d="M147 0V1468H451V903H1026V1468H1329V0H1026V651H451V0H147Z" />
<glyph unicode="I" glyph-name="I" horiz-adv-x="569" d="M133 0V1468H436V0H133Z" />
<glyph unicode="J" glyph-name="J" horiz-adv-x="1138" d="M682 1468H985V424Q985 175 874 72T514 -31Q415 -31 343 -19T217 22T129 92T73 197T43 338T33 520H336Q338 342 372 282T510 221Q609 221 645 272T682 457V1468Z" />
<glyph unicode="K" glyph-name="K" horiz-adv-x="1478" d="M168 0V1468H471V852L1047 1468H1444L860 877L1477 0H1085L649 659L471 477V0H168Z" />
<glyph unicode="L" glyph-name="L" horiz-adv-x="1251" d="M154 0V1468H457V258H1190V0H154Z" />
<glyph unicode="M" glyph-name="M" horiz-adv-x="1705" d="M141 0V1468H588L858 676L1118 1468H1563V0H1260V1079L999 313H705L444 1079V0H141Z" />
<glyph unicode="N" glyph-name="N" horiz-adv-x="1478" d="M147 0V1468H457L1028 500V1468H1331V0H1028L451 975V0H147Z" />
<glyph unicode="O" glyph-name="O" horiz-adv-x="1593" d="M88 735Q88 874 110 987T169 1178T261 1316T376 1409T509 1465T649 1494T793 1501Q874 1501 943 1493T1086 1463T1220 1406T1334 1311T1425 1174T1483 984T1505 735Q1505 601 1484 491T1428 302T1339
163T1227 67T1095 7T951 -24T799 -33Q714 -33 641 -24T495 9T362 70T250 168T163 306T108 494T88 735ZM395 727Q395 621 406 542T441 408T497 317T578 261T681 233T809 225Q859 225 895 228T975 244T1048 278T1109 339T1157 431T1186 564T1198 743Q1198 1021 1106
1132T791 1243Q684 1243 613 1220T492 1138T418 980T395 727Z" />
<glyph unicode="P" glyph-name="P" horiz-adv-x="1366" d="M154 0V1468H709Q767 1468 809 1467T904 1460T993 1445T1072 1418T1143 1378T1199 1319T1243 1240T1270 1138T1280 1008Q1280 921 1265 851T1225 733T1159 648T1076 591T975 558T863 541T741 537H457V0H154ZM666
1217H457V788H647Q713 788 756 791T839 802T902 826T942 868T966 931T973 1020Q973 1085 962 1121T914 1180T822 1210T666 1217Z" />
<glyph unicode="Q" glyph-name="Q" horiz-adv-x="1593" d="M913 -256H678V-27Q575 -18 492 9T331 92T202 231T119 443T88 735Q88 874 110 987T169 1178T261 1316T376 1409T509 1465T649 1494T793 1501Q874 1501 943 1493T1086 1463T1220 1406T1334 1311T1425 1174T1483
984T1505 735Q1505 615 1489 514T1443 338T1370 204T1278 104T1167 36T1044 -6T913 -27V-256ZM395 727Q395 552 427 447T518 294T678 231V426H913V231Q965 238 1004 255T1082 308T1144 399T1183 541T1198 743Q1198 1021 1106 1132T791 1243Q684 1243 613 1220T492
1138T418 980T395 727Z" />
<glyph unicode="R" glyph-name="R" horiz-adv-x="1478" d="M154 0V1468H791Q1000 1468 1093 1446Q1262 1406 1322 1264Q1362 1172 1362 1028Q1362 923 1342 846T1281 719T1192 640T1075 596L1458 0H1090L729 578H457V0H154ZM748 1217H457V829H729Q808 829 857
833T948 849T1011 885T1043 945T1055 1038Q1055 1115 1031 1151T943 1202T748 1217Z" />
<glyph unicode="S" glyph-name="S" horiz-adv-x="1366" d="M82 461H385Q388 428 391 407T400 360T417 319T443 286T483 259T539 241T614 229T711 225Q761 225 798 228T870 242T928 272T963 322T977 397Q977 466 940 506T807 571L451 668Q392 683 347 701T256 752T182
825T134 929T115 1069Q115 1501 666 1501Q793 1501 891 1478T1053 1414T1159 1314T1219 1187T1239 1038H936Q926 1127 908 1159Q872 1225 746 1239Q705 1243 653 1243Q532 1243 477 1212T422 1098Q422 1024 459 991T571 938L899 850Q970 831 1020 812T1124 759T1209
682T1263 572T1284 420Q1284 334 1263 265T1209 149T1127 69T1029 15T920 -15T812 -30T711 -33Q569 -33 463 -11T288 52T174 156T109 292T82 461Z" />
<glyph unicode="T" glyph-name="T" horiz-adv-x="1251" d="M475 0V1210H33V1468H1219V1210H778V0H475Z" />
<glyph unicode="U" glyph-name="U" horiz-adv-x="1478" d="M150 1468H453V694Q453 615 454 567T459 465T472 382T495 321T530 275T582 247T651 229T743 225Q792 225 827 229T893 244T943 270T978 312T1003 371T1017 452T1024 553T1026 682V1468H1329V498Q1329
402 1315 326T1276 195T1211 99T1126 33T1019 -7T895 -27T754 -33Q657 -33 582 -24T436 6T315 67T226 164T169 307T150 502V1468Z" />
<glyph unicode="V" glyph-name="V" horiz-adv-x="1366" d="M831 0H528Q227 720 25 1468H352Q473 963 688 365Q884 912 1022 1468H1339Q1140 745 831 0Z" />
<glyph unicode="W" glyph-name="W" horiz-adv-x="1933" d="M735 0H416Q161 753 23 1468H342Q424 947 575 418L801 1468H1135L1368 412Q1526 943 1604 1468H1911Q1776 763 1518 0H1196L967 1067L735 0Z" />
<glyph unicode="X" glyph-name="X" horiz-adv-x="1366" d="M18 0L502 756L51 1468H412L684 995L958 1468H1311L858 760L1346 0H977L682 502L375 0H18Z" />
<glyph unicode="Y" glyph-name="Y" horiz-adv-x="1366" d="M537 0V575Q251 974 18 1468H375Q487 1172 694 850Q887 1155 1001 1468H1348Q1122 978 840 571V0H537Z" />
<glyph unicode="Z" glyph-name="Z" horiz-adv-x="1251" d="M43 0V248L807 1217H86V1468H1192V1231L412 258H1206V0H43Z" />
<glyph unicode="[" glyph-name="bracketleft" horiz-adv-x="681" d="M133 -397V1468H635V1264H389V-190H635V-397H133Z" />
<glyph unicode="\" glyph-name="backslash" horiz-adv-x="569" d="M184 1468L612 -66H385L-43 1468H184Z" />
<glyph unicode="]" glyph-name="bracketright" horiz-adv-x="681" d="M547 1468V-397H45V-190H291V1264H45V1468H547Z" />
<glyph unicode="^" glyph-name="asciicircum" horiz-adv-x="1196" d="M121 664L494 1442H705L1073 664H827L598 1184L367 664H121Z" />
<glyph unicode="_" glyph-name="underscore" horiz-adv-x="1099" d="M-4 -256V-154H1104V-256H-4Z" />
<glyph unicode="`" glyph-name="grave" horiz-adv-x="681" d="M297 1520L471 1221H274L-16 1520H297Z" />
<glyph unicode="a" glyph-name="a" horiz-adv-x="1138" d="M367 752H98Q104 855 135 924T228 1033T369 1089T563 1106Q796 1106 908 1034T1020 791V0H748V82Q641 -27 416 -27Q230 -27 148 50T66 272Q66 358 92 424T164 531T262 594T379 627L735 682V748Q735 822
694 849T551 877T414 851T367 752ZM735 412V498L537 465Q490 458 461 450T404 426T363 381T350 311Q350 247 388 216T518 184Q640 184 687 243T735 412Z" />
<glyph unicode="b" glyph-name="b" horiz-adv-x="1251" d="M129 0V1468H414V985Q510 1106 731 1106Q969 1106 1074 971T1180 553Q1180 251 1068 113T727 -27Q610 -27 531 -1T403 102V0H129ZM406 543Q406 437 421 370T469 267T542 220T645 207Q712 207 754 220T828
271T873 375T887 547Q887 724 836 798T641 872Q556 872 507 845T432 746T406 543Z" />
<glyph unicode="c" glyph-name="c" horiz-adv-x="1138" d="M1075 715H1073H791Q778 772 760 803T701 853T588 872Q527 872 489 859T422 810T381 709T369 539Q369 456 377 398T400 302T441 244T498 215T573 207Q685 207 734 251T791 383H1075Q1066 287 1039 216T958
88T811 2T588 -27Q463 -27 371 1T223 77T134 198T88 349T76 528Q76 637 90 721T139 879T233 1002T384 1078T602 1106Q832 1106 943 1011T1075 715Z" />
<glyph unicode="d" glyph-name="d" horiz-adv-x="1251" d="M1124 0H850V102Q800 26 724 0T528 -27Q405 -26 317 13T176 128T99 306T74 543Q74 698 104 808T195 982T335 1076T524 1106Q748 1106 840 985V1468H1124V0ZM848 541Q848 640 835 704T791 806T720 857T614
872Q470 872 419 798T367 547Q367 462 376 403T403 305T451 245T518 215T608 207Q672 207 713 219T786 267T833 369T848 541Z" />
<glyph unicode="e" glyph-name="e" horiz-adv-x="1138" d="M770 309H1061Q1035 128 916 51T569 -27Q437 -27 347 -2T187 88T86 266T53 551Q53 652 65 728T111 879T202 1000T356 1077T582 1106Q725 1106 818 1072T969 959T1050 761T1073 461H346Q353 310 399 259T567
207Q654 207 701 228T770 309ZM348 641H788Q784 713 768 760T722 831T656 863T567 872Q445 872 401 823T348 641Z" />
<glyph unicode="f" glyph-name="f" horiz-adv-x="681" d="M20 1079H178V1188Q178 1264 191 1316T240 1408T338 1467T496 1487Q535 1487 577 1484T642 1478L664 1475V1253Q594 1257 565 1257Q535 1257 515 1251T485 1236T470 1208T464 1174T463 1130V1079H657V850H463V0H178V850H20V1079Z"
/>
<glyph unicode="g" glyph-name="g" horiz-adv-x="1251" d="M109 -113H424Q429 -139 435 -154T461 -188T522 -217T627 -227Q696 -227 738 -215T803 -172T834 -97T842 18V119Q796 56 727 27T545 -2Q310 -2 195 128T80 551Q80 840 191 973T526 1106Q772 1106 856
963V1079H1126V74Q1126 -116 1097 -203Q1052 -341 908 -395Q793 -438 600 -438Q508 -438 435 -428T301 -395T199 -335T135 -243T109 -113ZM373 547Q373 370 421 301T600 231Q737 231 790 305T844 557Q844 731 791 801T598 872Q515 872 469 846T398 749T373 547Z"
/>
<glyph unicode="h" glyph-name="h" horiz-adv-x="1251" d="M420 1468V981Q499 1106 727 1106Q823 1106 891 1087T1002 1030T1070 930T1104 792T1114 608V0H829V557Q829 728 817 776Q801 841 745 860Q710 872 647 872Q576 872 532 858T463 809T429 723T420 592V0H135V1468H420Z"
/>
<glyph unicode="i" glyph-name="i" horiz-adv-x="569" d="M141 0V1079H426V0H141ZM121 1343Q121 1427 154 1462T283 1497T412 1462T446 1343Q446 1260 413 1226T283 1192T154 1226T121 1343Z" />
<glyph unicode="j" glyph-name="j" horiz-adv-x="569" d="M424 1079V47Q424 -40 421 -101T409 -216T385 -304T347 -365T290 -406T213 -427T111 -434Q72 -434 42 -432T0 -426L-10 -424V-193Q25 -195 43 -195Q92 -195 115 -166T139 -53V1079H424ZM119 1343Q119 1428
152 1462T281 1497T410 1462T444 1343Q444 1260 411 1226T281 1192Q184 1192 152 1225T119 1343Z" />
<glyph unicode="k" glyph-name="k" horiz-adv-x="1138" d="M139 0V1468H424V680L774 1079H1124L748 670L1139 0H809L547 469L424 342V0H139Z" />
<glyph unicode="l" glyph-name="l" horiz-adv-x="569" d="M141 0V1468H426V0H141Z" />
<glyph unicode="m" glyph-name="m" horiz-adv-x="1820" d="M129 1079H399V965Q451 1040 527 1073T723 1106Q845 1106 910 1071T1020 954Q1042 987 1063 1009T1122 1056T1214 1093T1343 1106Q1446 1106 1515 1080T1623 1002T1676 884T1692 727V0H1407V641Q1407
774 1374 823T1245 872Q1206 872 1178 865T1129 845T1094 809T1072 761T1060 695T1054 615T1053 516V0H768V629Q768 663 768 679T767 722T764 760T757 791T748 817T733 837T712 853T684 863T649 870T604 872Q559 872 529 866T477 842T443 801T425 734T416 645T414
524V0H129V1079Z" />
<glyph unicode="n" glyph-name="n" horiz-adv-x="1251" d="M829 0V621Q829 655 829 673T827 719T822 760T812 793T797 822T774 843T742 860T699 868T645 872Q594 872 558 864T496 835T456 788T433 718T423 628T420 512V0H135V1079H406V940Q469 1026 547 1066T766
1106Q870 1106 937 1083T1043 1005T1098 868T1114 659V0H829Z" />
<glyph unicode="o" glyph-name="o" horiz-adv-x="1251" d="M1180 541Q1180 -27 623 -27Q72 -27 72 541Q72 1108 625 1108Q1180 1108 1180 541ZM887 543Q887 725 829 799T625 874Q481 874 423 800T365 541Q365 354 423 281T627 207Q770 207 828 281T887 543Z" />
<glyph unicode="p" glyph-name="p" horiz-adv-x="1251" d="M131 1079H401V963Q456 1042 534 1074T731 1106Q846 1106 926 1079T1065 987T1152 811T1180 535Q1180 391 1158 290T1083 116T944 8T731 -27Q504 -27 416 92V-416H131V1079ZM406 547Q406 360 460 284T653
207Q790 207 838 281T887 535Q887 724 836 798T645 872Q511 872 459 801T406 547Z" />
<glyph unicode="q" glyph-name="q" horiz-adv-x="1251" d="M1124 1079V-416H840V88Q798 25 725 -1T539 -27Q406 -27 317 4T174 105T97 275T74 524Q74 833 179 969T526 1106Q649 1106 725 1072T856 961V1079H1124ZM846 535Q846 619 836 678T806 775T755 834T687
864T598 872Q535 872 496 860T426 811T381 707T367 530Q367 343 417 275T602 207Q691 207 742 234T819 333T846 535Z" />
<glyph unicode="r" glyph-name="r" horiz-adv-x="796" d="M418 0H133V1079H401V944Q451 1030 513 1066T680 1102Q703 1102 721 1101T747 1098L754 1096V823Q721 829 664 829Q609 829 568 815T500 772T457 708T432 619T421 517T418 399V0Z" />
<glyph unicode="s" glyph-name="s" horiz-adv-x="1138" d="M66 332H350Q357 246 408 215T578 184Q689 184 733 208T778 289Q778 334 752 356T651 399L352 471Q289 487 246 508T167 562T115 647T98 768Q98 936 209 1021T571 1106Q676 1106 753 1091T893 1038T990
935T1030 772H745Q734 845 699 870T567 895Q461 895 422 872T383 799Q383 760 409 738T502 698L768 635Q922 598 992 530T1063 330Q1063 146 935 60T575 -27Q489 -27 416 -16T279 23T170 90T98 192T66 332Z" />
<glyph unicode="t" glyph-name="t" horiz-adv-x="681" d="M633 1079V850H449V387Q449 358 449 345T450 311T452 281T456 259T463 240T473 227T488 217T507 212T532 208T563 207L633 211V0Q535 -16 430 -16Q274 -16 219 43Q174 92 166 223Q164 269 164 383V850H23V1079H164V1346H449V1079H633Z"
/>
<glyph unicode="u" glyph-name="u" horiz-adv-x="1251" d="M844 0V115Q793 33 708 3T510 -27Q310 -27 224 62T137 379V1079H422V397Q422 288 462 248T610 207Q728 207 777 259T827 457V1079H1112V0H844Z" />
<glyph unicode="v" glyph-name="v" horiz-adv-x="1138" d="M426 0Q178 531 23 1079H334Q419 667 571 303Q726 677 815 1079H1114Q959 531 711 0H426Z" />
<glyph unicode="w" glyph-name="w" horiz-adv-x="1593" d="M639 0H332Q126 533 14 1079H309Q358 703 487 326L655 1079H938L1110 326Q1240 699 1290 1079H1579Q1452 492 1255 0H950L793 694L639 0Z" />
<glyph unicode="x" glyph-name="x" horiz-adv-x="1138" d="M25 0L399 551L39 1079H387L571 770L758 1079H1094L733 555L1112 0H762L563 328L365 0H25Z" />
<glyph unicode="y" glyph-name="y" horiz-adv-x="1138" d="M18 1079H332Q411 688 571 293L807 1079H1106L721 0Q644 -218 602 -289Q547 -382 463 -412Q402 -434 297 -434Q262 -434 227 -432T172 -428L154 -426V-203Q180 -207 201 -207Q239 -207 263 -205T315 -192T361
-164T395 -112T422 -29Q178 506 18 1079Z" />
<glyph unicode="z" glyph-name="z" horiz-adv-x="1024" d="M39 0V215L592 850H78V1079H958V858L408 233H983V0H39Z" />
<glyph unicode="{" glyph-name="braceleft" horiz-adv-x="796" d="M86 436V637Q136 637 179 648T257 690T291 770V1194Q291 1277 315 1332T392 1416T510 1457T672 1468H748V1268Q677 1268 637 1262T575 1238T547 1196T541 1128V758Q541 701 530 663T493 601T438
565T358 537Q409 522 438 509T493 472T530 410T541 315V-57Q541 -101 547 -124T574 -166T636 -191T748 -197V-397H672Q576 -397 511 -386T393 -346T316 -261T291 -123V303Q291 340 272 367T222 408T157 429T86 436Z" />
<glyph unicode="|" glyph-name="bar" horiz-adv-x="573" d="M172 -397V1468H399V-397H172Z" />
<glyph unicode="}" glyph-name="braceright" horiz-adv-x="796" d="M711 637V436Q674 436 641 430T576 409T525 367T506 303V-123Q506 -206 482 -261T405 -345T287 -386T125 -397H49V-197Q120 -197 160 -191T222 -167T250 -125T256 -57V315Q256 372 266 410T303
472T358 509T438 537Q387 552 359 564T304 601T267 663T256 758V1128Q256 1172 250 1195T223 1237T161 1262T49 1268V1468H125Q221 1468 286 1457T404 1417T481 1332T506 1194V770Q506 722 540 691T617 648T711 637Z" />
<glyph unicode="~" glyph-name="asciitilde" horiz-adv-x="1196" d="M281 410H111Q111 748 397 748Q460 748 516 732T608 696T690 660T784 643Q845 643 868 668T905 756H1083Q1083 578 1020 502T817 426Q751 426 689 442T586 477T497 512T406 528Q343 528 317
498T281 410Z" />
</font>
</defs>
</svg>
