<?xml version="1.0" standalone="no"?>
<!DOCTYPE svg PUBLIC "-//W3C//DTD SVG 1.1//EN" "http://www.w3.org/Graphics/SVG/1.1/DTD/svg11.dtd" >
<svg xmlns="http://www.w3.org/2000/svg">
<metadata></metadata>
<defs>
<font id="bakersignet_btroman" horiz-adv-x="1071" >
<font-face units-per-em="2048" ascent="1638" descent="-410" />
<missing-glyph horiz-adv-x="537" />
<glyph horiz-adv-x="2048" />
<glyph horiz-adv-x="2048" />
<glyph unicode="&#xd;" horiz-adv-x="537" />
<glyph unicode=" "  horiz-adv-x="537" />
<glyph unicode="&#x09;" horiz-adv-x="537" />
<glyph unicode="&#xa0;" horiz-adv-x="537" />
<glyph unicode="!" horiz-adv-x="537" d="M137 80l133 129l138 -103l-134 -131zM160 1313l221 -1q-22 -201 -70 -1050l-73 4q-25 427 -78 1047z" />
<glyph unicode="&#x22;" horiz-adv-x="590" d="M94 881v553h117v-553h-117zM377 881v553h119v-553h-119z" />
<glyph unicode="#" horiz-adv-x="1575" d="M104 467l43 123h320l96 272h-342l43 123h344l168 471h146l-166 -471h260l168 471h143l-164 -471h307l-43 -123h-311l-94 -272h330l-43 -123h-332l-166 -469h-145l168 469h-265l-168 -469h-143l166 469h-320zM614 590h263l96 272h-264z" />
<glyph unicode="$" d="M152 74v133q103 -129 327 -131v555q-167 68 -245 153t-78 204t88 207.5t235 111.5v153h84v-149q147 0 262 -35l-8 -121q-84 82 -223 82h-31v-473q355 -146 355 -381q0 -134 -100 -240t-255 -133v-180h-84v170q-197 12 -327 74zM322 1022q0 -146 157 -225v430 q-74 -22 -115.5 -76.5t-41.5 -128.5zM563 90q87 28 133.5 94.5t46.5 156t-42 149.5t-138 110v-510z" />
<glyph unicode="%" horiz-adv-x="1255" d="M74 980.5q0 178.5 65 267.5t194 89t187 -80t58 -260t-65 -267t-195.5 -87t-187 79.5t-56.5 258zM96 0l944 1313h117l-944 -1313h-117zM201 985q0 -270 125 -270q127 0 127 276.5t-121 276.5q-63 0 -97 -74t-34 -209zM676 312q0 358 270 358q121 0 178.5 -80.5 t57.5 -260.5t-65 -267t-196 -87t-188 80t-57 257zM805 317q0 -270 125 -270q127 0 127 276.5t-121 276.5q-62 0 -96.5 -74t-34.5 -209z" />
<glyph unicode="&#x26;" horiz-adv-x="1251" d="M76 291q0 132 72.5 240t226.5 219q-154 194 -154 312t93.5 196.5t225.5 78.5t210.5 -61.5t78.5 -147t-63 -162.5t-205 -173l324 -451q112 134 112 246q0 43 -18 69h211q-37 -45 -116.5 -170.5t-135.5 -195.5l149 -182q44 -56 107 -109h-264l-113 152q-171 -177 -368 -177 q-165 0 -269 92t-104 224zM248 383q0 -125 74.5 -202t197.5 -77q127 0 250 113l-348 471q-174 -130 -174 -305zM387 1129q0 -53 28.5 -113.5t102.5 -165.5q148 108 148 240q0 75 -39.5 122.5t-100.5 47.5t-100 -39t-39 -92z" />
<glyph unicode="'" horiz-adv-x="305" d="M94 881v553h117v-553h-117z" />
<glyph unicode="(" horiz-adv-x="541" d="M127 568q0 305 101.5 528t287.5 325q-219 -374 -219 -825q0 -475 201 -932q-178 129 -274.5 364t-96.5 540z" />
<glyph unicode=")" horiz-adv-x="541" d="M25 -336q219 374 219 825q0 470 -201 932q179 -128 275 -362t96 -540.5t-102 -529.5t-287 -325z" />
<glyph unicode="*" horiz-adv-x="1024" d="M109 961l47 149l315 -143l-29 346h140l-29 -346l315 143l47 -149l-337 -72l235 -256l-129 -96l-172 303l-172 -303l-129 96l235 256z" />
<glyph unicode="+" horiz-adv-x="1706" d="M254 553v117h541v551h118v-551h539v-117h-539v-553h-118v553h-541z" />
<glyph unicode="," horiz-adv-x="537" d="M150 -227q51 84 51 163.5t-49 167.5l167 80q48 -104 48 -164.5t-47 -115.5t-170 -131z" />
<glyph unicode="-" horiz-adv-x="678" d="M62 412l90 116h464l-88 -122h-432q-26 0 -34 6z" />
<glyph unicode="." horiz-adv-x="537" d="M133 109l166 100l104 -131l-157 -103z" />
<glyph unicode="/" horiz-adv-x="569" d="M-49 -190l557 1527h110l-557 -1527h-110z" />
<glyph unicode="0" d="M74 639q0 354 118 526t359 172t343.5 -160t102.5 -513q0 -689 -477 -689q-237 0 -341.5 155t-104.5 509zM258 606q0 -551 277 -551q280 0 280 580q0 317 -64.5 471t-203.5 154t-214 -166t-75 -488z" />
<glyph unicode="1" d="M403 0q30 29 42 146t12 507v201q0 246 -12 323t-42 101l229 59q-16 -542 -16 -813.5t12 -382.5t42 -141h-267z" />
<glyph unicode="2" d="M80 0l309 385q161 201 233 339.5t72 249.5t-67.5 178t-199.5 67t-280 -121v14q0 101 101.5 163t264.5 62t259 -86t96 -231q0 -196 -200 -430l-396 -467l441 8q112 0 182 39l-2 -25q0 -40 -35 -145h-778z" />
<glyph unicode="3" d="M127 178q114 -96 256 -96t224.5 81t82.5 214.5t-91.5 227t-262.5 132.5q149 47 226 122t77 170.5t-57.5 148.5t-163.5 53t-209 -72q0 92 75.5 135t221 43t226.5 -70t81 -182q0 -243 -289 -335q178 -59 264 -155t86 -246t-122 -262t-290 -112q-331 0 -335 203z" />
<glyph unicode="4" d="M33 461q404 557 678 876h86v-778h47q76 0 176 8q-21 -53 -65.5 -75.5t-157.5 -28.5v-68q0 -218 9.5 -296t33.5 -99h-248q24 21 33.5 99t9.5 296v66h-602zM199 559h438l8 594z" />
<glyph unicode="5" d="M138 204q122 -108 250 -108t201 81.5t73 212.5t-106 240t-333 208l84 474q180 -5 359 -5t229 30q-4 -59 -43 -141q-68 -16 -240.5 -16t-242.5 6l-43 -248q269 -128 394.5 -262.5t125.5 -299.5t-116.5 -283t-278 -118t-235.5 56t-78 173z" />
<glyph unicode="6" d="M117 506q0 383 161 607t435 224q85 0 153 -16q-276 -49 -406 -206t-153 -474q41 71 122.5 111.5t184.5 40.5q160 0 250 -93t90 -276.5t-120.5 -316t-304.5 -132.5t-298 146t-114 385zM307 393.5q0 -154.5 60 -248.5t167.5 -94t171.5 98.5t64 251t-56.5 228.5t-166.5 76 t-175 -78.5t-65 -233z" />
<glyph unicode="7" d="M123 -33q200 319 635 1215h-164q-358 0 -440 -43q2 109 25 176q138 -10 327 -10q314 0 520 8l-22 -37q-74 -121 -95 -160l-403 -698q-143 -249 -226 -344t-157 -107z" />
<glyph unicode="8" d="M100 278.5q0 128.5 81 233t251 205.5q-109 62 -167 144.5t-58 174.5q0 141 99 221t260.5 80t243 -60.5t81.5 -168.5q0 -209 -244 -342q180 -110 252 -208t72 -226q0 -163 -121 -260t-319 -97t-314.5 87.5t-116.5 216zM266 313q0 -114 74 -189t190 -75t188.5 74.5 t72.5 188t-67 199t-220 169.5q-238 -148 -238 -367zM379 1077q0 -82 49 -147.5t158 -130.5q65 37 101 108.5t36 160.5t-47 143.5t-122 54.5t-125 -53.5t-50 -135.5z" />
<glyph unicode="9" d="M70 -39q169 50 313 186q174 167 268 371.5t94 389.5q0 354 -215 354q-100 0 -160.5 -75.5t-60.5 -211.5t79 -219.5t216 -83.5h4q-48 -54 -174 -54t-215.5 96t-89.5 254.5t118 263.5t306 105q377 0 377 -393q0 -182 -75.5 -379.5t-188 -329.5t-255.5 -205t-261 -73 q-48 0 -80 4z" />
<glyph unicode=":" horiz-adv-x="537" d="M133 109l166 100l104 -131l-157 -103zM133 840l166 98l104 -131l-157 -100z" />
<glyph unicode=";" horiz-adv-x="537" d="M133 840l166 98l104 -131l-157 -100zM150 -227q51 84 51 163.5t-49 167.5l167 80q48 -104 48 -164.5t-47 -115.5t-170 -131z" />
<glyph unicode="&#x3c;" horiz-adv-x="1706" d="M264 559v103l1178 483v-127l-1000 -408l1000 -405v-129z" />
<glyph unicode="=" horiz-adv-x="1706" d="M254 360v117h1198v-117h-1198zM254 743v117h1198v-117h-1198z" />
<glyph unicode="&#x3e;" horiz-adv-x="1706" d="M264 76v129l1000 405l-1000 408v127l1178 -483v-103z" />
<glyph unicode="?" horiz-adv-x="721" d="M76 1143l12 110q100 84 255 84t242 -81t87 -214q0 -180 -180 -397q-119 -143 -167.5 -232.5t-74.5 -172.5q-19 65 -19 137q0 147 114 297q99 127 127 198.5t28 151t-59.5 140.5t-136.5 61q-140 0 -228 -82zM127 57l131 142l150 -82l-121 -142z" />
<glyph unicode="@" horiz-adv-x="2048" d="M113 522q0 330 200 578q297 358 803 358q165 0 311 -43.5t248 -124.5q262 -201 262 -512q0 -347 -245 -545q-141 -112 -312 -112q-198 0 -198 155q0 3 1 11t1 12q-104 -178 -297 -178q-153 0 -233.5 85t-80.5 247q0 230 137 389t325.5 159t256.5 -157l58 121h110 l-141 -568q-12 -48 -12 -80q0 -90 110 -90q97 0 194.5 82t148 202.5t50.5 254.5q0 266 -195.5 428t-518.5 162q-339 0 -572 -205q-282 -246 -282 -637q0 -340 247 -534q209 -168 549 -168t617 188l45 -66q-298 -221 -660 -221q-385 0 -624 185q-303 232 -303 624zM713 446 q0 -110 51 -169.5t149 -59.5t179.5 70.5t109.5 185.5l60 242q-17 90 -72 140t-135 50q-146 0 -244 -131.5t-98 -327.5z" />
<glyph unicode="A" horiz-adv-x="1241" d="M-63 0q183 221 385 694q87 203 143.5 363t56.5 191t-16 65h254q310 -1031 508 -1313h-224l-206 569h-478l-90 -220q-82 -197 -82 -286q0 -27 10 -63h-261zM393 645h414l-193 529z" />
<glyph unicode="B" horiz-adv-x="1100" d="M119 0q28 30 39.5 138t11.5 462v84q0 386 -11.5 492.5t-39.5 136.5h172l371 14q150 0 232.5 -65t82.5 -183q0 -225 -318 -334q183 -21 283 -113.5t100 -240.5q0 -180 -135.5 -291.5t-361.5 -111.5l-287 12h-139zM346 430q0 -253 17 -314q15 -53 161.5 -53t226.5 82 t80 229t-92.5 227.5t-263.5 80.5h-129v-252zM346 758h55q184 0 281.5 72t97.5 206q0 205 -297 205q-54 0 -118 -6q-19 -82 -19 -410v-67z" />
<glyph unicode="C" horiz-adv-x="1214" d="M76 658.5q0 309.5 185 494t511 184.5l305 -24l-12 -281q-88 215 -311.5 215t-349 -145t-125.5 -404t137.5 -415t367.5 -156q224 0 367 162q-36 -143 -161.5 -228.5t-301.5 -85.5q-268 0 -440 187t-172 496.5z" />
<glyph unicode="D" horiz-adv-x="1403" d="M119 0q28 30 39.5 138t11.5 462v84q0 386 -11.5 492.5t-39.5 136.5h149q90 0 241 12t214 12q282 0 443 -165.5t161 -454.5q0 -336 -193 -531.5t-524 -195.5l-352 10h-139zM346 508q0 -276 9 -336.5t56.5 -78t182.5 -17.5q250 0 387 150.5t137 431t-144 436t-409 155.5 q-107 0 -203 -20q-16 -94 -16 -422v-299z" />
<glyph unicode="E" horiz-adv-x="1014" d="M119 0q28 30 39.5 138t11.5 462v84q0 386 -11.5 492.5t-39.5 136.5h127l518 6l72 -2l16 -193q-24 63 -96.5 88t-276.5 25h-114q-19 -82 -19 -430v-68q50 -4 165 -4q220 0 345 23q-56 -65 -148.5 -92t-308.5 -27l-53 2v-133q0 -350 19 -432h118q203 0 305 32.5t158 108.5 l-35 -205q-82 -16 -204 -16l-420 4h-168z" />
<glyph unicode="F" horiz-adv-x="901" d="M119 0q28 30 39.5 138t11.5 462v84q0 386 -11.5 492.5t-39.5 136.5h141l379 6q135 0 221 -12l8 -170q-30 56 -106.5 79t-179.5 23q-139 0 -217 -6q-19 -87 -19 -426v-98q110 -7 198 -7q154 0 296 25q-42 -66 -123.5 -92.5t-294.5 -26.5h-76v-100q0 -301 11.5 -388.5 t39.5 -119.5h-278z" />
<glyph unicode="G" horiz-adv-x="1374" d="M76 630.5q0 321.5 219.5 514t599.5 192.5q141 0 319 -24v-240q-150 170 -395.5 170t-387.5 -158.5t-142 -431t154.5 -425t428.5 -152.5q84 0 152 16q16 104 16 242q0 265 -51 325h275q-26 -36 -36.5 -111.5t-10.5 -274.5t22 -263l-467 -35q-337 0 -516.5 167 t-179.5 488.5z" />
<glyph unicode="H" horiz-adv-x="1305" d="M119 0q28 30 39.5 138t11.5 462v84q0 386 -11.5 492.5t-39.5 136.5h278q-28 -32 -39.5 -119t-11.5 -387v-68h612v68q0 288 -11.5 380t-41.5 126h281q-30 -30 -40.5 -152t-10.5 -522.5t11 -505t40 -133.5h-281q30 35 41.5 133t11.5 375v156h-612v-156q0 -301 11.5 -388.5 t39.5 -119.5h-278z" />
<glyph unicode="I" horiz-adv-x="516" d="M119 0q28 30 39.5 138t11.5 462v84q0 386 -11.5 492.5t-39.5 136.5h278q-28 -29 -39.5 -133t-11.5 -443v-159q0 -340 11.5 -444.5t39.5 -133.5h-278z" />
<glyph unicode="J" horiz-adv-x="516" d="M90 -307q44 97 62 277.5t18 640t-11.5 566t-39.5 136.5h278q-28 -28 -39.5 -140t-11.5 -446v-244q0 -466 -55.5 -606.5t-198.5 -189.5z" />
<glyph unicode="K" d="M119 0q28 30 39.5 138t11.5 462v84q0 386 -11.5 492.5t-39.5 136.5h278q-28 -32 -39.5 -119t-11.5 -387v-88q75 7 213 155q182 196 241.5 277.5t59.5 124.5v10q0 14 -5 27h271q-141 -90 -596 -596l330 -467q10 -14 28 -40q110 -157 179 -210h-203q-54 0 -82 39l-395 610 h-41v-141q0 -301 11.5 -388.5t39.5 -119.5h-278z" />
<glyph unicode="L" horiz-adv-x="901" d="M119 0q28 30 39.5 138t11.5 462v84q0 386 -11.5 492.5t-39.5 136.5h278q-28 -30 -39.5 -138t-11.5 -460v-84q0 -468 19 -555q40 -2 154 -2q242 0 341 143l-45 -205q-84 -16 -205 -16l-420 4h-71z" />
<glyph unicode="M" horiz-adv-x="1587" d="M70 0q58 51 84 326.5t26 842.5q0 93 -51 144h229q28 0 37 -7.5t17 -29.5l370 -989l412 979q11 28 24.5 37.5t43.5 9.5h200q-49 -64 -49 -320q0 -514 21.5 -719.5t74.5 -273.5h-301q29 44 41.5 109.5t12.5 127t-1.5 106.5t-3.5 131l-12 716l-512 -1219l-473 1219l-4 -895 v-64q0 -160 47 -231h-233z" />
<glyph unicode="N" horiz-adv-x="1356" d="M94 0q76 97 76 778q0 315 -16.5 409.5t-59.5 125.5h213q58 0 129 -108q18 -28 52.5 -78.5t235 -356t370.5 -537.5l2 574q0 276 -12 373.5t-42 132.5h195q-30 -28 -41.5 -149.5t-11.5 -491.5v-678h-133q-68 108 -339 500t-454 663l6 -661q2 -238 17.5 -340.5t50.5 -155.5 h-238z" />
<glyph unicode="O" horiz-adv-x="1421" d="M76 645q0 329 170 510.5t491 181.5q609 0 609 -643q0 -327 -182 -523t-478.5 -196t-453 170.5t-156.5 499.5zM283 673.5q0 -277.5 120.5 -438.5t322.5 -161t308.5 144.5t106.5 419t-114 441t-315 166.5t-315 -147t-114 -424.5z" />
<glyph unicode="P" horiz-adv-x="1014" d="M119 0q28 30 39.5 138t11.5 462v84q0 386 -11.5 492.5t-39.5 136.5h65q91 0 226.5 9t181.5 9q190 0 287.5 -89t97.5 -266t-106 -291t-273 -114q-119 0 -205 45h21q167 0 261.5 94t94.5 248t-66 222.5t-202 68.5q-77 0 -137 -10q-19 -82 -19 -539.5t11.5 -563.5t39.5 -136 h-278z" />
<glyph unicode="Q" horiz-adv-x="1384" d="M76 631q0 342 170.5 524t490.5 182q275 0 421.5 -161.5t146.5 -451.5t-136 -473t-372 -224q160 -83 317.5 -128.5t280.5 -45.5q31 0 89 5q-106 -110 -269 -110q-325 0 -705 266q-211 30 -322.5 188t-111.5 429zM283 679q0 -266 119.5 -418t308.5 -152t290 140t101 399.5 t-110 428t-281 168.5q-204 0 -316 -150t-112 -416z" />
<glyph unicode="R" horiz-adv-x="1081" d="M119 0q28 30 39.5 138t11.5 462v84q0 386 -11.5 492.5t-39.5 136.5h59q120 0 268 7t177 7q155 0 235 -66.5t80 -195.5q0 -257 -311 -387l293 -408q145 -201 245 -270h-194q-39 0 -59.5 10.5t-43.5 42.5l-350 492q-38 54 -71 71t-85 17h-16v-125q0 -301 11.5 -388.5 t39.5 -119.5h-278zM346 713q36 -8 86 -8q149 0 229 78t80 223q0 239 -247 239q-79 0 -129 -6q-19 -84 -19 -410v-116z" />
<glyph unicode="S" horiz-adv-x="985" d="M59 53v223q126 -208 369 -208q119 0 193.5 70t74.5 167t-50 162t-169 129l-27 15q-346 189 -346 384q0 151 118 246.5t308 95.5l218 -8l38 -2h52v-213q-80 133 -271 133q-128 0 -202 -56t-74 -151q0 -141 271 -284q9 -4 13 -6q170 -90 243 -178t73 -199 q0 -165 -135.5 -281.5t-333.5 -116.5q-156 0 -363 78z" />
<glyph unicode="T" horiz-adv-x="1114" d="M35 1151l49 162h1040q-35 -56 -86 -80.5t-135 -24.5l-249 -2q-11 -249 -11 -606.5t11.5 -463.5t39.5 -136h-278q28 30 39.5 134t11.5 444v79q0 305 -12 545h-217q-126 0 -203 -51z" />
<glyph unicode="U" horiz-adv-x="1346" d="M119 1313h278q-30 -28 -41.5 -154.5t-11.5 -556.5q0 -315 71 -415.5t251 -100.5t256.5 125t76.5 488t-11 473.5t-40 140.5h281q-30 -30 -41.5 -140.5t-11.5 -515.5t11.5 -516t41.5 -141h-225l6 193q-64 -105 -174 -161.5t-250 -56.5q-217 0 -317.5 105.5t-100.5 333.5 l2 243q0 404 -11.5 514.5t-39.5 141.5z" />
<glyph unicode="V" horiz-adv-x="1128" d="M-18 1313h149q51 0 65 -10.5t35 -62.5q41 -103 107 -318l240 -766l223 559q63 160 101 302.5t38 193.5t-14 101l260 1q-144 -204 -432 -950q-94 -242 -146 -373h-166q-126 478 -249 830t-211 493z" />
<glyph unicode="W" horiz-adv-x="1655" d="M8 1313h131q70 0 91.5 -27.5t48.5 -152.5q80 -396 160 -962q1 -8 1 -11l199 600q88 266 88 403q0 81 -53 150h350q-47 -67 -47 -127q0 -41 24 -135l238 -891l143 579q78 306 78 446q0 72 -39 128h271q-73 -79 -152.5 -324.5t-255.5 -998.5h-170q-17 117 -70 299l-229 811 q-62 -249 -181 -616.5t-151 -493.5h-176q-64 511 -152 887.5t-147 435.5z" />
<glyph unicode="X" horiz-adv-x="1214" d="M-6 0q142 107 287 299l247 330l-229 348q-118 180 -176 249.5t-100 86.5h219q37 0 59 -16t68 -89l268 -434l143 199q125 174 125 270q0 36 -18 70h268q-96 -101 -264 -335l-205 -282l379 -542q73 -107 154 -154h-195q-53 0 -81.5 16t-61.5 68l-301 473l-136 -191 q-172 -241 -172 -291t29 -75h-307z" />
<glyph unicode="Y" horiz-adv-x="995" d="M-29 1313h166q63 0 95 -24.5t80 -122.5q96 -198 204 -533l187 343q102 191 102 243.5t-37 93.5h262q-294 -438 -379 -600q-47 -94 -67.5 -194.5t-20.5 -309.5q0 -119 41 -209h-268q53 96 53 297t-52 371.5t-185 400.5q-102 176 -181 244z" />
<glyph unicode="Z" horiz-adv-x="1270" d="M0 0q426 547 606 792t305 437h-293q-257 0 -356 -24.5t-158 -84.5l29 196q42 -3 487 -3q551 0 573 4l-47 -63q-638 -827 -861 -1168q350 -10 413 -10q253 0 356.5 33.5t164.5 115.5l-39 -225h-1180z" />
<glyph unicode="[" horiz-adv-x="541" d="M199 -336v1757h284q-83 -38 -115 -113.5t-32 -312.5v-905q0 -237 32 -312.5t115 -113.5h-284z" />
<glyph unicode="\" horiz-adv-x="569" d="M-49 1337h110l557 -1527h-110z" />
<glyph unicode="]" horiz-adv-x="541" d="M57 -336q84 38 116 113.5t32 312.5v905q0 237 -32 312.5t-116 113.5h285v-1757h-285z" />
<glyph unicode="^" horiz-adv-x="2048" d="M422 901l520 557h162l520 -557h-158l-442 438l-442 -438h-160z" />
<glyph unicode="_" horiz-adv-x="1024" d="M0 -365h1024v-118h-1024v118z" />
<glyph unicode="`" horiz-adv-x="1024" d="M262 1399h178q75 -172 209 -350q-226 49 -387 350z" />
<glyph unicode="a" horiz-adv-x="829" d="M41 187q0 83 63 142t232 133.5t197 109.5t28 123q0 177 -172 177q-86 0 -125 -55q-8 -12 -22 -44q-38 -91 -99 -91q-33 0 -54 21t-21 55q0 79 106 129.5t262 50.5t215.5 -45.5t59.5 -151.5l-11 -399q0 -300 70 -342l-184 -12q-23 61 -27 159q-83 -172 -260 -172 q-106 0 -182 64.5t-76 147.5zM209 234.5q0 -64.5 44 -101.5t127 -37q175 0 175 252v144q-230 -92 -288 -142.5t-58 -115z" />
<glyph unicode="b" horiz-adv-x="967" d="M57 1399l215 37v-682q49 85 132.5 134.5t177.5 49.5q146 0 234.5 -123.5t88.5 -346.5t-114.5 -358t-319.5 -135q-51 0 -140 13.5t-127.5 13.5t-92.5 -10q18 220 18 637t-15.5 580t-56.5 190zM270 421.5q0 -210.5 48.5 -291.5t167 -81t187 104t68.5 283t-66.5 282 t-181.5 103t-169 -94.5t-54 -305z" />
<glyph unicode="c" horiz-adv-x="834" d="M61 446.5q0 211.5 136.5 351.5t351.5 140q112 0 199 -25l-7 -215q-54 168 -197 168t-228 -114t-85 -288t85 -275t233.5 -101t234.5 115v-4q0 -102 -82.5 -163t-218.5 -61q-182 0 -302 130t-120 341.5z" />
<glyph unicode="d" horiz-adv-x="985" d="M61 442q0 221 146 358.5t401 137.5q55 0 99 -4v215q0 199 -37 256l207 31q-29 -242 -29 -744t11 -585.5t40 -106.5l-192 -12q-9 43 -9 90v24q-91 -127 -263.5 -127t-273 123t-100.5 344zM225 469q0 -179 81.5 -282t197 -103t158.5 58t43 227q0 409 -13 440 q-22 57 -121 57q-160 0 -253 -109t-93 -288z" />
<glyph unicode="e" horiz-adv-x="872" d="M61 455q0 221 116 352t310 131q142 0 231 -76.5t89 -193.5q0 -48 -54 -64t-244.5 -16t-264.5 4q-15 -51 -15 -117q0 -172 81.5 -271.5t223.5 -99.5t259 119v-24q0 -82 -100 -153t-228 -71q-184 0 -294 129.5t-110 350.5zM256 651h18l138 -4h26q136 0 167.5 14.5t31.5 66 t-48.5 96t-125.5 44.5t-136.5 -60.5t-70.5 -156.5z" />
<glyph unicode="f" horiz-adv-x="483" d="M55 915h82v99q0 152 7 212t24 91q30 56 112.5 88.5t173.5 32.5q167 0 167 -84q0 -26 -22.5 -44t-58 -18t-85 37t-70.5 37q-54 0 -78 -79.5t-24 -192.5q0 -140 2 -178l157 -1l2 -16q0 -29 -27 -40t-132 -15v-584q0 -139 9.5 -190.5t33.5 -69.5h-234q24 18 33.5 69.5 t9.5 190.5v584q-39 0 -81 6z" />
<glyph unicode="g" horiz-adv-x="930" d="M2 -326q0 132 208 300q62 50 95 79q-103 23 -147.5 55.5t-44.5 88.5t93 102.5t140 85.5q-91 12 -148 85t-57 190t100 197.5t263 80.5q90 0 160 -33q160 7 178 12q4 -28 4 -24l-2 -21q-34 -22 -121 -22q57 -59 57 -168.5t-79 -188t-228 -108.5q-186 -86 -186 -147 q0 -49 243 -111q251 -63 327.5 -126t76.5 -157t-51.5 -160t-208.5 -161l-24 -15q-176 -106 -312 -106t-236 79.5t-100 192.5zM150 -252q0 -96 91.5 -157.5t224.5 -61.5t218.5 78.5t85.5 176.5t-71 149t-298 100q-135 -84 -193 -150.5t-58 -134.5zM303 677q0 -95 50 -161.5 t119 -66.5t109 49.5t40 145.5t-47 165.5t-116.5 69.5t-112 -53.5t-42.5 -148.5z" />
<glyph unicode="h" horiz-adv-x="938" d="M94 0q26 15 36.5 93t10.5 269l-4 599v165q0 147 -9.5 201.5t-33.5 73.5l203 35l-16 -662q69 89 137 126.5t154 37.5q170 0 219 -150q20 -64 20 -346v-227q0 -110 9.5 -151.5t33.5 -63.5h-200q10 186 10 608q0 119 -40 167t-144 48t-149.5 -62.5t-45.5 -303.5v-197 q0 -139 9.5 -190.5t33.5 -69.5h-234z" />
<glyph unicode="i" horiz-adv-x="422" d="M78 1194l153 96l86 -141l-151 -94zM94 0q24 18 33.5 69.5t9.5 190.5v311q0 204 -9.5 266.5t-32.5 77.5q114 4 200 22q-10 -78 -10 -564v-117q0 -134 9.5 -185.5t33.5 -70.5h-234z" />
<glyph unicode="j" horiz-adv-x="422" d="M45 -592q52 39 72 247t20 659t-9.5 518t-33.5 83l201 23q-12 -134 -12 -328l8 -682q0 -242 -59.5 -371t-182.5 -155zM84 1210l162 80l69 -147l-168 -80z" />
<glyph unicode="k" horiz-adv-x="825" d="M76 1405l209 31v-897q129 90 205.5 177.5t76.5 131t-16 67.5h207l-264 -282q-44 -44 -78 -72q105 -134 248.5 -339t185.5 -222h-213l-301 455q-26 41 -45 41l-6 -2v-234q0 -139 9.5 -190.5t33.5 -69.5h-234q25 16 35 82t10 235l-2 385l2 371q0 171 -14 240t-49 92z" />
<glyph unicode="l" horiz-adv-x="422" d="M94 0q25 16 35 82.5t10 236.5l-2 388v315q0 218 -9.5 291.5t-33.5 87.5l201 34q-10 -97 -10 -1011v-162q0 -140 9.5 -192t33.5 -70h-234z" />
<glyph unicode="m" horiz-adv-x="1413" d="M94 0q24 18 33.5 69.5t9.5 190.5v260q0 222 -9.5 290t-33.5 85l187 20q10 -48 10 -90v-20q121 133 278 133t207 -147q135 147 283 147q75 0 128.5 -38t70.5 -90.5t21.5 -121.5t4.5 -235v-246q0 -107 9.5 -147t33.5 -60h-198q10 192 10 512v27q0 189 -36 239.5t-126 50.5 q-95 0 -152 -75q-22 -30 -31.5 -94t-9.5 -220v-223q0 -181 43 -217h-231q23 18 32 64.5t9 183.5v377q0 108 -38 156t-124 48q-92 0 -149 -75q-24 -30 -33.5 -92.5t-9.5 -200.5l2 -244q0 -102 9.5 -150t33.5 -67h-234z" />
<glyph unicode="n" horiz-adv-x="938" d="M94 0q24 18 33.5 69.5t9.5 190.5v260q0 222 -9.5 290t-33.5 85l187 20q10 -44 10 -102v-27q61 80 129.5 116t159.5 36q130 0 180.5 -86.5t50.5 -378.5v-266q0 -107 9.5 -147t33.5 -60h-200q10 224 10 510v49q0 172 -38.5 218t-144 46t-151 -62.5t-45.5 -303.5v-197 q0 -139 9.5 -190.5t33.5 -69.5h-234z" />
<glyph unicode="o" horiz-adv-x="995" d="M61 441.5q0 222.5 128 359.5t327.5 137t308.5 -114.5t109 -337.5t-122.5 -367t-326 -144t-314 122t-110.5 344.5zM227 476q0 -192 81 -307.5t218 -115.5q242 0 242 402q0 181 -78.5 294t-203.5 113t-192 -97t-67 -289z" />
<glyph unicode="p" horiz-adv-x="973" d="M94 -573q26 32 36.5 125.5t10.5 300.5v423q0 346 -10.5 477t-36.5 162l186 23q-5 -60 -8 -131q149 131 290.5 131t244 -130t102.5 -339.5t-162 -351.5t-411 -142q-26 0 -51 5v-37l-2 -123q0 -202 10 -281t35 -112h-234zM274 334q0 -170 39.5 -212t165 -42t199.5 87.5 t74 258.5t-79.5 285t-199.5 114q-44 0 -91 -19.5t-69 -46.5t-30.5 -100.5t-8.5 -265.5v-59z" />
<glyph unicode="q" horiz-adv-x="977" d="M61 445.5q0 218.5 128 355.5t322.5 137t299 -113.5t104.5 -307t-71 -319t-205 -173.5q395 -240 682 -240q25 0 53 2q-60 -86 -211 -86q-290 0 -714 280q-183 5 -285.5 125.5t-102.5 339zM227 478.5q0 -189.5 76.5 -303.5t204.5 -114q242 0 242 400q0 180 -72.5 290.5 t-194.5 110.5t-189 -97t-67 -286.5z" />
<glyph unicode="r" horiz-adv-x="635" d="M94 0q24 18 33.5 69.5t9.5 190.5v260q0 222 -9.5 290t-33.5 85l154 25q31 -1 33 -85q1 -26 2 -40q92 143 217 143q50 0 80 -21.5t30 -56.5q0 -61 -80 -61l-110 6q-84 0 -110.5 -56t-26.5 -264l2 -258q0 -107 9.5 -157.5t33.5 -69.5h-234z" />
<glyph unicode="s" horiz-adv-x="729" d="M37 68q0 43 14 159q67 -178 254 -178q87 0 142 48.5t55 115.5t-36 110t-160.5 111t-175 130t-50.5 157t82.5 156t232.5 61q92 0 219 -27l-6 -174q-74 131 -215 131q-72 0 -114.5 -34.5t-42.5 -92.5q0 -102 225 -231q124 -70 165.5 -123.5t41.5 -126.5q0 -116 -109 -200.5 t-241.5 -84.5t-206.5 26.5t-74 66.5z" />
<glyph unicode="t" horiz-adv-x="559" d="M51 842v65l101 8l4 254l149 45l-6 -299h166q11 0 13.5 -2t2.5 -10q0 -61 -166 -61h-16l-10 -539v-14q0 -104 24.5 -148.5t83.5 -44.5t117 62l-6 -92q-77 -91 -195 -91q-174 0 -174 258v17l11 588z" />
<glyph unicode="u" horiz-adv-x="958" d="M89 915l147 23q28 0 35.5 -12.5t7.5 -59.5l-5 -475v-12q0 -150 45 -214.5t152 -64.5t154 78.5t47 290.5v238q0 184 -41 208l200 23q-12 -187 -12 -557v-115q0 -139 10 -192t35 -74l-162 -12h-10q-8 0 -8 10v8l-6 150q-47 -86 -119.5 -133.5t-154.5 -47.5q-166 0 -236 131 q-22 44 -31.5 108t-9.5 210v39l4 373q0 59 -42 79z" />
<glyph unicode="v" horiz-adv-x="797" d="M-16 911l149 17h19q45 0 156 -382q72 -247 122 -407q95 255 150 445t55 243.5t-18 87.5h212q-46 -44 -150 -298t-226 -627h-121q-266 904 -348 921z" />
<glyph unicode="w" horiz-adv-x="1190" d="M10 915l117 9q20 2 33 4q58 0 126 -474q30 -207 50 -333q192 524 192 688q0 65 -32 106h247q-20 -32 -20 -78t84.5 -379t85.5 -337q143 513 143 710q0 52 -26 84h192q-46 -62 -106 -262t-168 -663h-129q-166 634 -207 751q-54 -212 -134.5 -460.5t-90.5 -290.5h-134 q-88 502 -135.5 695.5t-87.5 229.5z" />
<glyph unicode="x" horiz-adv-x="758" d="M-33 0q76 52 196 241l142 222l-145 291q-47 91 -71 122t-48 39l143 11l15 2q21 0 35.5 -14t44.5 -72l120 -250l142 219q88 138 227 238l-322 -519l189 -354q78 -148 139 -176l-108 -20q-20 -5 -42 -5q-45 0 -100 101l-174 330l-148 -259q-48 -87 -48 -124q0 -8 5 -23 h-192z" />
<glyph unicode="y" horiz-adv-x="772" d="M-305 -498q0 21 20 29t84 8l90 -2q106 0 154 20t105 91t102 172.5t45 158t-50 248t-115.5 384t-90.5 242t-49 58.5l141 17h19q43 0 154 -413q62 -230 104 -376q93 251 147.5 442t54.5 246.5t-18 87.5h213q-65 -75 -202 -439q-64 -171 -103 -269q-182 -462 -320 -633.5 t-309 -171.5q-74 0 -125 30.5t-51 69.5z" />
<glyph unicode="z" horiz-adv-x="895" d="M-6 0l639 848h-195q-168 0 -244 -28t-116 -95l39 190h733l-639 -849h252q197 0 278 28.5t131 98.5l-26 -193h-852z" />
<glyph unicode="{" horiz-adv-x="1024" d="M172 467v127l45 -2q134 0 189 61.5t55 214.5v244q0 153 22.5 215.5t71 94t108.5 43.5t160 12h35v-127l-45 2q-121 0 -164 -47t-43 -197v-242q0 -166 -43.5 -235.5t-154.5 -100.5q111 -30 154.5 -99.5t43.5 -235.5v-242q0 -149 43.5 -195.5t169.5 -46.5h39v-125h-35 q-184 0 -262 52q-55 36 -77.5 100t-22.5 213v244q0 152 -55 213t-189 61z" />
<glyph unicode="|" horiz-adv-x="1024" d="M449 -483v2048h126v-2048h-126z" />
<glyph unicode="}" horiz-adv-x="1024" d="M166 -289l45 -2q120 0 163.5 47.5t43.5 198.5v240q0 166 43.5 235.5t154.5 99.5q-111 31 -154.5 100.5t-43.5 235.5v242q0 149 -44 196.5t-169 47.5h-39v125h35q183 0 264 -52q54 -35 76 -98t22 -215v-244q0 -152 55.5 -214t190.5 -62l45 2v-127l-45 2q-135 0 -190.5 -62 t-55.5 -214v-242q0 -153 -22 -216.5t-68.5 -94.5t-105 -42.5t-160.5 -11.5h-41v125z" />
<glyph unicode="~" horiz-adv-x="1706" d="M178 461v133q209 145 387 145q114 0 303.5 -69.5t276.5 -69.5q159 0 385 158v-131q-202 -144 -387 -144q-82 0 -151.5 22.5t-126.5 43.5q-202 72 -302 72q-157 0 -385 -160z" />
<glyph unicode="&#xa0;" />
<glyph unicode="&#xa1;" horiz-adv-x="537" d="M127 1206l133 131l137 -102l-133 -131zM154 0q23 261 69 1051l76 -4q21 -419 78 -1047h-223z" />
<glyph unicode="&#xa2;" d="M174 632q0 194 104 325t281 159v164h76v-158h10q60 0 121 -14t75 -24q23 -15 23 -105q0 -62 -4 -90q-69 161 -225 163v-755h10q65 0 128.5 31t100.5 81q-3 -92 -58 -142.5t-181 -76.5v-190h-76v186q-178 14 -281.5 133t-103.5 313zM342 673q0 -155 52.5 -242t164.5 -128 v746q-102 -18 -159.5 -119.5t-57.5 -256.5z" />
<glyph unicode="&#xa3;" d="M37 118.5q0 60.5 48 100t134 39.5t219 -78q29 48 29 84q0 108 -154 389h-209v72h175q-86 151 -86 264q0 154 110.5 251t272 97t274.5 -39l-10 -159q-117 121 -265 121q-110 0 -173.5 -51.5t-63.5 -135t121 -286.5q24 -40 37 -62h268v-72h-232q60 -137 60 -231 q0 -140 -84 -272q62 -29 151 -29q208 0 316 116q2 -10 2 -20q0 -94 -82 -168t-186 -74q-64 0 -123.5 22t-141.5 79q-103 -101 -223 -101q-80 0 -132 41.5t-52 102zM117 119.5q0 -31.5 28 -51t76 -19.5q102 0 162 72q-87 69 -168 69q-44 0 -71 -19.5t-27 -51z" />
<glyph unicode="&#xa4;" horiz-adv-x="1241" d="M86 424l207 205q-88 116 -88 256t88 256l-207 205l72 73l207 -207q119 91 256 91q141 0 260 -91l204 207l72 -73l-205 -205q86 -114 86 -256q0 -144 -86 -256l205 -205l-72 -74l-204 207q-114 -88 -260 -88q-145 0 -256 88l-207 -207zM309 886q0 -130 91.5 -222.5 t221.5 -92.5t222 93t92 222.5t-91.5 221.5t-221.5 92t-222 -92t-92 -222z" />
<glyph unicode="&#xa5;" d="M49 1313l131 4q59 0 92 -26t72 -111q86 -189 203 -557l174 329l10 20q103 195 103 247.5t-37 93.5h227q-188 -301 -297 -502h236v-72h-273l-65 -137h338v-72h-359v-135q0 -218 9.5 -296t33.5 -99h-246q23 20 32 93.5t9 301.5v135h-333v72h315l-59 137h-256v72h229 l-123 258q-99 212 -166 244z" />
<glyph unicode="&#xa6;" horiz-adv-x="1024" d="M449 -350v758h126v-758h-126zM449 674v758h126v-758h-126z" />
<glyph unicode="&#xa7;" horiz-adv-x="1024" d="M70 575q0 205 231 316q-90 81 -90 193t93 182.5t257 70.5q86 0 242 -28l-8 -193q-88 148 -242 148q-82 0 -129 -38.5t-47 -105.5q0 -101 269 -268q53 -32 69 -43q260 -164 260 -330q0 -200 -246 -307q131 -106 131 -232t-120 -218.5t-268 -92.5t-227 29t-79 76 q0 55 14 171q82 -206 285 -206q102 0 166.5 55t64.5 142q0 112 -244 271q-40 26 -61 40t-62 40q-259 164 -259 328zM203 637q0 -141 305 -324q103 -62 162 -100q89 42 129.5 97.5t40.5 133.5q0 112 -245 262q-144 88 -233 150q-84 -42 -121.5 -93.5t-37.5 -125.5z" />
<glyph unicode="&#xa8;" horiz-adv-x="1024" d="M229 1208l142 121l102 -123l-143 -119zM549 1208l143 121l103 -123l-144 -119z" />
<glyph unicode="&#xa9;" horiz-adv-x="1706" d="M119 725q0 299 214 517t521 218t520 -213t213 -522t-211 -516q-109 -106 -244.5 -162.5t-280.5 -56.5q-298 0 -515 217q-217 215 -217 518zM207 725q0 -261 190 -455q192 -190 455 -190q265 0 463 192q186 184 186 452q0 270 -188 460q-188 188 -461 188 q-269 0 -453 -186q-192 -196 -192 -461zM465 722.5q0 206.5 107.5 331t287.5 124.5q137 0 230 -74.5t104 -192.5h-129q-15 77 -70.5 120.5t-138.5 43.5q-117 0 -182.5 -92.5t-65.5 -256t66.5 -255.5t167.5 -92t159.5 48.5t73.5 133.5h129q-11 -127 -109 -207t-259.5 -80 t-266 121t-104.5 327.5z" />
<glyph unicode="&#xaa;" horiz-adv-x="623" d="M31 710q0 58 46.5 99.5t174.5 94t149 77t21 85.5q0 124 -129 124q-65 0 -94 -39q-7 -8 -17 -31q-29 -63 -73 -63q-26 0 -42 14.5t-16 38.5q0 56 79.5 91.5t196.5 35.5t161 -32.5t44 -106.5l-6 -279q0 -208 51 -239l-137 -9q-16 44 -20 110q-64 -118 -195 -118 q-80 0 -137 44.5t-57 102.5zM158 744q0 -45 33 -71t95 -26q130 0 130 176v101q-169 -63 -213.5 -99t-44.5 -81z" />
<glyph unicode="&#xab;" horiz-adv-x="891" d="M61 465l447 377q-12 -82 -59 -142l-203 -235l203 -236q45 -51 59 -141zM383 465l446 377q-12 -89 -57 -142l-203 -235l203 -236q45 -49 57 -140z" />
<glyph unicode="&#xac;" horiz-adv-x="1706" d="M254 741v117h1198v-502h-115v385h-1083z" />
<glyph unicode="&#xad;" horiz-adv-x="678" d="M62 412l90 116h464l-88 -122h-432q-26 0 -34 6z" />
<glyph unicode="&#xae;" horiz-adv-x="1706" d="M119 725q0 303 221 524q207 211 512 211q307 0 524 -217q211 -211 211 -518q0 -309 -213 -516q-225 -219 -522 -219q-301 0 -518 219q-215 213 -215 516zM207 725q0 -261 190 -455q188 -190 453 -190q269 0 460 188t191 457t-186 457q-192 190 -463 190q-269 0 -451 -184 q-194 -196 -194 -463zM561 317v840h311q351 0 351 -231q0 -89 -53 -148.5t-144 -75.5l188 -385h-157l-176 365h-179v-365h-141zM702 774h148q123 0 175 33t52 110t-54.5 112.5t-176.5 35.5h-144v-291z" />
<glyph unicode="&#xaf;" horiz-adv-x="1024" d="M254 1145v125h516v-125h-516z" />
<glyph unicode="&#xb0;" horiz-adv-x="674" d="M55 1171.5q0 118.5 82.5 200.5t200 82t200.5 -83t83 -199.5t-83.5 -199.5t-201.5 -83t-199.5 82t-81.5 200.5zM135 1171q0 -84 59.5 -143t143.5 -59t142.5 59t58.5 143t-58.5 142.5t-142.5 58.5t-143.5 -58.5t-59.5 -142.5z" />
<glyph unicode="&#xb1;" horiz-adv-x="1706" d="M254 41v117h1198v-117h-1198zM254 719v117h541v344h118v-344h539v-117h-539v-344h-118v344h-541z" />
<glyph unicode="&#xb2;" horiz-adv-x="707" d="M53 524l203 232q203 228 203 350q0 69 -45 109t-132 40t-184 -71v8q0 60 67 97.5t174 37.5t170.5 -51.5t63.5 -125.5q0 -134 -133 -271l-260 -281l291 4q71 0 119 25v-15q0 -19 -23 -88h-514z" />
<glyph unicode="&#xb3;" horiz-adv-x="707" d="M84 630q78 -57 170 -57t146.5 49t54.5 129t-60 135.5t-174 80.5q201 57 201 176q0 56 -38.5 88.5t-105.5 32.5t-141 -43q0 55 50 80.5t146 25.5t150 -42.5t54 -108.5q0 -147 -191 -201q232 -71 232 -236q0 -95 -81 -162t-191 -67q-218 0 -222 120z" />
<glyph unicode="&#xb4;" horiz-adv-x="1024" d="M375 1049q135 182 209 350h178q-82 -153 -176 -238t-211 -112z" />
<glyph unicode="&#xb5;" horiz-adv-x="1128" d="M-111 -426l316 1495h157l-126 -595q-15 -62 -15 -154.5t57 -151.5t171 -59t197 101t128 308l121 551h156l-162 -754q-23 -100 -23 -135q0 -65 72 -65q17 0 35 2l-27 -125q-42 -10 -102 -10q-124 0 -135 147q-41 -70 -117 -108.5t-172 -38.5q-175 0 -262 137l-113 -545 h-156z" />
<glyph unicode="&#xb6;" horiz-adv-x="1024" d="M76 1133q0 154 107.5 250t285.5 96h479v-78h-125v-1401h-94v1401h-182v-1401h-96v782q-173 8 -274 102.5t-101 248.5z" />
<glyph unicode="&#xb7;" horiz-adv-x="537" d="M156 657q0 45 33.5 78t78.5 33t78 -33t33 -77.5t-33 -78.5t-78 -34t-78.5 33.5t-33.5 78.5z" />
<glyph unicode="&#xb8;" horiz-adv-x="1024" d="M258 -317q116 -56 245.5 -56t129.5 88q0 95 -135 95q-16 0 -58 -3v193h72v-106h23q227 0 227 -177q0 -182 -248 -182q-133 0 -191.5 33.5t-64.5 114.5z" />
<glyph unicode="&#xb9;" horiz-adv-x="707" d="M266 1290l152 37q-12 -352 -12 -501q0 -268 34 -302l-173 1q19 17 26.5 89t7.5 301v121q0 145 -7.5 192.5t-27.5 61.5z" />
<glyph unicode="&#xba;" horiz-adv-x="748" d="M47 889q0 156 95 252t245 96t231.5 -80t81.5 -236.5t-91.5 -257t-244 -100.5t-235 85t-82.5 241zM170 912.5q0 -134.5 61 -215.5t164 -81q180 0 180 281q0 127 -58 207t-152 80t-144.5 -68.5t-50.5 -203z" />
<glyph unicode="&#xbb;" horiz-adv-x="891" d="M61 88q14 90 58 141l203 236l-203 235q-45 51 -57 141l446 -376zM383 88q12 84 59 141l203 236l-203 235q-48 56 -59 142l446 -377z" />
<glyph unicode="&#xbc;" horiz-adv-x="1692" d="M254 578q18 15 25.5 83.5t7.5 282.5v113q0 133 -7.5 177.5t-25.5 57.5l143 35q-10 -315 -10 -461.5t7 -208.5t26 -79h-166zM334 -25l921 1362h103l-922 -1362h-102zM1038 258q263 319 428 492h54v-437h30q61 0 111 4q-13 -30 -42 -42.5t-99 -14.5v-39q0 -124 5.5 -166.5 t20.5 -54.5h-155q26 22 26 221v37h-379zM1143 313h276l4 332z" />
<glyph unicode="&#xbd;" horiz-adv-x="1692" d="M254 578q18 15 25.5 83.5t7.5 282.5v113q0 133 -7.5 177.5t-25.5 57.5l143 35q-10 -315 -10 -461.5t7 -208.5t26 -79h-166zM334 -25l921 1362h103l-922 -1362h-102zM1069 0l195 215q192 215 192 328q0 64 -43 101.5t-128 37.5t-175 -68v9q0 56 64 91.5t166.5 35.5 t163.5 -48.5t61 -117t-31 -127.5t-96 -127l-248 -260l276 4q75 0 115 20v-12q0 -16 -22 -82h-490z" />
<glyph unicode="&#xbe;" horiz-adv-x="1692" d="M80 677q71 -54 160.5 -54t141.5 45.5t52 120.5t-57.5 127.5t-165.5 74.5q192 53 192 164q0 53 -36.5 83t-103 30t-132.5 -41q0 100 197 100q81 0 132.5 -39.5t51.5 -101.5q0 -138 -182 -189q221 -63 221 -219q0 -90 -77 -152.5t-182 -62.5q-210 0 -212 114zM332 -25 l921 1362h103l-922 -1362h-102zM1036 258q263 319 428 492h54v-437h30q61 0 111 4q-14 -30 -42.5 -42.5t-98.5 -14.5v-39q0 -124 5.5 -166.5t20.5 -54.5h-155q26 22 26 221v37h-379zM1141 313h276l4 332z" />
<glyph unicode="&#xbf;" horiz-adv-x="721" d="M47 296q0 155 183 374q113 132 163.5 225.5t77.5 179.5q18 -66 18 -137q0 -144 -112 -294q-16 -22 -63 -86q-95 -131 -95 -239.5t60 -168.5t137 -60q141 0 229 82l-12 -113q-110 -84 -262 -84t-238 83t-86 238zM313 1196l121 141l158 -82l-131 -141z" />
<glyph unicode="&#xc0;" horiz-adv-x="1241" d="M-63 0q183 221 385 694q87 203 143.5 363t56.5 191t-16 65h254q310 -1031 508 -1313h-224l-206 569h-478l-90 -220q-82 -197 -82 -286q0 -27 10 -63h-261zM389 1796h178q75 -172 209 -350q-226 49 -387 350zM393 645h414l-193 529z" />
<glyph unicode="&#xc1;" horiz-adv-x="1241" d="M-63 0q183 221 385 694q87 203 143.5 363t56.5 191t-16 65h254q310 -1031 508 -1313h-224l-206 569h-478l-90 -220q-82 -197 -82 -286q0 -27 10 -63h-261zM393 645h414l-193 529zM502 1446q135 182 209 350h178q-82 -153 -176 -238t-211 -112z" />
<glyph unicode="&#xc2;" horiz-adv-x="1241" d="M-63 0q183 221 385 694q87 203 143.5 363t56.5 191t-16 65h254q310 -1031 508 -1313h-224l-206 569h-478l-90 -220q-82 -197 -82 -286q0 -27 10 -63h-261zM352 1446q143 227 197 350h178q58 -132 197 -350h-90q-107 109 -195 243q-94 -140 -195 -243h-92zM393 645h414 l-193 529z" />
<glyph unicode="&#xc3;" horiz-adv-x="1241" d="M-63 0q183 221 385 694q87 203 143.5 363t56.5 191t-16 65h254q310 -1031 508 -1313h-224l-206 569h-478l-90 -220q-82 -197 -82 -286q0 -27 10 -63h-261zM348 1505q43 186 197 186q27 0 61 -10l79 -27q34 -10 60 -10q70 0 97 70h88q-49 -191 -199 -191q-37 0 -66 11 l-79 26q-24 8 -53 8q-69 0 -97 -63h-88zM393 645h414l-193 529z" />
<glyph unicode="&#xc4;" horiz-adv-x="1241" d="M-63 0q183 221 385 694q87 203 143.5 363t56.5 191t-16 65h254q310 -1031 508 -1313h-224l-206 569h-478l-90 -220q-82 -197 -82 -286q0 -27 10 -63h-261zM356 1605l142 121l102 -123l-143 -119zM393 645h414l-193 529zM676 1605l143 121l103 -123l-144 -119z" />
<glyph unicode="&#xc5;" horiz-adv-x="1241" d="M-63 0q183 221 385 694q87 203 143.5 363t56.5 191t-16 65h254q310 -1031 508 -1313h-224l-206 569h-478l-90 -220q-82 -197 -82 -286q0 -27 10 -63h-261zM389 1628.5q0 104.5 71.5 176t175.5 71.5t176.5 -72.5t72.5 -176t-72 -175.5t-176.5 -72t-176 72t-71.5 176.5z M393 645h414l-193 529zM496 1626.5q0 -59.5 41.5 -100.5t101.5 -41t100.5 40.5t40.5 100.5t-41 101.5t-100.5 41.5t-101 -41.5t-41.5 -101z" />
<glyph unicode="&#xc6;" horiz-adv-x="1651" d="M-96 0q78 84 173.5 234.5t258.5 451.5q274 507 274 563q0 31 -22 64h293l518 6l71 -2l17 -193q-24 63 -96.5 88t-276.5 25h-115q-18 -86 -18 -430v-68q50 -4 165 -4q220 0 345 23q-56 -65 -148.5 -92t-308.5 -27l-53 2v-133q0 -346 18 -432h119q203 0 305 32.5t158 108.5 l-35 -205q-84 -16 -205 -16l-419 4h-168q53 64 53 502h-461l-80 -148q-104 -197 -104 -286q0 -40 14 -68h-272zM385 578h422q-2 102 -2 266v151q0 153 -9 199.5t-32 46.5q-18 0 -33 -15.5t-43 -68.5z" />
<glyph unicode="&#xc7;" horiz-adv-x="1214" d="M76 658.5q0 309.5 185 494t511 184.5l305 -24l-12 -281q-88 215 -311.5 215t-349 -145t-125.5 -404t137.5 -415t367.5 -156q224 0 367 162q-36 -143 -161.5 -228.5t-301.5 -85.5q-268 0 -440 187t-172 496.5zM414 -317q116 -56 245.5 -56t129.5 88q0 95 -135 95 q-16 0 -58 -3v193h72v-106h23q227 0 227 -177q0 -182 -248 -182q-133 0 -191.5 33.5t-64.5 114.5z" />
<glyph unicode="&#xc8;" horiz-adv-x="1014" d="M119 0q28 30 39.5 138t11.5 462v84q0 386 -11.5 492.5t-39.5 136.5h127l518 6l72 -2l16 -193q-24 63 -96.5 88t-276.5 25h-114q-19 -82 -19 -430v-68q50 -4 165 -4q220 0 345 23q-56 -65 -148.5 -92t-308.5 -27l-53 2v-133q0 -350 19 -432h118q203 0 305 32.5t158 108.5 l-35 -205q-82 -16 -204 -16l-420 4h-168zM231 1796h178q75 -172 209 -350q-226 49 -387 350z" />
<glyph unicode="&#xc9;" horiz-adv-x="1014" d="M119 0q28 30 39.5 138t11.5 462v84q0 386 -11.5 492.5t-39.5 136.5h127l518 6l72 -2l16 -193q-24 63 -96.5 88t-276.5 25h-114q-19 -82 -19 -430v-68q50 -4 165 -4q220 0 345 23q-56 -65 -148.5 -92t-308.5 -27l-53 2v-133q0 -350 19 -432h118q203 0 305 32.5t158 108.5 l-35 -205q-82 -16 -204 -16l-420 4h-168zM344 1446q135 182 209 350h178q-82 -153 -176 -238t-211 -112z" />
<glyph unicode="&#xca;" horiz-adv-x="1014" d="M119 0q28 30 39.5 138t11.5 462v84q0 386 -11.5 492.5t-39.5 136.5h127l518 6l72 -2l16 -193q-24 63 -96.5 88t-276.5 25h-114q-19 -82 -19 -430v-68q50 -4 165 -4q220 0 345 23q-56 -65 -148.5 -92t-308.5 -27l-53 2v-133q0 -350 19 -432h118q203 0 305 32.5t158 108.5 l-35 -205q-82 -16 -204 -16l-420 4h-168zM194 1446q143 227 197 350h178q58 -132 197 -350h-90q-107 109 -195 243q-94 -140 -195 -243h-92z" />
<glyph unicode="&#xcb;" horiz-adv-x="1014" d="M119 0q28 30 39.5 138t11.5 462v84q0 386 -11.5 492.5t-39.5 136.5h127l518 6l72 -2l16 -193q-24 63 -96.5 88t-276.5 25h-114q-19 -82 -19 -430v-68q50 -4 165 -4q220 0 345 23q-56 -65 -148.5 -92t-308.5 -27l-53 2v-133q0 -350 19 -432h118q203 0 305 32.5t158 108.5 l-35 -205q-82 -16 -204 -16l-420 4h-168zM198 1605l142 121l102 -123l-143 -119zM518 1605l143 121l103 -123l-144 -119z" />
<glyph unicode="&#xcc;" horiz-adv-x="516" d="M8 1796h178q75 -172 209 -350q-226 49 -387 350zM119 0q28 30 39.5 138t11.5 462v84q0 386 -11.5 492.5t-39.5 136.5h278q-28 -29 -39.5 -133t-11.5 -443v-159q0 -340 11.5 -444.5t39.5 -133.5h-278z" />
<glyph unicode="&#xcd;" horiz-adv-x="516" d="M119 0q28 30 39.5 138t11.5 462v84q0 386 -11.5 492.5t-39.5 136.5h278q-28 -29 -39.5 -133t-11.5 -443v-159q0 -340 11.5 -444.5t39.5 -133.5h-278zM121 1446q135 182 209 350h178q-82 -153 -176 -238t-211 -112z" />
<glyph unicode="&#xce;" horiz-adv-x="516" d="M-29 1446q143 227 197 350h178q58 -132 197 -350h-90q-107 109 -195 243q-94 -140 -195 -243h-92zM119 0q28 30 39.5 138t11.5 462v84q0 386 -11.5 492.5t-39.5 136.5h278q-28 -29 -39.5 -133t-11.5 -443v-159q0 -340 11.5 -444.5t39.5 -133.5h-278z" />
<glyph unicode="&#xcf;" horiz-adv-x="516" d="M-25 1605l142 121l102 -123l-143 -119zM119 0q28 30 39.5 138t11.5 462v84q0 386 -11.5 492.5t-39.5 136.5h278q-28 -29 -39.5 -133t-11.5 -443v-159q0 -340 11.5 -444.5t39.5 -133.5h-278zM295 1605l143 121l103 -123l-144 -119z" />
<glyph unicode="&#xd0;" horiz-adv-x="1450" d="M47 659v84h170v56q0 283 -11.5 382.5t-39.5 131.5h149q90 0 241 12t214 12q282 0 443 -165.5t161 -454.5q0 -336 -193 -531.5t-524 -195.5l-352 10h-139q29 31 40 134.5t11 434.5v90h-170zM393 508q0 -261 10 -346q8 -51 55.5 -68.5t182.5 -17.5q250 0 388 150.5t138 431 t-144 436t-409 155.5q-110 0 -204 -20q-17 -89 -17 -422v-64h328v-84h-328v-151z" />
<glyph unicode="&#xd1;" horiz-adv-x="1356" d="M94 0q76 97 76 778q0 315 -16.5 409.5t-59.5 125.5h213q58 0 129 -108q18 -28 52.5 -78.5t235 -356t370.5 -537.5l2 574q0 276 -12 373.5t-42 132.5h195q-30 -28 -41.5 -149.5t-11.5 -491.5v-678h-133q-68 108 -339 500t-454 663l6 -661q2 -238 17.5 -340.5t50.5 -155.5 h-238zM405 1505q43 186 197 186q27 0 61 -10l79 -27q34 -10 60 -10q70 0 97 70h88q-49 -191 -199 -191q-37 0 -66 11l-79 26q-24 8 -53 8q-69 0 -97 -63h-88z" />
<glyph unicode="&#xd2;" horiz-adv-x="1421" d="M76 645q0 329 170 510.5t491 181.5q609 0 609 -643q0 -327 -182 -523t-478.5 -196t-453 170.5t-156.5 499.5zM283 673.5q0 -277.5 120.5 -438.5t322.5 -161t308.5 144.5t106.5 419t-114 441t-315 166.5t-315 -147t-114 -424.5zM461 1796h178q75 -172 209 -350 q-226 49 -387 350z" />
<glyph unicode="&#xd3;" horiz-adv-x="1421" d="M76 645q0 329 170 510.5t491 181.5q609 0 609 -643q0 -327 -182 -523t-478.5 -196t-453 170.5t-156.5 499.5zM283 673.5q0 -277.5 120.5 -438.5t322.5 -161t308.5 144.5t106.5 419t-114 441t-315 166.5t-315 -147t-114 -424.5zM574 1446q135 182 209 350h178 q-82 -153 -176 -238t-211 -112z" />
<glyph unicode="&#xd4;" horiz-adv-x="1421" d="M76 645q0 329 170 510.5t491 181.5q609 0 609 -643q0 -327 -182 -523t-478.5 -196t-453 170.5t-156.5 499.5zM283 673.5q0 -277.5 120.5 -438.5t322.5 -161t308.5 144.5t106.5 419t-114 441t-315 166.5t-315 -147t-114 -424.5zM424 1446q143 227 197 350h178 q58 -132 197 -350h-90q-107 109 -195 243q-94 -140 -195 -243h-92z" />
<glyph unicode="&#xd5;" horiz-adv-x="1421" d="M76 645q0 329 170 510.5t491 181.5q609 0 609 -643q0 -327 -182 -523t-478.5 -196t-453 170.5t-156.5 499.5zM283 673.5q0 -277.5 120.5 -438.5t322.5 -161t308.5 144.5t106.5 419t-114 441t-315 166.5t-315 -147t-114 -424.5zM420 1505q43 186 197 186q27 0 61 -10 l79 -27q34 -10 60 -10q70 0 97 70h88q-49 -191 -199 -191q-37 0 -66 11l-79 26q-24 8 -53 8q-69 0 -97 -63h-88z" />
<glyph unicode="&#xd6;" horiz-adv-x="1421" d="M76 645q0 329 170 510.5t491 181.5q609 0 609 -643q0 -327 -182 -523t-478.5 -196t-453 170.5t-156.5 499.5zM283 673.5q0 -277.5 120.5 -438.5t322.5 -161t308.5 144.5t106.5 419t-114 441t-315 166.5t-315 -147t-114 -424.5zM428 1605l142 121l102 -123l-143 -119z M748 1605l143 121l103 -123l-144 -119z" />
<glyph unicode="&#xd7;" horiz-adv-x="1706" d="M301 135l475 475l-475 477l80 82l477 -477l475 477l82 -82l-475 -477l475 -475l-82 -82l-475 475l-477 -475z" />
<glyph unicode="&#xd8;" horiz-adv-x="1421" d="M25 -61l194 223q-143 171 -143 467q0 344 170 526t491 182q257 0 404 -114l131 151h127l-189 -217q136 -175 136 -483.5t-182 -503.5t-486 -195q-126 0 -217.5 29.5t-173.5 93.5l-137 -159h-125zM283 682q0 -201 69 -365l670 766q-107 162 -309 162t-316 -148t-114 -415z M406 233q126 -159 324 -159t304.5 144.5t106.5 402.5q0 217 -70 376z" />
<glyph unicode="&#xd9;" horiz-adv-x="1346" d="M119 1313h278q-30 -28 -41.5 -154.5t-11.5 -556.5q0 -315 71 -415.5t251 -100.5t256.5 125t76.5 488t-11 473.5t-40 140.5h281q-30 -30 -41.5 -140.5t-11.5 -515.5t11.5 -516t41.5 -141h-225l6 193q-64 -105 -174 -161.5t-250 -56.5q-217 0 -317.5 105.5t-100.5 333.5 l2 243q0 404 -11.5 514.5t-39.5 141.5zM424 1796h178q75 -172 209 -350q-226 49 -387 350z" />
<glyph unicode="&#xda;" horiz-adv-x="1346" d="M119 1313h278q-30 -28 -41.5 -154.5t-11.5 -556.5q0 -315 71 -415.5t251 -100.5t256.5 125t76.5 488t-11 473.5t-40 140.5h281q-30 -30 -41.5 -140.5t-11.5 -515.5t11.5 -516t41.5 -141h-225l6 193q-64 -105 -174 -161.5t-250 -56.5q-217 0 -317.5 105.5t-100.5 333.5 l2 243q0 404 -11.5 514.5t-39.5 141.5zM537 1446q135 182 209 350h178q-82 -153 -176 -238t-211 -112z" />
<glyph unicode="&#xdb;" horiz-adv-x="1346" d="M119 1313h278q-30 -28 -41.5 -154.5t-11.5 -556.5q0 -315 71 -415.5t251 -100.5t256.5 125t76.5 488t-11 473.5t-40 140.5h281q-30 -30 -41.5 -140.5t-11.5 -515.5t11.5 -516t41.5 -141h-225l6 193q-64 -105 -174 -161.5t-250 -56.5q-217 0 -317.5 105.5t-100.5 333.5 l2 243q0 404 -11.5 514.5t-39.5 141.5zM387 1446q143 227 197 350h178q58 -132 197 -350h-90q-107 109 -195 243q-94 -140 -195 -243h-92z" />
<glyph unicode="&#xdc;" horiz-adv-x="1346" d="M119 1313h278q-30 -28 -41.5 -154.5t-11.5 -556.5q0 -315 71 -415.5t251 -100.5t256.5 125t76.5 488t-11 473.5t-40 140.5h281q-30 -30 -41.5 -140.5t-11.5 -515.5t11.5 -516t41.5 -141h-225l6 193q-64 -105 -174 -161.5t-250 -56.5q-217 0 -317.5 105.5t-100.5 333.5 l2 243q0 404 -11.5 514.5t-39.5 141.5zM391 1605l142 121l102 -123l-143 -119zM711 1605l143 121l103 -123l-144 -119z" />
<glyph unicode="&#xdd;" horiz-adv-x="995" d="M-29 1313h166q63 0 95 -24.5t80 -122.5q96 -198 204 -533l187 343q102 191 102 243.5t-37 93.5h262q-294 -438 -379 -600q-47 -94 -67.5 -194.5t-20.5 -309.5q0 -119 41 -209h-268q53 96 53 297t-52 371.5t-185 400.5q-102 176 -181 244zM361 1446q135 182 209 350h178 q-82 -153 -176 -238t-211 -112z" />
<glyph unicode="&#xde;" horiz-adv-x="1014" d="M119 0q28 30 39.5 138t11.5 462v84q0 386 -11.5 492.5t-39.5 136.5h278q-47 -60 -47 -232l2 -28q160 16 240 16q188 0 286.5 -90.5t98.5 -267t-106 -290.5t-273 -114q-119 0 -205 45h21q167 0 261.5 93.5t94.5 261.5q0 280 -268 280q-72 0 -152 -16q-4 -134 -4 -314v-79 q0 -340 11.5 -444.5t39.5 -133.5h-278z" />
<glyph unicode="&#xdf;" horiz-adv-x="977" d="M55 915h82v105q0 222 26 285q54 131 304 131q133 0 211 -65.5t78 -174.5q0 -121 -115 -205q-17 -11 -47 -31q-72 -45 -72 -73q0 -22 77.5 -82.5t119.5 -97.5q108 -97 152 -183t44 -194q0 -157 -88 -256t-229 -99q-88 0 -146.5 26t-58.5 67q0 49 17 145q19 -78 68.5 -122 t121 -44t117 64.5t45.5 162.5q0 186 -146 316q-15 14 -44 39q-181 161 -181 221q0 26 15.5 47.5t78 67.5t89 91.5t26.5 124.5t-45.5 137t-124.5 58t-112 -65t-33 -299v-752q0 -139 9.5 -190.5t33.5 -69.5h-234q24 18 33.5 69.5t9.5 190.5v584q-39 0 -81 6z" />
<glyph unicode="&#xe0;" horiz-adv-x="829" d="M41 187q0 83 63 142t232 133.5t197 109.5t28 123q0 177 -172 177q-86 0 -125 -55q-8 -12 -22 -44q-38 -91 -99 -91q-33 0 -54 21t-21 55q0 79 106 129.5t262 50.5t215.5 -45.5t59.5 -151.5l-11 -399q0 -300 70 -342l-184 -12q-23 61 -27 159q-83 -172 -260 -172 q-106 0 -182 64.5t-76 147.5zM176 1399h178q75 -172 209 -350q-226 49 -387 350zM209 234.5q0 -64.5 44 -101.5t127 -37q175 0 175 252v144q-230 -92 -288 -142.5t-58 -115z" />
<glyph unicode="&#xe1;" horiz-adv-x="829" d="M41 187q0 83 63 142t232 133.5t197 109.5t28 123q0 177 -172 177q-86 0 -125 -55q-8 -12 -22 -44q-38 -91 -99 -91q-33 0 -54 21t-21 55q0 79 106 129.5t262 50.5t215.5 -45.5t59.5 -151.5l-11 -399q0 -300 70 -342l-184 -12q-23 61 -27 159q-83 -172 -260 -172 q-106 0 -182 64.5t-76 147.5zM209 234.5q0 -64.5 44 -101.5t127 -37q175 0 175 252v144q-230 -92 -288 -142.5t-58 -115zM289 1049q135 182 209 350h178q-82 -153 -176 -238t-211 -112z" />
<glyph unicode="&#xe2;" horiz-adv-x="829" d="M41 187q0 83 63 142t232 133.5t197 109.5t28 123q0 177 -172 177q-86 0 -125 -55q-8 -12 -22 -44q-38 -91 -99 -91q-33 0 -54 21t-21 55q0 79 106 129.5t262 50.5t215.5 -45.5t59.5 -151.5l-11 -399q0 -300 70 -342l-184 -12q-23 61 -27 159q-83 -172 -260 -172 q-106 0 -182 64.5t-76 147.5zM139 1049q143 227 197 350h178q58 -132 197 -350h-90q-107 109 -195 243q-94 -140 -195 -243h-92zM209 234.5q0 -64.5 44 -101.5t127 -37q175 0 175 252v144q-230 -92 -288 -142.5t-58 -115z" />
<glyph unicode="&#xe3;" horiz-adv-x="829" d="M41 187q0 83 63 142t232 133.5t197 109.5t28 123q0 177 -172 177q-86 0 -125 -55q-8 -12 -22 -44q-38 -91 -99 -91q-33 0 -54 21t-21 55q0 79 106 129.5t262 50.5t215.5 -45.5t59.5 -151.5l-11 -399q0 -300 70 -342l-184 -12q-23 61 -27 159q-83 -172 -260 -172 q-106 0 -182 64.5t-76 147.5zM135 1108q43 186 197 186q27 0 61 -10l79 -27q34 -10 60 -10q70 0 97 70h88q-49 -191 -199 -191q-37 0 -66 11l-79 26q-24 8 -53 8q-69 0 -97 -63h-88zM209 234.5q0 -64.5 44 -101.5t127 -37q175 0 175 252v144q-230 -92 -288 -142.5t-58 -115z " />
<glyph unicode="&#xe4;" horiz-adv-x="829" d="M41 187q0 83 63 142t232 133.5t197 109.5t28 123q0 177 -172 177q-86 0 -125 -55q-8 -12 -22 -44q-38 -91 -99 -91q-33 0 -54 21t-21 55q0 79 106 129.5t262 50.5t215.5 -45.5t59.5 -151.5l-11 -399q0 -300 70 -342l-184 -12q-23 61 -27 159q-83 -172 -260 -172 q-106 0 -182 64.5t-76 147.5zM143 1208l142 121l102 -123l-143 -119zM209 234.5q0 -64.5 44 -101.5t127 -37q175 0 175 252v144q-230 -92 -288 -142.5t-58 -115zM463 1208l143 121l103 -123l-144 -119z" />
<glyph unicode="&#xe5;" horiz-adv-x="829" d="M41 187q0 83 63 142t232 133.5t197 109.5t28 123q0 177 -172 177q-86 0 -125 -55q-8 -12 -22 -44q-38 -91 -99 -91q-33 0 -54 21t-21 55q0 79 106 129.5t262 50.5t215.5 -45.5t59.5 -151.5l-11 -399q0 -300 70 -342l-184 -12q-23 61 -27 159q-83 -172 -260 -172 q-106 0 -182 64.5t-76 147.5zM188 1253.5q0 104.5 72 176t175.5 71.5t176 -72.5t72.5 -176t-71.5 -175t-176 -71.5t-176.5 71.5t-72 176zM209 234.5q0 -64.5 44 -101.5t127 -37q175 0 175 252v144q-230 -92 -288 -142.5t-58 -115zM295 1253q0 -60 41 -101.5t100.5 -41.5 t101.5 41.5t42 101t-42 101t-102 41.5t-100.5 -41t-40.5 -101z" />
<glyph unicode="&#xe6;" horiz-adv-x="1337" d="M41 185.5q0 84.5 63 143.5t232 133.5t197 109.5t28 122.5t-41 131.5t-131 44q-88 0 -125 -53q-8 -12 -22 -44q-38 -91 -99 -91q-33 0 -54 21t-21 55q0 79 106 129.5t291 50.5t225 -86q104 86 254.5 86t239 -76t88.5 -194q0 -48 -54 -64t-244.5 -16t-264.5 4 q-15 -51 -15 -117q0 -172 81.5 -271.5t224 -99.5t257.5 119v-24q0 -81 -100.5 -152.5t-224 -71.5t-211 55t-129.5 154q-35 -98 -109 -153.5t-180 -55.5t-184 63t-78 147.5zM209 234.5q0 -64.5 44 -101.5t127 -37q175 0 175 252v144q-230 -92 -288 -142.5t-58 -115zM721 651 h16l140 -4h26q136 0 167.5 14.5t31.5 66.5t-49 97t-125.5 45t-136.5 -61t-70 -158z" />
<glyph unicode="&#xe7;" horiz-adv-x="834" d="M61 446.5q0 211.5 136.5 351.5t351.5 140q112 0 199 -25l-7 -215q-54 168 -197 168t-228 -114t-85 -288t85 -275t233.5 -101t234.5 115v-4q0 -102 -82.5 -163t-218.5 -61q-182 0 -302 130t-120 341.5zM215 -317q116 -56 245.5 -56t129.5 88q0 95 -135 95q-16 0 -58 -3 v193h72v-106h23q227 0 227 -177q0 -182 -248 -182q-133 0 -191.5 33.5t-64.5 114.5z" />
<glyph unicode="&#xe8;" horiz-adv-x="872" d="M61 455q0 221 116 352t310 131q142 0 231 -76.5t89 -193.5q0 -48 -54 -64t-244.5 -16t-264.5 4q-15 -51 -15 -117q0 -172 81.5 -271.5t223.5 -99.5t259 119v-24q0 -82 -100 -153t-228 -71q-184 0 -294 129.5t-110 350.5zM225 1399h178q75 -172 209 -350q-226 49 -387 350 zM256 651h18l138 -4h26q136 0 167.5 14.5t31.5 66t-48.5 96t-125.5 44.5t-136.5 -60.5t-70.5 -156.5z" />
<glyph unicode="&#xe9;" horiz-adv-x="872" d="M61 455q0 221 116 352t310 131q142 0 231 -76.5t89 -193.5q0 -48 -54 -64t-244.5 -16t-264.5 4q-15 -51 -15 -117q0 -172 81.5 -271.5t223.5 -99.5t259 119v-24q0 -82 -100 -153t-228 -71q-184 0 -294 129.5t-110 350.5zM256 651h18l138 -4h26q136 0 167.5 14.5t31.5 66 t-48.5 96t-125.5 44.5t-136.5 -60.5t-70.5 -156.5zM338 1049q135 182 209 350h178q-82 -153 -176 -238t-211 -112z" />
<glyph unicode="&#xea;" horiz-adv-x="872" d="M61 455q0 221 116 352t310 131q142 0 231 -76.5t89 -193.5q0 -48 -54 -64t-244.5 -16t-264.5 4q-15 -51 -15 -117q0 -172 81.5 -271.5t223.5 -99.5t259 119v-24q0 -82 -100 -153t-228 -71q-184 0 -294 129.5t-110 350.5zM188 1049q143 227 197 350h178q58 -132 197 -350 h-90q-107 109 -195 243q-94 -140 -195 -243h-92zM256 651h18l138 -4h26q136 0 167.5 14.5t31.5 66t-48.5 96t-125.5 44.5t-136.5 -60.5t-70.5 -156.5z" />
<glyph unicode="&#xeb;" horiz-adv-x="872" d="M61 455q0 221 116 352t310 131q142 0 231 -76.5t89 -193.5q0 -48 -54 -64t-244.5 -16t-264.5 4q-15 -51 -15 -117q0 -172 81.5 -271.5t223.5 -99.5t259 119v-24q0 -82 -100 -153t-228 -71q-184 0 -294 129.5t-110 350.5zM192 1208l142 121l102 -123l-143 -119zM256 651 h18l138 -4h26q136 0 167.5 14.5t31.5 66t-48.5 96t-125.5 44.5t-136.5 -60.5t-70.5 -156.5zM512 1208l143 121l103 -123l-144 -119z" />
<glyph unicode="&#xec;" horiz-adv-x="422" d="M-39 1399h178q75 -172 209 -350q-226 49 -387 350zM94 0q24 18 33.5 69.5t9.5 190.5v311q0 204 -9.5 266.5t-32.5 77.5q114 4 200 22q-10 -78 -10 -564v-117q0 -134 9.5 -185.5t33.5 -70.5h-234z" />
<glyph unicode="&#xed;" horiz-adv-x="422" d="M74 1049q135 182 209 350h178q-82 -153 -176 -238t-211 -112zM94 0q24 18 33.5 69.5t9.5 190.5v311q0 204 -9.5 266.5t-32.5 77.5q114 4 200 22q-10 -78 -10 -564v-117q0 -134 9.5 -185.5t33.5 -70.5h-234z" />
<glyph unicode="&#xee;" horiz-adv-x="422" d="M-76 1049q143 227 197 350h178q58 -132 197 -350h-90q-107 109 -195 243q-94 -140 -195 -243h-92zM94 0q24 18 33.5 69.5t9.5 190.5v311q0 204 -9.5 266.5t-32.5 77.5q114 4 200 22q-10 -78 -10 -564v-117q0 -134 9.5 -185.5t33.5 -70.5h-234z" />
<glyph unicode="&#xef;" horiz-adv-x="422" d="M-72 1208l142 121l102 -123l-143 -119zM94 0q24 18 33.5 69.5t9.5 190.5v311q0 204 -9.5 266.5t-32.5 77.5q114 4 200 22q-10 -78 -10 -564v-117q0 -134 9.5 -185.5t33.5 -70.5h-234zM248 1208l143 121l103 -123l-144 -119z" />
<glyph unicode="&#xf0;" horiz-adv-x="995" d="M61 440q0 221 123.5 357.5t321.5 136.5q83 0 147 -35q-53 119 -174 277l-313 -132l-31 72l295 123q-63 80 -219 197q167 -11 321 -156l287 121l33 -68l-256 -108q338 -364 338 -717q0 -245 -122.5 -389t-326 -144t-314 122t-110.5 343zM227 476q0 -192 81 -307.5 t218 -115.5q242 0 242 402q0 181 -78.5 294t-203.5 113t-192 -97t-67 -289z" />
<glyph unicode="&#xf1;" horiz-adv-x="938" d="M94 0q24 18 33.5 69.5t9.5 190.5v260q0 222 -9.5 290t-33.5 85l187 20q10 -44 10 -102v-27q61 80 129.5 116t159.5 36q130 0 180.5 -86.5t50.5 -378.5v-266q0 -107 9.5 -147t33.5 -60h-200q10 224 10 510v49q0 172 -38.5 218t-144 46t-151 -62.5t-45.5 -303.5v-197 q0 -139 9.5 -190.5t33.5 -69.5h-234zM178 1108q43 186 197 186q27 0 61 -10l79 -27q34 -10 60 -10q70 0 97 70h88q-49 -191 -199 -191q-37 0 -66 11l-79 26q-24 8 -53 8q-69 0 -97 -63h-88z" />
<glyph unicode="&#xf2;" horiz-adv-x="995" d="M61 441.5q0 222.5 128 359.5t327.5 137t308.5 -114.5t109 -337.5t-122.5 -367t-326 -144t-314 122t-110.5 344.5zM227 476q0 -192 81 -307.5t218 -115.5q242 0 242 402q0 181 -78.5 294t-203.5 113t-192 -97t-67 -289zM248 1399h178q75 -172 209 -350q-226 49 -387 350z " />
<glyph unicode="&#xf3;" horiz-adv-x="995" d="M61 441.5q0 222.5 128 359.5t327.5 137t308.5 -114.5t109 -337.5t-122.5 -367t-326 -144t-314 122t-110.5 344.5zM227 476q0 -192 81 -307.5t218 -115.5q242 0 242 402q0 181 -78.5 294t-203.5 113t-192 -97t-67 -289zM361 1049q135 182 209 350h178q-82 -153 -176 -238 t-211 -112z" />
<glyph unicode="&#xf4;" horiz-adv-x="995" d="M61 441.5q0 222.5 128 359.5t327.5 137t308.5 -114.5t109 -337.5t-122.5 -367t-326 -144t-314 122t-110.5 344.5zM211 1049q143 227 197 350h178q58 -132 197 -350h-90q-107 109 -195 243q-94 -140 -195 -243h-92zM227 476q0 -192 81 -307.5t218 -115.5q242 0 242 402 q0 181 -78.5 294t-203.5 113t-192 -97t-67 -289z" />
<glyph unicode="&#xf5;" horiz-adv-x="995" d="M61 441.5q0 222.5 128 359.5t327.5 137t308.5 -114.5t109 -337.5t-122.5 -367t-326 -144t-314 122t-110.5 344.5zM207 1108q43 186 197 186q27 0 61 -10l79 -27q34 -10 60 -10q70 0 97 70h88q-49 -191 -199 -191q-37 0 -66 11l-79 26q-24 8 -53 8q-69 0 -97 -63h-88z M227 476q0 -192 81 -307.5t218 -115.5q242 0 242 402q0 181 -78.5 294t-203.5 113t-192 -97t-67 -289z" />
<glyph unicode="&#xf6;" horiz-adv-x="995" d="M61 441.5q0 222.5 128 359.5t327.5 137t308.5 -114.5t109 -337.5t-122.5 -367t-326 -144t-314 122t-110.5 344.5zM215 1208l142 121l102 -123l-143 -119zM227 476q0 -192 81 -307.5t218 -115.5q242 0 242 402q0 181 -78.5 294t-203.5 113t-192 -97t-67 -289zM535 1208 l143 121l103 -123l-144 -119z" />
<glyph unicode="&#xf7;" horiz-adv-x="1706" d="M254 553v117h1198v-117h-1198zM739 250q0 48 34 81.5t81 33.5t81 -34t34 -81t-33.5 -81t-81.5 -34t-81.5 33.5t-33.5 81.5zM739 970.5q0 47.5 34 81t81.5 33.5t81 -33.5t33.5 -81t-33.5 -81t-82 -33.5t-81.5 33.5t-33 81z" />
<glyph unicode="&#xf8;" horiz-adv-x="995" d="M8 -109l164 209q-111 138 -111 350.5t127 350t334 137.5q150 0 250 -70l111 142h96l-150 -191q105 -129 105 -311q0 -246 -122 -389.5t-331 -143.5q-153 0 -252 74l-125 -158h-96zM221 496q0 -140 51 -269l414 531q-67 104 -196 104t-199 -95.5t-70 -270.5zM313 160 q91 -107 213 -107q250 0 250 402q0 123 -47 237z" />
<glyph unicode="&#xf9;" horiz-adv-x="958" d="M89 915l147 23q28 0 35.5 -12.5t7.5 -59.5l-5 -475v-12q0 -150 45 -214.5t152 -64.5t154 78.5t47 290.5v238q0 184 -41 208l200 23q-12 -187 -12 -557v-115q0 -139 10 -192t35 -74l-162 -12h-10q-8 0 -8 10v8l-6 150q-47 -86 -119.5 -133.5t-154.5 -47.5q-166 0 -236 131 q-22 44 -31.5 108t-9.5 210v39l4 373q0 59 -42 79zM229 1399h178q75 -172 209 -350q-226 49 -387 350z" />
<glyph unicode="&#xfa;" horiz-adv-x="958" d="M89 915l147 23q28 0 35.5 -12.5t7.5 -59.5l-5 -475v-12q0 -150 45 -214.5t152 -64.5t154 78.5t47 290.5v238q0 184 -41 208l200 23q-12 -187 -12 -557v-115q0 -139 10 -192t35 -74l-162 -12h-10q-8 0 -8 10v8l-6 150q-47 -86 -119.5 -133.5t-154.5 -47.5q-166 0 -236 131 q-22 44 -31.5 108t-9.5 210v39l4 373q0 59 -42 79zM342 1049q135 182 209 350h178q-82 -153 -176 -238t-211 -112z" />
<glyph unicode="&#xfb;" horiz-adv-x="958" d="M89 915l147 23q28 0 35.5 -12.5t7.5 -59.5l-5 -475v-12q0 -150 45 -214.5t152 -64.5t154 78.5t47 290.5v238q0 184 -41 208l200 23q-12 -187 -12 -557v-115q0 -139 10 -192t35 -74l-162 -12h-10q-8 0 -8 10v8l-6 150q-47 -86 -119.5 -133.5t-154.5 -47.5q-166 0 -236 131 q-22 44 -31.5 108t-9.5 210v39l4 373q0 59 -42 79zM192 1049q143 227 197 350h178q58 -132 197 -350h-90q-107 109 -195 243q-94 -140 -195 -243h-92z" />
<glyph unicode="&#xfc;" horiz-adv-x="958" d="M89 915l147 23q28 0 35.5 -12.5t7.5 -59.5l-5 -475v-12q0 -150 45 -214.5t152 -64.5t154 78.5t47 290.5v238q0 184 -41 208l200 23q-12 -187 -12 -557v-115q0 -139 10 -192t35 -74l-162 -12h-10q-8 0 -8 10v8l-6 150q-47 -86 -119.5 -133.5t-154.5 -47.5q-166 0 -236 131 q-22 44 -31.5 108t-9.5 210v39l4 373q0 59 -42 79zM196 1208l142 121l102 -123l-143 -119zM516 1208l143 121l103 -123l-144 -119z" />
<glyph unicode="&#xfd;" horiz-adv-x="772" d="M-305 -498q0 21 20 29t84 8l90 -2q106 0 154 20t105 91t102 172.5t45 158t-50 248t-115.5 384t-90.5 242t-49 58.5l141 17h19q43 0 154 -413q62 -230 104 -376q93 251 147.5 442t54.5 246.5t-18 87.5h213q-65 -75 -202 -439q-64 -171 -103 -269q-182 -462 -320 -633.5 t-309 -171.5q-74 0 -125 30.5t-51 69.5zM250 1049q135 182 209 350h178q-82 -153 -176 -238t-211 -112z" />
<glyph unicode="&#xfe;" horiz-adv-x="973" d="M94 -573q24 30 33.5 115t9.5 311v1169q0 218 -9.5 291.5t-33.5 87.5l201 35q-12 -162 -12 -320q0 -210 2 -298q143 120 281 120t240.5 -130t102.5 -339.5t-162 -351.5t-411 -142q-26 0 -51 5v-37l-2 -123q0 -202 10 -281t35 -112h-234zM274 334q0 -170 39.5 -212t165 -42 t199.5 87.5t74 258.5t-79.5 285t-199.5 114q-44 0 -91 -19.5t-69 -46.5t-30.5 -100.5t-8.5 -265.5v-59z" />
<glyph unicode="&#xff;" horiz-adv-x="772" d="M-305 -498q0 21 20 29t84 8l90 -2q106 0 154 20t105 91t102 172.5t45 158t-50 248t-115.5 384t-90.5 242t-49 58.5l141 17h19q43 0 154 -413q62 -230 104 -376q93 251 147.5 442t54.5 246.5t-18 87.5h213q-65 -75 -202 -439q-64 -171 -103 -269q-182 -462 -320 -633.5 t-309 -171.5q-74 0 -125 30.5t-51 69.5zM104 1208l142 121l102 -123l-143 -119zM424 1208l143 121l103 -123l-144 -119z" />
<glyph unicode="&#x152;" horiz-adv-x="1933" d="M76 643q0 332 176.5 513t505.5 181q37 0 182 -12t254 -12l489 6h9q33 -2 63 -2l17 -193q-24 63 -96.5 88t-276.5 25h-115q-18 -77 -18 -430v-68q50 -4 165 -4q219 0 345 23q-57 -65 -149.5 -92t-307.5 -27l-53 2v-133q0 -355 18 -432h119q203 0 304.5 32.5t158.5 108.5 l-35 -205q-88 -16 -205 -16l-358 4q-107 0 -290.5 -12.5t-260.5 -12.5q-317 0 -479 168t-162 500zM283 676.5q0 -287.5 124.5 -448t354.5 -160.5q182 0 255 73.5t73 284.5v524q0 162 -76.5 231.5t-247.5 69.5q-238 0 -360.5 -143.5t-122.5 -431z" />
<glyph unicode="&#x153;" horiz-adv-x="1554" d="M61 441.5q0 222.5 128 359.5t339 137t320 -145q120 145 323 145q142 0 231 -76.5t89 -193.5q0 -47 -54.5 -63.5t-238 -16.5t-226.5 2l-44 2q-15 -51 -15 -117q0 -172 81.5 -271.5t223.5 -99.5t259 119v-24q0 -81 -101 -152.5t-229 -71.5q-206 0 -318 166 q-127 -166 -337 -166t-320.5 122t-110.5 344.5zM227 476.5q0 -191.5 81 -307.5t216 -116q244 0 244 402q0 181 -78 294t-203.5 113t-192.5 -97t-67 -288.5zM938 651h18l138 -4h26q136 0 167.5 14.5t31.5 66.5t-47.5 96t-124.5 44t-138 -60.5t-71 -156.5z" />
<glyph unicode="&#x178;" horiz-adv-x="995" d="M-29 1313h166q63 0 95 -24.5t80 -122.5q96 -198 204 -533l187 343q102 191 102 243.5t-37 93.5h262q-294 -438 -379 -600q-47 -94 -67.5 -194.5t-20.5 -309.5q0 -119 41 -209h-268q53 96 53 297t-52 371.5t-185 400.5q-102 176 -181 244zM215 1605l142 121l102 -123 l-143 -119zM535 1605l143 121l103 -123l-144 -119z" />
<glyph unicode="&#x2c6;" horiz-adv-x="1024" d="M225 1049q143 227 197 350h178q58 -132 197 -350h-90q-107 109 -195 243q-94 -140 -195 -243h-92z" />
<glyph unicode="&#x2dc;" horiz-adv-x="1024" d="M221 1108q43 186 197 186q27 0 61 -10l79 -27q34 -10 60 -10q70 0 97 70h88q-49 -191 -199 -191q-37 0 -66 11l-79 26q-24 8 -53 8q-69 0 -97 -63h-88z" />
<glyph unicode="&#x2000;" horiz-adv-x="938" />
<glyph unicode="&#x2001;" horiz-adv-x="1876" />
<glyph unicode="&#x2002;" horiz-adv-x="938" />
<glyph unicode="&#x2003;" horiz-adv-x="1876" />
<glyph unicode="&#x2004;" horiz-adv-x="625" />
<glyph unicode="&#x2005;" horiz-adv-x="469" />
<glyph unicode="&#x2006;" horiz-adv-x="312" />
<glyph unicode="&#x2007;" horiz-adv-x="312" />
<glyph unicode="&#x2008;" horiz-adv-x="234" />
<glyph unicode="&#x2009;" horiz-adv-x="375" />
<glyph unicode="&#x200a;" horiz-adv-x="104" />
<glyph unicode="&#x2010;" horiz-adv-x="678" d="M62 412l90 116h464l-88 -122h-432q-26 0 -34 6z" />
<glyph unicode="&#x2011;" horiz-adv-x="678" d="M62 412l90 116h464l-88 -122h-432q-26 0 -34 6z" />
<glyph unicode="&#x2012;" horiz-adv-x="678" d="M62 412l90 116h464l-88 -122h-432q-26 0 -34 6z" />
<glyph unicode="&#x2013;" horiz-adv-x="1024" d="M-39 418l78 98h1024l-78 -98h-1024z" />
<glyph unicode="&#x2014;" horiz-adv-x="2048" d="M-39 418l78 98h2048l-78 -98h-2048z" />
<glyph unicode="&#x2018;" horiz-adv-x="537" d="M170 1110q0 141 162 231q-25 -50 -25 -112.5t76 -165.5l-141 -115q-72 91 -72 162z" />
<glyph unicode="&#x2019;" horiz-adv-x="537" d="M164 1223l141 114q72 -90 72 -161q0 -140 -162 -232q27 60 27 117.5t-78 161.5z" />
<glyph unicode="&#x201a;" horiz-adv-x="537" d="M160 94l141 115q72 -91 72 -162q0 -139 -164 -231q27 58 27 117.5t-76 160.5z" />
<glyph unicode="&#x201c;" horiz-adv-x="840" d="M170 1110q0 141 162 231q-25 -50 -25 -112.5t76 -165.5l-141 -115q-72 91 -72 162zM473 1110q0 139 164 231q-27 -54 -27 -114.5t76 -163.5l-141 -115q-72 91 -72 162z" />
<glyph unicode="&#x201d;" horiz-adv-x="840" d="M164 1223l141 114q72 -90 72 -161q0 -140 -162 -232q27 60 27 117.5t-78 161.5zM467 1223l141 114q74 -93 74 -163q0 -138 -164 -230q27 56 27 115.5t-78 163.5z" />
<glyph unicode="&#x201e;" horiz-adv-x="840" d="M160 94l141 115q72 -91 72 -162q0 -139 -164 -231q27 58 27 117.5t-76 160.5zM463 94l141 115q72 -91 72 -162q0 -139 -164 -231q27 58 27 117.5t-76 160.5z" />
<glyph unicode="&#x2022;" horiz-adv-x="1208" d="M307 762q0 123 87 209t209.5 86t209 -86.5t86.5 -208.5t-87.5 -209.5t-210 -87.5t-208.5 87t-86 210z" />
<glyph unicode="&#x2026;" horiz-adv-x="2048" d="M207 109l166 100l104 -131l-157 -103zM889 109l166 100l104 -131l-157 -103zM1573 109l166 100l104 -131l-157 -103z" />
<glyph unicode="&#x202f;" horiz-adv-x="375" />
<glyph unicode="&#x2039;" horiz-adv-x="569" d="M61 465l447 377q-12 -82 -59 -142l-203 -235l203 -236q45 -51 59 -141z" />
<glyph unicode="&#x203a;" horiz-adv-x="569" d="M61 88q14 90 58 141l203 236l-203 235q-45 51 -57 141l446 -376z" />
<glyph unicode="&#x205f;" horiz-adv-x="469" />
<glyph unicode="&#x2122;" horiz-adv-x="1706" d="M254 1389v67h440v-67h-172v-467h-94v467h-174zM819 922v534h129l160 -405l149 405h132v-534h-82v458l-172 -458h-54l-180 458v-458h-82z" />
<glyph unicode="&#xe000;" horiz-adv-x="1050" d="M0 0v1050h1050v-1050h-1050z" />
</font>
</defs>
</svg>
